<svg width="280" height="280" viewBox="0 0 380 380" fill="none" xmlns="http://www.w3.org/2000/svg"><g id="triangle-avatar-Background">
  <rect width="100%" height="100%" fill="#FFEBA4" />
<g clip-path="url(#clip0)">
<rect width="39.3271" height="42.0773" fill="#494949" fill-opacity="0.3"/>
<rect x="39.3281" width="39.3271" height="42.0773" fill="#8A8A8A" fill-opacity="0.3"/>
<rect x="78.6543" width="39.3271" height="42.0773" fill="#494949" fill-opacity="0.3"/>
<rect x="117.982" width="39.3271" height="42.0773" fill="#494949" fill-opacity="0.3"/>
<rect x="157.309" width="39.3271" height="42.0773" fill="#8A8A8A" fill-opacity="0.3"/>
<rect x="196.637" width="39.3271" height="42.0773" fill="#C4C4C4" fill-opacity="0.3"/>
<rect x="235.964" width="39.3271" height="42.0773" fill="#C4C4C4" fill-opacity="0.3"/>
<rect x="275.291" width="39.3271" height="42.0773" fill="#C4C4C4" fill-opacity="0.3"/>
<rect x="314.618" width="39.3271" height="42.0773" fill="#494949" fill-opacity="0.3"/>
<rect x="353.944" width="39.3271" height="42.0773" fill="#C4C4C4" fill-opacity="0.3"/>
<rect y="42.0773" width="39.3271" height="42.0773" fill="#C4C4C4" fill-opacity="0.3"/>
<rect x="39.3281" y="42.0773" width="39.3271" height="42.0773" fill="#8A8A8A" fill-opacity="0.3"/>
<rect x="78.6543" y="42.0773" width="39.3271" height="42.0773" fill="#8A8A8A" fill-opacity="0.3"/>
<rect x="117.982" y="42.0773" width="39.3271" height="42.0773" fill="#8A8A8A" fill-opacity="0.3"/>
<rect x="157.309" y="42.0773" width="39.3271" height="42.0773" fill="#C4C4C4" fill-opacity="0.3"/>
<rect x="196.637" y="42.0773" width="39.3271" height="42.0773" fill="#8A8A8A" fill-opacity="0.3"/>
<rect x="235.964" y="42.0773" width="39.3271" height="42.0773" fill="#8A8A8A" fill-opacity="0.3"/>
<rect x="275.291" y="42.0773" width="39.3271" height="42.0773" fill="#C4C4C4" fill-opacity="0.3"/>
<rect x="314.618" y="42.0773" width="39.3271" height="42.0773" fill="#8A8A8A" fill-opacity="0.3"/>
<rect x="353.944" y="42.0773" width="39.3271" height="42.0773" fill="#8A8A8A" fill-opacity="0.3"/>
<rect y="84.1545" width="39.3271" height="42.0773" fill="#C4C4C4" fill-opacity="0.3"/>
<rect x="39.3281" y="84.1545" width="39.3271" height="42.0773" fill="#494949" fill-opacity="0.3"/>
<rect x="78.6543" y="84.1545" width="39.3271" height="42.0773" fill="#8A8A8A" fill-opacity="0.3"/>
<rect x="117.982" y="84.1545" width="39.3271" height="42.0773" fill="#C4C4C4" fill-opacity="0.3"/>
<rect x="157.309" y="84.1545" width="39.3271" height="42.0773" fill="#494949" fill-opacity="0.3"/>
<rect x="196.637" y="84.1545" width="39.3271" height="42.0773" fill="#8A8A8A" fill-opacity="0.3"/>
<rect x="235.964" y="84.1545" width="39.3271" height="42.0773" fill="#494949" fill-opacity="0.3"/>
<rect x="275.291" y="84.1545" width="39.3271" height="42.0773" fill="#8A8A8A" fill-opacity="0.3"/>
<rect x="314.618" y="84.1545" width="39.3271" height="42.0773" fill="#C4C4C4" fill-opacity="0.3"/>
<rect x="353.944" y="84.1545" width="39.3271" height="42.0773" fill="#494949" fill-opacity="0.3"/>
<rect y="126.232" width="39.3271" height="42.0773" fill="#C4C4C4" fill-opacity="0.3"/>
<rect x="39.3281" y="126.232" width="39.3271" height="42.0773" fill="#8A8A8A" fill-opacity="0.3"/>
<rect x="78.6543" y="126.232" width="39.3271" height="42.0773" fill="#8A8A8A" fill-opacity="0.3"/>
<rect x="117.982" y="126.232" width="39.3271" height="42.0773" fill="#494949" fill-opacity="0.3"/>
<rect x="157.309" y="126.232" width="39.3271" height="42.0773" fill="#8A8A8A" fill-opacity="0.3"/>
<rect x="196.637" y="126.232" width="39.3271" height="42.0773" fill="#C4C4C4" fill-opacity="0.3"/>
<rect x="235.964" y="126.232" width="39.3271" height="42.0773" fill="#8A8A8A" fill-opacity="0.3"/>
<rect x="275.291" y="126.232" width="39.3271" height="42.0773" fill="#8A8A8A" fill-opacity="0.3"/>
<rect x="314.618" y="126.232" width="39.3271" height="42.0773" fill="#C4C4C4" fill-opacity="0.3"/>
<rect x="353.944" y="126.232" width="39.3271" height="42.0773" fill="#C4C4C4" fill-opacity="0.3"/>
<rect y="168.309" width="39.3271" height="42.0773" fill="#494949" fill-opacity="0.3"/>
<rect x="39.3281" y="168.309" width="39.3271" height="42.0773" fill="#494949" fill-opacity="0.3"/>
<rect x="78.6543" y="168.309" width="39.3271" height="42.0773" fill="#C4C4C4" fill-opacity="0.3"/>
<rect x="117.982" y="168.309" width="39.3271" height="42.0773" fill="#494949" fill-opacity="0.3"/>
<rect x="157.309" y="168.309" width="39.3271" height="42.0773" fill="#C4C4C4" fill-opacity="0.3"/>
<rect x="196.637" y="168.309" width="39.3271" height="42.0773" fill="#C4C4C4" fill-opacity="0.3"/>
<rect x="235.964" y="168.309" width="39.3271" height="42.0773" fill="#8A8A8A" fill-opacity="0.3"/>
<rect x="275.291" y="168.309" width="39.3271" height="42.0773" fill="#494949" fill-opacity="0.3"/>
<rect x="314.618" y="168.309" width="39.3271" height="42.0773" fill="#8A8A8A" fill-opacity="0.3"/>
<rect x="353.944" y="168.309" width="39.3271" height="42.0773" fill="#8A8A8A" fill-opacity="0.3"/>
<rect y="210.386" width="39.3271" height="42.0773" fill="#8A8A8A" fill-opacity="0.3"/>
<rect x="39.3281" y="210.386" width="39.3271" height="42.0773" fill="#494949" fill-opacity="0.3"/>
<rect x="78.6543" y="210.386" width="39.3271" height="42.0773" fill="#494949" fill-opacity="0.3"/>
<rect x="117.982" y="210.386" width="39.3271" height="42.0773" fill="#C4C4C4" fill-opacity="0.3"/>
<rect x="157.309" y="210.386" width="39.3271" height="42.0773" fill="#C4C4C4" fill-opacity="0.3"/>
<rect x="196.637" y="210.386" width="39.3271" height="42.0773" fill="#C4C4C4" fill-opacity="0.3"/>
<rect x="235.964" y="210.386" width="39.3271" height="42.0773" fill="#8A8A8A" fill-opacity="0.3"/>
<rect x="275.291" y="210.386" width="39.3271" height="42.0773" fill="#8A8A8A" fill-opacity="0.3"/>
<rect x="314.618" y="210.386" width="39.3271" height="42.0773" fill="#494949" fill-opacity="0.3"/>
<rect x="353.944" y="210.386" width="39.3271" height="42.0773" fill="#8A8A8A" fill-opacity="0.3"/>
<rect y="252.464" width="39.3271" height="42.0773" fill="#494949" fill-opacity="0.3"/>
<rect x="39.3281" y="252.464" width="39.3271" height="42.0773" fill="#C4C4C4" fill-opacity="0.3"/>
<rect x="78.6543" y="252.464" width="39.3271" height="42.0773" fill="#8A8A8A" fill-opacity="0.3"/>
<rect x="117.982" y="252.464" width="39.3271" height="42.0773" fill="#C4C4C4" fill-opacity="0.3"/>
<rect x="157.309" y="252.464" width="39.3271" height="42.0773" fill="#C4C4C4" fill-opacity="0.3"/>
<rect x="196.637" y="252.464" width="39.3271" height="42.0773" fill="#494949" fill-opacity="0.3"/>
<rect x="235.964" y="252.464" width="39.3271" height="42.0773" fill="#494949" fill-opacity="0.3"/>
<rect x="275.291" y="252.464" width="39.3271" height="42.0773" fill="#8A8A8A" fill-opacity="0.3"/>
<rect x="314.618" y="252.464" width="39.3271" height="42.0773" fill="#C4C4C4" fill-opacity="0.3"/>
<rect x="353.944" y="252.464" width="39.3271" height="42.0773" fill="#C4C4C4" fill-opacity="0.3"/>
<rect y="294.541" width="39.3271" height="42.0773" fill="#494949" fill-opacity="0.3"/>
<rect x="39.3281" y="294.541" width="39.3271" height="42.0773" fill="#8A8A8A" fill-opacity="0.3"/>
<rect x="78.6543" y="294.541" width="39.3271" height="42.0773" fill="#494949" fill-opacity="0.3"/>
<rect x="117.982" y="294.541" width="39.3271" height="42.0773" fill="#8A8A8A" fill-opacity="0.3"/>
<rect x="157.309" y="294.541" width="39.3271" height="42.0773" fill="#494949" fill-opacity="0.3"/>
<rect x="196.637" y="294.541" width="39.3271" height="42.0773" fill="#C4C4C4" fill-opacity="0.3"/>
<rect x="235.964" y="294.541" width="39.3271" height="42.0773" fill="#494949" fill-opacity="0.3"/>
<rect x="275.291" y="294.541" width="39.3271" height="42.0773" fill="#494949" fill-opacity="0.3"/>
<rect x="314.618" y="294.541" width="39.3271" height="42.0773" fill="#494949" fill-opacity="0.3"/>
<rect x="353.944" y="294.541" width="39.3271" height="42.0773" fill="#494949" fill-opacity="0.3"/>
<rect y="336.618" width="39.3271" height="42.0773" fill="#494949" fill-opacity="0.3"/>
<rect x="39.3281" y="336.618" width="39.3271" height="42.0773" fill="#494949" fill-opacity="0.3"/>
<rect x="78.6543" y="336.618" width="39.3271" height="42.0773" fill="#494949" fill-opacity="0.3"/>
<rect x="117.982" y="336.618" width="39.3271" height="42.0773" fill="#C4C4C4" fill-opacity="0.3"/>
<rect x="157.309" y="336.618" width="39.3271" height="42.0773" fill="#8A8A8A" fill-opacity="0.3"/>
<rect x="196.637" y="336.618" width="39.3271" height="42.0773" fill="#8A8A8A" fill-opacity="0.3"/>
<rect x="235.964" y="336.618" width="39.3271" height="42.0773" fill="#494949" fill-opacity="0.3"/>
<rect x="275.291" y="336.618" width="39.3271" height="42.0773" fill="#494949" fill-opacity="0.3"/>
<rect x="314.618" y="336.618" width="39.3271" height="42.0773" fill="#C4C4C4" fill-opacity="0.3"/>
<rect x="353.944" y="336.618" width="39.3271" height="42.0773" fill="#8A8A8A" fill-opacity="0.3"/>
<rect y="378.695" width="39.3271" height="42.0773" fill="#C4C4C4" fill-opacity="0.3"/>
<rect x="39.3281" y="378.695" width="39.3271" height="42.0773" fill="#494949" fill-opacity="0.3"/>
<rect x="78.6543" y="378.695" width="39.3271" height="42.0773" fill="#C4C4C4" fill-opacity="0.3"/>
<rect x="117.982" y="378.695" width="39.3271" height="42.0773" fill="#494949" fill-opacity="0.3"/>
<rect x="157.309" y="378.695" width="39.3271" height="42.0773" fill="#C4C4C4" fill-opacity="0.3"/>
<rect x="196.637" y="378.695" width="39.3271" height="42.0773" fill="#8A8A8A" fill-opacity="0.3"/>
<rect x="235.964" y="378.695" width="39.3271" height="42.0773" fill="#C4C4C4" fill-opacity="0.3"/>
<rect x="275.291" y="378.695" width="39.3271" height="42.0773" fill="#8A8A8A" fill-opacity="0.3"/>
<rect x="314.618" y="378.695" width="39.3271" height="42.0773" fill="#C4C4C4" fill-opacity="0.3"/>
<rect x="353.944" y="378.695" width="39.3271" height="42.0773" fill="#C4C4C4" fill-opacity="0.3"/>
</g>
<defs>
<clipPath id="clip0">
<rect width="380" height="380" fill="white"/>
</clipPath>
</defs>

</g><g id="triangle-avatar-Base">
<g clip-path="url(#clip0)">
<path d="M244 362.5C229.6 342.5 218.333 303.834 217 284.5L148.5 255L120 362.5H244Z" fill="#FFDACB" stroke="black" stroke-width="4"/>
<mask id="mask0" mask-type="alpha" maskUnits="userSpaceOnUse" x="120" y="255" width="124" height="118">
<path d="M244 372.5C229.6 352.5 218.333 303.834 217 284.5L148.5 255L120 372.5H244Z" fill="#AC6651"/>
</mask>
<g mask="url(#mask0)">
<g style="mix-blend-mode:multiply">
<ellipse cx="214" cy="253" rx="59" ry="54" fill="black"/>
</g>
</g>
<mask id="path-4-inside-1" fill="white">
<path fill-rule="evenodd" clip-rule="evenodd" d="M273.887 193.917C273.86 193.802 273.832 193.686 273.804 193.57C273.777 193.454 273.749 193.339 273.72 193.223L257.324 124.786C257.307 124.718 257.291 124.651 257.275 124.583C257.259 124.515 257.242 124.447 257.226 124.379L257.153 124.076L257.152 124.076C246.934 82.6315 205.157 57.148 163.583 67.1088C122.009 77.0696 96.3164 118.718 105.989 160.294L105.987 160.294L122.979 231.212L122.993 231.209C133.595 272.113 175.063 297.15 216.33 287.262C257.598 277.375 283.217 236.265 274.132 194.997L274.145 194.994L273.887 193.917Z"/>
</mask>
<path fill-rule="evenodd" clip-rule="evenodd" d="M273.887 193.917C273.86 193.802 273.832 193.686 273.804 193.57C273.777 193.454 273.749 193.339 273.72 193.223L257.324 124.786C257.307 124.718 257.291 124.651 257.275 124.583C257.259 124.515 257.242 124.447 257.226 124.379L257.153 124.076L257.152 124.076C246.934 82.6315 205.157 57.148 163.583 67.1088C122.009 77.0696 96.3164 118.718 105.989 160.294L105.987 160.294L122.979 231.212L122.993 231.209C133.595 272.113 175.063 297.15 216.33 287.262C257.598 277.375 283.217 236.265 274.132 194.997L274.145 194.994L273.887 193.917Z" fill="#FFDACB"/>
<path d="M273.887 193.917L269.993 194.832L269.995 194.841L269.997 194.849L273.887 193.917ZM273.72 193.223L269.831 194.155L269.833 194.164L269.835 194.173L273.72 193.223ZM257.324 124.786L253.431 125.708L253.434 125.718L257.324 124.786ZM257.226 124.379L253.336 125.311L253.339 125.322L257.226 124.379ZM257.153 124.076L261.043 123.144L260.112 119.256L256.223 120.186L257.153 124.076ZM257.152 124.076L253.268 125.034L254.219 128.89L258.082 127.967L257.152 124.076ZM163.583 67.1088L162.651 63.2189L163.583 67.1088ZM105.989 160.294L106.923 164.183L110.785 163.255L109.885 159.387L105.989 160.294ZM105.987 160.294L105.053 156.405L101.166 157.338L102.097 161.226L105.987 160.294ZM122.979 231.212L119.089 232.144L120.021 236.035L123.912 235.101L122.979 231.212ZM122.993 231.209L126.865 230.205L125.879 226.402L122.059 227.319L122.993 231.209ZM216.33 287.262L215.398 283.372H215.398L216.33 287.262ZM274.132 194.997L273.201 191.107L269.382 192.021L270.226 195.857L274.132 194.997ZM274.145 194.994L275.076 198.884L278.967 197.952L278.035 194.062L274.145 194.994ZM277.781 193.003C277.752 192.881 277.723 192.76 277.694 192.638L269.915 194.502C269.941 194.612 269.967 194.722 269.993 194.832L277.781 193.003ZM277.694 192.638C277.665 192.517 277.636 192.395 277.606 192.274L269.835 194.173C269.861 194.282 269.888 194.392 269.915 194.502L277.694 192.638ZM253.434 125.718L269.831 194.155L277.61 192.291L261.213 123.854L253.434 125.718ZM261.216 123.864C261.199 123.794 261.182 123.722 261.165 123.651L253.385 125.515C253.401 125.579 253.416 125.643 253.431 125.708L261.216 123.864ZM261.165 123.651C261.148 123.58 261.131 123.509 261.113 123.437L253.339 125.322C253.354 125.386 253.37 125.45 253.385 125.515L261.165 123.651ZM253.263 125.008L253.336 125.311L261.116 123.447L261.043 123.144L253.263 125.008ZM258.082 127.967L258.084 127.966L256.223 120.186L256.222 120.186L258.082 127.967ZM261.036 123.119C250.292 79.5405 206.365 52.7454 162.651 63.2189L164.515 70.9987C203.949 61.5506 243.576 85.7226 253.268 125.034L261.036 123.119ZM162.651 63.2189C118.937 73.6924 91.9225 117.484 102.093 161.2L109.885 159.387C100.71 119.952 125.081 80.4469 164.515 70.9987L162.651 63.2189ZM106.921 164.183L106.923 164.183L105.055 156.404L105.053 156.405L106.921 164.183ZM126.869 230.28L109.877 159.362L102.097 161.226L119.089 232.144L126.869 230.28ZM122.059 227.319L122.045 227.322L123.912 235.101L123.926 235.098L122.059 227.319ZM119.121 232.212C130.269 275.223 173.87 301.548 217.262 291.152L215.398 283.372C176.255 292.751 136.921 269.003 126.865 230.205L119.121 232.212ZM217.262 291.152C260.654 280.756 287.592 237.53 278.039 194.137L270.226 195.857C278.843 235 254.542 273.994 215.398 283.372L217.262 291.152ZM273.213 191.104L273.201 191.107L275.064 198.887L275.076 198.884L273.213 191.104ZM269.997 194.849L270.255 195.926L278.035 194.062L277.777 192.985L269.997 194.849Z" fill="black" mask="url(#path-4-inside-1)"/>
<path d="M270.125 194.454C279.614 234.058 255.201 273.856 215.597 283.344C192.29 288.929 168.915 282.771 151.691 268.686C134.499 252.8 130.499 201.3 126.692 176.949C140.691 208.45 176.316 210.895 210.192 204.95C238.691 199.95 261.49 198.95 261.49 159.95C263.376 162.566 268.468 187.537 270.125 194.454Z" fill="#FFDACB"/>
</g>
<ellipse cx="209.75" cy="188.445" rx="69.5387" ry="31.1548" transform="rotate(-12.0124 209.75 188.445)" fill="url(#paint0_radial)"/>
<defs>
<radialGradient id="paint0_radial" cx="0" cy="0" r="1" gradientUnits="userSpaceOnUse" gradientTransform="translate(209.75 188.445) rotate(90) scale(31.1548 69.5387)">
<stop stop-color="#ED9E56"/>
<stop offset="1" stop-color="#F7B9B9" stop-opacity="0"/>
</radialGradient>
<clipPath id="clip0">
<rect width="200" height="320" fill="white" transform="translate(90 43)"/>
</clipPath>
</defs>

</g><g id="triangle-avatar-Eyebrows">
<path d="M219 134.214C224.667 131.548 238 129.114 246 140.714" stroke="black" stroke-width="4" stroke-linecap="round"/>
<path d="M143.579 159.521C145.65 153.61 153.261 142.396 167.142 144.822" stroke="black" stroke-width="4" stroke-linecap="round"/>
<path d="M146.074 153.458L139.926 148.031" stroke="black" stroke-width="4" stroke-linecap="round"/>
<path d="M242.961 135.157L249.109 129.73" stroke="black" stroke-width="4" stroke-linecap="round"/>
<path d="M152.523 147.814L148.477 140.682" stroke="black" stroke-width="4" stroke-linecap="round"/>
<path d="M235.512 131.513L239.559 124.381" stroke="black" stroke-width="4" stroke-linecap="round"/>
<path d="M160.599 144.201L158.398 136.301" stroke="black" stroke-width="4" stroke-linecap="round"/>
<path d="M226.436 130.9L228.637 123" stroke="black" stroke-width="4" stroke-linecap="round"/>

</g><g id="triangle-avatar-Eyes">
<ellipse cx="168.117" cy="167.928" rx="9" ry="10" transform="rotate(-6.77646 168.117 167.928)" fill="black"/>
<ellipse cx="232.148" cy="157.924" rx="9" ry="10" transform="rotate(-6.27568 232.148 157.924)" fill="black"/>

</g><g id="triangle-avatar-Shirt">
<path d="M322.849 383H50.3541C58.0406 368.805 65.2356 358.337 73.1955 350.713C81.6478 342.617 91.0279 337.667 102.945 334.95C104.62 334.568 106.824 334.585 109.549 335.011C112.254 335.434 115.35 336.239 118.755 337.331C125.572 339.517 133.421 342.783 141.55 346.208C142.067 346.426 142.586 346.645 143.105 346.864C150.708 350.069 158.494 353.352 165.713 355.884C173.384 358.573 180.642 360.5 186.5 360.5C191.673 360.5 198.201 358.904 205.157 356.691C211.183 354.775 217.702 352.337 224.16 349.922C225.199 349.533 226.237 349.145 227.271 348.76C234.766 345.968 242.06 343.324 248.453 341.6C254.934 339.852 260.119 339.161 263.552 339.949C280 343.726 286.721 346.268 293.711 352.181C297.283 355.203 300.949 359.128 305.981 364.668C306.687 365.446 307.419 366.254 308.18 367.094C312.133 371.457 316.868 376.685 322.849 383Z" fill="#ffffff" stroke="black" stroke-width="4"/>
<path d="M115.93 328.581L125.083 308.984C125.301 308.516 125.845 308.294 126.332 308.466C164.258 321.891 198.761 320.946 230.735 312.045C231.138 311.933 231.568 312.081 231.814 312.418L245.746 331.471C246.129 331.995 245.934 332.733 245.33 332.97C211.723 346.167 148.662 343.923 116.414 329.904C115.903 329.682 115.693 329.087 115.93 328.581Z" fill="#192223" stroke="black" stroke-width="4"/>

</g><g id="triangle-avatar-Mouth">
<path d="M192.5 227.5C192.5 227.5 199 232 207 233C215 234 216.513 235.549 216.513 235.549" stroke="black" stroke-width="4"/>

</g><g id="triangle-avatar-Nose">
<path d="M205.687 185.055C205.89 188.898 207.385 197.137 211.735 199.353C217.174 202.123 212.91 211.306 202.729 210.717" stroke="#171921" stroke-width="4"/>

</g><g id="triangle-avatar-Hair">
<path d="M113.656 154.577C110.46 156.411 110.473 168.334 110.549 174.298C110.626 180.261 105.086 168.334 100.342 168.334C101.706 164.623 92.3345 157.787 90.5787 154.577C88.8229 151.367 86.2558 153.954 84.8095 150.744C83.3633 147.534 84.8095 141.654 84.8095 138.527C84.8095 135.399 73.5619 121.148 80.815 114.222C76.8204 109.739 84.8095 91.7519 84.8095 91.7519C84.8095 91.7519 82.8219 75.9516 90.5787 72.4915C90.9075 67.1641 90.5787 59.1928 100.342 59.1928C99.3418 56.8887 101.736 47.2697 110.549 47.2697C111.784 28.7191 127.183 28.4335 131.851 24.7993C136.519 21.1652 141.95 15.6897 149.159 17.9207C156.368 20.1516 160.984 14.6657 164.042 13.8328C167.1 12.9999 171.831 12.8189 183.602 15.6807C187.237 15.0249 190.855 14.5422 196.201 15.1706C201.456 15.7883 211.974 20.2848 213.863 21.0923L213.952 21.1306C215.568 21.8207 221.145 21.4541 222.828 21.1306C224.511 20.8072 230.512 20.7729 233.108 21.8207C235.705 22.8686 240.109 27.3412 243.304 28.8086C243.968 29.1135 245.283 38.0434 251.231 38.8959C254.244 40.6008 257.095 44.2823 260.78 51.2563C264.464 58.2304 268.309 61.7698 268.309 61.7698C272.003 68.7315 269.872 71.8571 272.003 74.2724C275.697 82.9389 274.77 83.1333 277.686 83.6493C280.603 84.1652 280.67 88.5631 280.67 91.3213C282.593 96.503 280.191 98.2155 283.938 107.518C283.938 115.254 283.085 116.22 283.085 121.867C283.085 127.515 281.731 130.479 277.686 134.228C279.158 139.928 277.027 145.477 275.555 145.477C270.23 145.477 271.092 173.859 268.43 173.859C266.299 173.859 266.873 172.499 265.265 167.77V159.626L263.657 151.367C261.882 151.061 261.114 146.107 261.114 145.477C255.666 129.313 257.384 117.28 251.231 114.222C248.568 114.222 243.242 111.987 239.248 106.427C233.923 102.757 225.861 101.4 219.278 102.757C212.463 99.5679 205.764 94.6817 190.431 102.757C181.556 99.8216 170.497 102.757 164.692 106.427H149.159C141.732 116.669 129.632 114.222 129.632 114.222C129.632 114.222 121.644 116.517 122.088 124.313C122.443 130.549 116.614 137.917 113.656 140.821C114.987 144.642 116.851 152.743 113.656 154.577Z" fill="#F6CF45" stroke="black" stroke-width="4"/>
<path d="M124.775 89.8027C127.215 84.4659 129.756 83.5022 130.722 83.6875M102.668 95.3628C102.668 95.3628 109.834 98.8373 109.834 101.339C109.834 103.841 110.901 101.478 111.511 103.146C112.121 104.814 109.834 108.427 109.834 108.427M134.991 53.6679C134.991 53.6679 141.089 53.6679 138.345 57.5594M158.013 57.5594C158.013 57.5594 160.605 53.6679 162.587 56.308M100.686 120.935C100.686 120.935 95.6543 128.023 102.668 131.915M102.668 143.867C102.668 143.867 100.686 148.037 107.242 148.732M249.632 51.2988C249.632 51.2988 254.809 57.5594 251.155 62.1241M269.12 91.8244C269.12 91.8244 269.12 98.4862 265.466 98.4862H255.722M276.428 104.87C276.428 104.87 280.691 110.699 277.951 114.863C275.21 119.027 274.967 115.002 273.992 117.639M210.446 82.5813C210.446 82.5813 216.246 87.869 218.823 86.3997C221.401 84.9303 218.018 80.2303 218.823 77.7344C219.628 75.2385 226.556 76.8549 228.489 75.2385C230.423 73.622 223.334 68.6299 223.334 68.6299M199.168 63.6355C200.778 60.1114 205.29 60.6976 206.901 59.2296C208.511 57.7616 206.095 54.8239 206.095 54.8239M178.78 42.0308C179.296 41.6783 183.464 39.9655 184.828 40.7257C186.192 41.486 180.729 43.9075 181.57 44.2757C182.412 44.6439 185.515 41.4655 187.084 42.6349C188.653 43.8043 186.322 47.0262 182.412 46.5997M158.528 86.0781C158.528 86.0781 162.581 87.3482 165.24 86.0781C167.9 84.8081 165.114 82.499 166.507 81.3445C167.9 80.1899 172.966 83.8845 175.246 81.3445C177.526 78.8044 173.473 73.8398 173.473 73.8398" stroke="black" stroke-opacity="0.3" stroke-width="4"/>

</g><g id="triangle-avatar-Ear">
<path d="M121.466 215.861L122 215.286V214.501V180.999V179.88L121.046 179.295C117.312 177.004 112.772 175.75 108.08 175.75C102.44 175.75 97.1591 177.497 93.3977 181.045C89.5942 184.632 87.5421 189.877 88.0869 196.416C88.6179 202.788 90.7569 207.477 94.3047 210.593C94.0134 211.592 93.9273 212.67 94.0624 213.803C94.4517 217.072 96.1039 219.427 98.6572 220.878C101.091 222.261 104.206 222.75 107.524 222.75C113.003 222.75 117.808 219.803 121.466 215.861Z" stroke="black" stroke-width="4"/>
<path fill-rule="evenodd" clip-rule="evenodd" d="M127.972 196.734C128.043 196.082 128.08 195.42 128.08 194.75C128.08 184.533 118.573 177.75 108.08 177.75C97.5866 177.75 89.0801 184.25 90.08 196.25C90.6364 202.927 93.0258 207.322 96.7307 209.967C96.1423 210.991 95.8848 212.194 96.0483 213.567C96.6774 218.848 101.186 220.75 107.524 220.75C118.629 220.75 127.416 206.703 127.972 196.734Z" fill="#FFDACB"/>
<path d="M112.5 186.25C108.5 184.417 99.7 183.45 96.5 194.25" stroke="#171921" stroke-width="4"/>
<path d="M102 186.75C104.167 188.583 108.3 194.25 107.5 202.25" stroke="#171921" stroke-width="4"/>

</g></svg>
