<svg width="280" height="280" viewBox="0 0 380 380" fill="none" xmlns="http://www.w3.org/2000/svg"><g id="triangle-avatar-Background">
  <rect width="100%" height="100%" fill="#FFEBA4" />
</g><g id="triangle-avatar-Base">
<g clip-path="url(#clip0)">
<path d="M244 362.5C229.6 342.5 218.333 303.834 217 284.5L148.5 255L120 362.5H244Z" fill="#F9C9B6" stroke="black" stroke-width="4"/>
<mask id="mask0" mask-type="alpha" maskUnits="userSpaceOnUse" x="120" y="255" width="124" height="118">
<path d="M244 372.5C229.6 352.5 218.333 303.834 217 284.5L148.5 255L120 372.5H244Z" fill="#AC6651"/>
</mask>
<g mask="url(#mask0)">
<g style="mix-blend-mode:multiply">
<ellipse cx="214" cy="253" rx="59" ry="54" fill="black"/>
</g>
</g>
<mask id="path-4-inside-1" fill="white">
<path fill-rule="evenodd" clip-rule="evenodd" d="M273.887 193.917C273.86 193.802 273.832 193.686 273.804 193.57C273.777 193.454 273.749 193.339 273.72 193.223L257.324 124.786C257.307 124.718 257.291 124.651 257.275 124.583C257.259 124.515 257.242 124.447 257.226 124.379L257.153 124.076L257.152 124.076C246.934 82.6315 205.157 57.148 163.583 67.1088C122.009 77.0696 96.3164 118.718 105.989 160.294L105.987 160.294L122.979 231.212L122.993 231.209C133.595 272.113 175.063 297.15 216.33 287.262C257.598 277.375 283.217 236.265 274.132 194.997L274.145 194.994L273.887 193.917Z"/>
</mask>
<path fill-rule="evenodd" clip-rule="evenodd" d="M273.887 193.917C273.86 193.802 273.832 193.686 273.804 193.57C273.777 193.454 273.749 193.339 273.72 193.223L257.324 124.786C257.307 124.718 257.291 124.651 257.275 124.583C257.259 124.515 257.242 124.447 257.226 124.379L257.153 124.076L257.152 124.076C246.934 82.6315 205.157 57.148 163.583 67.1088C122.009 77.0696 96.3164 118.718 105.989 160.294L105.987 160.294L122.979 231.212L122.993 231.209C133.595 272.113 175.063 297.15 216.33 287.262C257.598 277.375 283.217 236.265 274.132 194.997L274.145 194.994L273.887 193.917Z" fill="#F9C9B6"/>
<path d="M273.887 193.917L269.993 194.832L269.995 194.841L269.997 194.849L273.887 193.917ZM273.72 193.223L269.831 194.155L269.833 194.164L269.835 194.173L273.72 193.223ZM257.324 124.786L253.431 125.708L253.434 125.718L257.324 124.786ZM257.226 124.379L253.336 125.311L253.339 125.322L257.226 124.379ZM257.153 124.076L261.043 123.144L260.112 119.256L256.223 120.186L257.153 124.076ZM257.152 124.076L253.268 125.034L254.219 128.89L258.082 127.967L257.152 124.076ZM163.583 67.1088L162.651 63.2189L163.583 67.1088ZM105.989 160.294L106.923 164.183L110.785 163.255L109.885 159.387L105.989 160.294ZM105.987 160.294L105.053 156.405L101.166 157.338L102.097 161.226L105.987 160.294ZM122.979 231.212L119.089 232.144L120.021 236.035L123.912 235.101L122.979 231.212ZM122.993 231.209L126.865 230.205L125.879 226.402L122.059 227.319L122.993 231.209ZM216.33 287.262L215.398 283.372H215.398L216.33 287.262ZM274.132 194.997L273.201 191.107L269.382 192.021L270.226 195.857L274.132 194.997ZM274.145 194.994L275.076 198.884L278.967 197.952L278.035 194.062L274.145 194.994ZM277.781 193.003C277.752 192.881 277.723 192.76 277.694 192.638L269.915 194.502C269.941 194.612 269.967 194.722 269.993 194.832L277.781 193.003ZM277.694 192.638C277.665 192.517 277.636 192.395 277.606 192.274L269.835 194.173C269.861 194.282 269.888 194.392 269.915 194.502L277.694 192.638ZM253.434 125.718L269.831 194.155L277.61 192.291L261.213 123.854L253.434 125.718ZM261.216 123.864C261.199 123.794 261.182 123.722 261.165 123.651L253.385 125.515C253.401 125.579 253.416 125.643 253.431 125.708L261.216 123.864ZM261.165 123.651C261.148 123.58 261.131 123.509 261.113 123.437L253.339 125.322C253.354 125.386 253.37 125.45 253.385 125.515L261.165 123.651ZM253.263 125.008L253.336 125.311L261.116 123.447L261.043 123.144L253.263 125.008ZM258.082 127.967L258.084 127.966L256.223 120.186L256.222 120.186L258.082 127.967ZM261.036 123.119C250.292 79.5405 206.365 52.7454 162.651 63.2189L164.515 70.9987C203.949 61.5506 243.576 85.7226 253.268 125.034L261.036 123.119ZM162.651 63.2189C118.937 73.6924 91.9225 117.484 102.093 161.2L109.885 159.387C100.71 119.952 125.081 80.4469 164.515 70.9987L162.651 63.2189ZM106.921 164.183L106.923 164.183L105.055 156.404L105.053 156.405L106.921 164.183ZM126.869 230.28L109.877 159.362L102.097 161.226L119.089 232.144L126.869 230.28ZM122.059 227.319L122.045 227.322L123.912 235.101L123.926 235.098L122.059 227.319ZM119.121 232.212C130.269 275.223 173.87 301.548 217.262 291.152L215.398 283.372C176.255 292.751 136.921 269.003 126.865 230.205L119.121 232.212ZM217.262 291.152C260.654 280.756 287.592 237.53 278.039 194.137L270.226 195.857C278.843 235 254.542 273.994 215.398 283.372L217.262 291.152ZM273.213 191.104L273.201 191.107L275.064 198.887L275.076 198.884L273.213 191.104ZM269.997 194.849L270.255 195.926L278.035 194.062L277.777 192.985L269.997 194.849Z" fill="black" mask="url(#path-4-inside-1)"/>
<path d="M270.125 194.454C279.614 234.058 255.201 273.856 215.597 283.344C192.29 288.929 168.915 282.771 151.691 268.686C134.499 252.8 130.499 201.3 126.692 176.949C140.691 208.45 176.316 210.895 210.192 204.95C238.691 199.95 261.49 198.95 261.49 159.95C263.376 162.566 268.468 187.537 270.125 194.454Z" fill="#F9C9B6"/>
</g>
<ellipse cx="209.75" cy="188.445" rx="69.5387" ry="31.1548" transform="rotate(-12.0124 209.75 188.445)" fill="url(#paint0_radial)"/>
<defs>
<radialGradient id="paint0_radial" cx="0" cy="0" r="1" gradientUnits="userSpaceOnUse" gradientTransform="translate(209.75 188.445) rotate(90) scale(31.1548 69.5387)">
<stop stop-color="#ED9E56"/>
<stop offset="1" stop-color="#F7B9B9" stop-opacity="0"/>
</radialGradient>
<clipPath id="clip0">
<rect width="200" height="320" fill="white" transform="translate(90 43)"/>
</clipPath>
</defs>

</g><g id="triangle-avatar-Eyebrows">
<path d="M219 134.214C224.667 131.548 238 129.114 246 140.714" stroke="black" stroke-width="4" stroke-linecap="round"/>
<path d="M143.579 159.521C145.65 153.61 153.261 142.396 167.142 144.822" stroke="black" stroke-width="4" stroke-linecap="round"/>

</g><g id="triangle-avatar-Eyes">
<path fill-rule="evenodd" clip-rule="evenodd" d="M157.287 173.072C157.401 173.885 158.434 174.066 159.009 173.48C161.474 170.964 165.264 169.116 169.663 168.593C172.258 168.285 174.754 168.475 176.979 169.065C177.733 169.266 178.474 168.629 178.21 167.895C176.545 163.249 171.845 160.196 166.736 160.803C160.794 161.509 156.55 166.897 157.256 172.839C157.266 172.917 157.276 172.995 157.287 173.072Z" fill="black"/>
<path fill-rule="evenodd" clip-rule="evenodd" d="M221.385 163.073C221.498 163.886 222.531 164.067 223.106 163.482C225.549 160.996 229.298 159.17 233.649 158.653C236.213 158.348 238.681 158.535 240.88 159.117C241.634 159.316 242.375 158.679 242.111 157.946C240.456 153.352 235.804 150.335 230.748 150.935C224.862 151.635 220.658 156.973 221.357 162.859C221.366 162.93 221.375 163.002 221.385 163.073Z" fill="black"/>

</g><g id="triangle-avatar-Shirt">
<path d="M322.849 383H50.3541C58.0406 368.805 65.2356 358.337 73.1955 350.713C81.6478 342.617 91.0279 337.667 102.945 334.95C104.62 334.568 106.824 334.585 109.549 335.011C112.254 335.434 115.35 336.239 118.755 337.331C125.572 339.517 133.421 342.783 141.55 346.208C142.067 346.426 142.586 346.645 143.105 346.864C150.708 350.069 158.494 353.352 165.713 355.884C173.384 358.573 180.642 360.5 186.5 360.5C191.673 360.5 198.201 358.904 205.157 356.691C211.183 354.775 217.702 352.337 224.16 349.922C225.199 349.533 226.237 349.145 227.271 348.76C234.766 345.968 242.06 343.324 248.453 341.6C254.934 339.852 260.119 339.161 263.552 339.949C280 343.726 286.721 346.268 293.711 352.181C297.283 355.203 300.949 359.128 305.981 364.668C306.687 365.446 307.419 366.254 308.18 367.094C312.133 371.457 316.868 376.685 322.849 383Z" fill="#ffffff" stroke="black" stroke-width="4"/>
<path d="M115.93 328.581L125.083 308.984C125.301 308.516 125.845 308.294 126.332 308.466C164.258 321.891 198.761 320.946 230.735 312.045C231.138 311.933 231.568 312.081 231.814 312.418L245.746 331.471C246.129 331.995 245.934 332.733 245.33 332.97C211.723 346.167 148.662 343.923 116.414 329.904C115.903 329.682 115.693 329.087 115.93 328.581Z" fill="#192223" stroke="black" stroke-width="4"/>

</g><g id="triangle-avatar-Mouth">
<rect x="173.248" y="222.471" width="70" height="24" rx="4" transform="rotate(-4 173.248 222.471)" fill="black"/>
<path fill-rule="evenodd" clip-rule="evenodd" d="M236.822 218.025L179.504 222.033L181.344 229.038C182.077 231.827 184.69 233.7 187.566 233.499C184.69 233.7 182.363 235.919 182.026 238.782L181.179 245.975L238.496 241.967L236.656 234.962C235.923 232.173 233.31 230.3 230.434 230.501C233.31 230.3 235.637 228.081 235.974 225.218L236.822 218.025Z" fill="white"/>
<path d="M178.067 220.845C174.411 220.582 171.323 223.61 171.581 227.296L172.6 241.866C172.857 245.552 176.337 248.12 179.921 247.351C186.865 245.86 200.142 243.217 209.737 242.546C219.333 241.875 232.849 242.645 239.933 243.155C243.589 243.418 246.677 240.39 246.419 236.704L245.4 222.134C245.143 218.448 241.663 215.88 238.079 216.649C231.135 218.14 217.858 220.783 208.263 221.454C198.667 222.125 185.151 221.355 178.067 220.845Z" stroke="black" stroke-width="4"/>

</g><g id="triangle-avatar-Nose">
<path d="M206.5 184C209.167 188.167 212 191.5 218.5 191.5C218.5 200 213 199 213 199" stroke="black" stroke-width="4"/>

</g><g id="triangle-avatar-Hair">
<path d="M182.788 48.4887L182.864 48.4969L182.941 48.4991C209.61 49.2835 230.342 59.8969 245.014 72.8493C259.07 85.2583 267.463 99.7231 270.2 109.582C266.14 111.899 259.186 113.893 250.315 115.528C240.64 117.312 229.022 118.615 217.169 119.544C193.462 121.401 168.979 121.749 157.543 121.5L151.47 121.368L156.277 125.083C158.774 127.013 162.099 128.356 165.615 129.3C169.157 130.252 173.034 130.835 176.747 131.167C180.571 131.509 184.299 131.589 187.388 131.51C176.801 139.672 163.326 145.948 150.039 150.6C134.693 155.973 119.769 159.12 110.21 160.521L108.061 160.836L108.552 162.952C111.899 177.381 118.052 202.603 122.179 219.519C124.011 227.025 125.443 232.895 126.054 235.463C127.138 240.017 130.552 246.508 134.449 252.491C138.042 258.008 142.233 263.38 145.771 266.687L137.933 298.5H108.372C116.71 285.787 118.47 271.097 116.769 255.517C114.929 238.653 109.008 220.513 102.766 202.35C102.152 200.562 101.534 198.774 100.917 196.986C95.2331 180.527 89.5649 164.113 86.4941 148.382C83.0927 130.958 82.9412 114.651 89.3269 100.314C99.6658 77.0999 117.993 63.6198 136.326 56.1911C154.702 48.745 172.946 47.4399 182.788 48.4887Z" fill="#9287FF" stroke="#171921" stroke-width="4"/>

</g><g id="triangle-avatar-Ear">
<path d="M120.5 183.176C118.17 182.408 115.655 182 113.08 182C102.587 182 94.0801 188.5 95.08 200.5C96.1216 213 103.587 217.5 114.08 217.5C115.248 217.5 116.391 217.397 117.5 217.201C118.711 216.987 119.881 216.661 121 216.235" stroke="#171921" stroke-width="8"/>
<path d="M121.5 216.036C119.22 216.979 116.713 217.5 114.08 217.5C103.587 217.5 96.1216 213 95.08 200.5C94.0801 188.5 102.587 182 113.08 182C116.217 182 119.267 182.606 122 183.73L121.5 216.036Z" fill="#F9C9B6"/>
<path d="M117.5 190.5C113.5 188.667 104.7 187.7 101.5 198.5" stroke="#171921" stroke-width="4"/>
<path d="M107 191C109.167 192.833 113.3 198.5 112.5 206.5" stroke="#171921" stroke-width="4"/>

</g><g id="triangle-avatar-Ear Ring">
<path d="M107 204C120.255 204 131 214.745 131 228C131 241.255 120.255 252 107 252C93.7452 252 83 241.255 83 228C83 221.609 86.5 216.5 89.5715 211.5L90.5 210" stroke="#F4D150" stroke-width="4"/>

</g></svg>
