<svg width="280" height="280" viewBox="0 0 380 380" fill="none" xmlns="http://www.w3.org/2000/svg"><g id="triangle-avatar-Background">
  <rect width="100%" height="100%" fill="#D2EFF3" />
</g><g id="triangle-avatar-Base">
<g>
  <g clip-path="url(#clip0)">
  <path d="M244 362.5C229.6 342.5 218.333 303.834 217 284.5L148.5 255L120 362.5H244Z" fill="#77311D" stroke="black" stroke-width="4"/>
  <mask id="mask0" mask-type="alpha" maskUnits="userSpaceOnUse" x="120" y="255" width="124" height="118">
  <path d="M244 372.5C229.6 352.5 218.333 303.834 217 284.5L148.5 255L120 372.5H244Z" fill="#AC6651"/>
  </mask>
  <g mask="url(#mask0)">
  <g style="mix-blend-mode:multiply">
  <ellipse cx="214" cy="253" rx="59" ry="54" fill="black"/>
  </g>
  </g>
  <mask id="path-4-inside-1" fill="white">
  <path fill-rule="evenodd" clip-rule="evenodd" d="M273.887 193.917C273.86 193.802 273.832 193.686 273.804 193.57C273.777 193.454 273.749 193.339 273.72 193.223L257.324 124.786C257.307 124.718 257.291 124.651 257.275 124.583C257.259 124.515 257.242 124.447 257.226 124.379L257.153 124.076L257.152 124.076C246.934 82.6315 205.157 57.148 163.583 67.1088C122.009 77.0696 96.3164 118.718 105.989 160.294L105.987 160.294L122.979 231.212L122.993 231.209C133.595 272.113 175.063 297.15 216.33 287.262C257.598 277.375 283.217 236.265 274.132 194.997L274.145 194.994L273.887 193.917Z"/>
  </mask>
  <path fill-rule="evenodd" clip-rule="evenodd" d="M273.887 193.917C273.86 193.802 273.832 193.686 273.804 193.57C273.777 193.454 273.749 193.339 273.72 193.223L257.324 124.786C257.307 124.718 257.291 124.651 257.275 124.583C257.259 124.515 257.242 124.447 257.226 124.379L257.153 124.076L257.152 124.076C246.934 82.6315 205.157 57.148 163.583 67.1088C122.009 77.0696 96.3164 118.718 105.989 160.294L105.987 160.294L122.979 231.212L122.993 231.209C133.595 272.113 175.063 297.15 216.33 287.262C257.598 277.375 283.217 236.265 274.132 194.997L274.145 194.994L273.887 193.917Z" fill="#77311D"/>
  <path d="M273.887 193.917L269.993 194.832L269.995 194.841L269.997 194.849L273.887 193.917ZM273.72 193.223L269.831 194.155L269.833 194.164L269.835 194.173L273.72 193.223ZM257.324 124.786L253.431 125.708L253.434 125.718L257.324 124.786ZM257.226 124.379L253.336 125.311L253.339 125.322L257.226 124.379ZM257.153 124.076L261.043 123.144L260.112 119.256L256.223 120.186L257.153 124.076ZM257.152 124.076L253.268 125.034L254.219 128.89L258.082 127.967L257.152 124.076ZM163.583 67.1088L162.651 63.2189L163.583 67.1088ZM105.989 160.294L106.923 164.183L110.785 163.255L109.885 159.387L105.989 160.294ZM105.987 160.294L105.053 156.405L101.166 157.338L102.097 161.226L105.987 160.294ZM122.979 231.212L119.089 232.144L120.021 236.035L123.912 235.101L122.979 231.212ZM122.993 231.209L126.865 230.205L125.879 226.402L122.059 227.319L122.993 231.209ZM216.33 287.262L215.398 283.372H215.398L216.33 287.262ZM274.132 194.997L273.201 191.107L269.382 192.021L270.226 195.857L274.132 194.997ZM274.145 194.994L275.076 198.884L278.967 197.952L278.035 194.062L274.145 194.994ZM277.781 193.003C277.752 192.881 277.723 192.76 277.694 192.638L269.915 194.502C269.941 194.612 269.967 194.722 269.993 194.832L277.781 193.003ZM277.694 192.638C277.665 192.517 277.636 192.395 277.606 192.274L269.835 194.173C269.861 194.282 269.888 194.392 269.915 194.502L277.694 192.638ZM253.434 125.718L269.831 194.155L277.61 192.291L261.213 123.854L253.434 125.718ZM261.216 123.864C261.199 123.794 261.182 123.722 261.165 123.651L253.385 125.515C253.401 125.579 253.416 125.643 253.431 125.708L261.216 123.864ZM261.165 123.651C261.148 123.58 261.131 123.509 261.113 123.437L253.339 125.322C253.354 125.386 253.37 125.45 253.385 125.515L261.165 123.651ZM253.263 125.008L253.336 125.311L261.116 123.447L261.043 123.144L253.263 125.008ZM258.082 127.967L258.084 127.966L256.223 120.186L256.222 120.186L258.082 127.967ZM261.036 123.119C250.292 79.5405 206.365 52.7454 162.651 63.2189L164.515 70.9987C203.949 61.5506 243.576 85.7226 253.268 125.034L261.036 123.119ZM162.651 63.2189C118.937 73.6924 91.9225 117.484 102.093 161.2L109.885 159.387C100.71 119.952 125.081 80.4469 164.515 70.9987L162.651 63.2189ZM106.921 164.183L106.923 164.183L105.055 156.404L105.053 156.405L106.921 164.183ZM126.869 230.28L109.877 159.362L102.097 161.226L119.089 232.144L126.869 230.28ZM122.059 227.319L122.045 227.322L123.912 235.101L123.926 235.098L122.059 227.319ZM119.121 232.212C130.269 275.223 173.87 301.548 217.262 291.152L215.398 283.372C176.255 292.751 136.921 269.003 126.865 230.205L119.121 232.212ZM217.262 291.152C260.654 280.756 287.592 237.53 278.039 194.137L270.226 195.857C278.843 235 254.542 273.994 215.398 283.372L217.262 291.152ZM273.213 191.104L273.201 191.107L275.064 198.887L275.076 198.884L273.213 191.104ZM269.997 194.849L270.255 195.926L278.035 194.062L277.777 192.985L269.997 194.849Z" fill="black" mask="url(#path-4-inside-1)"/>
  </g>
  <defs>
  <clipPath id="clip0">
  <rect width="200" height="320" fill="white" transform="translate(90 43)"/>
  </clipPath>
  </defs>
</g>

</g><g id="triangle-avatar-Eyebrows">
<path d="M219 134.214C224.667 131.548 238 129.114 246 140.714" stroke="black" stroke-width="4" stroke-linecap="round"/>
<path d="M143.579 159.521C145.65 153.61 153.261 142.396 167.142 144.822" stroke="black" stroke-width="4" stroke-linecap="round"/>
<path d="M146.074 153.458L139.926 148.031" stroke="black" stroke-width="4" stroke-linecap="round"/>
<path d="M242.961 135.157L249.109 129.73" stroke="black" stroke-width="4" stroke-linecap="round"/>
<path d="M152.523 147.814L148.477 140.682" stroke="black" stroke-width="4" stroke-linecap="round"/>
<path d="M235.512 131.513L239.559 124.381" stroke="black" stroke-width="4" stroke-linecap="round"/>
<path d="M160.599 144.201L158.398 136.301" stroke="black" stroke-width="4" stroke-linecap="round"/>
<path d="M226.436 130.9L228.637 123" stroke="black" stroke-width="4" stroke-linecap="round"/>

</g><g id="triangle-avatar-Eyes">
<path d="M226.871 179.732C227.436 181.938 229.573 183.811 233.144 184.816C236.672 185.808 241.307 185.844 246.181 184.596C251.054 183.349 255.102 181.091 257.719 178.526C260.368 175.929 261.343 173.259 260.778 171.054C260.214 168.848 258.077 166.975 254.505 165.97C250.977 164.978 246.343 164.942 241.469 166.19C236.596 167.437 232.548 169.695 229.931 172.26C227.281 174.857 226.307 177.527 226.871 179.732Z" fill="white" stroke="black" stroke-width="3"/>
<ellipse rx="12" ry="9.5" transform="matrix(-0.968769 0.247967 0.247967 0.968769 240.701 175.909)" fill="black"/>
<path d="M265.954 158.936C265.195 161.364 262.805 166.443 259.316 167.329" stroke="black" stroke-width="4"/>
<path d="M151.401 186.312C153.239 195.481 162.387 201.448 171.9 199.542C181.414 197.635 187.556 188.603 185.718 179.434C183.881 170.265 174.733 164.298 165.219 166.205C155.705 168.111 149.563 177.143 151.401 186.312Z" fill="white" stroke="black" stroke-width="3"/>
<circle r="11" transform="matrix(-0.980501 0.196513 0.196513 0.980501 161.947 182.947)" fill="black"/>
<path d="M146 166.997C146.982 171.899 148.571 172.703 152.573 174.348" stroke="black" stroke-width="4"/>

</g><g id="triangle-avatar-Shirt">
<path d="M229.552 330.449L229.692 330.481L229.836 330.493C275.961 334.297 303.62 354.785 323.694 383H50.3745C66.6742 353.658 89.8579 334.982 127.445 326.412C143.458 322.761 162.113 320.94 184 320.94C193.456 320.94 200.814 322.382 207.796 324.286C210.383 324.991 212.983 325.781 215.643 326.589C220.045 327.927 224.611 329.314 229.552 330.449Z" fill="#0C4F2F" stroke="black" stroke-width="4"/>
<path d="M115.93 328.581L125.083 308.984C125.301 308.516 125.845 308.294 126.332 308.466C164.258 321.891 198.761 320.946 230.735 312.045C231.138 311.933 231.568 312.081 231.814 312.418L245.747 331.471C246.129 331.995 245.934 332.733 245.33 332.97C211.723 346.167 148.662 343.923 116.414 329.904C115.903 329.682 115.694 329.087 115.93 328.581Z" fill="#3d8160" stroke="black" stroke-width="4"/>

</g><g id="triangle-avatar-Mouth">
<path d="M216.047 259.892C226.884 257.931 233.233 245.955 231.025 233.754C228.817 221.553 218.674 212.563 207.837 214.524C197 216.485 190.651 228.461 192.859 240.662C195.067 252.863 205.21 261.853 216.047 259.892Z" fill="black" stroke="black" stroke-width="3.59115"/>
<mask id="mask0" mask-type="alpha" maskUnits="userSpaceOnUse" x="194" y="216" width="36" height="43">
<ellipse cx="211.942" cy="237.208" rx="17.5976" ry="21.257" transform="rotate(-10.2582 211.942 237.208)" fill="#171921"/>
</mask>
<g mask="url(#mask0)">
<ellipse cx="215.202" cy="255.22" rx="20.2046" ry="18.3047" transform="rotate(-10.2582 215.202 255.22)" fill="#FC909F"/>
</g>

</g><g id="triangle-avatar-Nose">
<path d="M204.13 177.094C206.078 190.958 214.541 200.877 214.541 200.877C214.541 200.877 211.91 207.306 201.729 206.717" stroke="#171921" stroke-width="4"/>

</g><g id="triangle-avatar-Hair">
<path fill-rule="evenodd" clip-rule="evenodd" d="M269.178 81.3965C267.915 87.4543 264.575 92.7215 259.75 97.2985C269.142 131.363 269.355 151.167 264.135 154.947L249.339 104.961C217.39 123.702 157.645 126.896 142.678 126.896C141.135 127.072 139.66 127.298 138.249 127.571C123.603 136.563 135.656 179.688 150 198L139 200C133.86 175.034 121.587 177.084 112.389 178.62L112.071 178.673C114.265 192.304 118.795 206.406 122.516 217.992C123.475 220.977 124.38 223.796 125.178 226.396C124.395 226.501 123.704 226.693 123.062 226.871C117.56 228.398 115.649 228.929 89.6782 164.896C83.3355 149.258 83.6379 135.29 88.4235 123.005C83.5563 118.388 74.236 116.123 69 115.5C79.0741 109.594 88.8717 110.552 94.0041 112.217C94.6714 111.191 95.3703 110.18 96.0994 109.182C95.1296 104.77 88.1353 99.7217 83.9895 97.3632C92.5498 93.0527 102.609 95.3284 106.981 97.1525C126.63 79.1358 156.026 67.054 181 60.9995C229.816 49.1653 248.5 32.502 248.5 32.502C269.178 41 274.117 57.7185 269.178 81.3965Z" fill="#FF4D6B" stroke="black" stroke-width="4" />

</g><g id="triangle-avatar-Ear">
<path d="M121.466 215.861L122 215.286V214.501V180.999V179.88L121.046 179.295C117.312 177.004 112.772 175.75 108.08 175.75C102.44 175.75 97.1591 177.497 93.3977 181.045C89.5942 184.632 87.5421 189.877 88.0869 196.416C88.6179 202.788 90.7569 207.477 94.3047 210.593C94.0134 211.592 93.9273 212.67 94.0624 213.803C94.4517 217.072 96.1039 219.427 98.6572 220.878C101.091 222.261 104.206 222.75 107.524 222.75C113.003 222.75 117.808 219.803 121.466 215.861Z" stroke="black" stroke-width="4"/>
<path fill-rule="evenodd" clip-rule="evenodd" d="M127.972 196.734C128.043 196.082 128.08 195.42 128.08 194.75C128.08 184.533 118.573 177.75 108.08 177.75C97.5866 177.75 89.0801 184.25 90.08 196.25C90.6364 202.927 93.0258 207.322 96.7307 209.967C96.1423 210.991 95.8848 212.194 96.0483 213.567C96.6774 218.848 101.186 220.75 107.524 220.75C118.629 220.75 127.416 206.703 127.972 196.734Z" fill="#77311D"/>
<path d="M112.5 186.25C108.5 184.417 99.7 183.45 96.5 194.25" stroke="#171921" stroke-width="4"/>
<path d="M102 186.75C104.167 188.583 108.3 194.25 107.5 202.25" stroke="#171921" stroke-width="4"/>

</g></svg>
