<svg width="280" height="280" viewBox="0 0 380 380" fill="none" xmlns="http://www.w3.org/2000/svg"><g id="triangle-avatar-Background">
  <rect width="100%" height="100%" fill="#FFEBA4" />
<g clip-path="url(#clip0)">
<rect x="-18.0098" y="-7.82568" width="405.054" height="402.169" fill="url(#paint0_linear)" fill-opacity="0.3"/>
</g>
<defs>
<linearGradient id="paint0_linear" x1="184.517" y1="-7.82568" x2="184.517" y2="394.344" gradientUnits="userSpaceOnUse">
<stop stop-color="white"/>
<stop offset="1" stop-color="white" stop-opacity="0"/>
</linearGradient>
<clipPath id="clip0">
<rect width="380" height="380" fill="white" transform="translate(0.78125)"/>
</clipPath>
</defs>

</g><g id="triangle-avatar-Base">
<g>
  <g clip-path="url(#clip0)">
  <path d="M244 362.5C229.6 342.5 218.333 303.834 217 284.5L148.5 255L120 362.5H244Z" fill="#F9C9B6" stroke="black" stroke-width="4"/>
  <mask id="mask0" mask-type="alpha" maskUnits="userSpaceOnUse" x="120" y="255" width="124" height="118">
  <path d="M244 372.5C229.6 352.5 218.333 303.834 217 284.5L148.5 255L120 372.5H244Z" fill="#AC6651"/>
  </mask>
  <g mask="url(#mask0)">
  <g style="mix-blend-mode:multiply">
  <ellipse cx="214" cy="253" rx="59" ry="54" fill="black"/>
  </g>
  </g>
  <mask id="path-4-inside-1" fill="white">
  <path fill-rule="evenodd" clip-rule="evenodd" d="M273.887 193.917C273.86 193.802 273.832 193.686 273.804 193.57C273.777 193.454 273.749 193.339 273.72 193.223L257.324 124.786C257.307 124.718 257.291 124.651 257.275 124.583C257.259 124.515 257.242 124.447 257.226 124.379L257.153 124.076L257.152 124.076C246.934 82.6315 205.157 57.148 163.583 67.1088C122.009 77.0696 96.3164 118.718 105.989 160.294L105.987 160.294L122.979 231.212L122.993 231.209C133.595 272.113 175.063 297.15 216.33 287.262C257.598 277.375 283.217 236.265 274.132 194.997L274.145 194.994L273.887 193.917Z"/>
  </mask>
  <path fill-rule="evenodd" clip-rule="evenodd" d="M273.887 193.917C273.86 193.802 273.832 193.686 273.804 193.57C273.777 193.454 273.749 193.339 273.72 193.223L257.324 124.786C257.307 124.718 257.291 124.651 257.275 124.583C257.259 124.515 257.242 124.447 257.226 124.379L257.153 124.076L257.152 124.076C246.934 82.6315 205.157 57.148 163.583 67.1088C122.009 77.0696 96.3164 118.718 105.989 160.294L105.987 160.294L122.979 231.212L122.993 231.209C133.595 272.113 175.063 297.15 216.33 287.262C257.598 277.375 283.217 236.265 274.132 194.997L274.145 194.994L273.887 193.917Z" fill="#F9C9B6"/>
  <path d="M273.887 193.917L269.993 194.832L269.995 194.841L269.997 194.849L273.887 193.917ZM273.72 193.223L269.831 194.155L269.833 194.164L269.835 194.173L273.72 193.223ZM257.324 124.786L253.431 125.708L253.434 125.718L257.324 124.786ZM257.226 124.379L253.336 125.311L253.339 125.322L257.226 124.379ZM257.153 124.076L261.043 123.144L260.112 119.256L256.223 120.186L257.153 124.076ZM257.152 124.076L253.268 125.034L254.219 128.89L258.082 127.967L257.152 124.076ZM163.583 67.1088L162.651 63.2189L163.583 67.1088ZM105.989 160.294L106.923 164.183L110.785 163.255L109.885 159.387L105.989 160.294ZM105.987 160.294L105.053 156.405L101.166 157.338L102.097 161.226L105.987 160.294ZM122.979 231.212L119.089 232.144L120.021 236.035L123.912 235.101L122.979 231.212ZM122.993 231.209L126.865 230.205L125.879 226.402L122.059 227.319L122.993 231.209ZM216.33 287.262L215.398 283.372H215.398L216.33 287.262ZM274.132 194.997L273.201 191.107L269.382 192.021L270.226 195.857L274.132 194.997ZM274.145 194.994L275.076 198.884L278.967 197.952L278.035 194.062L274.145 194.994ZM277.781 193.003C277.752 192.881 277.723 192.76 277.694 192.638L269.915 194.502C269.941 194.612 269.967 194.722 269.993 194.832L277.781 193.003ZM277.694 192.638C277.665 192.517 277.636 192.395 277.606 192.274L269.835 194.173C269.861 194.282 269.888 194.392 269.915 194.502L277.694 192.638ZM253.434 125.718L269.831 194.155L277.61 192.291L261.213 123.854L253.434 125.718ZM261.216 123.864C261.199 123.794 261.182 123.722 261.165 123.651L253.385 125.515C253.401 125.579 253.416 125.643 253.431 125.708L261.216 123.864ZM261.165 123.651C261.148 123.58 261.131 123.509 261.113 123.437L253.339 125.322C253.354 125.386 253.37 125.45 253.385 125.515L261.165 123.651ZM253.263 125.008L253.336 125.311L261.116 123.447L261.043 123.144L253.263 125.008ZM258.082 127.967L258.084 127.966L256.223 120.186L256.222 120.186L258.082 127.967ZM261.036 123.119C250.292 79.5405 206.365 52.7454 162.651 63.2189L164.515 70.9987C203.949 61.5506 243.576 85.7226 253.268 125.034L261.036 123.119ZM162.651 63.2189C118.937 73.6924 91.9225 117.484 102.093 161.2L109.885 159.387C100.71 119.952 125.081 80.4469 164.515 70.9987L162.651 63.2189ZM106.921 164.183L106.923 164.183L105.055 156.404L105.053 156.405L106.921 164.183ZM126.869 230.28L109.877 159.362L102.097 161.226L119.089 232.144L126.869 230.28ZM122.059 227.319L122.045 227.322L123.912 235.101L123.926 235.098L122.059 227.319ZM119.121 232.212C130.269 275.223 173.87 301.548 217.262 291.152L215.398 283.372C176.255 292.751 136.921 269.003 126.865 230.205L119.121 232.212ZM217.262 291.152C260.654 280.756 287.592 237.53 278.039 194.137L270.226 195.857C278.843 235 254.542 273.994 215.398 283.372L217.262 291.152ZM273.213 191.104L273.201 191.107L275.064 198.887L275.076 198.884L273.213 191.104ZM269.997 194.849L270.255 195.926L278.035 194.062L277.777 192.985L269.997 194.849Z" fill="black" mask="url(#path-4-inside-1)"/>
  </g>
  <defs>
  <clipPath id="clip0">
  <rect width="200" height="320" fill="white" transform="translate(90 43)"/>
  </clipPath>
  </defs>
</g>

</g><g id="triangle-avatar-Eyebrows">
<path d="M147.36 153.438C149.72 150.269 155.855 144.946 162.316 142.143C168.297 139.549 171.91 139.11 174.168 144.024" stroke="black" stroke-width="4"/>
<path d="M251.022 134.504C248.463 137.514 241.997 142.43 235.369 144.811C229.233 147.014 225.599 147.219 223.663 142.169" stroke="black" stroke-width="4"/>

</g><g id="triangle-avatar-Eyes">
<path fill-rule="evenodd" clip-rule="evenodd" d="M157.287 173.072C157.401 173.885 158.434 174.066 159.009 173.48C161.474 170.964 165.264 169.116 169.663 168.593C172.258 168.285 174.754 168.475 176.979 169.065C177.733 169.266 178.474 168.629 178.21 167.895C176.545 163.249 171.845 160.196 166.736 160.803C160.794 161.509 156.55 166.897 157.256 172.839C157.266 172.917 157.276 172.995 157.287 173.072Z" fill="black"/>
<path fill-rule="evenodd" clip-rule="evenodd" d="M221.385 163.073C221.498 163.886 222.531 164.067 223.106 163.482C225.549 160.996 229.298 159.17 233.649 158.653C236.213 158.348 238.681 158.535 240.88 159.117C241.634 159.316 242.375 158.679 242.111 157.946C240.456 153.352 235.804 150.335 230.748 150.935C224.862 151.635 220.658 156.973 221.357 162.859C221.366 162.93 221.375 163.002 221.385 163.073Z" fill="black"/>

</g><g id="triangle-avatar-Shirt">
<path d="M229.552 330.449L229.692 330.481L229.836 330.493C275.961 334.297 303.62 354.785 323.694 383H50.3745C66.6742 353.658 89.8579 334.982 127.445 326.412C143.458 322.761 162.113 320.94 184 320.94C193.456 320.94 200.814 322.382 207.796 324.286C210.383 324.991 212.983 325.781 215.643 326.589C220.045 327.927 224.611 329.314 229.552 330.449Z" fill="#E97C17" stroke="black" stroke-width="4"/>
<path d="M115.93 328.581L125.083 308.984C125.301 308.516 125.845 308.294 126.332 308.466C164.258 321.891 198.761 320.946 230.735 312.045C231.138 311.933 231.568 312.081 231.814 312.418L245.747 331.471C246.129 331.995 245.934 332.733 245.33 332.97C211.723 346.167 148.662 343.923 116.414 329.904C115.903 329.682 115.694 329.087 115.93 328.581Z" fill="#d4975e" stroke="black" stroke-width="4"/>

</g><g id="triangle-avatar-Facial Hair">
<path d="M156 253C156 253.552 155.552 254 155 254C154.448 254 154 253.552 154 253C154 252.448 154.448 252 155 252C155.552 252 156 252.448 156 253Z" fill="#F3D010"/>
<path d="M208 260C208 260.552 207.552 261 207 261C206.448 261 206 260.552 206 260C206 259.448 206.448 259 207 259C207.552 259 208 259.448 208 260Z" fill="#F3D010"/>
<path d="M204 267C204 267.552 203.552 268 203 268C202.448 268 202 267.552 202 267C202 266.448 202.448 266 203 266C203.552 266 204 266.448 204 267Z" fill="#F3D010"/>
<path d="M224 265C224 265.552 223.552 266 223 266C222.448 266 222 265.552 222 265C222 264.448 222.448 264 223 264C223.552 264 224 264.448 224 265Z" fill="#F3D010"/>
<path d="M225 255C225 255.552 224.552 256 224 256C223.448 256 223 255.552 223 255C223 254.448 223.448 254 224 254C224.552 254 225 254.448 225 255Z" fill="#F3D010"/>
<path d="M245 260C245 260.552 244.552 261 244 261C243.448 261 243 260.552 243 260C243 259.448 243.448 259 244 259C244.552 259 245 259.448 245 260Z" fill="#F3D010"/>
<path d="M255 246C255 246.552 254.552 247 254 247C253.448 247 253 246.552 253 246C253 245.448 253.448 245 254 245C254.552 245 255 245.448 255 246Z" fill="#F3D010"/>
<path d="M146 232C146 232.552 145.552 233 145 233C144.448 233 144 232.552 144 232C144 231.448 144.448 231 145 231C145.552 231 146 231.448 146 232Z" fill="#F3D010"/>
<path d="M179 248C179 248.552 178.552 249 178 249C177.448 249 177 248.552 177 248C177 247.448 177.448 247 178 247C178.552 247 179 247.448 179 248Z" fill="#F3D010"/>
<path d="M176 268C176 268.552 175.552 269 175 269C174.448 269 174 268.552 174 268C174 267.448 174.448 267 175 267C175.552 267 176 267.448 176 268Z" fill="#F3D010"/>
<path d="M194 272C194 272.552 193.552 273 193 273C192.448 273 192 272.552 192 272C192 271.448 192.448 271 193 271C193.552 271 194 271.448 194 272Z" fill="#F3D010"/>
<path d="M228 246C228 246.552 227.552 247 227 247C226.448 247 226 246.552 226 246C226 245.448 226.448 245 227 245C227.552 245 228 245.448 228 246Z" fill="#F3D010"/>
<path d="M242 250C242 250.552 241.552 251 241 251C240.448 251 240 250.552 240 250C240 249.448 240.448 249 241 249C241.552 249 242 249.448 242 250Z" fill="#F3D010"/>
<path d="M234 267C234 267.552 233.552 268 233 268C232.448 268 232 267.552 232 267C232 266.448 232.448 266 233 266C233.552 266 234 266.448 234 267Z" fill="#F3D010"/>
<path d="M248 236C248 236.552 247.552 237 247 237C246.448 237 246 236.552 246 236C246 235.448 246.448 235 247 235C247.552 235 248 235.448 248 236Z" fill="#F3D010"/>
<path d="M155 238C155 238.552 154.552 239 154 239C153.448 239 153 238.552 153 238C153 237.448 153.448 237 154 237C154.552 237 155 237.448 155 238Z" fill="#F3D010"/>
<path d="M179 238C179 238.552 178.552 239 178 239C177.448 239 177 238.552 177 238C177 237.448 177.448 237 178 237C178.552 237 179 237.448 179 238Z" fill="#F3D010"/>
<path d="M179 220C179 220.552 178.552 221 178 221C177.448 221 177 220.552 177 220C177 219.448 177.448 219 178 219C178.552 219 179 219.448 179 220Z" fill="#F3D010"/>
<path d="M183 274C183 274.552 182.552 275 182 275C181.448 275 181 274.552 181 274C181 273.448 181.448 273 182 273C182.552 273 183 273.448 183 274Z" fill="#F3D010"/>
<path d="M210 274C210 274.552 209.552 275 209 275C208.448 275 208 274.552 208 274C208 273.448 208.448 273 209 273C209.552 273 210 273.448 210 274Z" fill="#F3D010"/>
<path d="M221 274C221 274.552 220.552 275 220 275C219.448 275 219 274.552 219 274C219 273.448 219.448 273 220 273C220.552 273 221 273.448 221 274Z" fill="#F3D010"/>
<path d="M238 238C238 238.552 237.552 239 237 239C236.448 239 236 238.552 236 238C236 237.448 236.448 237 237 237C237.552 237 238 237.448 238 238Z" fill="#F3D010"/>
<path d="M238 220C238 220.552 237.552 221 237 221C236.448 221 236 220.552 236 220C236 219.448 236.448 219 237 219C237.552 219 238 219.448 238 220Z" fill="#F3D010"/>
<path d="M258 233C258 233.552 257.552 234 257 234C256.448 234 256 233.552 256 233C256 232.448 256.448 232 257 232C257.552 232 258 232.448 258 233Z" fill="#F3D010"/>
<path d="M158 225C158 225.552 157.552 226 157 226C156.448 226 156 225.552 156 225C156 224.448 156.448 224 157 224C157.552 224 158 224.448 158 225Z" fill="#F3D010"/>
<path d="M168 260C168 260.552 167.552 261 167 261C166.448 261 166 260.552 166 260C166 259.448 166.448 259 167 259C167.552 259 168 259.448 168 260Z" fill="#F3D010"/>
<path d="M164 267C164 267.552 163.552 268 163 268C162.448 268 162 267.552 162 267C162 266.448 162.448 266 163 266C163.552 266 164 266.448 164 267Z" fill="#F3D010"/>
<path d="M204 247C204 247.552 203.552 248 203 248C202.448 248 202 247.552 202 247C202 246.448 202.448 246 203 246C203.552 246 204 246.448 204 247Z" fill="#F3D010"/>
<path d="M216 249C216 249.552 215.552 250 215 250C214.448 250 214 249.552 214 249C214 248.448 214.448 248 215 248C215.552 248 216 248.448 216 249Z" fill="#F3D010"/>
<path d="M202 279C202 279.552 201.552 280 201 280C200.448 280 200 279.552 200 279C200 278.448 200.448 278 201 278C201.552 278 202 278.448 202 279Z" fill="#F3D010"/>
<path d="M225 228C225 228.552 224.552 229 224 229C223.448 229 223 228.552 223 228C223 227.448 223.448 227 224 227C224.552 227 225 227.448 225 228Z" fill="#F3D010"/>
<path d="M225 210C225 210.552 224.552 211 224 211C223.448 211 223 210.552 223 210C223 209.448 223.448 209 224 209C224.552 209 225 209.448 225 210Z" fill="#F3D010"/>
<path d="M249 225C249 225.552 248.552 226 248 226C247.448 226 247 225.552 247 225C247 224.448 247.448 224 248 224C248.552 224 249 224.448 249 225Z" fill="#F3D010"/>
<path d="M256 215C256 215.552 255.552 216 255 216C254.448 216 254 215.552 254 215C254 214.448 254.448 214 255 214C255.552 214 256 214.448 256 215Z" fill="#F3D010"/>
<path d="M167 234C167 234.552 166.552 235 166 235C165.448 235 165 234.552 165 234C165 233.448 165.448 233 166 233C166.552 233 167 233.448 167 234Z" fill="#F3D010"/>
<path d="M167 245C167 245.552 166.552 246 166 246C165.448 246 165 245.552 165 245C165 244.448 165.448 244 166 244C166.552 244 167 244.448 167 245Z" fill="#F3D010"/>
<path d="M188 230C188 230.552 187.552 231 187 231C186.448 231 186 230.552 186 230C186 229.448 186.448 229 187 229C187.552 229 188 229.448 188 230Z" fill="#F3D010"/>
<path d="M188 212C188 212.552 187.552 213 187 213C186.448 213 186 212.552 186 212C186 211.448 186.448 211 187 211C187.552 211 188 211.448 188 212Z" fill="#F3D010"/>
<path d="M200 226C200 226.552 199.552 227 199 227C198.448 227 198 226.552 198 226C198 225.448 198.448 225 199 225C199.552 225 200 225.448 200 226Z" fill="#F3D010"/>
<path d="M212 220C212 220.552 211.552 221 211 221C210.448 221 210 220.552 210 220C210 219.448 210.448 219 211 219C211.552 219 212 219.448 212 220Z" fill="#F3D010"/>
<path d="M225 220C225 220.552 224.552 221 224 221C223.448 221 223 220.552 223 220C223 219.448 223.448 219 224 219C224.552 219 225 219.448 225 220Z" fill="#F3D010"/>
<path d="M238 220C238 220.552 237.552 221 237 221C236.448 221 236 220.552 236 220C236 219.448 236.448 219 237 219C237.552 219 238 219.448 238 220Z" fill="#F3D010"/>
<path d="M264 220C264 220.552 263.552 221 263 221C262.448 221 262 220.552 262 220C262 219.448 262.448 219 263 219C263.552 219 264 219.448 264 220Z" fill="#F3D010"/>
<path d="M186 260C186 260.552 185.552 261 185 261C184.448 261 184 260.552 184 260C184 259.448 184.448 259 185 259C185.552 259 186 259.448 186 260Z" fill="#F3D010"/>
<path d="M197 254C197 254.552 196.552 255 196 255C195.448 255 195 254.552 195 254C195 253.448 195.448 253 196 253C196.552 253 197 253.448 197 254Z" fill="#F3D010"/>
<path d="M193 246C193 246.552 192.552 247 192 247C191.448 247 191 246.552 191 246C191 245.448 191.448 245 192 245C192.552 245 193 245.448 193 246Z" fill="#F3D010"/>
<path d="M217 237C217 237.552 216.552 238 216 238C215.448 238 215 237.552 215 237C215 236.448 215.448 236 216 236C216.552 236 217 236.448 217 237Z" fill="#F3D010"/>
<path d="M168 219C168 219.552 167.552 220 167 220C166.448 220 166 219.552 166 219C166 218.448 166.448 218 167 218C167.552 218 168 218.448 168 219Z" fill="#F3D010"/>
<path d="M205 235C205 235.552 204.552 236 204 236C203.448 236 203 235.552 203 235C203 234.448 203.448 234 204 234C204.552 234 205 234.448 205 235Z" fill="#F3D010"/>
<path d="M205 217C205 217.552 204.552 218 204 218C203.448 218 203 217.552 203 217C203 216.448 203.448 216 204 216C204.552 216 205 216.448 205 217Z" fill="#F3D010"/>
<path d="M240 231C240 231.552 239.552 232 239 232C238.448 232 238 231.552 238 231C238 230.448 238.448 230 239 230C239.552 230 240 230.448 240 231Z" fill="#F3D010"/>
<path d="M240 213C240 213.552 239.552 214 239 214C238.448 214 238 213.552 238 213C238 212.448 238.448 212 239 212C239.552 212 240 212.448 240 213Z" fill="#F3D010"/>
<path d="M247 215C247 215.552 246.552 216 246 216C245.448 216 245 215.552 245 215C245 214.448 245.448 214 246 214C246.552 214 247 214.448 247 215Z" fill="#F3D010"/>
<path d="M262 206C262 206.552 261.552 207 261 207C260.448 207 260 206.552 260 206C260 205.448 260.448 205 261 205C261.552 205 262 205.448 262 206Z" fill="#F3D010"/>
<path d="M156 253C156 253.552 155.552 254 155 254C154.448 254 154 253.552 154 253C154 252.448 154.448 252 155 252C155.552 252 156 252.448 156 253Z" stroke="#F3D010"/>
<path d="M208 260C208 260.552 207.552 261 207 261C206.448 261 206 260.552 206 260C206 259.448 206.448 259 207 259C207.552 259 208 259.448 208 260Z" stroke="#F3D010"/>
<path d="M204 267C204 267.552 203.552 268 203 268C202.448 268 202 267.552 202 267C202 266.448 202.448 266 203 266C203.552 266 204 266.448 204 267Z" stroke="#F3D010"/>
<path d="M224 265C224 265.552 223.552 266 223 266C222.448 266 222 265.552 222 265C222 264.448 222.448 264 223 264C223.552 264 224 264.448 224 265Z" stroke="#F3D010"/>
<path d="M225 255C225 255.552 224.552 256 224 256C223.448 256 223 255.552 223 255C223 254.448 223.448 254 224 254C224.552 254 225 254.448 225 255Z" stroke="#F3D010"/>
<path d="M245 260C245 260.552 244.552 261 244 261C243.448 261 243 260.552 243 260C243 259.448 243.448 259 244 259C244.552 259 245 259.448 245 260Z" stroke="#F3D010"/>
<path d="M255 246C255 246.552 254.552 247 254 247C253.448 247 253 246.552 253 246C253 245.448 253.448 245 254 245C254.552 245 255 245.448 255 246Z" stroke="#F3D010"/>
<path d="M146 232C146 232.552 145.552 233 145 233C144.448 233 144 232.552 144 232C144 231.448 144.448 231 145 231C145.552 231 146 231.448 146 232Z" stroke="#F3D010"/>
<path d="M179 248C179 248.552 178.552 249 178 249C177.448 249 177 248.552 177 248C177 247.448 177.448 247 178 247C178.552 247 179 247.448 179 248Z" stroke="#F3D010"/>
<path d="M176 268C176 268.552 175.552 269 175 269C174.448 269 174 268.552 174 268C174 267.448 174.448 267 175 267C175.552 267 176 267.448 176 268Z" stroke="#F3D010"/>
<path d="M194 272C194 272.552 193.552 273 193 273C192.448 273 192 272.552 192 272C192 271.448 192.448 271 193 271C193.552 271 194 271.448 194 272Z" stroke="#F3D010"/>
<path d="M228 246C228 246.552 227.552 247 227 247C226.448 247 226 246.552 226 246C226 245.448 226.448 245 227 245C227.552 245 228 245.448 228 246Z" stroke="#F3D010"/>
<path d="M242 250C242 250.552 241.552 251 241 251C240.448 251 240 250.552 240 250C240 249.448 240.448 249 241 249C241.552 249 242 249.448 242 250Z" stroke="#F3D010"/>
<path d="M234 267C234 267.552 233.552 268 233 268C232.448 268 232 267.552 232 267C232 266.448 232.448 266 233 266C233.552 266 234 266.448 234 267Z" stroke="#F3D010"/>
<path d="M248 236C248 236.552 247.552 237 247 237C246.448 237 246 236.552 246 236C246 235.448 246.448 235 247 235C247.552 235 248 235.448 248 236Z" stroke="#F3D010"/>
<path d="M155 238C155 238.552 154.552 239 154 239C153.448 239 153 238.552 153 238C153 237.448 153.448 237 154 237C154.552 237 155 237.448 155 238Z" stroke="#F3D010"/>
<path d="M179 238C179 238.552 178.552 239 178 239C177.448 239 177 238.552 177 238C177 237.448 177.448 237 178 237C178.552 237 179 237.448 179 238Z" stroke="#F3D010"/>
<path d="M179 220C179 220.552 178.552 221 178 221C177.448 221 177 220.552 177 220C177 219.448 177.448 219 178 219C178.552 219 179 219.448 179 220Z" stroke="#F3D010"/>
<path d="M183 274C183 274.552 182.552 275 182 275C181.448 275 181 274.552 181 274C181 273.448 181.448 273 182 273C182.552 273 183 273.448 183 274Z" stroke="#F3D010"/>
<path d="M210 274C210 274.552 209.552 275 209 275C208.448 275 208 274.552 208 274C208 273.448 208.448 273 209 273C209.552 273 210 273.448 210 274Z" stroke="#F3D010"/>
<path d="M221 274C221 274.552 220.552 275 220 275C219.448 275 219 274.552 219 274C219 273.448 219.448 273 220 273C220.552 273 221 273.448 221 274Z" stroke="#F3D010"/>
<path d="M238 238C238 238.552 237.552 239 237 239C236.448 239 236 238.552 236 238C236 237.448 236.448 237 237 237C237.552 237 238 237.448 238 238Z" stroke="#F3D010"/>
<path d="M238 220C238 220.552 237.552 221 237 221C236.448 221 236 220.552 236 220C236 219.448 236.448 219 237 219C237.552 219 238 219.448 238 220Z" stroke="#F3D010"/>
<path d="M258 233C258 233.552 257.552 234 257 234C256.448 234 256 233.552 256 233C256 232.448 256.448 232 257 232C257.552 232 258 232.448 258 233Z" stroke="#F3D010"/>
<path d="M158 225C158 225.552 157.552 226 157 226C156.448 226 156 225.552 156 225C156 224.448 156.448 224 157 224C157.552 224 158 224.448 158 225Z" stroke="#F3D010"/>
<path d="M168 260C168 260.552 167.552 261 167 261C166.448 261 166 260.552 166 260C166 259.448 166.448 259 167 259C167.552 259 168 259.448 168 260Z" stroke="#F3D010"/>
<path d="M164 267C164 267.552 163.552 268 163 268C162.448 268 162 267.552 162 267C162 266.448 162.448 266 163 266C163.552 266 164 266.448 164 267Z" stroke="#F3D010"/>
<path d="M204 247C204 247.552 203.552 248 203 248C202.448 248 202 247.552 202 247C202 246.448 202.448 246 203 246C203.552 246 204 246.448 204 247Z" stroke="#F3D010"/>
<path d="M216 249C216 249.552 215.552 250 215 250C214.448 250 214 249.552 214 249C214 248.448 214.448 248 215 248C215.552 248 216 248.448 216 249Z" stroke="#F3D010"/>
<path d="M202 279C202 279.552 201.552 280 201 280C200.448 280 200 279.552 200 279C200 278.448 200.448 278 201 278C201.552 278 202 278.448 202 279Z" stroke="#F3D010"/>
<path d="M225 228C225 228.552 224.552 229 224 229C223.448 229 223 228.552 223 228C223 227.448 223.448 227 224 227C224.552 227 225 227.448 225 228Z" stroke="#F3D010"/>
<path d="M225 210C225 210.552 224.552 211 224 211C223.448 211 223 210.552 223 210C223 209.448 223.448 209 224 209C224.552 209 225 209.448 225 210Z" stroke="#F3D010"/>
<path d="M249 225C249 225.552 248.552 226 248 226C247.448 226 247 225.552 247 225C247 224.448 247.448 224 248 224C248.552 224 249 224.448 249 225Z" stroke="#F3D010"/>
<path d="M256 215C256 215.552 255.552 216 255 216C254.448 216 254 215.552 254 215C254 214.448 254.448 214 255 214C255.552 214 256 214.448 256 215Z" stroke="#F3D010"/>
<path d="M167 234C167 234.552 166.552 235 166 235C165.448 235 165 234.552 165 234C165 233.448 165.448 233 166 233C166.552 233 167 233.448 167 234Z" stroke="#F3D010"/>
<path d="M167 245C167 245.552 166.552 246 166 246C165.448 246 165 245.552 165 245C165 244.448 165.448 244 166 244C166.552 244 167 244.448 167 245Z" stroke="#F3D010"/>
<path d="M188 230C188 230.552 187.552 231 187 231C186.448 231 186 230.552 186 230C186 229.448 186.448 229 187 229C187.552 229 188 229.448 188 230Z" stroke="#F3D010"/>
<path d="M188 212C188 212.552 187.552 213 187 213C186.448 213 186 212.552 186 212C186 211.448 186.448 211 187 211C187.552 211 188 211.448 188 212Z" stroke="#F3D010"/>
<path d="M200 226C200 226.552 199.552 227 199 227C198.448 227 198 226.552 198 226C198 225.448 198.448 225 199 225C199.552 225 200 225.448 200 226Z" stroke="#F3D010"/>
<path d="M212 220C212 220.552 211.552 221 211 221C210.448 221 210 220.552 210 220C210 219.448 210.448 219 211 219C211.552 219 212 219.448 212 220Z" stroke="#F3D010"/>
<path d="M225 220C225 220.552 224.552 221 224 221C223.448 221 223 220.552 223 220C223 219.448 223.448 219 224 219C224.552 219 225 219.448 225 220Z" stroke="#F3D010"/>
<path d="M238 220C238 220.552 237.552 221 237 221C236.448 221 236 220.552 236 220C236 219.448 236.448 219 237 219C237.552 219 238 219.448 238 220Z" stroke="#F3D010"/>
<path d="M264 220C264 220.552 263.552 221 263 221C262.448 221 262 220.552 262 220C262 219.448 262.448 219 263 219C263.552 219 264 219.448 264 220Z" stroke="#F3D010"/>
<path d="M186 260C186 260.552 185.552 261 185 261C184.448 261 184 260.552 184 260C184 259.448 184.448 259 185 259C185.552 259 186 259.448 186 260Z" stroke="#F3D010"/>
<path d="M197 254C197 254.552 196.552 255 196 255C195.448 255 195 254.552 195 254C195 253.448 195.448 253 196 253C196.552 253 197 253.448 197 254Z" stroke="#F3D010"/>
<path d="M193 246C193 246.552 192.552 247 192 247C191.448 247 191 246.552 191 246C191 245.448 191.448 245 192 245C192.552 245 193 245.448 193 246Z" stroke="#F3D010"/>
<path d="M217 237C217 237.552 216.552 238 216 238C215.448 238 215 237.552 215 237C215 236.448 215.448 236 216 236C216.552 236 217 236.448 217 237Z" stroke="#F3D010"/>
<path d="M168 219C168 219.552 167.552 220 167 220C166.448 220 166 219.552 166 219C166 218.448 166.448 218 167 218C167.552 218 168 218.448 168 219Z" stroke="#F3D010"/>
<path d="M205 235C205 235.552 204.552 236 204 236C203.448 236 203 235.552 203 235C203 234.448 203.448 234 204 234C204.552 234 205 234.448 205 235Z" stroke="#F3D010"/>
<path d="M205 217C205 217.552 204.552 218 204 218C203.448 218 203 217.552 203 217C203 216.448 203.448 216 204 216C204.552 216 205 216.448 205 217Z" stroke="#F3D010"/>
<path d="M240 231C240 231.552 239.552 232 239 232C238.448 232 238 231.552 238 231C238 230.448 238.448 230 239 230C239.552 230 240 230.448 240 231Z" stroke="#F3D010"/>
<path d="M240 213C240 213.552 239.552 214 239 214C238.448 214 238 213.552 238 213C238 212.448 238.448 212 239 212C239.552 212 240 212.448 240 213Z" stroke="#F3D010"/>
<path d="M247 215C247 215.552 246.552 216 246 216C245.448 216 245 215.552 245 215C245 214.448 245.448 214 246 214C246.552 214 247 214.448 247 215Z" stroke="#F3D010"/>
<path d="M262 206C262 206.552 261.552 207 261 207C260.448 207 260 206.552 260 206C260 205.448 260.448 205 261 205C261.552 205 262 205.448 262 206Z" stroke="#F3D010"/>

</g><g id="triangle-avatar-Mouth">
<rect x="173.248" y="222.471" width="70" height="24" rx="4" transform="rotate(-4 173.248 222.471)" fill="black"/>
<path fill-rule="evenodd" clip-rule="evenodd" d="M236.822 218.025L179.504 222.033L181.344 229.038C182.077 231.827 184.69 233.7 187.566 233.499C184.69 233.7 182.363 235.919 182.026 238.782L181.179 245.975L238.496 241.967L236.656 234.962C235.923 232.173 233.31 230.3 230.434 230.501C233.31 230.3 235.637 228.081 235.974 225.218L236.822 218.025Z" fill="white"/>
<path d="M178.067 220.845C174.411 220.582 171.323 223.61 171.581 227.296L172.6 241.866C172.857 245.552 176.337 248.12 179.921 247.351C186.865 245.86 200.142 243.217 209.737 242.546C219.333 241.875 232.849 242.645 239.933 243.155C243.589 243.418 246.677 240.39 246.419 236.704L245.4 222.134C245.143 218.448 241.663 215.88 238.079 216.649C231.135 218.14 217.858 220.783 208.263 221.454C198.667 222.125 185.151 221.355 178.067 220.845Z" stroke="black" stroke-width="4"/>

</g><g id="triangle-avatar-Nose">
<path d="M199.245 205.716C199.317 201.351 202.51 196.612 208.672 196.036C214.834 195.459 219.209 199.591 219.156 202.865" stroke="black" stroke-width="4"/>

</g><g id="triangle-avatar-Hair">
<path d="M170.271 99.673C167.272 95.8177 165.612 98.3136 162.157 103.51C161.185 104.972 160.07 106.648 158.743 108.457C158.41 108.911 157.966 109.267 157.424 109.531C157.323 109.709 157.182 109.872 156.999 110.018C149.51 113.892 146.637 114.486 144.152 115C141.353 115.578 139.046 116.055 131.195 120.999C122.411 126.529 119.614 146.693 119.614 156.026C119.614 159.392 121.614 169.473 123.914 181.064C127.99 201.607 133.006 226.893 129.497 227.946C126.869 228.735 124.871 220.721 122.478 211.127C119.87 200.673 116.795 188.343 111.928 183.477C105.908 177.457 103.315 180.116 99.7271 183.794C97.7526 185.818 95.4772 188.151 92.1639 189.516C92.1639 189.516 86.6738 186.222 81.7329 175.241C76.7919 164.261 71.302 142.85 73.4978 126.379C75.6935 109.909 88.8696 86.8515 109.183 81.3604C110.369 81.0399 111.487 80.7755 112.542 80.5617C112.557 80.341 112.585 80.1233 112.625 79.9089C115.007 67.2814 124.704 51.9107 150.508 40.3807C176.311 28.8506 211.448 49.7156 226.82 59.5965C228.426 60.6286 229.858 61.5409 231.15 62.3641L231.151 62.3651C242.227 69.4216 243.021 69.9276 254.82 83.2023C267.995 98.026 270.74 117.241 268.544 126.575C268.383 127.26 268.227 127.932 268.075 128.592C267.595 130.662 267.146 132.601 266.656 134.377C269.723 153.375 271.719 184.318 271.193 188.527C270.644 192.918 271.742 191.272 271.742 191.272V195.116L270.644 189.076L260.5 149.5C260 147.5 259.5 145.5 259.115 145.155C254.801 141.7 251.275 140.645 248.267 139.746C245.466 138.908 243.115 138.205 240.997 135.822C238.758 133.303 237.227 133.21 235.748 133.12C230.258 135.316 200.467 117.241 198.82 113.947C197.173 110.653 190.036 110.654 184.546 112.849C180.274 114.558 176.335 108.622 172.987 103.576C172.032 102.136 171.124 100.769 170.271 99.673Z" fill="#CB7F50" stroke="black" stroke-width="4"/>

</g><g id="triangle-avatar-Ear">
<path d="M120.5 183.176C118.17 182.408 115.655 182 113.08 182C102.587 182 94.0801 188.5 95.08 200.5C96.1216 213 103.587 217.5 114.08 217.5C115.248 217.5 116.391 217.397 117.5 217.201C118.711 216.987 119.881 216.661 121 216.235" stroke="#171921" stroke-width="8"/>
<path d="M121.5 216.036C119.22 216.979 116.713 217.5 114.08 217.5C103.587 217.5 96.1216 213 95.08 200.5C94.0801 188.5 102.587 182 113.08 182C116.217 182 119.267 182.606 122 183.73L121.5 216.036Z" fill="#F9C9B6"/>
<path d="M117.5 190.5C113.5 188.667 104.7 187.7 101.5 198.5" stroke="#171921" stroke-width="4"/>
<path d="M107 191C109.167 192.833 113.3 198.5 112.5 206.5" stroke="#171921" stroke-width="4"/>

</g><g id="triangle-avatar-Mask">
<path d="M137 205L135.651 202.572C145.404 204.981 172.641 203.985 187 202.5C201.5 201 207 196 215.5 194C232 190.118 252 197 271 194C272.167 205.667 273.8 232.9 271 244.5C261 260 249 276.5 213 286C184.2 293.6 149.333 260.333 137 244.5C140.333 243.5 147 239.2 147 230C145.5 221.5 145 212 137 205Z" fill="#579EE0"/>
<path d="M122 178L137 205C145 212 145.5 221.5 147 230C147 239.2 140.333 243.5 137 244.5M137 244.5C132 238.667 122 225.9 122 221.5M137 244.5C149.333 260.333 184.2 293.6 213 286C249 276.5 261 260 271 244.5C273.8 232.9 272.167 205.667 271 194C252 197 232 190.118 215.5 194C207 196 201.5 201 187 202.5C172.5 204 144.87 205 135.37 202.5" stroke="white" stroke-width="4"/>
<path d="M143.5 216C153 216 180.5 215.9 190.5 213.5C203 210.5 213.981 204.866 224 203.5C235 202 260.5 207.5 272 203.5" stroke="white" stroke-width="10"/>
<path d="M222 194L234.5 204.5C234.5 204.5 233 246.5 225 254.5" stroke="white" stroke-width="2"/>

</g></svg>
