<svg width="280" height="280" viewBox="0 0 380 380" fill="none" xmlns="http://www.w3.org/2000/svg"><g id="triangle-avatar-Background">
  <rect width="100%" height="100%" fill="#9287FF" />
</g><g id="triangle-avatar-Base">
<g clip-path="url(#clip0)">
<path d="M244 362.5C229.6 342.5 218.333 303.834 217 284.5L148.5 255L120 362.5H244Z" fill="#F9C9B6" stroke="black" stroke-width="4"/>
<mask id="mask0" mask-type="alpha" maskUnits="userSpaceOnUse" x="120" y="255" width="124" height="118">
<path d="M244 372.5C229.6 352.5 218.333 303.834 217 284.5L148.5 255L120 372.5H244Z" fill="#AC6651"/>
</mask>
<g mask="url(#mask0)">
<g style="mix-blend-mode:multiply">
<ellipse cx="214" cy="253" rx="59" ry="54" fill="black"/>
</g>
</g>
<mask id="path-4-inside-1" fill="white">
<path fill-rule="evenodd" clip-rule="evenodd" d="M273.887 193.917C273.86 193.802 273.832 193.686 273.804 193.57C273.777 193.454 273.749 193.339 273.72 193.223L257.324 124.786C257.307 124.718 257.291 124.651 257.275 124.583C257.259 124.515 257.242 124.447 257.226 124.379L257.153 124.076L257.152 124.076C246.934 82.6315 205.157 57.148 163.583 67.1088C122.009 77.0696 96.3164 118.718 105.989 160.294L105.987 160.294L122.979 231.212L122.993 231.209C133.595 272.113 175.063 297.15 216.33 287.262C257.598 277.375 283.217 236.265 274.132 194.997L274.145 194.994L273.887 193.917Z"/>
</mask>
<path fill-rule="evenodd" clip-rule="evenodd" d="M273.887 193.917C273.86 193.802 273.832 193.686 273.804 193.57C273.777 193.454 273.749 193.339 273.72 193.223L257.324 124.786C257.307 124.718 257.291 124.651 257.275 124.583C257.259 124.515 257.242 124.447 257.226 124.379L257.153 124.076L257.152 124.076C246.934 82.6315 205.157 57.148 163.583 67.1088C122.009 77.0696 96.3164 118.718 105.989 160.294L105.987 160.294L122.979 231.212L122.993 231.209C133.595 272.113 175.063 297.15 216.33 287.262C257.598 277.375 283.217 236.265 274.132 194.997L274.145 194.994L273.887 193.917Z" fill="#F9C9B6"/>
<path d="M273.887 193.917L269.993 194.832L269.995 194.841L269.997 194.849L273.887 193.917ZM273.72 193.223L269.831 194.155L269.833 194.164L269.835 194.173L273.72 193.223ZM257.324 124.786L253.431 125.708L253.434 125.718L257.324 124.786ZM257.226 124.379L253.336 125.311L253.339 125.322L257.226 124.379ZM257.153 124.076L261.043 123.144L260.112 119.256L256.223 120.186L257.153 124.076ZM257.152 124.076L253.268 125.034L254.219 128.89L258.082 127.967L257.152 124.076ZM163.583 67.1088L162.651 63.2189L163.583 67.1088ZM105.989 160.294L106.923 164.183L110.785 163.255L109.885 159.387L105.989 160.294ZM105.987 160.294L105.053 156.405L101.166 157.338L102.097 161.226L105.987 160.294ZM122.979 231.212L119.089 232.144L120.021 236.035L123.912 235.101L122.979 231.212ZM122.993 231.209L126.865 230.205L125.879 226.402L122.059 227.319L122.993 231.209ZM216.33 287.262L215.398 283.372H215.398L216.33 287.262ZM274.132 194.997L273.201 191.107L269.382 192.021L270.226 195.857L274.132 194.997ZM274.145 194.994L275.076 198.884L278.967 197.952L278.035 194.062L274.145 194.994ZM277.781 193.003C277.752 192.881 277.723 192.76 277.694 192.638L269.915 194.502C269.941 194.612 269.967 194.722 269.993 194.832L277.781 193.003ZM277.694 192.638C277.665 192.517 277.636 192.395 277.606 192.274L269.835 194.173C269.861 194.282 269.888 194.392 269.915 194.502L277.694 192.638ZM253.434 125.718L269.831 194.155L277.61 192.291L261.213 123.854L253.434 125.718ZM261.216 123.864C261.199 123.794 261.182 123.722 261.165 123.651L253.385 125.515C253.401 125.579 253.416 125.643 253.431 125.708L261.216 123.864ZM261.165 123.651C261.148 123.58 261.131 123.509 261.113 123.437L253.339 125.322C253.354 125.386 253.37 125.45 253.385 125.515L261.165 123.651ZM253.263 125.008L253.336 125.311L261.116 123.447L261.043 123.144L253.263 125.008ZM258.082 127.967L258.084 127.966L256.223 120.186L256.222 120.186L258.082 127.967ZM261.036 123.119C250.292 79.5405 206.365 52.7454 162.651 63.2189L164.515 70.9987C203.949 61.5506 243.576 85.7226 253.268 125.034L261.036 123.119ZM162.651 63.2189C118.937 73.6924 91.9225 117.484 102.093 161.2L109.885 159.387C100.71 119.952 125.081 80.4469 164.515 70.9987L162.651 63.2189ZM106.921 164.183L106.923 164.183L105.055 156.404L105.053 156.405L106.921 164.183ZM126.869 230.28L109.877 159.362L102.097 161.226L119.089 232.144L126.869 230.28ZM122.059 227.319L122.045 227.322L123.912 235.101L123.926 235.098L122.059 227.319ZM119.121 232.212C130.269 275.223 173.87 301.548 217.262 291.152L215.398 283.372C176.255 292.751 136.921 269.003 126.865 230.205L119.121 232.212ZM217.262 291.152C260.654 280.756 287.592 237.53 278.039 194.137L270.226 195.857C278.843 235 254.542 273.994 215.398 283.372L217.262 291.152ZM273.213 191.104L273.201 191.107L275.064 198.887L275.076 198.884L273.213 191.104ZM269.997 194.849L270.255 195.926L278.035 194.062L277.777 192.985L269.997 194.849Z" fill="black" mask="url(#path-4-inside-1)"/>
<path d="M270.125 194.454C279.614 234.058 255.201 273.856 215.597 283.344C192.29 288.929 168.915 282.771 151.691 268.686C134.499 252.8 130.499 201.3 126.692 176.949C140.691 208.45 176.316 210.895 210.192 204.95C238.691 199.95 261.49 198.95 261.49 159.95C263.376 162.566 268.468 187.537 270.125 194.454Z" fill="#F9C9B6"/>
</g>
<ellipse cx="209.75" cy="188.445" rx="69.5387" ry="31.1548" transform="rotate(-12.0124 209.75 188.445)" fill="url(#paint0_radial)"/>
<defs>
<radialGradient id="paint0_radial" cx="0" cy="0" r="1" gradientUnits="userSpaceOnUse" gradientTransform="translate(209.75 188.445) rotate(90) scale(31.1548 69.5387)">
<stop stop-color="#ED9E56"/>
<stop offset="1" stop-color="#F7B9B9" stop-opacity="0"/>
</radialGradient>
<clipPath id="clip0">
<rect width="200" height="320" fill="white" transform="translate(90 43)"/>
</clipPath>
</defs>

</g><g id="triangle-avatar-Eyebrows">
<path d="M147 150.5C153.167 153 168.1 153.5 178.5 135.5" stroke="black" stroke-width="4" stroke-linecap="round"/>
<path d="M214 128C219.167 133.333 232.1 140.8 242.5 128" stroke="black" stroke-width="4" stroke-linecap="round"/>
<path d="M157.148 150.458L151 145.031" stroke="black" stroke-width="4" stroke-linecap="round"/>
<path d="M236.219 133.444L238.004 125.44" stroke="black" stroke-width="4" stroke-linecap="round"/>
<path d="M165.597 146.814L161.551 139.682" stroke="black" stroke-width="4" stroke-linecap="round"/>
<path d="M228.142 133.019L229.08 124.872" stroke="black" stroke-width="4" stroke-linecap="round"/>
<path d="M172.674 141.201L170.473 133.301" stroke="black" stroke-width="4" stroke-linecap="round"/>
<path d="M219.993 132.032L219.217 123.868" stroke="black" stroke-width="4" stroke-linecap="round"/>

</g><g id="triangle-avatar-Eyes">
<path fill-rule="evenodd" clip-rule="evenodd" d="M157.287 173.072C157.401 173.885 158.434 174.066 159.009 173.48C161.474 170.964 165.264 169.116 169.663 168.593C172.258 168.285 174.754 168.475 176.979 169.065C177.733 169.266 178.474 168.629 178.21 167.895C176.545 163.249 171.845 160.196 166.736 160.803C160.794 161.509 156.55 166.897 157.256 172.839C157.266 172.917 157.276 172.995 157.287 173.072Z" fill="black"/>
<path fill-rule="evenodd" clip-rule="evenodd" d="M221.385 163.073C221.498 163.886 222.531 164.067 223.106 163.482C225.549 160.996 229.298 159.17 233.649 158.653C236.213 158.348 238.681 158.535 240.88 159.117C241.634 159.316 242.375 158.679 242.111 157.946C240.456 153.352 235.804 150.335 230.748 150.935C224.862 151.635 220.658 156.973 221.357 162.859C221.366 162.93 221.375 163.002 221.385 163.073Z" fill="black"/>

</g><g id="triangle-avatar-Shirt">
<path d="M229.552 330.449L229.692 330.481L229.836 330.493C275.961 334.297 303.62 354.785 323.694 383H50.3745C66.6742 353.658 89.8579 334.982 127.445 326.412C143.458 322.761 162.113 320.94 184 320.94C193.456 320.94 200.814 322.382 207.796 324.286C210.383 324.991 212.983 325.781 215.643 326.589C220.045 327.927 224.611 329.314 229.552 330.449Z" fill="#878787" stroke="black" stroke-width="4"/>
<path d="M115.93 328.581L125.083 308.984C125.301 308.516 125.845 308.294 126.332 308.466C164.258 321.891 198.761 320.946 230.735 312.045C231.138 311.933 231.568 312.081 231.814 312.418L245.747 331.471C246.129 331.995 245.934 332.733 245.33 332.97C211.723 346.167 148.662 343.923 116.414 329.904C115.903 329.682 115.694 329.087 115.93 328.581Z" fill="#b6b6b6" stroke="black" stroke-width="4"/>

</g><g id="triangle-avatar-Mouth">
<path d="M243.921 218.33C243.75 216.262 241.637 215.111 239.845 215.817C235.616 217.483 221.627 222.783 211.763 224.14C200.94 225.628 184.551 223.82 179.806 223.231C177.877 222.992 176.157 224.65 176.49 226.665C177.142 230.607 178.484 234.408 180.459 237.891C182.661 241.775 185.607 245.187 189.128 247.933C192.649 250.678 196.676 252.704 200.98 253.893C205.283 255.082 209.779 255.412 214.21 254.864C218.641 254.316 222.921 252.9 226.805 250.698C230.689 248.495 234.101 245.55 236.847 242.029C239.593 238.508 241.618 234.481 242.807 230.177C243.873 226.321 244.249 222.31 243.921 218.33Z" fill="#171921" stroke="#171921" stroke-width="4"/>
<mask id="mask0" mask-type="alpha" maskUnits="userSpaceOnUse" x="178" y="217" width="65" height="37">
<path d="M241.793 217.192C242.309 221.362 241.999 225.594 240.88 229.644C239.76 233.695 237.854 237.485 235.27 240.799C232.686 244.113 229.474 246.885 225.819 248.958C222.163 251.031 218.135 252.363 213.965 252.879C209.794 253.395 205.563 253.084 201.512 251.965C197.462 250.846 193.671 248.94 190.358 246.356C187.044 243.771 184.271 240.56 182.199 236.904C180.126 233.249 178.794 229.221 178.278 225.05L241.793 217.192Z" fill="#171921"/>
</mask>
<g mask="url(#mask0)">
<circle cx="214.522" cy="257.314" r="21.5" transform="rotate(-7.05286 214.522 257.314)" fill="#FC909F"/>
</g>

</g><g id="triangle-avatar-Nose">
<path d="M206.5 184C209.167 188.167 212 191.5 218.5 191.5C218.5 200 213 199 213 199" stroke="black" stroke-width="4"/>

</g><g id="triangle-avatar-Hair">
<path d="M170.271 99.673C167.272 95.8177 165.612 98.3136 162.157 103.51C161.185 104.972 160.07 106.648 158.743 108.457C158.41 108.911 157.966 109.267 157.424 109.531C157.323 109.709 157.182 109.872 156.999 110.018C149.51 113.892 146.637 114.486 144.152 115C141.353 115.578 139.046 116.055 131.195 120.999C122.411 126.529 119.614 146.693 119.614 156.026C119.614 159.392 121.614 169.473 123.914 181.064C127.99 201.607 133.006 226.893 129.497 227.946C126.869 228.735 124.871 220.721 122.478 211.127C119.87 200.673 116.795 188.343 111.928 183.477C105.908 177.457 103.315 180.116 99.7271 183.794C97.7526 185.818 95.4772 188.151 92.1639 189.516C92.1639 189.516 86.6738 186.222 81.7329 175.241C76.7919 164.261 71.302 142.85 73.4978 126.379C75.6935 109.909 88.8696 86.8515 109.183 81.3604C110.369 81.0399 111.487 80.7755 112.542 80.5617C112.557 80.341 112.585 80.1233 112.625 79.9089C115.007 67.2814 124.704 51.9107 150.508 40.3807C176.311 28.8506 211.448 49.7156 226.82 59.5965C228.426 60.6286 229.858 61.5409 231.15 62.3641L231.151 62.3651C242.227 69.4216 243.021 69.9276 254.82 83.2023C267.995 98.026 270.74 117.241 268.544 126.575C268.383 127.26 268.227 127.932 268.075 128.592C267.595 130.662 267.146 132.601 266.656 134.377C269.723 153.375 271.719 184.318 271.193 188.527C270.644 192.918 271.742 191.272 271.742 191.272V195.116L270.644 189.076L260.5 149.5C260 147.5 259.5 145.5 259.115 145.155C254.801 141.7 251.275 140.645 248.267 139.746C245.466 138.908 243.115 138.205 240.997 135.822C238.758 133.303 237.227 133.21 235.748 133.12C230.258 135.316 200.467 117.241 198.82 113.947C197.173 110.653 190.036 110.654 184.546 112.849C180.274 114.558 176.335 108.622 172.987 103.576C172.032 102.136 171.124 100.769 170.271 99.673Z" fill="#CB7F50" stroke="black" stroke-width="4"/>

</g><g id="triangle-avatar-Ear">
<path d="M120.5 183.176C118.17 182.408 115.655 182 113.08 182C102.587 182 94.0801 188.5 95.08 200.5C96.1216 213 103.587 217.5 114.08 217.5C115.248 217.5 116.391 217.397 117.5 217.201C118.711 216.987 119.881 216.661 121 216.235" stroke="#171921" stroke-width="8"/>
<path d="M121.5 216.036C119.22 216.979 116.713 217.5 114.08 217.5C103.587 217.5 96.1216 213 95.08 200.5C94.0801 188.5 102.587 182 113.08 182C116.217 182 119.267 182.606 122 183.73L121.5 216.036Z" fill="#F9C9B6"/>
<path d="M117.5 190.5C113.5 188.667 104.7 187.7 101.5 198.5" stroke="#171921" stroke-width="4"/>
<path d="M107 191C109.167 192.833 113.3 198.5 112.5 206.5" stroke="#171921" stroke-width="4"/>

</g><g id="triangle-avatar-Glasses">
<circle cx="237.961" cy="166" r="26" stroke="black" stroke-width="4"/>
<circle cx="170.961" cy="175" r="26" stroke="black" stroke-width="4"/>
<path d="M212.961 173C212.961 170.878 212.118 168.843 210.618 167.343C209.118 165.843 207.083 165 204.961 165C202.839 165 200.804 165.843 199.304 167.343C197.804 168.843 196.961 170.878 196.961 173" stroke="black" stroke-width="4"/>
<path d="M145.461 177L115.461 182.5" stroke="black" stroke-width="4"/>

</g></svg>
