<svg width="280" height="280" viewBox="0 0 380 380" fill="none" xmlns="http://www.w3.org/2000/svg"><g id="triangle-avatar-Background">
  <rect width="100%" height="100%" fill="#FFEDEF" />
<g clip-path="url(#clip0)">
<circle cx="11.6636" cy="32.6243" r="10.8823" fill="white" fill-opacity="0.3"/>
<circle cx="218.347" cy="237.346" r="11.1466" fill="white" fill-opacity="0.3"/>
<circle cx="11.6636" cy="62.1653" r="10.8823" fill="white" fill-opacity="0.3"/>
<circle cx="218.347" cy="267.604" r="11.1466" fill="white" fill-opacity="0.3"/>
<circle cx="11.6636" cy="91.7043" r="10.8823" fill="white" fill-opacity="0.3"/>
<circle cx="218.347" cy="297.86" r="11.1466" fill="white" fill-opacity="0.3"/>
<circle cx="100.284" cy="32.6243" r="10.8823" fill="white" fill-opacity="0.3"/>
<circle cx="309.119" cy="237.346" r="11.1466" fill="white" fill-opacity="0.3"/>
<circle cx="100.284" cy="62.1653" r="10.8823" fill="white" fill-opacity="0.3"/>
<circle cx="309.119" cy="267.604" r="11.1466" fill="white" fill-opacity="0.3"/>
<circle cx="100.284" cy="91.7043" r="10.8823" fill="white" fill-opacity="0.3"/>
<circle cx="309.119" cy="297.86" r="11.1466" fill="white" fill-opacity="0.3"/>
<circle cx="41.2036" cy="32.6243" r="10.8823" fill="white" fill-opacity="0.3"/>
<circle cx="248.605" cy="237.346" r="11.1466" fill="white" fill-opacity="0.3"/>
<circle cx="41.2036" cy="62.1653" r="10.8823" fill="white" fill-opacity="0.3"/>
<circle cx="248.605" cy="267.604" r="11.1466" fill="white" fill-opacity="0.3"/>
<circle cx="41.2036" cy="91.7043" r="10.8823" fill="white" fill-opacity="0.3"/>
<circle cx="248.605" cy="297.86" r="11.1466" fill="white" fill-opacity="0.3"/>
<circle cx="129.824" cy="32.6243" r="10.8823" fill="white" fill-opacity="0.3"/>
<circle cx="339.377" cy="237.346" r="11.1466" fill="white" fill-opacity="0.3"/>
<circle cx="129.824" cy="62.1653" r="10.8823" fill="white" fill-opacity="0.3"/>
<circle cx="339.377" cy="267.604" r="11.1466" fill="white" fill-opacity="0.3"/>
<circle cx="129.824" cy="91.7043" r="10.8823" fill="white" fill-opacity="0.3"/>
<circle cx="339.377" cy="297.86" r="11.1466" fill="white" fill-opacity="0.3"/>
<circle cx="70.7436" cy="32.6243" r="10.8823" fill="white" fill-opacity="0.3"/>
<circle cx="278.862" cy="237.346" r="11.1466" fill="white" fill-opacity="0.3"/>
<circle cx="70.7436" cy="62.1653" r="10.8823" fill="white" fill-opacity="0.3"/>
<circle cx="278.862" cy="267.604" r="11.1466" fill="white" fill-opacity="0.3"/>
<circle cx="70.7436" cy="91.7043" r="10.8823" fill="white" fill-opacity="0.3"/>
<circle cx="278.862" cy="297.86" r="11.1466" fill="white" fill-opacity="0.3"/>
<circle cx="159.365" cy="32.6243" r="10.8823" fill="white" fill-opacity="0.3"/>
<circle cx="369.635" cy="237.346" r="11.1466" fill="white" fill-opacity="0.3"/>
<circle cx="159.365" cy="62.1653" r="10.8823" fill="white" fill-opacity="0.3"/>
<circle cx="369.635" cy="267.604" r="11.1466" fill="white" fill-opacity="0.3"/>
<circle cx="159.365" cy="91.7043" r="10.8823" fill="white" fill-opacity="0.3"/>
<circle cx="369.635" cy="297.86" r="11.1466" fill="white" fill-opacity="0.3"/>
</g>
<defs>
<clipPath id="clip0">
<rect width="380" height="380" fill="white" transform="translate(0.78125)"/>
</clipPath>
</defs>

</g><g id="triangle-avatar-Base">
<g>
  <g clip-path="url(#clip0)">
  <path d="M244 362.5C229.6 342.5 218.333 303.834 217 284.5L148.5 255L120 362.5H244Z" fill="#F9C9B6" stroke="black" stroke-width="4"/>
  <mask id="mask0" mask-type="alpha" maskUnits="userSpaceOnUse" x="120" y="255" width="124" height="118">
  <path d="M244 372.5C229.6 352.5 218.333 303.834 217 284.5L148.5 255L120 372.5H244Z" fill="#AC6651"/>
  </mask>
  <g mask="url(#mask0)">
  <g style="mix-blend-mode:multiply">
  <ellipse cx="214" cy="253" rx="59" ry="54" fill="black"/>
  </g>
  </g>
  <mask id="path-4-inside-1" fill="white">
  <path fill-rule="evenodd" clip-rule="evenodd" d="M273.887 193.917C273.86 193.802 273.832 193.686 273.804 193.57C273.777 193.454 273.749 193.339 273.72 193.223L257.324 124.786C257.307 124.718 257.291 124.651 257.275 124.583C257.259 124.515 257.242 124.447 257.226 124.379L257.153 124.076L257.152 124.076C246.934 82.6315 205.157 57.148 163.583 67.1088C122.009 77.0696 96.3164 118.718 105.989 160.294L105.987 160.294L122.979 231.212L122.993 231.209C133.595 272.113 175.063 297.15 216.33 287.262C257.598 277.375 283.217 236.265 274.132 194.997L274.145 194.994L273.887 193.917Z"/>
  </mask>
  <path fill-rule="evenodd" clip-rule="evenodd" d="M273.887 193.917C273.86 193.802 273.832 193.686 273.804 193.57C273.777 193.454 273.749 193.339 273.72 193.223L257.324 124.786C257.307 124.718 257.291 124.651 257.275 124.583C257.259 124.515 257.242 124.447 257.226 124.379L257.153 124.076L257.152 124.076C246.934 82.6315 205.157 57.148 163.583 67.1088C122.009 77.0696 96.3164 118.718 105.989 160.294L105.987 160.294L122.979 231.212L122.993 231.209C133.595 272.113 175.063 297.15 216.33 287.262C257.598 277.375 283.217 236.265 274.132 194.997L274.145 194.994L273.887 193.917Z" fill="#F9C9B6"/>
  <path d="M273.887 193.917L269.993 194.832L269.995 194.841L269.997 194.849L273.887 193.917ZM273.72 193.223L269.831 194.155L269.833 194.164L269.835 194.173L273.72 193.223ZM257.324 124.786L253.431 125.708L253.434 125.718L257.324 124.786ZM257.226 124.379L253.336 125.311L253.339 125.322L257.226 124.379ZM257.153 124.076L261.043 123.144L260.112 119.256L256.223 120.186L257.153 124.076ZM257.152 124.076L253.268 125.034L254.219 128.89L258.082 127.967L257.152 124.076ZM163.583 67.1088L162.651 63.2189L163.583 67.1088ZM105.989 160.294L106.923 164.183L110.785 163.255L109.885 159.387L105.989 160.294ZM105.987 160.294L105.053 156.405L101.166 157.338L102.097 161.226L105.987 160.294ZM122.979 231.212L119.089 232.144L120.021 236.035L123.912 235.101L122.979 231.212ZM122.993 231.209L126.865 230.205L125.879 226.402L122.059 227.319L122.993 231.209ZM216.33 287.262L215.398 283.372H215.398L216.33 287.262ZM274.132 194.997L273.201 191.107L269.382 192.021L270.226 195.857L274.132 194.997ZM274.145 194.994L275.076 198.884L278.967 197.952L278.035 194.062L274.145 194.994ZM277.781 193.003C277.752 192.881 277.723 192.76 277.694 192.638L269.915 194.502C269.941 194.612 269.967 194.722 269.993 194.832L277.781 193.003ZM277.694 192.638C277.665 192.517 277.636 192.395 277.606 192.274L269.835 194.173C269.861 194.282 269.888 194.392 269.915 194.502L277.694 192.638ZM253.434 125.718L269.831 194.155L277.61 192.291L261.213 123.854L253.434 125.718ZM261.216 123.864C261.199 123.794 261.182 123.722 261.165 123.651L253.385 125.515C253.401 125.579 253.416 125.643 253.431 125.708L261.216 123.864ZM261.165 123.651C261.148 123.58 261.131 123.509 261.113 123.437L253.339 125.322C253.354 125.386 253.37 125.45 253.385 125.515L261.165 123.651ZM253.263 125.008L253.336 125.311L261.116 123.447L261.043 123.144L253.263 125.008ZM258.082 127.967L258.084 127.966L256.223 120.186L256.222 120.186L258.082 127.967ZM261.036 123.119C250.292 79.5405 206.365 52.7454 162.651 63.2189L164.515 70.9987C203.949 61.5506 243.576 85.7226 253.268 125.034L261.036 123.119ZM162.651 63.2189C118.937 73.6924 91.9225 117.484 102.093 161.2L109.885 159.387C100.71 119.952 125.081 80.4469 164.515 70.9987L162.651 63.2189ZM106.921 164.183L106.923 164.183L105.055 156.404L105.053 156.405L106.921 164.183ZM126.869 230.28L109.877 159.362L102.097 161.226L119.089 232.144L126.869 230.28ZM122.059 227.319L122.045 227.322L123.912 235.101L123.926 235.098L122.059 227.319ZM119.121 232.212C130.269 275.223 173.87 301.548 217.262 291.152L215.398 283.372C176.255 292.751 136.921 269.003 126.865 230.205L119.121 232.212ZM217.262 291.152C260.654 280.756 287.592 237.53 278.039 194.137L270.226 195.857C278.843 235 254.542 273.994 215.398 283.372L217.262 291.152ZM273.213 191.104L273.201 191.107L275.064 198.887L275.076 198.884L273.213 191.104ZM269.997 194.849L270.255 195.926L278.035 194.062L277.777 192.985L269.997 194.849Z" fill="black" mask="url(#path-4-inside-1)"/>
  </g>
  <defs>
  <clipPath id="clip0">
  <rect width="200" height="320" fill="white" transform="translate(90 43)"/>
  </clipPath>
  </defs>
</g>

</g><g id="triangle-avatar-Eyebrows">
<path d="M147 150.5C153.167 153 168.1 153.5 178.5 135.5" stroke="black" stroke-width="4" stroke-linecap="round"/>
<path d="M214 128C219.167 133.333 232.1 140.8 242.5 128" stroke="black" stroke-width="4" stroke-linecap="round"/>

</g><g id="triangle-avatar-Eyes">
<ellipse cx="168.117" cy="167.928" rx="9" ry="10" transform="rotate(-6.77646 168.117 167.928)" fill="black"/>
<ellipse cx="232.148" cy="157.924" rx="9" ry="10" transform="rotate(-6.27568 232.148 157.924)" fill="black"/>

</g><g id="triangle-avatar-Shirt">
<path d="M229.552 330.449L229.692 330.481L229.836 330.493C275.961 334.297 303.62 354.785 323.694 383H50.3745C66.6742 353.658 89.8579 334.982 127.445 326.412C143.458 322.761 162.113 320.94 184 320.94C193.456 320.94 200.814 322.382 207.796 324.286C210.383 324.991 212.983 325.781 215.643 326.589C220.045 327.927 224.611 329.314 229.552 330.449Z" fill="#F4D150" stroke="black" stroke-width="4"/>
<path d="M115.93 328.581L125.083 308.984C125.301 308.516 125.845 308.294 126.332 308.466C164.258 321.891 198.761 320.946 230.735 312.045C231.138 311.933 231.568 312.081 231.814 312.418L245.747 331.471C246.129 331.995 245.934 332.733 245.33 332.97C211.723 346.167 148.662 343.923 116.414 329.904C115.903 329.682 115.694 329.087 115.93 328.581Z" fill="#FFEBA4" stroke="black" stroke-width="4"/>

</g><g id="triangle-avatar-Mouth">
<path d="M206 221.696C210.167 219.363 227 216.396 227 223.196C227 231.696 215.5 231.196 215.5 231.196C215.5 231.196 228.545 228.035 226 237.196C223.5 246.196 216.5 242.696 214.5 241.696" stroke="black" stroke-width="4"/>

</g><g id="triangle-avatar-Nose">
<path d="M204.13 177.094C206.078 190.958 214.541 200.877 214.541 200.877C214.541 200.877 211.91 207.306 201.729 206.717" stroke="#171921" stroke-width="4"/>

</g><g id="triangle-avatar-Hair">
<path fill-rule="evenodd" clip-rule="evenodd" d="M227.133 74.2252C225.931 75.155 224.886 76.7636 224.295 79.3453C224.117 80.1159 224.306 80.8858 224.745 81.4733C224.447 88.2166 226.335 99.2434 229.721 108.204C231.904 113.983 234.751 118.892 237.903 121.486C239.825 123.068 242.024 124.652 244.205 124.861C246.681 127.084 249.63 129.183 253.163 131.356C253.326 131.456 253.492 131.56 253.663 131.666C254.927 132.453 256.395 133.366 257.904 133.814C259.486 134.284 261.112 134.305 262.701 133.598C264.672 132.722 265.846 130.532 265.888 127.499C265.952 122.943 263.59 116.138 262.919 114.308C262.454 113.045 247.883 86.0985 237.63 76.8209C236.7 75.9795 235.793 75.2738 234.925 74.715C233.905 73.9601 232.801 73.4691 231.611 73.2626C230.936 73.1254 230.292 73.0987 229.682 73.1744C229.619 73.1791 229.556 73.1844 229.493 73.1905C228.621 73.2742 227.822 73.6072 227.133 74.2252Z" fill="black"/>
<path fill-rule="evenodd" clip-rule="evenodd" d="M102.752 161.593C101.058 161.167 99.5443 160.159 98.2658 158.606C98.0861 158.388 97.9237 158.193 97.7745 158.014L97.7735 158.012C96.613 156.62 96.244 156.178 94.639 152.966C89.886 143.455 90.6772 126.458 94.6391 115.456C97.4769 107.579 105.8 94.5763 110.86 91.1147C111.679 90.4872 112.388 89.917 113 89.4246L113 89.4244L113 89.4244C113.473 89.0439 113.888 88.71 114.251 88.4321C114.314 88.3715 114.378 88.3133 114.443 88.2576C114.75 87.9962 115.105 87.7787 115.504 87.6157C115.547 87.5968 115.589 87.5804 115.63 87.5666C116.404 87.2786 117.335 87.191 118.386 87.3761C119.705 87.6089 121.336 88.341 122.878 89.4233C123.978 89.7572 125.043 90.1963 125.875 90.6611C127.06 91.3232 127.833 92.1251 128.152 92.7108C132.056 99.8856 134.028 107.672 132.955 115.912C132.617 118.51 131.547 121.82 130.333 125.245C130.536 135.754 127.949 145.906 118.818 154.354C117.351 155.544 116.12 156.616 115.041 157.557C111.351 160.771 109.42 162.454 105.818 162.081C104.8 162.423 103.911 162.263 103.228 161.921C103.127 161.871 102.949 161.761 102.752 161.593Z" fill="black"/>

</g><g id="triangle-avatar-Ear">
<path d="M120.5 183.176C118.17 182.408 115.655 182 113.08 182C102.587 182 94.0801 188.5 95.08 200.5C96.1216 213 103.587 217.5 114.08 217.5C115.248 217.5 116.391 217.397 117.5 217.201C118.711 216.987 119.881 216.661 121 216.235" stroke="#171921" stroke-width="8"/>
<path d="M121.5 216.036C119.22 216.979 116.713 217.5 114.08 217.5C103.587 217.5 96.1216 213 95.08 200.5C94.0801 188.5 102.587 182 113.08 182C116.217 182 119.267 182.606 122 183.73L121.5 216.036Z" fill="#F9C9B6"/>
<path d="M117.5 190.5C113.5 188.667 104.7 187.7 101.5 198.5" stroke="#171921" stroke-width="4"/>
<path d="M107 191C109.167 192.833 113.3 198.5 112.5 206.5" stroke="#171921" stroke-width="4"/>

</g></svg>
