<svg width="280" height="280" viewBox="0 0 380 380" fill="none" xmlns="http://www.w3.org/2000/svg"><g id="triangle-avatar-Background">
  <rect width="100%" height="100%" fill="#FFEDEF" />
<g clip-path="url(#clip0)">
<path fill-rule="evenodd" clip-rule="evenodd" d="M0.78125 322.898L16.7812 312.822C32.7812 302.745 63.7812 284.271 95.7812 287.63C127.781 290.989 158.781 316.18 190.781 316.18C222.781 316.18 253.781 290.989 285.781 270.836C317.781 252.362 348.781 238.926 364.781 233.888L380.781 227.17V379.999H364.781C348.781 379.999 317.781 379.999 285.781 379.999C253.781 379.999 222.781 379.999 190.781 379.999C158.781 379.999 127.781 379.999 95.7812 379.999C63.7812 379.999 32.7812 379.999 16.7812 379.999H0.78125V322.898Z" fill="url(#paint0_linear)" fill-opacity="0.3"/>
<path fill-rule="evenodd" clip-rule="evenodd" d="M0.78125 64.842H16.7812C32.7812 64.842 63.7812 64.842 95.7812 85.6217C127.781 102.938 158.781 144.497 190.781 161.814C222.781 182.593 253.781 182.593 285.781 168.74C317.781 154.887 348.781 130.644 364.781 116.791L380.781 102.938V380H364.781C348.781 380 317.781 380 285.781 380C253.781 380 222.781 380 190.781 380C158.781 380 127.781 380 95.7812 380C63.7812 380 32.7812 380 16.7812 380H0.78125V64.842Z" fill="url(#paint1_linear)" fill-opacity="0.3"/>
</g>
<defs>
<linearGradient id="paint0_linear" x1="190.781" y1="227.17" x2="190.781" y2="379.999" gradientUnits="userSpaceOnUse">
<stop stop-color="white"/>
<stop offset="1" stop-color="white" stop-opacity="0"/>
</linearGradient>
<linearGradient id="paint1_linear" x1="190.781" y1="64.842" x2="190.781" y2="380" gradientUnits="userSpaceOnUse">
<stop stop-color="white"/>
<stop offset="1" stop-color="white" stop-opacity="0"/>
</linearGradient>
<clipPath id="clip0">
<rect width="380" height="380" fill="white" transform="translate(0.78125)"/>
</clipPath>
</defs>

</g><g id="triangle-avatar-Base">
<g clip-path="url(#clip0)">
<path d="M244 362.5C229.6 342.5 218.333 303.834 217 284.5L148.5 255L120 362.5H244Z" fill="#FFDACB" stroke="black" stroke-width="4"/>
<mask id="mask0" mask-type="alpha" maskUnits="userSpaceOnUse" x="120" y="255" width="124" height="118">
<path d="M244 372.5C229.6 352.5 218.333 303.834 217 284.5L148.5 255L120 372.5H244Z" fill="#AC6651"/>
</mask>
<g mask="url(#mask0)">
<g style="mix-blend-mode:multiply">
<ellipse cx="214" cy="253" rx="59" ry="54" fill="black"/>
</g>
</g>
<mask id="path-4-inside-1" fill="white">
<path fill-rule="evenodd" clip-rule="evenodd" d="M273.887 193.917C273.86 193.802 273.832 193.686 273.804 193.57C273.777 193.454 273.749 193.339 273.72 193.223L257.324 124.786C257.307 124.718 257.291 124.651 257.275 124.583C257.259 124.515 257.242 124.447 257.226 124.379L257.153 124.076L257.152 124.076C246.934 82.6315 205.157 57.148 163.583 67.1088C122.009 77.0696 96.3164 118.718 105.989 160.294L105.987 160.294L122.979 231.212L122.993 231.209C133.595 272.113 175.063 297.15 216.33 287.262C257.598 277.375 283.217 236.265 274.132 194.997L274.145 194.994L273.887 193.917Z"/>
</mask>
<path fill-rule="evenodd" clip-rule="evenodd" d="M273.887 193.917C273.86 193.802 273.832 193.686 273.804 193.57C273.777 193.454 273.749 193.339 273.72 193.223L257.324 124.786C257.307 124.718 257.291 124.651 257.275 124.583C257.259 124.515 257.242 124.447 257.226 124.379L257.153 124.076L257.152 124.076C246.934 82.6315 205.157 57.148 163.583 67.1088C122.009 77.0696 96.3164 118.718 105.989 160.294L105.987 160.294L122.979 231.212L122.993 231.209C133.595 272.113 175.063 297.15 216.33 287.262C257.598 277.375 283.217 236.265 274.132 194.997L274.145 194.994L273.887 193.917Z" fill="#FFDACB"/>
<path d="M273.887 193.917L269.993 194.832L269.995 194.841L269.997 194.849L273.887 193.917ZM273.72 193.223L269.831 194.155L269.833 194.164L269.835 194.173L273.72 193.223ZM257.324 124.786L253.431 125.708L253.434 125.718L257.324 124.786ZM257.226 124.379L253.336 125.311L253.339 125.322L257.226 124.379ZM257.153 124.076L261.043 123.144L260.112 119.256L256.223 120.186L257.153 124.076ZM257.152 124.076L253.268 125.034L254.219 128.89L258.082 127.967L257.152 124.076ZM163.583 67.1088L162.651 63.2189L163.583 67.1088ZM105.989 160.294L106.923 164.183L110.785 163.255L109.885 159.387L105.989 160.294ZM105.987 160.294L105.053 156.405L101.166 157.338L102.097 161.226L105.987 160.294ZM122.979 231.212L119.089 232.144L120.021 236.035L123.912 235.101L122.979 231.212ZM122.993 231.209L126.865 230.205L125.879 226.402L122.059 227.319L122.993 231.209ZM216.33 287.262L215.398 283.372H215.398L216.33 287.262ZM274.132 194.997L273.201 191.107L269.382 192.021L270.226 195.857L274.132 194.997ZM274.145 194.994L275.076 198.884L278.967 197.952L278.035 194.062L274.145 194.994ZM277.781 193.003C277.752 192.881 277.723 192.76 277.694 192.638L269.915 194.502C269.941 194.612 269.967 194.722 269.993 194.832L277.781 193.003ZM277.694 192.638C277.665 192.517 277.636 192.395 277.606 192.274L269.835 194.173C269.861 194.282 269.888 194.392 269.915 194.502L277.694 192.638ZM253.434 125.718L269.831 194.155L277.61 192.291L261.213 123.854L253.434 125.718ZM261.216 123.864C261.199 123.794 261.182 123.722 261.165 123.651L253.385 125.515C253.401 125.579 253.416 125.643 253.431 125.708L261.216 123.864ZM261.165 123.651C261.148 123.58 261.131 123.509 261.113 123.437L253.339 125.322C253.354 125.386 253.37 125.45 253.385 125.515L261.165 123.651ZM253.263 125.008L253.336 125.311L261.116 123.447L261.043 123.144L253.263 125.008ZM258.082 127.967L258.084 127.966L256.223 120.186L256.222 120.186L258.082 127.967ZM261.036 123.119C250.292 79.5405 206.365 52.7454 162.651 63.2189L164.515 70.9987C203.949 61.5506 243.576 85.7226 253.268 125.034L261.036 123.119ZM162.651 63.2189C118.937 73.6924 91.9225 117.484 102.093 161.2L109.885 159.387C100.71 119.952 125.081 80.4469 164.515 70.9987L162.651 63.2189ZM106.921 164.183L106.923 164.183L105.055 156.404L105.053 156.405L106.921 164.183ZM126.869 230.28L109.877 159.362L102.097 161.226L119.089 232.144L126.869 230.28ZM122.059 227.319L122.045 227.322L123.912 235.101L123.926 235.098L122.059 227.319ZM119.121 232.212C130.269 275.223 173.87 301.548 217.262 291.152L215.398 283.372C176.255 292.751 136.921 269.003 126.865 230.205L119.121 232.212ZM217.262 291.152C260.654 280.756 287.592 237.53 278.039 194.137L270.226 195.857C278.843 235 254.542 273.994 215.398 283.372L217.262 291.152ZM273.213 191.104L273.201 191.107L275.064 198.887L275.076 198.884L273.213 191.104ZM269.997 194.849L270.255 195.926L278.035 194.062L277.777 192.985L269.997 194.849Z" fill="black" mask="url(#path-4-inside-1)"/>
<path d="M270.125 194.454C279.614 234.058 255.201 273.856 215.597 283.344C192.29 288.929 168.915 282.771 151.691 268.686C134.499 252.8 130.499 201.3 126.692 176.949C140.691 208.45 176.316 210.895 210.192 204.95C238.691 199.95 261.49 198.95 261.49 159.95C263.376 162.566 268.468 187.537 270.125 194.454Z" fill="#FFDACB"/>
</g>
<ellipse cx="209.75" cy="188.445" rx="69.5387" ry="31.1548" transform="rotate(-12.0124 209.75 188.445)" fill="url(#paint0_radial)"/>
<defs>
<radialGradient id="paint0_radial" cx="0" cy="0" r="1" gradientUnits="userSpaceOnUse" gradientTransform="translate(209.75 188.445) rotate(90) scale(31.1548 69.5387)">
<stop stop-color="#ED9E56"/>
<stop offset="1" stop-color="#F7B9B9" stop-opacity="0"/>
</radialGradient>
<clipPath id="clip0">
<rect width="200" height="320" fill="white" transform="translate(90 43)"/>
</clipPath>
</defs>

</g><g id="triangle-avatar-Eyebrows">
<path d="M147.36 153.438C149.72 150.269 155.855 144.946 162.316 142.143C168.297 139.549 171.91 139.11 174.168 144.024" stroke="black" stroke-width="4"/>
<path d="M251.022 134.504C248.463 137.514 241.997 142.43 235.369 144.811C229.233 147.014 225.599 147.219 223.663 142.169" stroke="black" stroke-width="4"/>

</g><g id="triangle-avatar-Eyes">
<circle cx="167.24" cy="159.24" r="12" transform="rotate(-6.27568 167.24 159.24)" fill="#D2EFF3"/>
<ellipse cx="168.53" cy="168.403" rx="9" ry="13.5" transform="rotate(-6.77646 168.53 168.403)" fill="black"/>
<circle cx="231.019" cy="150.612" r="12" transform="rotate(-6.27568 231.019 150.612)" fill="#D2EFF3"/>
<ellipse cx="232.53" cy="158.403" rx="9" ry="13.5" transform="rotate(-6.27568 232.53 158.403)" fill="black"/>

</g><g id="triangle-avatar-Shirt">
<path d="M229.552 330.449L229.692 330.481L229.836 330.493C275.961 334.297 303.62 354.785 323.694 383H50.3745C66.6742 353.658 89.8579 334.982 127.445 326.412C143.458 322.761 162.113 320.94 184 320.94C193.456 320.94 200.814 322.382 207.796 324.286C210.383 324.991 212.983 325.781 215.643 326.589C220.045 327.927 224.611 329.314 229.552 330.449Z" fill="#9287FF" stroke="black" stroke-width="4"/>
<path d="M115.93 328.581L125.083 308.984C125.301 308.516 125.845 308.294 126.332 308.466C164.258 321.891 198.761 320.946 230.735 312.045C231.138 311.933 231.568 312.081 231.814 312.418L245.747 331.471C246.129 331.995 245.934 332.733 245.33 332.97C211.723 346.167 148.662 343.923 116.414 329.904C115.903 329.682 115.694 329.087 115.93 328.581Z" fill="#E0DDFF" stroke="black" stroke-width="4"/>

</g><g id="triangle-avatar-Mouth">
<path d="M243.921 218.33C243.75 216.262 241.637 215.111 239.845 215.817C235.616 217.483 221.627 222.783 211.763 224.14C200.94 225.628 184.551 223.82 179.806 223.231C177.877 222.992 176.157 224.65 176.49 226.665C177.142 230.607 178.484 234.408 180.459 237.891C182.661 241.775 185.607 245.187 189.128 247.933C192.649 250.678 196.676 252.704 200.98 253.893C205.283 255.082 209.779 255.412 214.21 254.864C218.641 254.316 222.921 252.9 226.805 250.698C230.689 248.495 234.101 245.55 236.847 242.029C239.593 238.508 241.618 234.481 242.807 230.177C243.873 226.321 244.249 222.31 243.921 218.33Z" fill="#171921" stroke="#171921" stroke-width="4"/>
<mask id="mask0" mask-type="alpha" maskUnits="userSpaceOnUse" x="178" y="217" width="65" height="37">
<path d="M241.793 217.192C242.309 221.362 241.999 225.594 240.88 229.644C239.76 233.695 237.854 237.485 235.27 240.799C232.686 244.113 229.474 246.885 225.819 248.958C222.163 251.031 218.135 252.363 213.965 252.879C209.794 253.395 205.563 253.084 201.512 251.965C197.462 250.846 193.671 248.94 190.358 246.356C187.044 243.771 184.271 240.56 182.199 236.904C180.126 233.249 178.794 229.221 178.278 225.05L241.793 217.192Z" fill="#171921"/>
</mask>
<g mask="url(#mask0)">
<circle cx="214.522" cy="257.314" r="21.5" transform="rotate(-7.05286 214.522 257.314)" fill="#FC909F"/>
</g>

</g><g id="triangle-avatar-Nose">
<path d="M206.5 184C209.167 188.167 212 191.5 218.5 191.5C218.5 200 213 199 213 199" stroke="black" stroke-width="4"/>

</g><g id="triangle-avatar-Hair">
<path d="M281.726 131.791C281.726 65.702 245.268 21.0001 200.859 21C143.966 21 86 42.3414 86 143.255C86 168.223 96.6589 186.827 111.564 200.54C110.07 198.671 108.867 196.996 108.067 195.619C105.176 168.638 137.233 147.929 168.601 127.665C185.254 116.907 201.712 106.275 212.646 94.8956C222.24 100.332 250.44 123.109 255.813 132.32C258.695 137.26 263.322 154.189 266.484 173.95C276.822 161.532 281.726 149.107 281.726 131.791Z" fill="white" stroke="black" stroke-width="4"/>
<path d="M213.264 94.2459C226.438 82.3014 246.146 55.04 244.881 37.3341" stroke="black" stroke-width="4"/>

</g><g id="triangle-avatar-Ear">
<path d="M120.5 183.176C118.17 182.408 115.655 182 113.08 182C102.587 182 94.0801 188.5 95.08 200.5C96.1216 213 103.587 217.5 114.08 217.5C115.248 217.5 116.391 217.397 117.5 217.201C118.711 216.987 119.881 216.661 121 216.235" stroke="#171921" stroke-width="8"/>
<path d="M121.5 216.036C119.22 216.979 116.713 217.5 114.08 217.5C103.587 217.5 96.1216 213 95.08 200.5C94.0801 188.5 102.587 182 113.08 182C116.217 182 119.267 182.606 122 183.73L121.5 216.036Z" fill="#FFDACB"/>
<path d="M117.5 190.5C113.5 188.667 104.7 187.7 101.5 198.5" stroke="#171921" stroke-width="4"/>
<path d="M107 191C109.167 192.833 113.3 198.5 112.5 206.5" stroke="#171921" stroke-width="4"/>

</g><g id="triangle-avatar-Ear Ring">
<path d="M107 204C120.255 204 131 214.745 131 228C131 241.255 120.255 252 107 252C93.7452 252 83 241.255 83 228C83 221.609 86.5 216.5 89.5715 211.5L90.5 210" stroke="#F4D150" stroke-width="4"/>

</g></svg>
