<svg width="280" height="280" viewBox="0 0 380 380" fill="none" xmlns="http://www.w3.org/2000/svg"><g id="triangle-avatar-Background">
  <rect width="100%" height="100%" fill="#FC909F" />
</g><g id="triangle-avatar-Base">
<g clip-path="url(#clip0)">
<path d="M244 362.5C229.6 342.5 218.333 303.834 217 284.5L148.5 255L120 362.5H244Z" fill="#77311D" stroke="black" stroke-width="4"/>
<mask id="mask0" mask-type="alpha" maskUnits="userSpaceOnUse" x="120" y="255" width="124" height="118">
<path d="M244 372.5C229.6 352.5 218.333 303.834 217 284.5L148.5 255L120 372.5H244Z" fill="#AC6651"/>
</mask>
<g mask="url(#mask0)">
<g style="mix-blend-mode:multiply">
<ellipse cx="214" cy="253" rx="59" ry="54" fill="black"/>
</g>
</g>
<mask id="path-4-inside-1" fill="white">
<path fill-rule="evenodd" clip-rule="evenodd" d="M273.887 193.917C273.86 193.802 273.832 193.686 273.804 193.57C273.777 193.454 273.749 193.339 273.72 193.223L257.324 124.786C257.307 124.718 257.291 124.651 257.275 124.583C257.259 124.515 257.242 124.447 257.226 124.379L257.153 124.076L257.152 124.076C246.934 82.6315 205.157 57.148 163.583 67.1088C122.009 77.0696 96.3164 118.718 105.989 160.294L105.987 160.294L122.979 231.212L122.993 231.209C133.595 272.113 175.063 297.15 216.33 287.262C257.598 277.375 283.217 236.265 274.132 194.997L274.145 194.994L273.887 193.917Z"/>
</mask>
<path fill-rule="evenodd" clip-rule="evenodd" d="M273.887 193.917C273.86 193.802 273.832 193.686 273.804 193.57C273.777 193.454 273.749 193.339 273.72 193.223L257.324 124.786C257.307 124.718 257.291 124.651 257.275 124.583C257.259 124.515 257.242 124.447 257.226 124.379L257.153 124.076L257.152 124.076C246.934 82.6315 205.157 57.148 163.583 67.1088C122.009 77.0696 96.3164 118.718 105.989 160.294L105.987 160.294L122.979 231.212L122.993 231.209C133.595 272.113 175.063 297.15 216.33 287.262C257.598 277.375 283.217 236.265 274.132 194.997L274.145 194.994L273.887 193.917Z" fill="#77311D"/>
<path d="M273.887 193.917L269.993 194.832L269.995 194.841L269.997 194.849L273.887 193.917ZM273.72 193.223L269.831 194.155L269.833 194.164L269.835 194.173L273.72 193.223ZM257.324 124.786L253.431 125.708L253.434 125.718L257.324 124.786ZM257.226 124.379L253.336 125.311L253.339 125.322L257.226 124.379ZM257.153 124.076L261.043 123.144L260.112 119.256L256.223 120.186L257.153 124.076ZM257.152 124.076L253.268 125.034L254.219 128.89L258.082 127.967L257.152 124.076ZM163.583 67.1088L162.651 63.2189L163.583 67.1088ZM105.989 160.294L106.923 164.183L110.785 163.255L109.885 159.387L105.989 160.294ZM105.987 160.294L105.053 156.405L101.166 157.338L102.097 161.226L105.987 160.294ZM122.979 231.212L119.089 232.144L120.021 236.035L123.912 235.101L122.979 231.212ZM122.993 231.209L126.865 230.205L125.879 226.402L122.059 227.319L122.993 231.209ZM216.33 287.262L215.398 283.372H215.398L216.33 287.262ZM274.132 194.997L273.201 191.107L269.382 192.021L270.226 195.857L274.132 194.997ZM274.145 194.994L275.076 198.884L278.967 197.952L278.035 194.062L274.145 194.994ZM277.781 193.003C277.752 192.881 277.723 192.76 277.694 192.638L269.915 194.502C269.941 194.612 269.967 194.722 269.993 194.832L277.781 193.003ZM277.694 192.638C277.665 192.517 277.636 192.395 277.606 192.274L269.835 194.173C269.861 194.282 269.888 194.392 269.915 194.502L277.694 192.638ZM253.434 125.718L269.831 194.155L277.61 192.291L261.213 123.854L253.434 125.718ZM261.216 123.864C261.199 123.794 261.182 123.722 261.165 123.651L253.385 125.515C253.401 125.579 253.416 125.643 253.431 125.708L261.216 123.864ZM261.165 123.651C261.148 123.58 261.131 123.509 261.113 123.437L253.339 125.322C253.354 125.386 253.37 125.45 253.385 125.515L261.165 123.651ZM253.263 125.008L253.336 125.311L261.116 123.447L261.043 123.144L253.263 125.008ZM258.082 127.967L258.084 127.966L256.223 120.186L256.222 120.186L258.082 127.967ZM261.036 123.119C250.292 79.5405 206.365 52.7454 162.651 63.2189L164.515 70.9987C203.949 61.5506 243.576 85.7226 253.268 125.034L261.036 123.119ZM162.651 63.2189C118.937 73.6924 91.9225 117.484 102.093 161.2L109.885 159.387C100.71 119.952 125.081 80.4469 164.515 70.9987L162.651 63.2189ZM106.921 164.183L106.923 164.183L105.055 156.404L105.053 156.405L106.921 164.183ZM126.869 230.28L109.877 159.362L102.097 161.226L119.089 232.144L126.869 230.28ZM122.059 227.319L122.045 227.322L123.912 235.101L123.926 235.098L122.059 227.319ZM119.121 232.212C130.269 275.223 173.87 301.548 217.262 291.152L215.398 283.372C176.255 292.751 136.921 269.003 126.865 230.205L119.121 232.212ZM217.262 291.152C260.654 280.756 287.592 237.53 278.039 194.137L270.226 195.857C278.843 235 254.542 273.994 215.398 283.372L217.262 291.152ZM273.213 191.104L273.201 191.107L275.064 198.887L275.076 198.884L273.213 191.104ZM269.997 194.849L270.255 195.926L278.035 194.062L277.777 192.985L269.997 194.849Z" fill="black" mask="url(#path-4-inside-1)"/>
<path d="M270.125 194.454C279.614 234.058 255.201 273.856 215.597 283.344C192.29 288.929 168.915 282.771 151.691 268.686C134.499 252.8 130.499 201.3 126.692 176.949C140.691 208.45 176.316 210.895 210.192 204.95C238.691 199.95 261.49 198.95 261.49 159.95C263.376 162.566 268.468 187.537 270.125 194.454Z" fill="#77311D"/>
</g>
<ellipse cx="209.75" cy="188.445" rx="69.5387" ry="31.1548" transform="rotate(-12.0124 209.75 188.445)" fill="url(#paint0_radial)"/>
<defs>
<radialGradient id="paint0_radial" cx="0" cy="0" r="1" gradientUnits="userSpaceOnUse" gradientTransform="translate(209.75 188.445) rotate(90) scale(31.1548 69.5387)">
<stop stop-color="#ED9E56"/>
<stop offset="1" stop-color="#F7B9B9" stop-opacity="0"/>
</radialGradient>
<clipPath id="clip0">
<rect width="200" height="320" fill="white" transform="translate(90 43)"/>
</clipPath>
</defs>

</g><g id="triangle-avatar-Eyebrows">
<path d="M219 134.214C224.667 131.548 238 129.114 246 140.714" stroke="black" stroke-width="4" stroke-linecap="round"/>
<path d="M143.579 159.521C145.65 153.61 153.261 142.396 167.142 144.822" stroke="black" stroke-width="4" stroke-linecap="round"/>
<path d="M146.074 153.458L139.926 148.031" stroke="black" stroke-width="4" stroke-linecap="round"/>
<path d="M242.961 135.157L249.109 129.73" stroke="black" stroke-width="4" stroke-linecap="round"/>
<path d="M152.523 147.814L148.477 140.682" stroke="black" stroke-width="4" stroke-linecap="round"/>
<path d="M235.512 131.513L239.559 124.381" stroke="black" stroke-width="4" stroke-linecap="round"/>
<path d="M160.599 144.201L158.398 136.301" stroke="black" stroke-width="4" stroke-linecap="round"/>
<path d="M226.436 130.9L228.637 123" stroke="black" stroke-width="4" stroke-linecap="round"/>

</g><g id="triangle-avatar-Eyes">
<path fill-rule="evenodd" clip-rule="evenodd" d="M157.287 173.072C157.401 173.885 158.434 174.066 159.009 173.48C161.474 170.964 165.264 169.116 169.663 168.593C172.258 168.285 174.754 168.475 176.979 169.065C177.733 169.266 178.474 168.629 178.21 167.895C176.545 163.249 171.845 160.196 166.736 160.803C160.794 161.509 156.55 166.897 157.256 172.839C157.266 172.917 157.276 172.995 157.287 173.072Z" fill="black"/>
<path fill-rule="evenodd" clip-rule="evenodd" d="M221.385 163.073C221.498 163.886 222.531 164.067 223.106 163.482C225.549 160.996 229.298 159.17 233.649 158.653C236.213 158.348 238.681 158.535 240.88 159.117C241.634 159.316 242.375 158.679 242.111 157.946C240.456 153.352 235.804 150.335 230.748 150.935C224.862 151.635 220.658 156.973 221.357 162.859C221.366 162.93 221.375 163.002 221.385 163.073Z" fill="black"/>

</g><g id="triangle-avatar-Shirt">
<path d="M322.849 383H50.3541C58.0406 368.805 65.2356 358.337 73.1955 350.713C81.6478 342.617 91.0279 337.667 102.945 334.95C104.62 334.568 106.824 334.585 109.549 335.011C112.254 335.434 115.35 336.239 118.755 337.331C125.572 339.517 133.421 342.783 141.55 346.208C142.067 346.426 142.586 346.645 143.105 346.864C150.708 350.069 158.494 353.352 165.713 355.884C173.384 358.573 180.642 360.5 186.5 360.5C191.673 360.5 198.201 358.904 205.157 356.691C211.183 354.775 217.702 352.337 224.16 349.922C225.199 349.533 226.237 349.145 227.271 348.76C234.766 345.968 242.06 343.324 248.453 341.6C254.934 339.852 260.119 339.161 263.552 339.949C280 343.726 286.721 346.268 293.711 352.181C297.283 355.203 300.949 359.128 305.981 364.668C306.687 365.446 307.419 366.254 308.18 367.094C312.133 371.457 316.868 376.685 322.849 383Z" fill="#ffffff" stroke="black" stroke-width="4"/>
<path d="M115.93 328.581L125.083 308.984C125.301 308.516 125.845 308.294 126.332 308.466C164.258 321.891 198.761 320.946 230.735 312.045C231.138 311.933 231.568 312.081 231.814 312.418L245.746 331.471C246.129 331.995 245.934 332.733 245.33 332.97C211.723 346.167 148.662 343.923 116.414 329.904C115.903 329.682 115.693 329.087 115.93 328.581Z" fill="#192223" stroke="black" stroke-width="4"/>

</g><g id="triangle-avatar-Facial Hair">
<path d="M156 253C156 253.552 155.552 254 155 254C154.448 254 154 253.552 154 253C154 252.448 154.448 252 155 252C155.552 252 156 252.448 156 253Z" fill="#612507"/>
<path d="M208 260C208 260.552 207.552 261 207 261C206.448 261 206 260.552 206 260C206 259.448 206.448 259 207 259C207.552 259 208 259.448 208 260Z" fill="#612507"/>
<path d="M204 267C204 267.552 203.552 268 203 268C202.448 268 202 267.552 202 267C202 266.448 202.448 266 203 266C203.552 266 204 266.448 204 267Z" fill="#612507"/>
<path d="M224 265C224 265.552 223.552 266 223 266C222.448 266 222 265.552 222 265C222 264.448 222.448 264 223 264C223.552 264 224 264.448 224 265Z" fill="#612507"/>
<path d="M225 255C225 255.552 224.552 256 224 256C223.448 256 223 255.552 223 255C223 254.448 223.448 254 224 254C224.552 254 225 254.448 225 255Z" fill="#612507"/>
<path d="M245 260C245 260.552 244.552 261 244 261C243.448 261 243 260.552 243 260C243 259.448 243.448 259 244 259C244.552 259 245 259.448 245 260Z" fill="#612507"/>
<path d="M255 246C255 246.552 254.552 247 254 247C253.448 247 253 246.552 253 246C253 245.448 253.448 245 254 245C254.552 245 255 245.448 255 246Z" fill="#612507"/>
<path d="M146 232C146 232.552 145.552 233 145 233C144.448 233 144 232.552 144 232C144 231.448 144.448 231 145 231C145.552 231 146 231.448 146 232Z" fill="#612507"/>
<path d="M179 248C179 248.552 178.552 249 178 249C177.448 249 177 248.552 177 248C177 247.448 177.448 247 178 247C178.552 247 179 247.448 179 248Z" fill="#612507"/>
<path d="M176 268C176 268.552 175.552 269 175 269C174.448 269 174 268.552 174 268C174 267.448 174.448 267 175 267C175.552 267 176 267.448 176 268Z" fill="#612507"/>
<path d="M194 272C194 272.552 193.552 273 193 273C192.448 273 192 272.552 192 272C192 271.448 192.448 271 193 271C193.552 271 194 271.448 194 272Z" fill="#612507"/>
<path d="M228 246C228 246.552 227.552 247 227 247C226.448 247 226 246.552 226 246C226 245.448 226.448 245 227 245C227.552 245 228 245.448 228 246Z" fill="#612507"/>
<path d="M242 250C242 250.552 241.552 251 241 251C240.448 251 240 250.552 240 250C240 249.448 240.448 249 241 249C241.552 249 242 249.448 242 250Z" fill="#612507"/>
<path d="M234 267C234 267.552 233.552 268 233 268C232.448 268 232 267.552 232 267C232 266.448 232.448 266 233 266C233.552 266 234 266.448 234 267Z" fill="#612507"/>
<path d="M248 236C248 236.552 247.552 237 247 237C246.448 237 246 236.552 246 236C246 235.448 246.448 235 247 235C247.552 235 248 235.448 248 236Z" fill="#612507"/>
<path d="M155 238C155 238.552 154.552 239 154 239C153.448 239 153 238.552 153 238C153 237.448 153.448 237 154 237C154.552 237 155 237.448 155 238Z" fill="#612507"/>
<path d="M179 238C179 238.552 178.552 239 178 239C177.448 239 177 238.552 177 238C177 237.448 177.448 237 178 237C178.552 237 179 237.448 179 238Z" fill="#612507"/>
<path d="M179 220C179 220.552 178.552 221 178 221C177.448 221 177 220.552 177 220C177 219.448 177.448 219 178 219C178.552 219 179 219.448 179 220Z" fill="#612507"/>
<path d="M183 274C183 274.552 182.552 275 182 275C181.448 275 181 274.552 181 274C181 273.448 181.448 273 182 273C182.552 273 183 273.448 183 274Z" fill="#612507"/>
<path d="M210 274C210 274.552 209.552 275 209 275C208.448 275 208 274.552 208 274C208 273.448 208.448 273 209 273C209.552 273 210 273.448 210 274Z" fill="#612507"/>
<path d="M221 274C221 274.552 220.552 275 220 275C219.448 275 219 274.552 219 274C219 273.448 219.448 273 220 273C220.552 273 221 273.448 221 274Z" fill="#612507"/>
<path d="M238 238C238 238.552 237.552 239 237 239C236.448 239 236 238.552 236 238C236 237.448 236.448 237 237 237C237.552 237 238 237.448 238 238Z" fill="#612507"/>
<path d="M238 220C238 220.552 237.552 221 237 221C236.448 221 236 220.552 236 220C236 219.448 236.448 219 237 219C237.552 219 238 219.448 238 220Z" fill="#612507"/>
<path d="M258 233C258 233.552 257.552 234 257 234C256.448 234 256 233.552 256 233C256 232.448 256.448 232 257 232C257.552 232 258 232.448 258 233Z" fill="#612507"/>
<path d="M158 225C158 225.552 157.552 226 157 226C156.448 226 156 225.552 156 225C156 224.448 156.448 224 157 224C157.552 224 158 224.448 158 225Z" fill="#612507"/>
<path d="M168 260C168 260.552 167.552 261 167 261C166.448 261 166 260.552 166 260C166 259.448 166.448 259 167 259C167.552 259 168 259.448 168 260Z" fill="#612507"/>
<path d="M164 267C164 267.552 163.552 268 163 268C162.448 268 162 267.552 162 267C162 266.448 162.448 266 163 266C163.552 266 164 266.448 164 267Z" fill="#612507"/>
<path d="M204 247C204 247.552 203.552 248 203 248C202.448 248 202 247.552 202 247C202 246.448 202.448 246 203 246C203.552 246 204 246.448 204 247Z" fill="#612507"/>
<path d="M216 249C216 249.552 215.552 250 215 250C214.448 250 214 249.552 214 249C214 248.448 214.448 248 215 248C215.552 248 216 248.448 216 249Z" fill="#612507"/>
<path d="M202 279C202 279.552 201.552 280 201 280C200.448 280 200 279.552 200 279C200 278.448 200.448 278 201 278C201.552 278 202 278.448 202 279Z" fill="#612507"/>
<path d="M225 228C225 228.552 224.552 229 224 229C223.448 229 223 228.552 223 228C223 227.448 223.448 227 224 227C224.552 227 225 227.448 225 228Z" fill="#612507"/>
<path d="M225 210C225 210.552 224.552 211 224 211C223.448 211 223 210.552 223 210C223 209.448 223.448 209 224 209C224.552 209 225 209.448 225 210Z" fill="#612507"/>
<path d="M249 225C249 225.552 248.552 226 248 226C247.448 226 247 225.552 247 225C247 224.448 247.448 224 248 224C248.552 224 249 224.448 249 225Z" fill="#612507"/>
<path d="M256 215C256 215.552 255.552 216 255 216C254.448 216 254 215.552 254 215C254 214.448 254.448 214 255 214C255.552 214 256 214.448 256 215Z" fill="#612507"/>
<path d="M167 234C167 234.552 166.552 235 166 235C165.448 235 165 234.552 165 234C165 233.448 165.448 233 166 233C166.552 233 167 233.448 167 234Z" fill="#612507"/>
<path d="M167 245C167 245.552 166.552 246 166 246C165.448 246 165 245.552 165 245C165 244.448 165.448 244 166 244C166.552 244 167 244.448 167 245Z" fill="#612507"/>
<path d="M188 230C188 230.552 187.552 231 187 231C186.448 231 186 230.552 186 230C186 229.448 186.448 229 187 229C187.552 229 188 229.448 188 230Z" fill="#612507"/>
<path d="M188 212C188 212.552 187.552 213 187 213C186.448 213 186 212.552 186 212C186 211.448 186.448 211 187 211C187.552 211 188 211.448 188 212Z" fill="#612507"/>
<path d="M200 226C200 226.552 199.552 227 199 227C198.448 227 198 226.552 198 226C198 225.448 198.448 225 199 225C199.552 225 200 225.448 200 226Z" fill="#612507"/>
<path d="M212 220C212 220.552 211.552 221 211 221C210.448 221 210 220.552 210 220C210 219.448 210.448 219 211 219C211.552 219 212 219.448 212 220Z" fill="#612507"/>
<path d="M225 220C225 220.552 224.552 221 224 221C223.448 221 223 220.552 223 220C223 219.448 223.448 219 224 219C224.552 219 225 219.448 225 220Z" fill="#612507"/>
<path d="M238 220C238 220.552 237.552 221 237 221C236.448 221 236 220.552 236 220C236 219.448 236.448 219 237 219C237.552 219 238 219.448 238 220Z" fill="#612507"/>
<path d="M264 220C264 220.552 263.552 221 263 221C262.448 221 262 220.552 262 220C262 219.448 262.448 219 263 219C263.552 219 264 219.448 264 220Z" fill="#612507"/>
<path d="M186 260C186 260.552 185.552 261 185 261C184.448 261 184 260.552 184 260C184 259.448 184.448 259 185 259C185.552 259 186 259.448 186 260Z" fill="#612507"/>
<path d="M197 254C197 254.552 196.552 255 196 255C195.448 255 195 254.552 195 254C195 253.448 195.448 253 196 253C196.552 253 197 253.448 197 254Z" fill="#612507"/>
<path d="M193 246C193 246.552 192.552 247 192 247C191.448 247 191 246.552 191 246C191 245.448 191.448 245 192 245C192.552 245 193 245.448 193 246Z" fill="#612507"/>
<path d="M217 237C217 237.552 216.552 238 216 238C215.448 238 215 237.552 215 237C215 236.448 215.448 236 216 236C216.552 236 217 236.448 217 237Z" fill="#612507"/>
<path d="M168 219C168 219.552 167.552 220 167 220C166.448 220 166 219.552 166 219C166 218.448 166.448 218 167 218C167.552 218 168 218.448 168 219Z" fill="#612507"/>
<path d="M205 235C205 235.552 204.552 236 204 236C203.448 236 203 235.552 203 235C203 234.448 203.448 234 204 234C204.552 234 205 234.448 205 235Z" fill="#612507"/>
<path d="M205 217C205 217.552 204.552 218 204 218C203.448 218 203 217.552 203 217C203 216.448 203.448 216 204 216C204.552 216 205 216.448 205 217Z" fill="#612507"/>
<path d="M240 231C240 231.552 239.552 232 239 232C238.448 232 238 231.552 238 231C238 230.448 238.448 230 239 230C239.552 230 240 230.448 240 231Z" fill="#612507"/>
<path d="M240 213C240 213.552 239.552 214 239 214C238.448 214 238 213.552 238 213C238 212.448 238.448 212 239 212C239.552 212 240 212.448 240 213Z" fill="#612507"/>
<path d="M247 215C247 215.552 246.552 216 246 216C245.448 216 245 215.552 245 215C245 214.448 245.448 214 246 214C246.552 214 247 214.448 247 215Z" fill="#612507"/>
<path d="M262 206C262 206.552 261.552 207 261 207C260.448 207 260 206.552 260 206C260 205.448 260.448 205 261 205C261.552 205 262 205.448 262 206Z" fill="#612507"/>
<path d="M156 253C156 253.552 155.552 254 155 254C154.448 254 154 253.552 154 253C154 252.448 154.448 252 155 252C155.552 252 156 252.448 156 253Z" stroke="#612507"/>
<path d="M208 260C208 260.552 207.552 261 207 261C206.448 261 206 260.552 206 260C206 259.448 206.448 259 207 259C207.552 259 208 259.448 208 260Z" stroke="#612507"/>
<path d="M204 267C204 267.552 203.552 268 203 268C202.448 268 202 267.552 202 267C202 266.448 202.448 266 203 266C203.552 266 204 266.448 204 267Z" stroke="#612507"/>
<path d="M224 265C224 265.552 223.552 266 223 266C222.448 266 222 265.552 222 265C222 264.448 222.448 264 223 264C223.552 264 224 264.448 224 265Z" stroke="#612507"/>
<path d="M225 255C225 255.552 224.552 256 224 256C223.448 256 223 255.552 223 255C223 254.448 223.448 254 224 254C224.552 254 225 254.448 225 255Z" stroke="#612507"/>
<path d="M245 260C245 260.552 244.552 261 244 261C243.448 261 243 260.552 243 260C243 259.448 243.448 259 244 259C244.552 259 245 259.448 245 260Z" stroke="#612507"/>
<path d="M255 246C255 246.552 254.552 247 254 247C253.448 247 253 246.552 253 246C253 245.448 253.448 245 254 245C254.552 245 255 245.448 255 246Z" stroke="#612507"/>
<path d="M146 232C146 232.552 145.552 233 145 233C144.448 233 144 232.552 144 232C144 231.448 144.448 231 145 231C145.552 231 146 231.448 146 232Z" stroke="#612507"/>
<path d="M179 248C179 248.552 178.552 249 178 249C177.448 249 177 248.552 177 248C177 247.448 177.448 247 178 247C178.552 247 179 247.448 179 248Z" stroke="#612507"/>
<path d="M176 268C176 268.552 175.552 269 175 269C174.448 269 174 268.552 174 268C174 267.448 174.448 267 175 267C175.552 267 176 267.448 176 268Z" stroke="#612507"/>
<path d="M194 272C194 272.552 193.552 273 193 273C192.448 273 192 272.552 192 272C192 271.448 192.448 271 193 271C193.552 271 194 271.448 194 272Z" stroke="#612507"/>
<path d="M228 246C228 246.552 227.552 247 227 247C226.448 247 226 246.552 226 246C226 245.448 226.448 245 227 245C227.552 245 228 245.448 228 246Z" stroke="#612507"/>
<path d="M242 250C242 250.552 241.552 251 241 251C240.448 251 240 250.552 240 250C240 249.448 240.448 249 241 249C241.552 249 242 249.448 242 250Z" stroke="#612507"/>
<path d="M234 267C234 267.552 233.552 268 233 268C232.448 268 232 267.552 232 267C232 266.448 232.448 266 233 266C233.552 266 234 266.448 234 267Z" stroke="#612507"/>
<path d="M248 236C248 236.552 247.552 237 247 237C246.448 237 246 236.552 246 236C246 235.448 246.448 235 247 235C247.552 235 248 235.448 248 236Z" stroke="#612507"/>
<path d="M155 238C155 238.552 154.552 239 154 239C153.448 239 153 238.552 153 238C153 237.448 153.448 237 154 237C154.552 237 155 237.448 155 238Z" stroke="#612507"/>
<path d="M179 238C179 238.552 178.552 239 178 239C177.448 239 177 238.552 177 238C177 237.448 177.448 237 178 237C178.552 237 179 237.448 179 238Z" stroke="#612507"/>
<path d="M179 220C179 220.552 178.552 221 178 221C177.448 221 177 220.552 177 220C177 219.448 177.448 219 178 219C178.552 219 179 219.448 179 220Z" stroke="#612507"/>
<path d="M183 274C183 274.552 182.552 275 182 275C181.448 275 181 274.552 181 274C181 273.448 181.448 273 182 273C182.552 273 183 273.448 183 274Z" stroke="#612507"/>
<path d="M210 274C210 274.552 209.552 275 209 275C208.448 275 208 274.552 208 274C208 273.448 208.448 273 209 273C209.552 273 210 273.448 210 274Z" stroke="#612507"/>
<path d="M221 274C221 274.552 220.552 275 220 275C219.448 275 219 274.552 219 274C219 273.448 219.448 273 220 273C220.552 273 221 273.448 221 274Z" stroke="#612507"/>
<path d="M238 238C238 238.552 237.552 239 237 239C236.448 239 236 238.552 236 238C236 237.448 236.448 237 237 237C237.552 237 238 237.448 238 238Z" stroke="#612507"/>
<path d="M238 220C238 220.552 237.552 221 237 221C236.448 221 236 220.552 236 220C236 219.448 236.448 219 237 219C237.552 219 238 219.448 238 220Z" stroke="#612507"/>
<path d="M258 233C258 233.552 257.552 234 257 234C256.448 234 256 233.552 256 233C256 232.448 256.448 232 257 232C257.552 232 258 232.448 258 233Z" stroke="#612507"/>
<path d="M158 225C158 225.552 157.552 226 157 226C156.448 226 156 225.552 156 225C156 224.448 156.448 224 157 224C157.552 224 158 224.448 158 225Z" stroke="#612507"/>
<path d="M168 260C168 260.552 167.552 261 167 261C166.448 261 166 260.552 166 260C166 259.448 166.448 259 167 259C167.552 259 168 259.448 168 260Z" stroke="#612507"/>
<path d="M164 267C164 267.552 163.552 268 163 268C162.448 268 162 267.552 162 267C162 266.448 162.448 266 163 266C163.552 266 164 266.448 164 267Z" stroke="#612507"/>
<path d="M204 247C204 247.552 203.552 248 203 248C202.448 248 202 247.552 202 247C202 246.448 202.448 246 203 246C203.552 246 204 246.448 204 247Z" stroke="#612507"/>
<path d="M216 249C216 249.552 215.552 250 215 250C214.448 250 214 249.552 214 249C214 248.448 214.448 248 215 248C215.552 248 216 248.448 216 249Z" stroke="#612507"/>
<path d="M202 279C202 279.552 201.552 280 201 280C200.448 280 200 279.552 200 279C200 278.448 200.448 278 201 278C201.552 278 202 278.448 202 279Z" stroke="#612507"/>
<path d="M225 228C225 228.552 224.552 229 224 229C223.448 229 223 228.552 223 228C223 227.448 223.448 227 224 227C224.552 227 225 227.448 225 228Z" stroke="#612507"/>
<path d="M225 210C225 210.552 224.552 211 224 211C223.448 211 223 210.552 223 210C223 209.448 223.448 209 224 209C224.552 209 225 209.448 225 210Z" stroke="#612507"/>
<path d="M249 225C249 225.552 248.552 226 248 226C247.448 226 247 225.552 247 225C247 224.448 247.448 224 248 224C248.552 224 249 224.448 249 225Z" stroke="#612507"/>
<path d="M256 215C256 215.552 255.552 216 255 216C254.448 216 254 215.552 254 215C254 214.448 254.448 214 255 214C255.552 214 256 214.448 256 215Z" stroke="#612507"/>
<path d="M167 234C167 234.552 166.552 235 166 235C165.448 235 165 234.552 165 234C165 233.448 165.448 233 166 233C166.552 233 167 233.448 167 234Z" stroke="#612507"/>
<path d="M167 245C167 245.552 166.552 246 166 246C165.448 246 165 245.552 165 245C165 244.448 165.448 244 166 244C166.552 244 167 244.448 167 245Z" stroke="#612507"/>
<path d="M188 230C188 230.552 187.552 231 187 231C186.448 231 186 230.552 186 230C186 229.448 186.448 229 187 229C187.552 229 188 229.448 188 230Z" stroke="#612507"/>
<path d="M188 212C188 212.552 187.552 213 187 213C186.448 213 186 212.552 186 212C186 211.448 186.448 211 187 211C187.552 211 188 211.448 188 212Z" stroke="#612507"/>
<path d="M200 226C200 226.552 199.552 227 199 227C198.448 227 198 226.552 198 226C198 225.448 198.448 225 199 225C199.552 225 200 225.448 200 226Z" stroke="#612507"/>
<path d="M212 220C212 220.552 211.552 221 211 221C210.448 221 210 220.552 210 220C210 219.448 210.448 219 211 219C211.552 219 212 219.448 212 220Z" stroke="#612507"/>
<path d="M225 220C225 220.552 224.552 221 224 221C223.448 221 223 220.552 223 220C223 219.448 223.448 219 224 219C224.552 219 225 219.448 225 220Z" stroke="#612507"/>
<path d="M238 220C238 220.552 237.552 221 237 221C236.448 221 236 220.552 236 220C236 219.448 236.448 219 237 219C237.552 219 238 219.448 238 220Z" stroke="#612507"/>
<path d="M264 220C264 220.552 263.552 221 263 221C262.448 221 262 220.552 262 220C262 219.448 262.448 219 263 219C263.552 219 264 219.448 264 220Z" stroke="#612507"/>
<path d="M186 260C186 260.552 185.552 261 185 261C184.448 261 184 260.552 184 260C184 259.448 184.448 259 185 259C185.552 259 186 259.448 186 260Z" stroke="#612507"/>
<path d="M197 254C197 254.552 196.552 255 196 255C195.448 255 195 254.552 195 254C195 253.448 195.448 253 196 253C196.552 253 197 253.448 197 254Z" stroke="#612507"/>
<path d="M193 246C193 246.552 192.552 247 192 247C191.448 247 191 246.552 191 246C191 245.448 191.448 245 192 245C192.552 245 193 245.448 193 246Z" stroke="#612507"/>
<path d="M217 237C217 237.552 216.552 238 216 238C215.448 238 215 237.552 215 237C215 236.448 215.448 236 216 236C216.552 236 217 236.448 217 237Z" stroke="#612507"/>
<path d="M168 219C168 219.552 167.552 220 167 220C166.448 220 166 219.552 166 219C166 218.448 166.448 218 167 218C167.552 218 168 218.448 168 219Z" stroke="#612507"/>
<path d="M205 235C205 235.552 204.552 236 204 236C203.448 236 203 235.552 203 235C203 234.448 203.448 234 204 234C204.552 234 205 234.448 205 235Z" stroke="#612507"/>
<path d="M205 217C205 217.552 204.552 218 204 218C203.448 218 203 217.552 203 217C203 216.448 203.448 216 204 216C204.552 216 205 216.448 205 217Z" stroke="#612507"/>
<path d="M240 231C240 231.552 239.552 232 239 232C238.448 232 238 231.552 238 231C238 230.448 238.448 230 239 230C239.552 230 240 230.448 240 231Z" stroke="#612507"/>
<path d="M240 213C240 213.552 239.552 214 239 214C238.448 214 238 213.552 238 213C238 212.448 238.448 212 239 212C239.552 212 240 212.448 240 213Z" stroke="#612507"/>
<path d="M247 215C247 215.552 246.552 216 246 216C245.448 216 245 215.552 245 215C245 214.448 245.448 214 246 214C246.552 214 247 214.448 247 215Z" stroke="#612507"/>
<path d="M262 206C262 206.552 261.552 207 261 207C260.448 207 260 206.552 260 206C260 205.448 260.448 205 261 205C261.552 205 262 205.448 262 206Z" stroke="#612507"/>

</g><g id="triangle-avatar-Mouth">
<path d="M216.047 259.892C226.884 257.931 233.233 245.955 231.025 233.754C228.817 221.553 218.674 212.563 207.837 214.524C197 216.485 190.651 228.461 192.859 240.662C195.067 252.863 205.21 261.853 216.047 259.892Z" fill="black" stroke="black" stroke-width="3.59115"/>
<mask id="mask0" mask-type="alpha" maskUnits="userSpaceOnUse" x="194" y="216" width="36" height="43">
<ellipse cx="211.942" cy="237.208" rx="17.5976" ry="21.257" transform="rotate(-10.2582 211.942 237.208)" fill="#171921"/>
</mask>
<g mask="url(#mask0)">
<ellipse cx="215.202" cy="255.22" rx="20.2046" ry="18.3047" transform="rotate(-10.2582 215.202 255.22)" fill="#FC909F"/>
</g>

</g><g id="triangle-avatar-Nose">
<path d="M204.13 177.094C206.078 190.958 214.541 200.877 214.541 200.877C214.541 200.877 211.91 207.306 201.729 206.717" stroke="#171921" stroke-width="4"/>

</g><g id="triangle-avatar-Hair">
<path opacity="0.35" d="M246.985 108.175C238.985 101.775 225.152 101.175 219.485 101.675L211.485 75.175C225.085 78.375 243.485 99.175 246.985 108.175Z" fill="#F6CF45"/>
<path d="M144.792 42.7638C144.792 42.7638 150.53 38.8022 174.746 32.7012C198.962 26.6002 207.792 28.9835 207.792 28.9835L219.58 101.815C219.58 101.815 211.541 101.642 191.548 106.009C171.555 110.376 161.985 115.675 161.985 115.675L144.792 42.7638Z" fill="#F6CF45"/>
<path d="M107.985 117.675C101.185 76.075 131.319 49.5084 144.985 42.175L161.985 115.675C142.785 76.075 116.652 100.508 107.985 117.675Z" fill="#F6CF45"/>
<path opacity="0.35" d="M126.485 161.675C119.285 134.475 148.485 119.841 161.985 115.674C154.985 99.3408 138.985 84.6741 119.485 102.675C101.485 133.174 108.485 156.675 113.986 174.675L126.485 161.675Z" fill="#F6CF45"/>

</g><g id="triangle-avatar-Ear">
<path d="M120.5 183.176C118.17 182.408 115.655 182 113.08 182C102.587 182 94.0801 188.5 95.08 200.5C96.1216 213 103.587 217.5 114.08 217.5C115.248 217.5 116.391 217.397 117.5 217.201C118.711 216.987 119.881 216.661 121 216.235" stroke="#171921" stroke-width="8"/>
<path d="M121.5 216.036C119.22 216.979 116.713 217.5 114.08 217.5C103.587 217.5 96.1216 213 95.08 200.5C94.0801 188.5 102.587 182 113.08 182C116.217 182 119.267 182.606 122 183.73L121.5 216.036Z" fill="#77311D"/>
<path d="M117.5 190.5C113.5 188.667 104.7 187.7 101.5 198.5" stroke="#171921" stroke-width="4"/>
<path d="M107 191C109.167 192.833 113.3 198.5 112.5 206.5" stroke="#171921" stroke-width="4"/>

</g><g id="triangle-avatar-Glasses">
<circle cx="237.961" cy="166" r="26" stroke="black" stroke-width="4"/>
<circle cx="170.961" cy="175" r="26" stroke="black" stroke-width="4"/>
<path d="M212.961 173C212.961 170.878 212.118 168.843 210.618 167.343C209.118 165.843 207.083 165 204.961 165C202.839 165 200.804 165.843 199.304 167.343C197.804 168.843 196.961 170.878 196.961 173" stroke="black" stroke-width="4"/>
<path d="M145.461 177L115.461 182.5" stroke="black" stroke-width="4"/>

</g></svg>
