<svg width="280" height="280" viewBox="0 0 380 380" fill="none" xmlns="http://www.w3.org/2000/svg"><g id="triangle-avatar-Background">
  <rect width="100%" height="100%" fill="#FFEBA4" />
<g clip-path="url(#clip0)">
<rect x="-18.0098" y="-7.82568" width="405.054" height="402.169" fill="url(#paint0_linear)" fill-opacity="0.3"/>
</g>
<defs>
<linearGradient id="paint0_linear" x1="184.517" y1="-7.82568" x2="184.517" y2="394.344" gradientUnits="userSpaceOnUse">
<stop stop-color="white"/>
<stop offset="1" stop-color="white" stop-opacity="0"/>
</linearGradient>
<clipPath id="clip0">
<rect width="380" height="380" fill="white" transform="translate(0.78125)"/>
</clipPath>
</defs>

</g><g id="triangle-avatar-Base">
<g clip-path="url(#clip0)">
<path d="M244 362.5C229.6 342.5 218.333 303.834 217 284.5L148.5 255L120 362.5H244Z" fill="#F9C9B6" stroke="black" stroke-width="4"/>
<mask id="mask0" mask-type="alpha" maskUnits="userSpaceOnUse" x="120" y="255" width="124" height="118">
<path d="M244 372.5C229.6 352.5 218.333 303.834 217 284.5L148.5 255L120 372.5H244Z" fill="#AC6651"/>
</mask>
<g mask="url(#mask0)">
<g style="mix-blend-mode:multiply">
<ellipse cx="214" cy="253" rx="59" ry="54" fill="black"/>
</g>
</g>
<mask id="path-4-inside-1" fill="white">
<path fill-rule="evenodd" clip-rule="evenodd" d="M273.887 193.917C273.86 193.802 273.832 193.686 273.804 193.57C273.777 193.454 273.749 193.339 273.72 193.223L257.324 124.786C257.307 124.718 257.291 124.651 257.275 124.583C257.259 124.515 257.242 124.447 257.226 124.379L257.153 124.076L257.152 124.076C246.934 82.6315 205.157 57.148 163.583 67.1088C122.009 77.0696 96.3164 118.718 105.989 160.294L105.987 160.294L122.979 231.212L122.993 231.209C133.595 272.113 175.063 297.15 216.33 287.262C257.598 277.375 283.217 236.265 274.132 194.997L274.145 194.994L273.887 193.917Z"/>
</mask>
<path fill-rule="evenodd" clip-rule="evenodd" d="M273.887 193.917C273.86 193.802 273.832 193.686 273.804 193.57C273.777 193.454 273.749 193.339 273.72 193.223L257.324 124.786C257.307 124.718 257.291 124.651 257.275 124.583C257.259 124.515 257.242 124.447 257.226 124.379L257.153 124.076L257.152 124.076C246.934 82.6315 205.157 57.148 163.583 67.1088C122.009 77.0696 96.3164 118.718 105.989 160.294L105.987 160.294L122.979 231.212L122.993 231.209C133.595 272.113 175.063 297.15 216.33 287.262C257.598 277.375 283.217 236.265 274.132 194.997L274.145 194.994L273.887 193.917Z" fill="#F9C9B6"/>
<path d="M273.887 193.917L269.993 194.832L269.995 194.841L269.997 194.849L273.887 193.917ZM273.72 193.223L269.831 194.155L269.833 194.164L269.835 194.173L273.72 193.223ZM257.324 124.786L253.431 125.708L253.434 125.718L257.324 124.786ZM257.226 124.379L253.336 125.311L253.339 125.322L257.226 124.379ZM257.153 124.076L261.043 123.144L260.112 119.256L256.223 120.186L257.153 124.076ZM257.152 124.076L253.268 125.034L254.219 128.89L258.082 127.967L257.152 124.076ZM163.583 67.1088L162.651 63.2189L163.583 67.1088ZM105.989 160.294L106.923 164.183L110.785 163.255L109.885 159.387L105.989 160.294ZM105.987 160.294L105.053 156.405L101.166 157.338L102.097 161.226L105.987 160.294ZM122.979 231.212L119.089 232.144L120.021 236.035L123.912 235.101L122.979 231.212ZM122.993 231.209L126.865 230.205L125.879 226.402L122.059 227.319L122.993 231.209ZM216.33 287.262L215.398 283.372H215.398L216.33 287.262ZM274.132 194.997L273.201 191.107L269.382 192.021L270.226 195.857L274.132 194.997ZM274.145 194.994L275.076 198.884L278.967 197.952L278.035 194.062L274.145 194.994ZM277.781 193.003C277.752 192.881 277.723 192.76 277.694 192.638L269.915 194.502C269.941 194.612 269.967 194.722 269.993 194.832L277.781 193.003ZM277.694 192.638C277.665 192.517 277.636 192.395 277.606 192.274L269.835 194.173C269.861 194.282 269.888 194.392 269.915 194.502L277.694 192.638ZM253.434 125.718L269.831 194.155L277.61 192.291L261.213 123.854L253.434 125.718ZM261.216 123.864C261.199 123.794 261.182 123.722 261.165 123.651L253.385 125.515C253.401 125.579 253.416 125.643 253.431 125.708L261.216 123.864ZM261.165 123.651C261.148 123.58 261.131 123.509 261.113 123.437L253.339 125.322C253.354 125.386 253.37 125.45 253.385 125.515L261.165 123.651ZM253.263 125.008L253.336 125.311L261.116 123.447L261.043 123.144L253.263 125.008ZM258.082 127.967L258.084 127.966L256.223 120.186L256.222 120.186L258.082 127.967ZM261.036 123.119C250.292 79.5405 206.365 52.7454 162.651 63.2189L164.515 70.9987C203.949 61.5506 243.576 85.7226 253.268 125.034L261.036 123.119ZM162.651 63.2189C118.937 73.6924 91.9225 117.484 102.093 161.2L109.885 159.387C100.71 119.952 125.081 80.4469 164.515 70.9987L162.651 63.2189ZM106.921 164.183L106.923 164.183L105.055 156.404L105.053 156.405L106.921 164.183ZM126.869 230.28L109.877 159.362L102.097 161.226L119.089 232.144L126.869 230.28ZM122.059 227.319L122.045 227.322L123.912 235.101L123.926 235.098L122.059 227.319ZM119.121 232.212C130.269 275.223 173.87 301.548 217.262 291.152L215.398 283.372C176.255 292.751 136.921 269.003 126.865 230.205L119.121 232.212ZM217.262 291.152C260.654 280.756 287.592 237.53 278.039 194.137L270.226 195.857C278.843 235 254.542 273.994 215.398 283.372L217.262 291.152ZM273.213 191.104L273.201 191.107L275.064 198.887L275.076 198.884L273.213 191.104ZM269.997 194.849L270.255 195.926L278.035 194.062L277.777 192.985L269.997 194.849Z" fill="black" mask="url(#path-4-inside-1)"/>
<path d="M270.125 194.454C279.614 234.058 255.201 273.856 215.597 283.344C192.29 288.929 168.915 282.771 151.691 268.686C134.499 252.8 130.499 201.3 126.692 176.949C140.691 208.45 176.316 210.895 210.192 204.95C238.691 199.95 261.49 198.95 261.49 159.95C263.376 162.566 268.468 187.537 270.125 194.454Z" fill="#F9C9B6"/>
</g>
<ellipse cx="209.75" cy="188.445" rx="69.5387" ry="31.1548" transform="rotate(-12.0124 209.75 188.445)" fill="url(#paint0_radial)"/>
<defs>
<radialGradient id="paint0_radial" cx="0" cy="0" r="1" gradientUnits="userSpaceOnUse" gradientTransform="translate(209.75 188.445) rotate(90) scale(31.1548 69.5387)">
<stop stop-color="#ED9E56"/>
<stop offset="1" stop-color="#F7B9B9" stop-opacity="0"/>
</radialGradient>
<clipPath id="clip0">
<rect width="200" height="320" fill="white" transform="translate(90 43)"/>
</clipPath>
</defs>

</g><g id="triangle-avatar-Eyebrows">
<path d="M147 150.5C153.167 153 168.1 153.5 178.5 135.5" stroke="black" stroke-width="4" stroke-linecap="round"/>
<path d="M214 128C219.167 133.333 232.1 140.8 242.5 128" stroke="black" stroke-width="4" stroke-linecap="round"/>
<path d="M157.148 150.458L151 145.031" stroke="black" stroke-width="4" stroke-linecap="round"/>
<path d="M236.219 133.444L238.004 125.44" stroke="black" stroke-width="4" stroke-linecap="round"/>
<path d="M165.597 146.814L161.551 139.682" stroke="black" stroke-width="4" stroke-linecap="round"/>
<path d="M228.142 133.019L229.08 124.872" stroke="black" stroke-width="4" stroke-linecap="round"/>
<path d="M172.674 141.201L170.473 133.301" stroke="black" stroke-width="4" stroke-linecap="round"/>
<path d="M219.993 132.032L219.217 123.868" stroke="black" stroke-width="4" stroke-linecap="round"/>

</g><g id="triangle-avatar-Eyes">
<ellipse cx="168.53" cy="168.403" rx="9" ry="13.5" transform="rotate(-6.77646 168.53 168.403)" fill="black"/>
<ellipse cx="232.53" cy="158.403" rx="9" ry="13.5" transform="rotate(-6.27568 232.53 158.403)" fill="black"/>

</g><g id="triangle-avatar-Shirt">
<path d="M189.771 359.577C189.771 359.577 189.771 359.577 191 357.999L189.771 359.577L191.493 360.918L192.679 359.087L192.679 359.086L192.681 359.083L192.69 359.069L192.731 359.007C192.742 358.99 192.755 358.97 192.769 358.948C192.803 358.897 192.847 358.831 192.9 358.752C193.05 358.527 193.275 358.194 193.57 357.769C194.158 356.918 195.023 355.701 196.118 354.246C198.312 351.331 201.416 347.481 205.071 343.718C208.737 339.944 212.898 336.317 217.198 333.793C221.514 331.259 225.777 329.949 229.733 330.482C272.171 336.204 303.402 355.001 323.674 383H50.3745C66.6742 353.658 89.8579 334.982 127.445 326.412C129.046 326.047 131.224 326.158 133.947 326.791C136.642 327.418 139.715 328.519 143.028 329.975C149.655 332.888 157.052 337.136 164.004 341.536C170.945 345.929 177.39 350.442 182.104 353.859C184.459 355.567 186.379 356.999 187.709 358.003C188.374 358.505 188.891 358.9 189.241 359.169C189.416 359.303 189.55 359.406 189.639 359.475L189.739 359.552L189.764 359.572L189.77 359.576L189.771 359.577Z" fill="#878787" stroke="black" stroke-width="4"/>
<path d="M115.613 329.085L120.779 309.853C120.989 309.074 121.996 308.854 122.54 309.449C137.403 325.714 156.16 325.076 162.385 324.33C163.23 324.228 163.892 325.153 163.495 325.906L150.338 350.859C150.136 351.241 149.724 351.452 149.3 351.364C145.352 350.541 125.677 345.732 115.729 329.867C115.583 329.635 115.542 329.35 115.613 329.085Z" fill="#b6b6b6" stroke="black" stroke-width="4"/>
<path d="M246.195 328.981L234.614 309.499C234.221 308.837 233.252 308.848 232.833 309.494C227.096 318.33 217.202 322.4 213.742 323.602C213.119 323.819 212.834 324.558 213.17 325.125L226.673 347.94C226.874 348.281 227.255 348.465 227.635 348.357C229.77 347.749 237.095 344.685 246.182 330.021C246.377 329.706 246.384 329.3 246.195 328.981Z" fill="#b6b6b6" stroke="black" stroke-width="4"/>
<path d="M172.5 346.5L163.5 325L156.5 340L172.5 346.5Z" fill="black" stroke="black" stroke-width="4" stroke-linejoin="round"/>
<path d="M204 345.5L213 324L220 339L204 345.5Z" fill="black" stroke="black" stroke-width="4" stroke-linejoin="round"/>
<path d="M133.5 306L121.5 309L131.5 315.5L133.5 306Z" fill="black" stroke="black" stroke-width="4" stroke-linejoin="round"/>
<path d="M223 306L234 309L227 315.5L223 306Z" fill="black" stroke="black" stroke-width="4" stroke-linejoin="round"/>

</g><g id="triangle-avatar-Mouth">
<path d="M204.76 224C202.5 229 201.602 237.973 204.76 241.689C204.76 241.689 209 243.5 217.973 241.689C224.847 240.302 219 227.5 215 222.5C211 217.5 206.712 219.68 204.76 224Z" fill="#E38282" stroke="black" stroke-width="4"/>
<path d="M214.5 225C212.1 226.6 206.5 226.5 206.5 225.5C206.5 224.5 207 223.5 208.5 222.109C210 220.719 212.5 221.5 214.5 225Z" fill="white"/>

</g><g id="triangle-avatar-Nose">
<path d="M205.687 185.055C205.89 188.898 207.385 197.137 211.735 199.353C217.174 202.123 212.91 211.306 202.729 210.717" stroke="#171921" stroke-width="4"/>

</g><g id="triangle-avatar-Hair">
<path d="M164.836 119.819C164.051 118.078 164.05 118.078 164.049 118.078L164.047 118.079L164.039 118.083L164.014 118.094C163.993 118.104 163.963 118.118 163.924 118.136C163.889 118.152 163.847 118.171 163.799 118.194C163.739 118.222 163.669 118.255 163.59 118.293C163.301 118.431 162.882 118.635 162.351 118.904C161.29 119.443 159.782 120.242 157.971 121.295C154.355 123.398 149.514 126.527 144.627 130.626C134.911 138.776 124.704 151.03 124.09 166.926C123.825 173.765 122.97 206.806 123.161 219.433C123.322 230.065 128.824 241.481 136.457 252.008C143.108 261.18 151.507 269.857 159.831 277.008C122.066 278.501 93.4547 273.546 74.12 268.121C64.0371 265.292 56.4733 262.334 51.4465 260.094C49.4594 259.208 47.8687 258.434 46.6754 257.825C55.7698 251.141 63.3569 239.682 68.3629 222.675C73.8528 204.024 76.2872 178.554 74.1512 144.963C72.2158 114.525 87.0079 88.8092 109.359 70.6291C131.734 52.4301 161.549 41.9109 189.237 41.9109C204.22 41.9109 216.376 44.8448 226.176 51.9616C235.979 59.081 243.667 70.5619 249.362 88.1322L249.757 89.3516L251.035 89.4485C263.411 90.3865 272.114 95.4881 278.531 103.662C285.017 111.924 289.239 123.422 292.335 137.232C294.375 146.332 292.389 155.311 290.001 165.651L289.889 166.133C287.552 176.25 284.951 187.505 286.095 200.666C287.125 212.51 291.852 224.135 295.782 233.074C296.286 234.222 296.775 235.321 297.242 236.368C298.616 239.455 299.792 242.096 300.585 244.253C301.117 245.698 301.424 246.79 301.522 247.566C301.572 247.963 301.555 248.168 301.541 248.254C301.096 248.665 300.272 249.12 298.956 249.522C297.587 249.94 295.863 250.248 293.881 250.442C289.92 250.828 285.138 250.738 280.543 250.296C275.941 249.853 271.637 249.067 268.622 248.108C267.091 247.622 266.033 247.134 265.436 246.711C265.344 246.646 265.274 246.591 265.221 246.546C265.594 245.259 266.131 243.723 266.752 241.949C269.947 232.824 275.347 217.398 271.855 197.08C269.765 184.924 264.189 163.457 259.161 145.11C256.643 135.919 254.254 127.483 252.495 121.344C251.615 118.275 250.893 115.78 250.391 114.052C250.139 113.187 249.943 112.515 249.81 112.058L249.657 111.538L249.618 111.405L249.608 111.372L249.606 111.363L249.605 111.361C249.605 111.361 249.605 111.36 247.772 111.899L249.605 111.36L248.676 108.201L246.395 110.575L246.394 110.575L246.39 110.579L246.371 110.599C246.352 110.618 246.324 110.647 246.285 110.687C246.207 110.766 246.087 110.886 245.927 111.044C245.606 111.361 245.123 111.83 244.481 112.429C243.198 113.627 241.285 115.343 238.783 117.394C233.778 121.498 226.427 126.938 217.067 132.257C199.249 142.382 174.216 152.037 144.245 151.29C153.86 142.359 159.391 135.018 162.561 129.701C164.328 126.736 165.359 124.403 165.954 122.778C166.251 121.965 166.439 121.331 166.555 120.884C166.613 120.66 166.652 120.484 166.679 120.356C166.692 120.292 166.702 120.24 166.71 120.2C166.713 120.18 166.716 120.163 166.719 120.149L166.722 120.131L166.723 120.124L166.723 120.12C166.724 120.119 166.724 120.117 164.836 119.819ZM164.836 119.819L164.051 118.078L167.275 116.623L166.724 120.117L164.836 119.819ZM265.067 246.388C265.07 246.388 265.082 246.402 265.096 246.428C265.072 246.401 265.065 246.388 265.067 246.388Z" fill="#CB7F50" stroke="black" stroke-width="3.82184"/>
<path d="M250 89C250.5 93.5 249.7 102.5 248.5 108.5" stroke="black" stroke-width="4"/>

</g><g id="triangle-avatar-Ear">
<path d="M121.466 215.861L122 215.286V214.501V180.999V179.88L121.046 179.295C117.312 177.004 112.772 175.75 108.08 175.75C102.44 175.75 97.1591 177.497 93.3977 181.045C89.5942 184.632 87.5421 189.877 88.0869 196.416C88.6179 202.788 90.7569 207.477 94.3047 210.593C94.0134 211.592 93.9273 212.67 94.0624 213.803C94.4517 217.072 96.1039 219.427 98.6572 220.878C101.091 222.261 104.206 222.75 107.524 222.75C113.003 222.75 117.808 219.803 121.466 215.861Z" stroke="black" stroke-width="4"/>
<path fill-rule="evenodd" clip-rule="evenodd" d="M127.972 196.734C128.043 196.082 128.08 195.42 128.08 194.75C128.08 184.533 118.573 177.75 108.08 177.75C97.5866 177.75 89.0801 184.25 90.08 196.25C90.6364 202.927 93.0258 207.322 96.7307 209.967C96.1423 210.991 95.8848 212.194 96.0483 213.567C96.6774 218.848 101.186 220.75 107.524 220.75C118.629 220.75 127.416 206.703 127.972 196.734Z" fill="#F9C9B6"/>
<path d="M112.5 186.25C108.5 184.417 99.7 183.45 96.5 194.25" stroke="#171921" stroke-width="4"/>
<path d="M102 186.75C104.167 188.583 108.3 194.25 107.5 202.25" stroke="#171921" stroke-width="4"/>

</g><g id="triangle-avatar-Glasses">
<circle cx="237.961" cy="166" r="26" stroke="black" stroke-width="4"/>
<circle cx="170.961" cy="175" r="26" stroke="black" stroke-width="4"/>
<path d="M212.961 173C212.961 170.878 212.118 168.843 210.618 167.343C209.118 165.843 207.083 165 204.961 165C202.839 165 200.804 165.843 199.304 167.343C197.804 168.843 196.961 170.878 196.961 173" stroke="black" stroke-width="4"/>
<path d="M145.461 177L115.461 182.5" stroke="black" stroke-width="4"/>

</g></svg>
