<svg xmlns="http://www.w3.org/2000/svg" width="1200" height="800" viewBox="0 0 1200 800"><rect width="100%" height="100%" fill="#111827"/><path fill="#ffffff" d="M408.51 273.55v31.38H346.6v173.95h-38.2V304.93h-61.91v-31.38zm49.13 115.73h66.18q0-6.82-1.92-12.85-1.92-6.04-5.75-10.58-3.84-4.55-9.73-7.17-5.89-2.63-13.7-2.63-15.2 0-23.93 8.66t-11.15 24.57m89.46 21.16h-90.17q.86 11.21 3.98 19.38 3.12 8.16 8.24 13.49 5.11 5.32 12.14 7.95t15.55 2.63 14.69-1.99q6.18-1.99 10.8-4.4 4.61-2.42 8.09-4.4 3.48-1.99 6.74-1.99 4.41 0 6.54 3.26l10.08 12.78q-5.82 6.82-13.07 11.43-7.24 4.62-15.12 7.39t-16.04 3.9q-8.17 1.14-15.84 1.14-15.19 0-28.26-5.04-13.06-5.04-22.72-14.91-9.65-9.87-15.19-24.43-5.54-14.55-5.54-33.72 0-14.91 4.83-28.05 4.83-13.13 13.85-22.86 9.01-9.72 22.01-15.4 12.99-5.68 29.32-5.68 13.77 0 25.42 4.4 11.64 4.4 20.02 12.85t13.13 20.73q4.76 12.28 4.76 28.05 0 7.95-1.7 10.72-1.71 2.77-6.54 2.77m69.58 68.44h-35.07V333.19h21.44q6.82 0 8.95 6.39l2.27 10.79q3.83-4.26 8.02-7.81t8.95-6.11q4.76-2.55 10.22-4.04 5.47-1.49 12-1.49 13.78 0 22.65 7.45 8.88 7.46 13.28 19.81 3.41-7.24 8.52-12.43 5.11-5.18 11.22-8.44 6.1-3.27 12.99-4.83t13.85-1.56q12.06 0 21.44 3.69 9.37 3.69 15.76 10.79t9.73 17.32q3.33 10.23 3.33 23.43v92.73h-35.07v-92.73q0-13.91-6.11-20.94-6.1-7.03-17.89-7.03-5.4 0-10.01 1.85-4.62 1.84-8.09 5.32-3.48 3.48-5.47 8.73-1.99 5.26-1.99 12.07v92.73h-35.22v-92.73q0-14.62-5.89-21.3-5.89-6.67-17.25-6.67-7.67 0-14.27 3.76-6.61 3.77-12.29 10.3zm237.85-103.09v65.32q5.97 7.24 13 10.22t15.26 2.98q7.95 0 14.35-2.98 6.39-2.98 10.86-9.09 4.47-6.1 6.89-15.4 2.41-9.3 2.41-21.94 0-12.78-2.06-21.66-2.06-8.87-5.89-14.41-3.84-5.54-9.3-8.09-5.47-2.56-12.43-2.56-10.93 0-18.6 4.61-7.67 4.62-14.49 13m-4.68-36.21 2.84 13.49q8.95-10.08 20.3-16.33 11.36-6.25 26.7-6.25 11.93 0 21.8 4.97t17.04 14.41q7.17 9.45 11.07 23.29 3.91 13.85 3.91 31.74 0 16.33-4.4 30.24-4.4 13.92-12.57 24.14-8.16 10.23-19.74 15.98-11.57 5.75-25.91 5.75-12.21 0-20.88-3.76-8.66-3.77-15.48-10.44v59.64h-35.07V333.19h21.44q6.82 0 8.95 6.39"/></svg>