<svg width="280" height="280" viewBox="0 0 380 380" fill="none" xmlns="http://www.w3.org/2000/svg"><g id="triangle-avatar-Background">
  <rect width="100%" height="100%" fill="#FFEBA4" />
<g clip-path="url(#clip0)">
<path fill-rule="evenodd" clip-rule="evenodd" d="M0.78125 322.898L16.7812 312.822C32.7812 302.745 63.7812 284.271 95.7812 287.63C127.781 290.989 158.781 316.18 190.781 316.18C222.781 316.18 253.781 290.989 285.781 270.836C317.781 252.362 348.781 238.926 364.781 233.888L380.781 227.17V379.999H364.781C348.781 379.999 317.781 379.999 285.781 379.999C253.781 379.999 222.781 379.999 190.781 379.999C158.781 379.999 127.781 379.999 95.7812 379.999C63.7812 379.999 32.7812 379.999 16.7812 379.999H0.78125V322.898Z" fill="url(#paint0_linear)" fill-opacity="0.3"/>
<path fill-rule="evenodd" clip-rule="evenodd" d="M0.78125 64.842H16.7812C32.7812 64.842 63.7812 64.842 95.7812 85.6217C127.781 102.938 158.781 144.497 190.781 161.814C222.781 182.593 253.781 182.593 285.781 168.74C317.781 154.887 348.781 130.644 364.781 116.791L380.781 102.938V380H364.781C348.781 380 317.781 380 285.781 380C253.781 380 222.781 380 190.781 380C158.781 380 127.781 380 95.7812 380C63.7812 380 32.7812 380 16.7812 380H0.78125V64.842Z" fill="url(#paint1_linear)" fill-opacity="0.3"/>
</g>
<defs>
<linearGradient id="paint0_linear" x1="190.781" y1="227.17" x2="190.781" y2="379.999" gradientUnits="userSpaceOnUse">
<stop stop-color="white"/>
<stop offset="1" stop-color="white" stop-opacity="0"/>
</linearGradient>
<linearGradient id="paint1_linear" x1="190.781" y1="64.842" x2="190.781" y2="380" gradientUnits="userSpaceOnUse">
<stop stop-color="white"/>
<stop offset="1" stop-color="white" stop-opacity="0"/>
</linearGradient>
<clipPath id="clip0">
<rect width="380" height="380" fill="white" transform="translate(0.78125)"/>
</clipPath>
</defs>

</g><g id="triangle-avatar-Base">
<g clip-path="url(#clip0)">
<path d="M244 362.5C229.6 342.5 218.333 303.834 217 284.5L148.5 255L120 362.5H244Z" fill="#F9C9B6" stroke="black" stroke-width="4"/>
<mask id="mask0" mask-type="alpha" maskUnits="userSpaceOnUse" x="120" y="255" width="124" height="118">
<path d="M244 372.5C229.6 352.5 218.333 303.834 217 284.5L148.5 255L120 372.5H244Z" fill="#AC6651"/>
</mask>
<g mask="url(#mask0)">
<g style="mix-blend-mode:multiply">
<ellipse cx="214" cy="253" rx="59" ry="54" fill="black"/>
</g>
</g>
<mask id="path-4-inside-1" fill="white">
<path fill-rule="evenodd" clip-rule="evenodd" d="M273.887 193.917C273.86 193.802 273.832 193.686 273.804 193.57C273.777 193.454 273.749 193.339 273.72 193.223L257.324 124.786C257.307 124.718 257.291 124.651 257.275 124.583C257.259 124.515 257.242 124.447 257.226 124.379L257.153 124.076L257.152 124.076C246.934 82.6315 205.157 57.148 163.583 67.1088C122.009 77.0696 96.3164 118.718 105.989 160.294L105.987 160.294L122.979 231.212L122.993 231.209C133.595 272.113 175.063 297.15 216.33 287.262C257.598 277.375 283.217 236.265 274.132 194.997L274.145 194.994L273.887 193.917Z"/>
</mask>
<path fill-rule="evenodd" clip-rule="evenodd" d="M273.887 193.917C273.86 193.802 273.832 193.686 273.804 193.57C273.777 193.454 273.749 193.339 273.72 193.223L257.324 124.786C257.307 124.718 257.291 124.651 257.275 124.583C257.259 124.515 257.242 124.447 257.226 124.379L257.153 124.076L257.152 124.076C246.934 82.6315 205.157 57.148 163.583 67.1088C122.009 77.0696 96.3164 118.718 105.989 160.294L105.987 160.294L122.979 231.212L122.993 231.209C133.595 272.113 175.063 297.15 216.33 287.262C257.598 277.375 283.217 236.265 274.132 194.997L274.145 194.994L273.887 193.917Z" fill="#F9C9B6"/>
<path d="M273.887 193.917L269.993 194.832L269.995 194.841L269.997 194.849L273.887 193.917ZM273.72 193.223L269.831 194.155L269.833 194.164L269.835 194.173L273.72 193.223ZM257.324 124.786L253.431 125.708L253.434 125.718L257.324 124.786ZM257.226 124.379L253.336 125.311L253.339 125.322L257.226 124.379ZM257.153 124.076L261.043 123.144L260.112 119.256L256.223 120.186L257.153 124.076ZM257.152 124.076L253.268 125.034L254.219 128.89L258.082 127.967L257.152 124.076ZM163.583 67.1088L162.651 63.2189L163.583 67.1088ZM105.989 160.294L106.923 164.183L110.785 163.255L109.885 159.387L105.989 160.294ZM105.987 160.294L105.053 156.405L101.166 157.338L102.097 161.226L105.987 160.294ZM122.979 231.212L119.089 232.144L120.021 236.035L123.912 235.101L122.979 231.212ZM122.993 231.209L126.865 230.205L125.879 226.402L122.059 227.319L122.993 231.209ZM216.33 287.262L215.398 283.372H215.398L216.33 287.262ZM274.132 194.997L273.201 191.107L269.382 192.021L270.226 195.857L274.132 194.997ZM274.145 194.994L275.076 198.884L278.967 197.952L278.035 194.062L274.145 194.994ZM277.781 193.003C277.752 192.881 277.723 192.76 277.694 192.638L269.915 194.502C269.941 194.612 269.967 194.722 269.993 194.832L277.781 193.003ZM277.694 192.638C277.665 192.517 277.636 192.395 277.606 192.274L269.835 194.173C269.861 194.282 269.888 194.392 269.915 194.502L277.694 192.638ZM253.434 125.718L269.831 194.155L277.61 192.291L261.213 123.854L253.434 125.718ZM261.216 123.864C261.199 123.794 261.182 123.722 261.165 123.651L253.385 125.515C253.401 125.579 253.416 125.643 253.431 125.708L261.216 123.864ZM261.165 123.651C261.148 123.58 261.131 123.509 261.113 123.437L253.339 125.322C253.354 125.386 253.37 125.45 253.385 125.515L261.165 123.651ZM253.263 125.008L253.336 125.311L261.116 123.447L261.043 123.144L253.263 125.008ZM258.082 127.967L258.084 127.966L256.223 120.186L256.222 120.186L258.082 127.967ZM261.036 123.119C250.292 79.5405 206.365 52.7454 162.651 63.2189L164.515 70.9987C203.949 61.5506 243.576 85.7226 253.268 125.034L261.036 123.119ZM162.651 63.2189C118.937 73.6924 91.9225 117.484 102.093 161.2L109.885 159.387C100.71 119.952 125.081 80.4469 164.515 70.9987L162.651 63.2189ZM106.921 164.183L106.923 164.183L105.055 156.404L105.053 156.405L106.921 164.183ZM126.869 230.28L109.877 159.362L102.097 161.226L119.089 232.144L126.869 230.28ZM122.059 227.319L122.045 227.322L123.912 235.101L123.926 235.098L122.059 227.319ZM119.121 232.212C130.269 275.223 173.87 301.548 217.262 291.152L215.398 283.372C176.255 292.751 136.921 269.003 126.865 230.205L119.121 232.212ZM217.262 291.152C260.654 280.756 287.592 237.53 278.039 194.137L270.226 195.857C278.843 235 254.542 273.994 215.398 283.372L217.262 291.152ZM273.213 191.104L273.201 191.107L275.064 198.887L275.076 198.884L273.213 191.104ZM269.997 194.849L270.255 195.926L278.035 194.062L277.777 192.985L269.997 194.849Z" fill="black" mask="url(#path-4-inside-1)"/>
<path d="M270.125 194.454C279.614 234.058 255.201 273.856 215.597 283.344C192.29 288.929 168.915 282.771 151.691 268.686C134.499 252.8 130.499 201.3 126.692 176.949C140.691 208.45 176.316 210.895 210.192 204.95C238.691 199.95 261.49 198.95 261.49 159.95C263.376 162.566 268.468 187.537 270.125 194.454Z" fill="#F9C9B6"/>
</g>
<ellipse cx="209.75" cy="188.445" rx="69.5387" ry="31.1548" transform="rotate(-12.0124 209.75 188.445)" fill="url(#paint0_radial)"/>
<defs>
<radialGradient id="paint0_radial" cx="0" cy="0" r="1" gradientUnits="userSpaceOnUse" gradientTransform="translate(209.75 188.445) rotate(90) scale(31.1548 69.5387)">
<stop stop-color="#ED9E56"/>
<stop offset="1" stop-color="#F7B9B9" stop-opacity="0"/>
</radialGradient>
<clipPath id="clip0">
<rect width="200" height="320" fill="white" transform="translate(90 43)"/>
</clipPath>
</defs>

</g><g id="triangle-avatar-Eyebrows">
<path d="M147 150.5C153.167 153 168.1 153.5 178.5 135.5" stroke="black" stroke-width="4" stroke-linecap="round"/>
<path d="M214 128C219.167 133.333 232.1 140.8 242.5 128" stroke="black" stroke-width="4" stroke-linecap="round"/>
<path d="M157.148 150.458L151 145.031" stroke="black" stroke-width="4" stroke-linecap="round"/>
<path d="M236.219 133.444L238.004 125.44" stroke="black" stroke-width="4" stroke-linecap="round"/>
<path d="M165.597 146.814L161.551 139.682" stroke="black" stroke-width="4" stroke-linecap="round"/>
<path d="M228.142 133.019L229.08 124.872" stroke="black" stroke-width="4" stroke-linecap="round"/>
<path d="M172.674 141.201L170.473 133.301" stroke="black" stroke-width="4" stroke-linecap="round"/>
<path d="M219.993 132.032L219.217 123.868" stroke="black" stroke-width="4" stroke-linecap="round"/>

</g><g id="triangle-avatar-Eyes">
<ellipse cx="168.53" cy="168.403" rx="9" ry="13.5" transform="rotate(-6.77646 168.53 168.403)" fill="black"/>
<ellipse cx="232.53" cy="158.403" rx="9" ry="13.5" transform="rotate(-6.27568 232.53 158.403)" fill="black"/>

</g><g id="triangle-avatar-Shirt">
<path d="M54.1103 363.5C50.9103 363.5 39.777 372.167 41.1103 378.5H339.11C339.11 378.5 322.61 359 314.61 352C306.61 345 292.61 352 285.11 346C277.61 340 253.61 329.5 245.61 329.5C242.111 329.5 218.111 363.171 192.11 363.5C158.678 363.923 121.611 330.906 117.11 329.5C109.11 327 84.6103 340.5 80.6103 346C76.6103 351.5 58.1103 363.5 54.1103 363.5Z" fill="#ffffff" stroke="black" stroke-width="4"/>
<path d="M193.653 359.561C192.453 352.924 217.138 317.755 229.63 301C245.62 315.445 251.283 325.888 252.116 329.304C251.283 331.256 251.816 335.16 260.61 335.16C258.112 343.944 235.626 346.873 235.626 352.729C235.626 357.413 240.956 359.235 243.621 359.561L235.626 379.569C229.297 379.894 215.239 380.35 209.642 379.569C202.647 378.593 195.152 367.857 193.653 359.561Z" fill="#A1A1A1" stroke="black" stroke-width="4"/>
<path d="M207.11 379.5C195.11 351.1 153.777 318.333 134.61 305.5C130.61 302.755 90.6105 336 99.6105 333C106.81 330.6 118.61 336.667 123.61 340C117.444 344.667 106.51 354.1 112.11 354.5C119.11 355 127.61 356 134.61 362.5C140.21 367.7 158.277 376 166.61 379.5H207.11Z" fill="#A1A1A1" stroke="black" stroke-width="4"/>

</g><g id="triangle-avatar-Mouth">
<path d="M216.047 259.892C226.884 257.931 233.233 245.955 231.025 233.754C228.817 221.553 218.674 212.563 207.837 214.524C197 216.485 190.651 228.461 192.859 240.662C195.067 252.863 205.21 261.853 216.047 259.892Z" fill="black" stroke="black" stroke-width="3.59115"/>
<mask id="mask0" mask-type="alpha" maskUnits="userSpaceOnUse" x="194" y="216" width="36" height="43">
<ellipse cx="211.942" cy="237.208" rx="17.5976" ry="21.257" transform="rotate(-10.2582 211.942 237.208)" fill="#171921"/>
</mask>
<g mask="url(#mask0)">
<ellipse cx="215.202" cy="255.22" rx="20.2046" ry="18.3047" transform="rotate(-10.2582 215.202 255.22)" fill="#FC909F"/>
</g>

</g><g id="triangle-avatar-Nose">
<path d="M206.5 184C209.167 188.167 212 191.5 218.5 191.5C218.5 200 213 199 213 199" stroke="black" stroke-width="4"/>

</g><g id="triangle-avatar-Hair">
<path d="M150.484 135.61C150.484 135.61 114.847 133.623 110.887 139.706C106.928 145.788 120.786 208.602 125.736 232.855C130.686 257.108 150.484 258.717 143.021 303.291C136.454 342.509 151.021 359.246 154.616 362.702C155.114 363.161 155.393 363.399 155.393 363.399C155.393 363.399 155.107 363.174 154.616 362.702C150.51 358.919 131.539 340.069 131.539 314.772C131.539 314.772 126.872 356.222 138.353 367.426C149.834 378.63 73.5187 363.399 66.7049 357.266C59.891 351.134 88.6777 316.912 80.0195 273.595C71.3612 230.278 61.6395 151.115 80.0195 121.392C75.0987 60.3019 155.752 18.6856 209.644 54.1586C247.679 54.1586 276.457 120.068 276.457 166.001C276.457 272.771 261.779 316.65 299.561 344.294C313.922 352.194 241.09 367.426 241.09 367.426C241.09 367.426 210.745 282.008 226.967 282.008C282.725 262.224 266.304 172.373 254.92 123.867C227.697 135.61 175.197 135.61 175.197 135.61L168.797 112.978V135.61H155.393L150.484 121.392V135.61Z" fill="#F4D150" stroke="black" stroke-width="4"/>

</g><g id="triangle-avatar-Ear">
<path d="M120.5 183.176C118.17 182.408 115.655 182 113.08 182C102.587 182 94.0801 188.5 95.08 200.5C96.1216 213 103.587 217.5 114.08 217.5C115.248 217.5 116.391 217.397 117.5 217.201C118.711 216.987 119.881 216.661 121 216.235" stroke="#171921" stroke-width="8"/>
<path d="M121.5 216.036C119.22 216.979 116.713 217.5 114.08 217.5C103.587 217.5 96.1216 213 95.08 200.5C94.0801 188.5 102.587 182 113.08 182C116.217 182 119.267 182.606 122 183.73L121.5 216.036Z" fill="#F9C9B6"/>
<path d="M117.5 190.5C113.5 188.667 104.7 187.7 101.5 198.5" stroke="#171921" stroke-width="4"/>
<path d="M107 191C109.167 192.833 113.3 198.5 112.5 206.5" stroke="#171921" stroke-width="4"/>

</g><g id="triangle-avatar-Ear Ring">
<path d="M107 204C120.255 204 131 214.745 131 228C131 241.255 120.255 252 107 252C93.7452 252 83 241.255 83 228C83 221.609 86.5 216.5 89.5715 211.5L90.5 210" stroke="#F4D150" stroke-width="4"/>

</g><g id="triangle-avatar-Mask">
<path d="M179 205.5C171.5 206.5 159.5 216.5 149 213.5L117 180L133 216C134.167 221.833 137.5 234.9 131.5 236.5C124 238.5 124.5 217 121.5 219.5C119.1 221.5 118.667 221.5 117 221.5C118.667 226.833 122.217 238.934 131.5 257.5C146 286.5 205.606 292.907 218 291C231 289 256.5 273.5 267 253C275.601 236.207 286 201.5 271.5 201.5C257 201.5 279.5 205.5 248 201.5C216.5 182 186.5 204.5 179 205.5Z" fill="#3D5A5B" stroke="black" stroke-width="4"/>
<path d="M224.5 194L236.5 211.5C233 236.667 224.4 287.7 218 290.5" stroke="black" stroke-width="3"/>

</g><g id="triangle-avatar-Glasses">
<path d="M185.5 194.5C193.333 186.667 214.3 174.1 235.5 186.5" stroke="black" stroke-width="4"/>
<path d="M120 179C131.333 196.333 164 227.3 172 206.5" stroke="black" stroke-width="4"/>
<path d="M266.5 173C273.5 177.167 290.4 185.4 280 189C269.6 192.6 260.333 190.5 257 189" stroke="black" stroke-width="4"/>
<path d="M167.324 178.405L177.947 192.602L194.042 186.904L184.512 201.377L195.136 215.575L178.623 210.322L169.094 224.794L168.418 207.075L151.905 201.822L168 196.124L167.324 178.405Z" fill="#78BB7E"/>
<path d="M253.54 168.335L255.952 185.903L272.792 188.719L257.443 196.76L259.855 214.328L247.956 201.73L232.607 209.771L240.603 193.944L228.705 181.347L245.545 184.163L253.54 168.335Z" fill="#78BB7E"/>

</g></svg>
