<svg width="280" height="280" viewBox="0 0 380 380" fill="none" xmlns="http://www.w3.org/2000/svg"><g id="triangle-avatar-Background">
  <rect width="100%" height="100%" fill="#E0DDFF" />
</g><g id="triangle-avatar-Base">
<g clip-path="url(#clip0)">
<path d="M244 362.5C229.6 342.5 218.333 303.834 217 284.5L148.5 255L120 362.5H244Z" fill="#F9C9B6" stroke="black" stroke-width="4"/>
<mask id="mask0" mask-type="alpha" maskUnits="userSpaceOnUse" x="120" y="255" width="124" height="118">
<path d="M244 372.5C229.6 352.5 218.333 303.834 217 284.5L148.5 255L120 372.5H244Z" fill="#AC6651"/>
</mask>
<g mask="url(#mask0)">
<g style="mix-blend-mode:multiply">
<ellipse cx="214" cy="253" rx="59" ry="54" fill="black"/>
</g>
</g>
<mask id="path-4-inside-1" fill="white">
<path fill-rule="evenodd" clip-rule="evenodd" d="M273.887 193.917C273.86 193.802 273.832 193.686 273.804 193.57C273.777 193.454 273.749 193.339 273.72 193.223L257.324 124.786C257.307 124.718 257.291 124.651 257.275 124.583C257.259 124.515 257.242 124.447 257.226 124.379L257.153 124.076L257.152 124.076C246.934 82.6315 205.157 57.148 163.583 67.1088C122.009 77.0696 96.3164 118.718 105.989 160.294L105.987 160.294L122.979 231.212L122.993 231.209C133.595 272.113 175.063 297.15 216.33 287.262C257.598 277.375 283.217 236.265 274.132 194.997L274.145 194.994L273.887 193.917Z"/>
</mask>
<path fill-rule="evenodd" clip-rule="evenodd" d="M273.887 193.917C273.86 193.802 273.832 193.686 273.804 193.57C273.777 193.454 273.749 193.339 273.72 193.223L257.324 124.786C257.307 124.718 257.291 124.651 257.275 124.583C257.259 124.515 257.242 124.447 257.226 124.379L257.153 124.076L257.152 124.076C246.934 82.6315 205.157 57.148 163.583 67.1088C122.009 77.0696 96.3164 118.718 105.989 160.294L105.987 160.294L122.979 231.212L122.993 231.209C133.595 272.113 175.063 297.15 216.33 287.262C257.598 277.375 283.217 236.265 274.132 194.997L274.145 194.994L273.887 193.917Z" fill="#F9C9B6"/>
<path d="M273.887 193.917L269.993 194.832L269.995 194.841L269.997 194.849L273.887 193.917ZM273.72 193.223L269.831 194.155L269.833 194.164L269.835 194.173L273.72 193.223ZM257.324 124.786L253.431 125.708L253.434 125.718L257.324 124.786ZM257.226 124.379L253.336 125.311L253.339 125.322L257.226 124.379ZM257.153 124.076L261.043 123.144L260.112 119.256L256.223 120.186L257.153 124.076ZM257.152 124.076L253.268 125.034L254.219 128.89L258.082 127.967L257.152 124.076ZM163.583 67.1088L162.651 63.2189L163.583 67.1088ZM105.989 160.294L106.923 164.183L110.785 163.255L109.885 159.387L105.989 160.294ZM105.987 160.294L105.053 156.405L101.166 157.338L102.097 161.226L105.987 160.294ZM122.979 231.212L119.089 232.144L120.021 236.035L123.912 235.101L122.979 231.212ZM122.993 231.209L126.865 230.205L125.879 226.402L122.059 227.319L122.993 231.209ZM216.33 287.262L215.398 283.372H215.398L216.33 287.262ZM274.132 194.997L273.201 191.107L269.382 192.021L270.226 195.857L274.132 194.997ZM274.145 194.994L275.076 198.884L278.967 197.952L278.035 194.062L274.145 194.994ZM277.781 193.003C277.752 192.881 277.723 192.76 277.694 192.638L269.915 194.502C269.941 194.612 269.967 194.722 269.993 194.832L277.781 193.003ZM277.694 192.638C277.665 192.517 277.636 192.395 277.606 192.274L269.835 194.173C269.861 194.282 269.888 194.392 269.915 194.502L277.694 192.638ZM253.434 125.718L269.831 194.155L277.61 192.291L261.213 123.854L253.434 125.718ZM261.216 123.864C261.199 123.794 261.182 123.722 261.165 123.651L253.385 125.515C253.401 125.579 253.416 125.643 253.431 125.708L261.216 123.864ZM261.165 123.651C261.148 123.58 261.131 123.509 261.113 123.437L253.339 125.322C253.354 125.386 253.37 125.45 253.385 125.515L261.165 123.651ZM253.263 125.008L253.336 125.311L261.116 123.447L261.043 123.144L253.263 125.008ZM258.082 127.967L258.084 127.966L256.223 120.186L256.222 120.186L258.082 127.967ZM261.036 123.119C250.292 79.5405 206.365 52.7454 162.651 63.2189L164.515 70.9987C203.949 61.5506 243.576 85.7226 253.268 125.034L261.036 123.119ZM162.651 63.2189C118.937 73.6924 91.9225 117.484 102.093 161.2L109.885 159.387C100.71 119.952 125.081 80.4469 164.515 70.9987L162.651 63.2189ZM106.921 164.183L106.923 164.183L105.055 156.404L105.053 156.405L106.921 164.183ZM126.869 230.28L109.877 159.362L102.097 161.226L119.089 232.144L126.869 230.28ZM122.059 227.319L122.045 227.322L123.912 235.101L123.926 235.098L122.059 227.319ZM119.121 232.212C130.269 275.223 173.87 301.548 217.262 291.152L215.398 283.372C176.255 292.751 136.921 269.003 126.865 230.205L119.121 232.212ZM217.262 291.152C260.654 280.756 287.592 237.53 278.039 194.137L270.226 195.857C278.843 235 254.542 273.994 215.398 283.372L217.262 291.152ZM273.213 191.104L273.201 191.107L275.064 198.887L275.076 198.884L273.213 191.104ZM269.997 194.849L270.255 195.926L278.035 194.062L277.777 192.985L269.997 194.849Z" fill="black" mask="url(#path-4-inside-1)"/>
<path d="M270.125 194.454C279.614 234.058 255.201 273.856 215.597 283.344C192.29 288.929 168.915 282.771 151.691 268.686C134.499 252.8 130.499 201.3 126.692 176.949C140.691 208.45 176.316 210.895 210.192 204.95C238.691 199.95 261.49 198.95 261.49 159.95C263.376 162.566 268.468 187.537 270.125 194.454Z" fill="#F9C9B6"/>
</g>
<ellipse cx="209.75" cy="188.445" rx="69.5387" ry="31.1548" transform="rotate(-12.0124 209.75 188.445)" fill="url(#paint0_radial)"/>
<defs>
<radialGradient id="paint0_radial" cx="0" cy="0" r="1" gradientUnits="userSpaceOnUse" gradientTransform="translate(209.75 188.445) rotate(90) scale(31.1548 69.5387)">
<stop stop-color="#ED9E56"/>
<stop offset="1" stop-color="#F7B9B9" stop-opacity="0"/>
</radialGradient>
<clipPath id="clip0">
<rect width="200" height="320" fill="white" transform="translate(90 43)"/>
</clipPath>
</defs>

</g><g id="triangle-avatar-Eyebrows">
<path d="M234.854 135.346C236.244 139.903 236.184 145.478 235.579 148.149C230.939 149.131 229.035 136.648 228.663 130.283C232.205 129.11 233.568 131.129 234.854 135.346Z" fill="#403838" stroke="black" stroke-width="4"/>
<path d="M166.043 139.696C164.653 144.252 164.713 149.827 165.318 152.498C169.958 153.481 171.862 140.997 172.234 134.632C168.692 133.459 167.329 135.478 166.043 139.696Z" fill="#403838" stroke="black" stroke-width="4"/>

</g><g id="triangle-avatar-Eyes">
<path d="M157.5 200.5C141.9 200.1 139.667 188.333 140.5 182.5C143.3 184.5 174.5 181.833 187.5 181C189 188.5 184 191.5 184 191.5C184 191.5 177 201 157.5 200.5Z" fill="white"/>
<path d="M244.15 191.5C228.55 191.1 226.317 179.333 227.15 173.5C229.95 175.5 256.5 173.833 269.5 173C271 180.5 266.5 184 266.5 184C266.5 184 263.65 192 244.15 191.5Z" fill="white"/>
<path d="M145.5 191.5C151 180 161.5 184.5 161.5 195C160.086 198.775 145.5 201 145.5 191.5Z" fill="#0B0B0B" stroke="black" stroke-width="4"/>
<path d="M133.991 182.875C143.464 185.401 167.611 188.389 188.422 180.13M137.914 181.823C146.638 183.971 168.693 185.998 187.123 176.93" stroke="black" stroke-width="3"/>
<path d="M151.946 168.504C156.762 163.84 169.299 159.311 180.917 178.5M139.857 183.971C140.332 187.947 141.347 194.317 149.085 197.166C159.5 201 161 200 178.5 195.5" stroke="black" stroke-width="4"/>
<path d="M234 180C236.726 175.718 252.5 174.5 245 187.5C239 190 231.274 184.282 234 180Z" fill="#0B0B0B" stroke="black" stroke-width="4"/>
<path d="M220.5 172.671C228.676 175.077 251.875 179.384 270.144 172.671M227.271 172.671C234.804 174.731 253.926 176.985 270.144 169.515" stroke="black" stroke-width="3"/>
<path d="M235.034 157.5C239.732 154.05 253.5 162 260 173M229 173C228.942 176.48 229.15 182.604 235.034 186.699C241.671 191.318 247 191.5 260 188.5" stroke="black" stroke-width="4"/>

</g><g id="triangle-avatar-Shirt">
<path d="M323.366 382.863H50.4563C50.4907 382.793 50.5255 382.722 50.5604 382.651C55.1052 373.395 63.4899 356.319 74.4025 341.041C80.5961 332.37 87.5303 324.387 94.9416 318.772C102.354 313.156 110.061 310.04 117.892 310.726C132.946 312.043 146.355 320.285 159.817 328.56C161.092 329.344 162.368 330.129 163.646 330.908C178.131 339.735 193.005 347.931 209.365 344.345C214.899 343.131 218.629 340.535 220.976 337.18C223.29 333.873 224.122 330.029 224.266 326.517C224.41 322.999 223.871 319.674 223.311 317.256C223.049 316.126 222.779 315.179 222.564 314.484C226.189 310.835 230.027 308.71 233.989 307.753C238.284 306.716 242.876 307.016 247.707 308.445C257.437 311.323 267.847 318.697 278.007 328.179C296.621 345.552 313.7 369.323 323.366 382.863Z" fill="#B4B0CD" stroke="black" stroke-width="4.27431"/>

</g><g id="triangle-avatar-Mouth">
<path d="M179.5 222.5C182 239.5 210.5 247.5 236.5 228" stroke="black" stroke-width="4"/>

</g><g id="triangle-avatar-Nose">
<path d="M205.687 185.055C205.89 188.898 207.385 197.137 211.735 199.353C217.174 202.123 212.91 211.306 202.729 210.717" stroke="#171921" stroke-width="4"/>

</g><g id="triangle-avatar-Hair">
<path d="M281.726 131.791C281.726 65.702 245.268 21.0001 200.859 21C143.966 21 86 42.3414 86 143.255C86 168.223 96.6589 186.827 111.564 200.54C110.07 198.671 108.867 196.996 108.067 195.619C105.176 168.638 137.233 147.929 168.601 127.665C185.254 116.907 201.712 106.275 212.646 94.8956C222.24 100.332 250.44 123.109 255.813 132.32C258.695 137.26 263.322 154.189 266.484 173.95C276.822 161.532 281.726 149.107 281.726 131.791Z" fill="white" stroke="black" stroke-width="4"/>
<path d="M213.264 94.2459C226.438 82.3014 246.146 55.04 244.881 37.3341" stroke="black" stroke-width="4"/>

</g><g id="triangle-avatar-Ear">
<path d="M120.5 183.176C118.17 182.408 115.655 182 113.08 182C102.587 182 94.0801 188.5 95.08 200.5C96.1216 213 103.587 217.5 114.08 217.5C115.248 217.5 116.391 217.397 117.5 217.201C118.711 216.987 119.881 216.661 121 216.235" stroke="#171921" stroke-width="8"/>
<path d="M121.5 216.036C119.22 216.979 116.713 217.5 114.08 217.5C103.587 217.5 96.1216 213 95.08 200.5C94.0801 188.5 102.587 182 113.08 182C116.217 182 119.267 182.606 122 183.73L121.5 216.036Z" fill="#F9C9B6"/>
<path d="M117.5 190.5C113.5 188.667 104.7 187.7 101.5 198.5" stroke="#171921" stroke-width="4"/>
<path d="M107 191C109.167 192.833 113.3 198.5 112.5 206.5" stroke="#171921" stroke-width="4"/>

</g><g id="triangle-avatar-Glasses">
<path d="M185.5 194.5C193.333 186.667 214.3 174.1 235.5 186.5" stroke="black" stroke-width="4"/>
<path d="M120 179C131.333 196.333 164 227.3 172 206.5" stroke="black" stroke-width="4"/>
<path d="M266.5 173C273.5 177.167 290.4 185.4 280 189C269.6 192.6 260.333 190.5 257 189" stroke="black" stroke-width="4"/>
<path d="M167.324 178.405L177.947 192.602L194.042 186.904L184.512 201.377L195.136 215.575L178.623 210.322L169.094 224.794L168.418 207.075L151.905 201.822L168 196.124L167.324 178.405Z" fill="#78BB7E"/>
<path d="M253.54 168.335L255.952 185.903L272.792 188.719L257.443 196.76L259.855 214.328L247.956 201.73L232.607 209.771L240.603 193.944L228.705 181.347L245.545 184.163L253.54 168.335Z" fill="#78BB7E"/>

</g></svg>
