<svg width="280" height="280" viewBox="0 0 380 380" fill="none" xmlns="http://www.w3.org/2000/svg"><g id="triangle-avatar-Background">
  <rect width="100%" height="100%" fill="#FFEDEF" />
<g clip-path="url(#clip0)">
<path d="M-18.6045 24.7057C-18.6045 24.7057 -3.76355 15.0149 5.04314 24.7057C13.8498 34.3964 28.6908 24.7057 28.6908 24.7057" stroke="white" stroke-opacity="0.3" stroke-width="3"/>
<path d="M-18.6045 34.3189C-18.6045 34.3189 -3.76355 24.6282 5.04314 34.3189C13.8498 44.0097 28.6908 34.3189 28.6908 34.3189" stroke="white" stroke-opacity="0.3" stroke-width="3"/>
<path d="M-18.6045 43.9322C-18.6045 43.9322 -3.76355 34.2415 5.04314 43.9322C13.8498 53.6229 28.6908 43.9322 28.6908 43.9322" stroke="white" stroke-opacity="0.3" stroke-width="3"/>
<path d="M-18.6045 102.546C-18.6045 102.546 -3.76355 92.8554 5.04314 102.546C13.8498 112.237 28.6908 102.546 28.6908 102.546" stroke="white" stroke-opacity="0.3" stroke-width="3"/>
<path d="M-18.6045 112.159C-18.6045 112.159 -3.76355 102.469 5.04314 112.159C13.8498 121.85 28.6908 112.159 28.6908 112.159" stroke="white" stroke-opacity="0.3" stroke-width="3"/>
<path d="M-18.6045 121.773C-18.6045 121.773 -3.76355 112.082 5.04314 121.773C13.8498 131.463 28.6908 121.773 28.6908 121.773" stroke="white" stroke-opacity="0.3" stroke-width="3"/>
<path d="M-18.6045 180.387C-18.6045 180.387 -3.76355 170.696 5.04314 180.387C13.8498 190.077 28.6908 180.387 28.6908 180.387" stroke="white" stroke-opacity="0.3" stroke-width="3"/>
<path d="M-18.6045 190C-18.6045 190 -3.76355 180.309 5.04314 190C13.8498 199.691 28.6908 190 28.6908 190" stroke="white" stroke-opacity="0.3" stroke-width="3"/>
<path d="M-18.6045 199.613C-18.6045 199.613 -3.76355 189.923 5.04314 199.613C13.8498 209.304 28.6908 199.613 28.6908 199.613" stroke="white" stroke-opacity="0.3" stroke-width="3"/>
<path d="M-18.6045 258.227C-18.6045 258.227 -3.76355 248.536 5.04314 258.227C13.8498 267.918 28.6908 258.227 28.6908 258.227" stroke="white" stroke-opacity="0.3" stroke-width="3"/>
<path d="M-18.6045 267.84C-18.6045 267.84 -3.76355 258.15 5.04314 267.84C13.8498 277.531 28.6908 267.84 28.6908 267.84" stroke="white" stroke-opacity="0.3" stroke-width="3"/>
<path d="M-18.6045 277.454C-18.6045 277.454 -3.76355 267.763 5.04314 277.454C13.8498 287.144 28.6908 277.454 28.6908 277.454" stroke="white" stroke-opacity="0.3" stroke-width="3"/>
<path d="M-18.6045 336.068C-18.6045 336.068 -3.76355 326.377 5.04314 336.068C13.8498 345.758 28.6908 336.068 28.6908 336.068" stroke="white" stroke-opacity="0.3" stroke-width="3"/>
<path d="M-18.6045 345.681C-18.6045 345.681 -3.76355 335.99 5.04314 345.681C13.8498 355.372 28.6908 345.681 28.6908 345.681" stroke="white" stroke-opacity="0.3" stroke-width="3"/>
<path d="M-18.6045 355.294C-18.6045 355.294 -3.76355 345.604 5.04314 355.294C13.8498 364.985 28.6908 355.294 28.6908 355.294" stroke="white" stroke-opacity="0.3" stroke-width="3"/>
<path d="M55.6904 -4.60134C55.6904 -4.60134 70.5314 -14.2921 79.3381 -4.60134C88.1448 5.08938 102.986 -4.60134 102.986 -4.60134" stroke="white" stroke-opacity="0.3" stroke-width="3"/>
<path d="M55.6904 5.01194C55.6904 5.01194 70.5314 -4.67878 79.3381 5.01194C88.1448 14.7027 102.986 5.01194 102.986 5.01194" stroke="white" stroke-opacity="0.3" stroke-width="3"/>
<path d="M55.6904 63.626C55.6904 63.626 70.5314 53.9352 79.3381 63.626C88.1448 73.3167 102.986 63.626 102.986 63.626" stroke="white" stroke-opacity="0.3" stroke-width="3"/>
<path d="M55.6904 73.2392C55.6904 73.2392 70.5314 63.5485 79.3381 73.2392C88.1448 82.93 102.986 73.2392 102.986 73.2392" stroke="white" stroke-opacity="0.3" stroke-width="3"/>
<path d="M55.6904 82.8525C55.6904 82.8525 70.5314 73.1618 79.3381 82.8525C88.1448 92.5432 102.986 82.8525 102.986 82.8525" stroke="white" stroke-opacity="0.3" stroke-width="3"/>
<path d="M55.6904 141.466C55.6904 141.466 70.5314 131.776 79.3381 141.466C88.1448 151.157 102.986 141.466 102.986 141.466" stroke="white" stroke-opacity="0.3" stroke-width="3"/>
<path d="M55.6904 151.08C55.6904 151.08 70.5314 141.389 79.3381 151.08C88.1448 160.77 102.986 151.08 102.986 151.08" stroke="white" stroke-opacity="0.3" stroke-width="3"/>
<path d="M55.6904 160.693C55.6904 160.693 70.5314 151.002 79.3381 160.693C88.1448 170.384 102.986 160.693 102.986 160.693" stroke="white" stroke-opacity="0.3" stroke-width="3"/>
<path d="M55.6904 219.307C55.6904 219.307 70.5314 209.616 79.3381 219.307C88.1448 228.998 102.986 219.307 102.986 219.307" stroke="white" stroke-opacity="0.3" stroke-width="3"/>
<path d="M55.6904 228.92C55.6904 228.92 70.5314 219.23 79.3381 228.92C88.1448 238.611 102.986 228.92 102.986 228.92" stroke="white" stroke-opacity="0.3" stroke-width="3"/>
<path d="M55.6904 238.534C55.6904 238.534 70.5314 228.843 79.3381 238.534C88.1448 248.224 102.986 238.534 102.986 238.534" stroke="white" stroke-opacity="0.3" stroke-width="3"/>
<path d="M55.6904 297.148C55.6904 297.148 70.5314 287.457 79.3381 297.148C88.1448 306.838 102.986 297.148 102.986 297.148" stroke="white" stroke-opacity="0.3" stroke-width="3"/>
<path d="M55.6904 306.761C55.6904 306.761 70.5314 297.07 79.3381 306.761C88.1448 316.452 102.986 306.761 102.986 306.761" stroke="white" stroke-opacity="0.3" stroke-width="3"/>
<path d="M55.6904 316.374C55.6904 316.374 70.5314 306.683 79.3381 316.374C88.1448 326.065 102.986 316.374 102.986 316.374" stroke="white" stroke-opacity="0.3" stroke-width="3"/>
<path d="M55.6904 374.988C55.6904 374.988 70.5314 365.297 79.3381 374.988C88.1448 384.679 102.986 374.988 102.986 374.988" stroke="white" stroke-opacity="0.3" stroke-width="3"/>
<path d="M55.6904 384.601C55.6904 384.601 70.5314 374.911 79.3381 384.601C88.1448 394.292 102.986 384.601 102.986 384.601" stroke="white" stroke-opacity="0.3" stroke-width="3"/>
<path d="M129.986 24.7057C129.986 24.7057 144.827 15.0149 153.634 24.7057C162.441 34.3964 177.282 24.7057 177.282 24.7057" stroke="white" stroke-opacity="0.3" stroke-width="3"/>
<path d="M129.986 34.3189C129.986 34.3189 144.827 24.6282 153.634 34.3189C162.441 44.0097 177.282 34.3189 177.282 34.3189" stroke="white" stroke-opacity="0.3" stroke-width="3"/>
<path d="M129.986 43.9322C129.986 43.9322 144.827 34.2415 153.634 43.9322C162.441 53.6229 177.282 43.9322 177.282 43.9322" stroke="white" stroke-opacity="0.3" stroke-width="3"/>
<path d="M129.986 102.546C129.986 102.546 144.827 92.8554 153.634 102.546C162.441 112.237 177.282 102.546 177.282 102.546" stroke="white" stroke-opacity="0.3" stroke-width="3"/>
<path d="M129.986 112.159C129.986 112.159 144.827 102.469 153.634 112.159C162.441 121.85 177.282 112.159 177.282 112.159" stroke="white" stroke-opacity="0.3" stroke-width="3"/>
<path d="M129.986 121.773C129.986 121.773 144.827 112.082 153.634 121.773C162.441 131.463 177.282 121.773 177.282 121.773" stroke="white" stroke-opacity="0.3" stroke-width="3"/>
<path d="M129.986 180.387C129.986 180.387 144.827 170.696 153.634 180.387C162.441 190.077 177.282 180.387 177.282 180.387" stroke="white" stroke-opacity="0.3" stroke-width="3"/>
<path d="M129.986 190C129.986 190 144.827 180.309 153.634 190C162.441 199.691 177.282 190 177.282 190" stroke="white" stroke-opacity="0.3" stroke-width="3"/>
<path d="M129.986 199.613C129.986 199.613 144.827 189.923 153.634 199.613C162.441 209.304 177.282 199.613 177.282 199.613" stroke="white" stroke-opacity="0.3" stroke-width="3"/>
<path d="M129.986 258.227C129.986 258.227 144.827 248.536 153.634 258.227C162.441 267.918 177.282 258.227 177.282 258.227" stroke="white" stroke-opacity="0.3" stroke-width="3"/>
<path d="M129.986 267.84C129.986 267.84 144.827 258.15 153.634 267.84C162.441 277.531 177.282 267.84 177.282 267.84" stroke="white" stroke-opacity="0.3" stroke-width="3"/>
<path d="M129.986 277.454C129.986 277.454 144.827 267.763 153.634 277.454C162.441 287.144 177.282 277.454 177.282 277.454" stroke="white" stroke-opacity="0.3" stroke-width="3"/>
<path d="M129.986 336.068C129.986 336.068 144.827 326.377 153.634 336.068C162.441 345.758 177.282 336.068 177.282 336.068" stroke="white" stroke-opacity="0.3" stroke-width="3"/>
<path d="M129.986 345.681C129.986 345.681 144.827 335.99 153.634 345.681C162.441 355.372 177.282 345.681 177.282 345.681" stroke="white" stroke-opacity="0.3" stroke-width="3"/>
<path d="M129.986 355.294C129.986 355.294 144.827 345.604 153.634 355.294C162.441 364.985 177.282 355.294 177.282 355.294" stroke="white" stroke-opacity="0.3" stroke-width="3"/>
<path d="M204.281 -4.60134C204.281 -4.60134 219.122 -14.2921 227.929 -4.60134C236.736 5.08938 251.577 -4.60134 251.577 -4.60134" stroke="white" stroke-opacity="0.3" stroke-width="3"/>
<path d="M204.281 5.01194C204.281 5.01194 219.122 -4.67878 227.929 5.01194C236.736 14.7027 251.577 5.01194 251.577 5.01194" stroke="white" stroke-opacity="0.3" stroke-width="3"/>
<path d="M204.281 63.626C204.281 63.626 219.122 53.9352 227.929 63.626C236.736 73.3167 251.577 63.626 251.577 63.626" stroke="white" stroke-opacity="0.3" stroke-width="3"/>
<path d="M204.281 73.2392C204.281 73.2392 219.122 63.5485 227.929 73.2392C236.736 82.93 251.577 73.2392 251.577 73.2392" stroke="white" stroke-opacity="0.3" stroke-width="3"/>
<path d="M204.281 82.8525C204.281 82.8525 219.122 73.1618 227.929 82.8525C236.736 92.5432 251.577 82.8525 251.577 82.8525" stroke="white" stroke-opacity="0.3" stroke-width="3"/>
<path d="M204.281 141.466C204.281 141.466 219.122 131.776 227.929 141.466C236.736 151.157 251.577 141.466 251.577 141.466" stroke="white" stroke-opacity="0.3" stroke-width="3"/>
<path d="M204.281 151.08C204.281 151.08 219.122 141.389 227.929 151.08C236.736 160.77 251.577 151.08 251.577 151.08" stroke="white" stroke-opacity="0.3" stroke-width="3"/>
<path d="M204.281 160.693C204.281 160.693 219.122 151.002 227.929 160.693C236.736 170.384 251.577 160.693 251.577 160.693" stroke="white" stroke-opacity="0.3" stroke-width="3"/>
<path d="M204.281 219.307C204.281 219.307 219.122 209.616 227.929 219.307C236.736 228.998 251.577 219.307 251.577 219.307" stroke="white" stroke-opacity="0.3" stroke-width="3"/>
<path d="M204.281 228.92C204.281 228.92 219.122 219.23 227.929 228.92C236.736 238.611 251.577 228.92 251.577 228.92" stroke="white" stroke-opacity="0.3" stroke-width="3"/>
<path d="M204.281 238.534C204.281 238.534 219.122 228.843 227.929 238.534C236.736 248.224 251.577 238.534 251.577 238.534" stroke="white" stroke-opacity="0.3" stroke-width="3"/>
<path d="M204.281 297.148C204.281 297.148 219.122 287.457 227.929 297.148C236.736 306.838 251.577 297.148 251.577 297.148" stroke="white" stroke-opacity="0.3" stroke-width="3"/>
<path d="M204.281 306.761C204.281 306.761 219.122 297.07 227.929 306.761C236.736 316.452 251.577 306.761 251.577 306.761" stroke="white" stroke-opacity="0.3" stroke-width="3"/>
<path d="M204.281 316.374C204.281 316.374 219.122 306.683 227.929 316.374C236.736 326.065 251.577 316.374 251.577 316.374" stroke="white" stroke-opacity="0.3" stroke-width="3"/>
<path d="M204.281 374.988C204.281 374.988 219.122 365.297 227.929 374.988C236.736 384.679 251.577 374.988 251.577 374.988" stroke="white" stroke-opacity="0.3" stroke-width="3"/>
<path d="M204.281 384.601C204.281 384.601 219.122 374.911 227.929 384.601C236.736 394.292 251.577 384.601 251.577 384.601" stroke="white" stroke-opacity="0.3" stroke-width="3"/>
<path d="M278.576 24.7057C278.576 24.7057 293.417 15.0149 302.224 24.7057C311.03 34.3964 325.871 24.7057 325.871 24.7057" stroke="white" stroke-opacity="0.3" stroke-width="3"/>
<path d="M278.576 34.3189C278.576 34.3189 293.417 24.6282 302.224 34.3189C311.03 44.0097 325.871 34.3189 325.871 34.3189" stroke="white" stroke-opacity="0.3" stroke-width="3"/>
<path d="M278.576 43.9322C278.576 43.9322 293.417 34.2415 302.224 43.9322C311.03 53.6229 325.871 43.9322 325.871 43.9322" stroke="white" stroke-opacity="0.3" stroke-width="3"/>
<path d="M278.576 102.546C278.576 102.546 293.417 92.8554 302.224 102.546C311.03 112.237 325.871 102.546 325.871 102.546" stroke="white" stroke-opacity="0.3" stroke-width="3"/>
<path d="M278.576 112.159C278.576 112.159 293.417 102.469 302.224 112.159C311.03 121.85 325.871 112.159 325.871 112.159" stroke="white" stroke-opacity="0.3" stroke-width="3"/>
<path d="M278.576 121.773C278.576 121.773 293.417 112.082 302.224 121.773C311.03 131.463 325.871 121.773 325.871 121.773" stroke="white" stroke-opacity="0.3" stroke-width="3"/>
<path d="M278.576 180.387C278.576 180.387 293.417 170.696 302.224 180.387C311.03 190.077 325.871 180.387 325.871 180.387" stroke="white" stroke-opacity="0.3" stroke-width="3"/>
<path d="M278.576 190C278.576 190 293.417 180.309 302.224 190C311.03 199.691 325.871 190 325.871 190" stroke="white" stroke-opacity="0.3" stroke-width="3"/>
<path d="M278.576 199.613C278.576 199.613 293.417 189.923 302.224 199.613C311.03 209.304 325.871 199.613 325.871 199.613" stroke="white" stroke-opacity="0.3" stroke-width="3"/>
<path d="M278.576 258.227C278.576 258.227 293.417 248.536 302.224 258.227C311.03 267.918 325.871 258.227 325.871 258.227" stroke="white" stroke-opacity="0.3" stroke-width="3"/>
<path d="M278.576 267.84C278.576 267.84 293.417 258.15 302.224 267.84C311.03 277.531 325.871 267.84 325.871 267.84" stroke="white" stroke-opacity="0.3" stroke-width="3"/>
<path d="M278.576 277.454C278.576 277.454 293.417 267.763 302.224 277.454C311.03 287.144 325.871 277.454 325.871 277.454" stroke="white" stroke-opacity="0.3" stroke-width="3"/>
<path d="M278.576 336.068C278.576 336.068 293.417 326.377 302.224 336.068C311.03 345.758 325.871 336.068 325.871 336.068" stroke="white" stroke-opacity="0.3" stroke-width="3"/>
<path d="M278.576 345.681C278.576 345.681 293.417 335.99 302.224 345.681C311.03 355.372 325.871 345.681 325.871 345.681" stroke="white" stroke-opacity="0.3" stroke-width="3"/>
<path d="M278.576 355.294C278.576 355.294 293.417 345.604 302.224 355.294C311.03 364.985 325.871 355.294 325.871 355.294" stroke="white" stroke-opacity="0.3" stroke-width="3"/>
<path d="M352.872 -4.60134C352.872 -4.60134 367.713 -14.2921 376.52 -4.60134C385.326 5.08938 400.167 -4.60134 400.167 -4.60134" stroke="white" stroke-opacity="0.3" stroke-width="3"/>
<path d="M352.872 5.01194C352.872 5.01194 367.713 -4.67878 376.52 5.01194C385.326 14.7027 400.167 5.01194 400.167 5.01194" stroke="white" stroke-opacity="0.3" stroke-width="3"/>
<path d="M352.872 63.626C352.872 63.626 367.713 53.9352 376.52 63.626C385.326 73.3167 400.167 63.626 400.167 63.626" stroke="white" stroke-opacity="0.3" stroke-width="3"/>
<path d="M352.872 73.2392C352.872 73.2392 367.713 63.5485 376.52 73.2392C385.326 82.93 400.167 73.2392 400.167 73.2392" stroke="white" stroke-opacity="0.3" stroke-width="3"/>
<path d="M352.872 82.8525C352.872 82.8525 367.713 73.1618 376.52 82.8525C385.326 92.5432 400.167 82.8525 400.167 82.8525" stroke="white" stroke-opacity="0.3" stroke-width="3"/>
<path d="M352.872 141.466C352.872 141.466 367.713 131.776 376.52 141.466C385.326 151.157 400.167 141.466 400.167 141.466" stroke="white" stroke-opacity="0.3" stroke-width="3"/>
<path d="M352.872 151.08C352.872 151.08 367.713 141.389 376.52 151.08C385.326 160.77 400.167 151.08 400.167 151.08" stroke="white" stroke-opacity="0.3" stroke-width="3"/>
<path d="M352.872 160.693C352.872 160.693 367.713 151.002 376.52 160.693C385.326 170.384 400.167 160.693 400.167 160.693" stroke="white" stroke-opacity="0.3" stroke-width="3"/>
<path d="M352.872 219.307C352.872 219.307 367.713 209.616 376.52 219.307C385.326 228.998 400.167 219.307 400.167 219.307" stroke="white" stroke-opacity="0.3" stroke-width="3"/>
<path d="M352.872 228.92C352.872 228.92 367.713 219.23 376.52 228.92C385.326 238.611 400.167 228.92 400.167 228.92" stroke="white" stroke-opacity="0.3" stroke-width="3"/>
<path d="M352.872 238.534C352.872 238.534 367.713 228.843 376.52 238.534C385.326 248.224 400.167 238.534 400.167 238.534" stroke="white" stroke-opacity="0.3" stroke-width="3"/>
<path d="M352.872 297.148C352.872 297.148 367.713 287.457 376.52 297.148C385.326 306.838 400.167 297.148 400.167 297.148" stroke="white" stroke-opacity="0.3" stroke-width="3"/>
<path d="M352.872 306.761C352.872 306.761 367.713 297.07 376.52 306.761C385.326 316.452 400.167 306.761 400.167 306.761" stroke="white" stroke-opacity="0.3" stroke-width="3"/>
<path d="M352.872 316.374C352.872 316.374 367.713 306.683 376.52 316.374C385.326 326.065 400.167 316.374 400.167 316.374" stroke="white" stroke-opacity="0.3" stroke-width="3"/>
<path d="M352.872 374.988C352.872 374.988 367.713 365.297 376.52 374.988C385.326 384.679 400.167 374.988 400.167 374.988" stroke="white" stroke-opacity="0.3" stroke-width="3"/>
<path d="M352.872 384.601C352.872 384.601 367.713 374.911 376.52 384.601C385.326 394.292 400.167 384.601 400.167 384.601" stroke="white" stroke-opacity="0.3" stroke-width="3"/>
</g>
<defs>
<clipPath id="clip0">
<rect width="380" height="380" fill="white" transform="translate(0.78125)"/>
</clipPath>
</defs>

</g><g id="triangle-avatar-Base">
<g clip-path="url(#clip0)">
<path d="M244 362.5C229.6 342.5 218.333 303.834 217 284.5L148.5 255L120 362.5H244Z" fill="#F9C9B6" stroke="black" stroke-width="4"/>
<mask id="mask0" mask-type="alpha" maskUnits="userSpaceOnUse" x="120" y="255" width="124" height="118">
<path d="M244 372.5C229.6 352.5 218.333 303.834 217 284.5L148.5 255L120 372.5H244Z" fill="#AC6651"/>
</mask>
<g mask="url(#mask0)">
<g style="mix-blend-mode:multiply">
<ellipse cx="214" cy="253" rx="59" ry="54" fill="black"/>
</g>
</g>
<mask id="path-4-inside-1" fill="white">
<path fill-rule="evenodd" clip-rule="evenodd" d="M273.887 193.917C273.86 193.802 273.832 193.686 273.804 193.57C273.777 193.454 273.749 193.339 273.72 193.223L257.324 124.786C257.307 124.718 257.291 124.651 257.275 124.583C257.259 124.515 257.242 124.447 257.226 124.379L257.153 124.076L257.152 124.076C246.934 82.6315 205.157 57.148 163.583 67.1088C122.009 77.0696 96.3164 118.718 105.989 160.294L105.987 160.294L122.979 231.212L122.993 231.209C133.595 272.113 175.063 297.15 216.33 287.262C257.598 277.375 283.217 236.265 274.132 194.997L274.145 194.994L273.887 193.917Z"/>
</mask>
<path fill-rule="evenodd" clip-rule="evenodd" d="M273.887 193.917C273.86 193.802 273.832 193.686 273.804 193.57C273.777 193.454 273.749 193.339 273.72 193.223L257.324 124.786C257.307 124.718 257.291 124.651 257.275 124.583C257.259 124.515 257.242 124.447 257.226 124.379L257.153 124.076L257.152 124.076C246.934 82.6315 205.157 57.148 163.583 67.1088C122.009 77.0696 96.3164 118.718 105.989 160.294L105.987 160.294L122.979 231.212L122.993 231.209C133.595 272.113 175.063 297.15 216.33 287.262C257.598 277.375 283.217 236.265 274.132 194.997L274.145 194.994L273.887 193.917Z" fill="#F9C9B6"/>
<path d="M273.887 193.917L269.993 194.832L269.995 194.841L269.997 194.849L273.887 193.917ZM273.72 193.223L269.831 194.155L269.833 194.164L269.835 194.173L273.72 193.223ZM257.324 124.786L253.431 125.708L253.434 125.718L257.324 124.786ZM257.226 124.379L253.336 125.311L253.339 125.322L257.226 124.379ZM257.153 124.076L261.043 123.144L260.112 119.256L256.223 120.186L257.153 124.076ZM257.152 124.076L253.268 125.034L254.219 128.89L258.082 127.967L257.152 124.076ZM163.583 67.1088L162.651 63.2189L163.583 67.1088ZM105.989 160.294L106.923 164.183L110.785 163.255L109.885 159.387L105.989 160.294ZM105.987 160.294L105.053 156.405L101.166 157.338L102.097 161.226L105.987 160.294ZM122.979 231.212L119.089 232.144L120.021 236.035L123.912 235.101L122.979 231.212ZM122.993 231.209L126.865 230.205L125.879 226.402L122.059 227.319L122.993 231.209ZM216.33 287.262L215.398 283.372H215.398L216.33 287.262ZM274.132 194.997L273.201 191.107L269.382 192.021L270.226 195.857L274.132 194.997ZM274.145 194.994L275.076 198.884L278.967 197.952L278.035 194.062L274.145 194.994ZM277.781 193.003C277.752 192.881 277.723 192.76 277.694 192.638L269.915 194.502C269.941 194.612 269.967 194.722 269.993 194.832L277.781 193.003ZM277.694 192.638C277.665 192.517 277.636 192.395 277.606 192.274L269.835 194.173C269.861 194.282 269.888 194.392 269.915 194.502L277.694 192.638ZM253.434 125.718L269.831 194.155L277.61 192.291L261.213 123.854L253.434 125.718ZM261.216 123.864C261.199 123.794 261.182 123.722 261.165 123.651L253.385 125.515C253.401 125.579 253.416 125.643 253.431 125.708L261.216 123.864ZM261.165 123.651C261.148 123.58 261.131 123.509 261.113 123.437L253.339 125.322C253.354 125.386 253.37 125.45 253.385 125.515L261.165 123.651ZM253.263 125.008L253.336 125.311L261.116 123.447L261.043 123.144L253.263 125.008ZM258.082 127.967L258.084 127.966L256.223 120.186L256.222 120.186L258.082 127.967ZM261.036 123.119C250.292 79.5405 206.365 52.7454 162.651 63.2189L164.515 70.9987C203.949 61.5506 243.576 85.7226 253.268 125.034L261.036 123.119ZM162.651 63.2189C118.937 73.6924 91.9225 117.484 102.093 161.2L109.885 159.387C100.71 119.952 125.081 80.4469 164.515 70.9987L162.651 63.2189ZM106.921 164.183L106.923 164.183L105.055 156.404L105.053 156.405L106.921 164.183ZM126.869 230.28L109.877 159.362L102.097 161.226L119.089 232.144L126.869 230.28ZM122.059 227.319L122.045 227.322L123.912 235.101L123.926 235.098L122.059 227.319ZM119.121 232.212C130.269 275.223 173.87 301.548 217.262 291.152L215.398 283.372C176.255 292.751 136.921 269.003 126.865 230.205L119.121 232.212ZM217.262 291.152C260.654 280.756 287.592 237.53 278.039 194.137L270.226 195.857C278.843 235 254.542 273.994 215.398 283.372L217.262 291.152ZM273.213 191.104L273.201 191.107L275.064 198.887L275.076 198.884L273.213 191.104ZM269.997 194.849L270.255 195.926L278.035 194.062L277.777 192.985L269.997 194.849Z" fill="black" mask="url(#path-4-inside-1)"/>
<path d="M270.125 194.454C279.614 234.058 255.201 273.856 215.597 283.344C192.29 288.929 168.915 282.771 151.691 268.686C134.499 252.8 130.499 201.3 126.692 176.949C140.691 208.45 176.316 210.895 210.192 204.95C238.691 199.95 261.49 198.95 261.49 159.95C263.376 162.566 268.468 187.537 270.125 194.454Z" fill="#F9C9B6"/>
</g>
<ellipse cx="209.75" cy="188.445" rx="69.5387" ry="31.1548" transform="rotate(-12.0124 209.75 188.445)" fill="url(#paint0_radial)"/>
<defs>
<radialGradient id="paint0_radial" cx="0" cy="0" r="1" gradientUnits="userSpaceOnUse" gradientTransform="translate(209.75 188.445) rotate(90) scale(31.1548 69.5387)">
<stop stop-color="#ED9E56"/>
<stop offset="1" stop-color="#F7B9B9" stop-opacity="0"/>
</radialGradient>
<clipPath id="clip0">
<rect width="200" height="320" fill="white" transform="translate(90 43)"/>
</clipPath>
</defs>

</g><g id="triangle-avatar-Eyebrows">
<path d="M147 150.5C153.167 153 168.1 153.5 178.5 135.5" stroke="black" stroke-width="4" stroke-linecap="round"/>
<path d="M214 128C219.167 133.333 232.1 140.8 242.5 128" stroke="black" stroke-width="4" stroke-linecap="round"/>

</g><g id="triangle-avatar-Eyes">
<circle cx="167.24" cy="159.24" r="12" transform="rotate(-6.27568 167.24 159.24)" fill="#D2EFF3"/>
<ellipse cx="168.53" cy="168.403" rx="9" ry="13.5" transform="rotate(-6.77646 168.53 168.403)" fill="black"/>
<circle cx="231.019" cy="150.612" r="12" transform="rotate(-6.27568 231.019 150.612)" fill="#D2EFF3"/>
<ellipse cx="232.53" cy="158.403" rx="9" ry="13.5" transform="rotate(-6.27568 232.53 158.403)" fill="black"/>

</g><g id="triangle-avatar-Shirt">
<path d="M322.849 383H50.3541C58.0406 368.805 65.2356 358.337 73.1955 350.713C81.6478 342.617 91.0279 337.667 102.945 334.95C104.62 334.568 106.824 334.585 109.549 335.011C112.254 335.434 115.35 336.239 118.755 337.331C125.572 339.517 133.421 342.783 141.55 346.208C142.067 346.426 142.586 346.645 143.105 346.864C150.708 350.069 158.494 353.352 165.713 355.884C173.384 358.573 180.642 360.5 186.5 360.5C191.673 360.5 198.201 358.904 205.157 356.691C211.183 354.775 217.702 352.337 224.16 349.922C225.199 349.533 226.237 349.145 227.271 348.76C234.766 345.968 242.06 343.324 248.453 341.6C254.934 339.852 260.119 339.161 263.552 339.949C280 343.726 286.721 346.268 293.711 352.181C297.283 355.203 300.949 359.128 305.981 364.668C306.687 365.446 307.419 366.254 308.18 367.094C312.133 371.457 316.868 376.685 322.849 383Z" fill="#0C4F2F" stroke="black" stroke-width="4"/>
<path d="M115.93 328.581L125.083 308.984C125.301 308.516 125.845 308.294 126.332 308.466C164.258 321.891 198.761 320.946 230.735 312.045C231.138 311.933 231.568 312.081 231.814 312.418L245.746 331.471C246.129 331.995 245.934 332.733 245.33 332.97C211.723 346.167 148.662 343.923 116.414 329.904C115.903 329.682 115.693 329.087 115.93 328.581Z" fill="#192223" stroke="black" stroke-width="4"/>

</g><g id="triangle-avatar-Mouth">
<path d="M193 251C194.715 243.043 201.071 226.233 212.771 222.652C224.471 219.071 230.465 231.107 232 237.572" stroke="black" stroke-width="4"/>

</g><g id="triangle-avatar-Nose">
<path d="M204.13 177.094C206.078 190.958 214.541 200.877 214.541 200.877C214.541 200.877 211.91 207.306 201.729 206.717" stroke="#171921" stroke-width="4"/>

</g><g id="triangle-avatar-Hair">
<path d="M164.836 119.819C164.051 118.078 164.05 118.078 164.049 118.078L164.047 118.079L164.039 118.083L164.014 118.094C163.993 118.104 163.963 118.118 163.924 118.136C163.889 118.152 163.847 118.171 163.799 118.194C163.739 118.222 163.669 118.255 163.59 118.293C163.301 118.431 162.882 118.635 162.351 118.904C161.29 119.443 159.782 120.242 157.971 121.295C154.355 123.398 149.514 126.527 144.627 130.626C134.911 138.776 124.704 151.03 124.09 166.926C123.825 173.765 122.97 206.806 123.161 219.433C123.322 230.065 128.824 241.481 136.457 252.008C143.108 261.18 151.507 269.857 159.831 277.008C122.066 278.501 93.4547 273.546 74.12 268.121C64.0371 265.292 56.4733 262.334 51.4465 260.094C49.4594 259.208 47.8687 258.434 46.6754 257.825C55.7698 251.141 63.3569 239.682 68.3629 222.675C73.8528 204.024 76.2872 178.554 74.1512 144.963C72.2158 114.525 87.0079 88.8092 109.359 70.6291C131.734 52.4301 161.549 41.9109 189.237 41.9109C204.22 41.9109 216.376 44.8448 226.176 51.9616C235.979 59.081 243.667 70.5619 249.362 88.1322L249.757 89.3516L251.035 89.4485C263.411 90.3865 272.114 95.4881 278.531 103.662C285.017 111.924 289.239 123.422 292.335 137.232C294.375 146.332 292.389 155.311 290.001 165.651L289.889 166.133C287.552 176.25 284.951 187.505 286.095 200.666C287.125 212.51 291.852 224.135 295.782 233.074C296.286 234.222 296.775 235.321 297.242 236.368C298.616 239.455 299.792 242.096 300.585 244.253C301.117 245.698 301.424 246.79 301.522 247.566C301.572 247.963 301.555 248.168 301.541 248.254C301.096 248.665 300.272 249.12 298.956 249.522C297.587 249.94 295.863 250.248 293.881 250.442C289.92 250.828 285.138 250.738 280.543 250.296C275.941 249.853 271.637 249.067 268.622 248.108C267.091 247.622 266.033 247.134 265.436 246.711C265.344 246.646 265.274 246.591 265.221 246.546C265.594 245.259 266.131 243.723 266.752 241.949C269.947 232.824 275.347 217.398 271.855 197.08C269.765 184.924 264.189 163.457 259.161 145.11C256.643 135.919 254.254 127.483 252.495 121.344C251.615 118.275 250.893 115.78 250.391 114.052C250.139 113.187 249.943 112.515 249.81 112.058L249.657 111.538L249.618 111.405L249.608 111.372L249.606 111.363L249.605 111.361C249.605 111.361 249.605 111.36 247.772 111.899L249.605 111.36L248.676 108.201L246.395 110.575L246.394 110.575L246.39 110.579L246.371 110.599C246.352 110.618 246.324 110.647 246.285 110.687C246.207 110.766 246.087 110.886 245.927 111.044C245.606 111.361 245.123 111.83 244.481 112.429C243.198 113.627 241.285 115.343 238.783 117.394C233.778 121.498 226.427 126.938 217.067 132.257C199.249 142.382 174.216 152.037 144.245 151.29C153.86 142.359 159.391 135.018 162.561 129.701C164.328 126.736 165.359 124.403 165.954 122.778C166.251 121.965 166.439 121.331 166.555 120.884C166.613 120.66 166.652 120.484 166.679 120.356C166.692 120.292 166.702 120.24 166.71 120.2C166.713 120.18 166.716 120.163 166.719 120.149L166.722 120.131L166.723 120.124L166.723 120.12C166.724 120.119 166.724 120.117 164.836 119.819ZM164.836 119.819L164.051 118.078L167.275 116.623L166.724 120.117L164.836 119.819ZM265.067 246.388C265.07 246.388 265.082 246.402 265.096 246.428C265.072 246.401 265.065 246.388 265.067 246.388Z" fill="#FF4D6B" stroke="black" stroke-width="3.82184"/>
<path d="M250 89C250.5 93.5 249.7 102.5 248.5 108.5" stroke="black" stroke-width="4"/>

</g><g id="triangle-avatar-Ear">
<path d="M120.5 183.176C118.17 182.408 115.655 182 113.08 182C102.587 182 94.0801 188.5 95.08 200.5C96.1216 213 103.587 217.5 114.08 217.5C115.248 217.5 116.391 217.397 117.5 217.201C118.711 216.987 119.881 216.661 121 216.235" stroke="#171921" stroke-width="8"/>
<path d="M121.5 216.036C119.22 216.979 116.713 217.5 114.08 217.5C103.587 217.5 96.1216 213 95.08 200.5C94.0801 188.5 102.587 182 113.08 182C116.217 182 119.267 182.606 122 183.73L121.5 216.036Z" fill="#F9C9B6"/>
<path d="M117.5 190.5C113.5 188.667 104.7 187.7 101.5 198.5" stroke="#171921" stroke-width="4"/>
<path d="M107 191C109.167 192.833 113.3 198.5 112.5 206.5" stroke="#171921" stroke-width="4"/>

</g></svg>
