<svg width="280" height="280" viewBox="0 0 380 380" fill="none" xmlns="http://www.w3.org/2000/svg"><g id="triangle-avatar-Background">
  <rect width="100%" height="100%" fill="#FFEDEF" />
<g clip-path="url(#clip0)">
<rect x="37.5684" y="40.2461" width="22.0101" height="5.39602" rx="2.69801" transform="rotate(-45 37.5684 40.2461)" fill="#FC909F" fill-opacity="0.2"/>
<rect x="340.21" y="31.3469" width="22.0101" height="5.39602" rx="2.69801" transform="rotate(15 340.21 31.3469)" fill="#FC909F" fill-opacity="0.2"/>
<rect x="77.5566" y="179.963" width="22.0101" height="5.39602" rx="2.69801" fill="#FC909F" fill-opacity="0.2"/>
<rect x="282.163" y="212.365" width="22.0101" height="5.39602" rx="2.69801" transform="rotate(178.86 282.163 212.365)" fill="#FC909F" fill-opacity="0.2"/>
<rect x="282.483" y="183.068" width="22.0101" height="5.39602" rx="2.69801" transform="rotate(-139.409 282.483 183.068)" fill="#FC909F" fill-opacity="0.2"/>
<rect x="342.104" y="223.829" width="22.0101" height="5.39602" rx="2.69801" transform="rotate(-139.409 342.104 223.829)" fill="#FC909F" fill-opacity="0.2"/>
<rect x="226.008" y="211.533" width="22.0101" height="5.39602" rx="2.69801" transform="rotate(178.86 226.008 211.533)" fill="#FC909F" fill-opacity="0.2"/>
<rect x="73.3799" y="25.7622" width="22.0101" height="5.39602" rx="2.69801" fill="#FC909F" fill-opacity="0.2"/>
<rect x="262.295" y="358.998" width="22.0101" height="5.39602" rx="2.69801" transform="rotate(-56.7546 262.295 358.998)" fill="#FC909F" fill-opacity="0.2"/>
<rect x="313.113" y="379.785" width="22.0101" height="5.39602" rx="2.69801" transform="rotate(-56.7546 313.113 379.785)" fill="#FC909F" fill-opacity="0.2"/>
<rect x="1.41406" y="344.715" width="22.0101" height="5.39602" rx="2.69801" fill="#FC909F" fill-opacity="0.2"/>
<rect x="58.4482" y="36.3434" width="14.2156" height="5.39602" rx="2.69801" transform="rotate(-109.255 58.4482 36.3434)" fill="#B4B0CD" fill-opacity="0.52"/>
<rect x="363.755" y="70.0695" width="14.2156" height="5.39602" rx="2.69801" transform="rotate(-49.2546 363.755 70.0695)" fill="#B4B0CD" fill-opacity="0.52"/>
<rect x="110.322" y="211.273" width="14.2156" height="5.39602" rx="2.69801" transform="rotate(-64.2546 110.322 211.273)" fill="#B4B0CD" fill-opacity="0.52"/>
<rect x="54.168" y="210.441" width="14.2156" height="5.39602" rx="2.69801" transform="rotate(-64.2546 54.168 210.441)" fill="#B4B0CD" fill-opacity="0.52"/>
<rect x="207.951" y="90.1699" width="14.2156" height="5.39602" rx="2.69801" transform="rotate(-64.2546 207.951 90.1699)" fill="#B4B0CD" fill-opacity="0.52"/>
<rect x="306.443" y="348.76" width="14.2156" height="5.39602" rx="2.69801" transform="rotate(-121.009 306.443 348.76)" fill="#B4B0CD" fill-opacity="0.52"/>
<rect x="357.262" y="369.547" width="14.2156" height="5.39602" rx="2.69801" transform="rotate(-121.009 357.262 369.547)" fill="#B4B0CD" fill-opacity="0.52"/>
<rect x="34.1797" y="376.025" width="14.2156" height="5.39602" rx="2.69801" transform="rotate(-64.2546 34.1797 376.025)" fill="#B4B0CD" fill-opacity="0.52"/>
<rect x="76.5566" y="21.4766" width="14.2156" height="5.39602" rx="2.69801" transform="rotate(-109.255 76.5566 21.4766)" fill="#B4B0CD" fill-opacity="0.52"/>
<rect x="363.755" y="70.0695" width="14.2156" height="5.39602" rx="2.69801" transform="rotate(-49.2546 363.755 70.0695)" fill="#B4B0CD" fill-opacity="0.52"/>
<rect x="110.322" y="211.273" width="14.2156" height="5.39602" rx="2.69801" transform="rotate(-64.2546 110.322 211.273)" fill="#B4B0CD" fill-opacity="0.52"/>
<rect x="24.9834" y="196.125" width="14.2156" height="5.39602" rx="2.69801" transform="rotate(-64.2546 24.9834 196.125)" fill="#B4B0CD" fill-opacity="0.52"/>
<rect x="207.951" y="90.1699" width="14.2156" height="5.39602" rx="2.69801" transform="rotate(-64.2546 207.951 90.1699)" fill="#B4B0CD" fill-opacity="0.52"/>
<rect x="306.443" y="348.76" width="14.2156" height="5.39602" rx="2.69801" transform="rotate(-121.009 306.443 348.76)" fill="#B4B0CD" fill-opacity="0.52"/>
<rect x="357.262" y="369.547" width="14.2156" height="5.39602" rx="2.69801" transform="rotate(-121.009 357.262 369.547)" fill="#B4B0CD" fill-opacity="0.52"/>
<rect x="34.1797" y="376.025" width="14.2156" height="5.39602" rx="2.69801" transform="rotate(-64.2546 34.1797 376.025)" fill="#B4B0CD" fill-opacity="0.52"/>
<rect x="21.2305" y="48.1328" width="14.2156" height="5.39602" rx="2.69801" transform="rotate(-109.255 21.2305 48.1328)" fill="#403838" fill-opacity="0.3"/>
<rect x="325.21" y="21.1418" width="14.2156" height="5.39602" rx="2.69801" transform="rotate(-49.2546 325.21 21.1418)" fill="#403838" fill-opacity="0.3"/>
<rect x="55.416" y="42.3066" width="11.8767" height="5.39602" rx="2.69801" transform="rotate(13.9131 55.416 42.3066)" fill="#D8AE5D" fill-opacity="0.3"/>
<rect x="347.349" y="47.8333" width="11.8767" height="5.39602" rx="2.69801" transform="rotate(73.9131 347.349 47.8333)" fill="#D8AE5D" fill-opacity="0.3"/>
<rect x="88.7207" y="194.039" width="11.8767" height="5.39602" rx="2.69801" transform="rotate(58.9131 88.7207 194.039)" fill="#D8AE5D" fill-opacity="0.3"/>
<rect x="186.35" y="72.9355" width="11.8767" height="5.39602" rx="2.69801" transform="rotate(58.9131 186.35 72.9355)" fill="#D8AE5D" fill-opacity="0.3"/>
<rect x="270.619" y="202.482" width="11.8767" height="5.39602" rx="2.69801" transform="rotate(-176.702 270.619 202.482)" fill="#D8AE5D" fill-opacity="0.3"/>
<rect x="280.446" y="168.008" width="11.8767" height="5.39602" rx="2.69801" transform="rotate(-134.971 280.446 168.008)" fill="#D8AE5D" fill-opacity="0.3"/>
<rect x="204.152" y="192.812" width="11.8767" height="5.39602" rx="2.69801" transform="rotate(-176.702 204.152 192.812)" fill="#D8AE5D" fill-opacity="0.3"/>
<rect x="12.5781" y="358.791" width="11.8767" height="5.39602" rx="2.69801" transform="rotate(58.9131 12.5781 358.791)" fill="#D8AE5D" fill-opacity="0.3"/>
<rect x="105.762" y="52.1738" width="11.8767" height="5.39602" rx="2.69801" transform="rotate(13.9131 105.762 52.1738)" fill="#D8AE5D" fill-opacity="0.3"/>
<rect x="363.976" y="96.3683" width="11.8767" height="5.39602" rx="2.69801" transform="rotate(73.9131 363.976 96.3683)" fill="#D8AE5D" fill-opacity="0.3"/>
<rect x="117.344" y="236.617" width="11.8767" height="5.39602" rx="2.69801" transform="rotate(58.9131 117.344 236.617)" fill="#D8AE5D" fill-opacity="0.3"/>
<rect x="57.2188" y="166.622" width="11.8767" height="5.39602" rx="2.69801" transform="rotate(58.9131 57.2188 166.622)" fill="#D8AE5D" fill-opacity="0.3"/>
<rect x="209.004" y="193.221" width="11.8767" height="5.39602" rx="2.69801" transform="rotate(-176.702 209.004 193.221)" fill="#D8AE5D" fill-opacity="0.3"/>
<rect x="152.85" y="192.389" width="11.8767" height="5.39602" rx="2.69801" transform="rotate(-176.702 152.85 192.389)" fill="#D8AE5D" fill-opacity="0.3"/>
<rect x="30.8125" y="13.457" width="11.8767" height="5.39602" rx="2.69801" transform="rotate(62.5375 30.8125 13.457)" fill="#FFEDEF" fill-opacity="0.42"/>
<rect x="17.9805" y="66.5717" width="22.0101" height="5.39602" rx="2.69801" transform="rotate(12.1312 17.9805 66.5717)" fill="#FC909F" fill-opacity="0.2"/>
<rect x="301.478" y="43.2395" width="22.0101" height="5.39602" rx="2.69801" transform="rotate(72.1312 301.478 43.2395)" fill="#FC909F" fill-opacity="0.2"/>
<rect x="72.543" y="193.825" width="22.0101" height="5.39602" rx="2.69801" transform="rotate(57.1312 72.543 193.825)" fill="#FC909F" fill-opacity="0.2"/>
<rect x="78.8477" y="89.6016" width="22.0101" height="5.39602" rx="2.69801" transform="rotate(12.1312 78.8477 89.6016)" fill="#FC909F" fill-opacity="0.2"/>
<rect x="318.106" y="91.7726" width="22.0101" height="5.39602" rx="2.69801" transform="rotate(72.1312 318.106 91.7726)" fill="#FC909F" fill-opacity="0.2"/>
<rect x="193.008" y="243.322" width="22.0101" height="5.39602" rx="2.69801" transform="rotate(136.516 193.008 243.322)" fill="#FC909F" fill-opacity="0.2"/>
<rect x="132.771" y="18.2916" width="22.0101" height="5.39602" rx="2.69801" transform="rotate(-29.2674 132.771 18.2916)" fill="#FC909F" fill-opacity="0.2"/>
<rect x="93.0645" y="120.225" width="22.0101" height="5.39602" rx="2.69801" transform="rotate(-29.2674 93.0645 120.225)" fill="#FC909F" fill-opacity="0.2"/>
<rect x="298.694" y="119.398" width="22.0101" height="5.39602" rx="2.69801" transform="rotate(30.7326 298.694 119.398)" fill="#FC909F" fill-opacity="0.2"/>
<rect x="358.314" y="160.159" width="22.0101" height="5.39602" rx="2.69801" transform="rotate(30.7326 358.314 160.159)" fill="#FC909F" fill-opacity="0.2"/>
<rect x="13.3809" y="251.456" width="22.0101" height="5.39602" rx="2.69801" transform="rotate(-29.2674 13.3809 251.456)" fill="#FC909F" fill-opacity="0.2"/>
<rect x="211.686" y="272.686" width="22.0101" height="5.39602" rx="2.69801" transform="rotate(149.593 211.686 272.686)" fill="#FC909F" fill-opacity="0.2"/>
<rect x="71.8457" y="244.051" width="22.0101" height="5.39602" rx="2.69801" transform="rotate(57.1312 71.8457 244.051)" fill="#FC909F" fill-opacity="0.2"/>
<rect x="54.2344" y="138.161" width="22.0101" height="5.39602" rx="2.69801" transform="rotate(12.1312 54.2344 138.161)" fill="#FC909F" fill-opacity="0.2"/>
<rect x="103.461" y="63.418" width="22.0101" height="5.39602" rx="2.69801" transform="rotate(12.1312 103.461 63.418)" fill="#FC909F" fill-opacity="0.2"/>
<rect x="353.089" y="99.9973" width="22.0101" height="5.39602" rx="2.69801" transform="rotate(72.1312 353.089 99.9973)" fill="#FC909F" fill-opacity="0.2"/>
<rect x="107.766" y="242.941" width="22.0101" height="5.39602" rx="2.69801" transform="rotate(57.1312 107.766 242.941)" fill="#FC909F" fill-opacity="0.2"/>
<rect x="47.6406" y="172.946" width="22.0101" height="5.39602" rx="2.69801" transform="rotate(57.1312 47.6406 172.946)" fill="#FC909F" fill-opacity="0.2"/>
<rect x="78.8477" y="111.977" width="22.0101" height="5.39602" rx="2.69801" transform="rotate(12.1312 78.8477 111.977)" fill="#FC909F" fill-opacity="0.2"/>
<rect x="277.444" y="81.3957" width="22.0101" height="5.39602" rx="2.69801" transform="rotate(72.1312 277.444 81.3957)" fill="#FC909F" fill-opacity="0.2"/>
<rect x="59.2031" y="236.901" width="22.0101" height="5.39602" rx="2.69801" transform="rotate(57.1312 59.2031 236.901)" fill="#FC909F" fill-opacity="0.2"/>
<rect x="153.807" y="73.2852" width="22.0101" height="5.39602" rx="2.69801" transform="rotate(12.1312 153.807 73.2852)" fill="#FC909F" fill-opacity="0.2"/>
<rect x="334.202" y="241.914" width="22.0101" height="5.39602" rx="2.69801" transform="rotate(3.87794 334.202 241.914)" fill="#FC909F" fill-opacity="0.2"/>
<rect x="301.649" y="239.758" width="22.0101" height="5.39602" rx="2.69801" transform="rotate(45.6084 301.649 239.758)" fill="#FC909F" fill-opacity="0.2"/>
<rect x="139.195" y="320.969" width="22.0101" height="5.39602" rx="2.69801" transform="rotate(152.639 139.195 320.969)" fill="#FC909F" fill-opacity="0.2"/>
<rect x="83.1191" y="64.4414" width="22.0101" height="5.39602" rx="2.69801" transform="rotate(59.8384 83.1191 64.4414)" fill="#FC909F" fill-opacity="0.2"/>
<rect x="342.03" y="82.8918" width="22.0101" height="5.39602" rx="2.69801" transform="rotate(119.838 342.03 82.8918)" fill="#FC909F" fill-opacity="0.2"/>
<rect x="92.6582" y="229.281" width="22.0101" height="5.39602" rx="2.69801" transform="rotate(104.838 92.6582 229.281)" fill="#FC909F" fill-opacity="0.2"/>
<rect x="32.5332" y="159.286" width="22.0101" height="5.39602" rx="2.69801" transform="rotate(104.838 32.5332 159.286)" fill="#FC909F" fill-opacity="0.2"/>
<rect x="337.632" y="187.959" width="22.0101" height="5.39602" rx="2.69801" transform="rotate(51.5851 337.632 187.959)" fill="#FC909F" fill-opacity="0.2"/>
<rect x="340.124" y="201.775" width="22.0101" height="5.39602" rx="2.69801" transform="rotate(93.3156 340.124 201.775)" fill="#FC909F" fill-opacity="0.2"/>
<rect x="187.234" y="364.492" width="22.0101" height="5.39602" rx="2.69801" transform="rotate(-178.522 187.234 364.492)" fill="#FC909F" fill-opacity="0.2"/>
<rect x="141.473" y="284.643" width="22.0101" height="5.39602" rx="2.69801" transform="rotate(-178.522 141.473 284.643)" fill="#FC909F" fill-opacity="0.2"/>
<rect x="106.943" y="175.91" width="22.0101" height="5.39602" rx="2.69801" transform="rotate(-29.2674 106.943 175.91)" fill="#FC909F" fill-opacity="0.2"/>
<rect x="114.243" y="34.7922" width="22.0101" height="5.39602" rx="2.69801" transform="rotate(-29.2674 114.243 34.7922)" fill="#FC909F" fill-opacity="0.2"/>
<rect x="252.861" y="217.002" width="22.0101" height="5.39602" rx="2.69801" transform="rotate(149.593 252.861 217.002)" fill="#FC909F" fill-opacity="0.2"/>
<rect x="257.527" y="167.023" width="22.0101" height="5.39602" rx="2.69801" transform="rotate(-168.677 257.527 167.023)" fill="#FC909F" fill-opacity="0.2"/>
<rect x="196.707" y="216.17" width="22.0101" height="5.39602" rx="2.69801" transform="rotate(149.593 196.707 216.17)" fill="#FC909F" fill-opacity="0.2"/>
<rect x="197.504" y="8.39062" width="22.0101" height="5.39602" rx="2.69801" transform="rotate(12.1312 197.504 8.39062)" fill="#FC909F" fill-opacity="0.2"/>
<rect x="191.373" y="137.076" width="22.0101" height="5.39602" rx="2.69801" transform="rotate(-29.2674 191.373 137.076)" fill="#FC909F" fill-opacity="0.2"/>
<rect x="269.105" y="219.943" width="22.0101" height="5.39602" rx="2.69801" transform="rotate(-29.2674 269.105 219.943)" fill="#FC909F" fill-opacity="0.2"/>
<rect x="328.726" y="260.704" width="22.0101" height="5.39602" rx="2.69801" transform="rotate(-29.2674 328.726 260.704)" fill="#FC909F" fill-opacity="0.2"/>
<rect x="267.693" y="180.031" width="22.0101" height="5.39602" rx="2.69801" transform="rotate(12.4631 267.693 180.031)" fill="#FC909F" fill-opacity="0.2"/>
<rect x="327.313" y="220.792" width="22.0101" height="5.39602" rx="2.69801" transform="rotate(12.4631 327.313 220.792)" fill="#FC909F" fill-opacity="0.2"/>
<rect x="55.5352" y="267.475" width="22.0101" height="5.39602" rx="2.69801" transform="rotate(-29.2674 55.5352 267.475)" fill="#FC909F" fill-opacity="0.2"/>
<rect x="286.517" y="35.0938" width="22.0101" height="5.39602" rx="2.69801" transform="rotate(12.1312 286.517 35.0938)" fill="#FC909F" fill-opacity="0.2"/>
<rect x="279.228" y="95.2168" width="22.0101" height="5.39602" rx="2.69801" transform="rotate(-23.7731 279.228 95.2168)" fill="#FC909F" fill-opacity="0.2"/>
<rect x="358.269" y="93.6875" width="22.0101" height="5.39602" rx="2.69801" transform="rotate(17.9574 358.269 93.6875)" fill="#FC909F" fill-opacity="0.2"/>
<rect x="58.5078" y="287.129" width="22.0101" height="5.39602" rx="2.69801" transform="rotate(57.1312 58.5078 287.129)" fill="#FC909F" fill-opacity="0.2"/>
<rect x="53.957" y="117.23" width="14.2156" height="5.39602" rx="2.69801" transform="rotate(-52.1235 53.957 117.23)" fill="#B4B0CD" fill-opacity="0.52"/>
<rect x="281.733" y="84.0324" width="14.2156" height="5.39602" rx="2.69801" transform="rotate(7.87655 281.733 84.0324)" fill="#B4B0CD" fill-opacity="0.52"/>
<rect x="213.212" y="243.729" width="14.2156" height="5.39602" rx="2.69801" transform="rotate(-7.12345 213.212 243.729)" fill="#B4B0CD" fill-opacity="0.52"/>
<rect x="108.68" y="171.184" width="14.2156" height="5.39602" rx="2.69801" transform="rotate(-93.5221 108.68 171.184)" fill="#B4B0CD" fill-opacity="0.52"/>
<rect x="39.0244" y="170.774" width="14.2156" height="5.39602" rx="2.69801" transform="rotate(-93.5221 39.0244 170.774)" fill="#B4B0CD" fill-opacity="0.52"/>
<rect x="251.219" y="221.764" width="14.2156" height="5.39602" rx="2.69801" transform="rotate(85.3381 251.219 221.764)" fill="#B4B0CD" fill-opacity="0.52"/>
<rect x="253.133" y="169.484" width="14.2156" height="5.39602" rx="2.69801" transform="rotate(127.069 253.133 169.484)" fill="#B4B0CD" fill-opacity="0.52"/>
<rect x="195.064" y="220.932" width="14.2156" height="5.39602" rx="2.69801" transform="rotate(85.3381 195.064 220.932)" fill="#B4B0CD" fill-opacity="0.52"/>
<rect x="193.109" y="132.35" width="14.2156" height="5.39602" rx="2.69801" transform="rotate(-93.5221 193.109 132.35)" fill="#B4B0CD" fill-opacity="0.52"/>
<rect x="136.955" y="131.518" width="14.2156" height="5.39602" rx="2.69801" transform="rotate(-93.5221 136.955 131.518)" fill="#B4B0CD" fill-opacity="0.52"/>
<rect x="25.1738" y="224.709" width="14.2156" height="5.39602" rx="2.69801" transform="rotate(-93.5221 25.1738 224.709)" fill="#B4B0CD" fill-opacity="0.52"/>
<rect x="290.944" y="32.6973" width="14.2156" height="5.39602" rx="2.69801" transform="rotate(-52.1235 290.944 32.6973)" fill="#B4B0CD" fill-opacity="0.52"/>
<rect x="281.408" y="90.6797" width="14.2156" height="5.39602" rx="2.69801" transform="rotate(-88.0277 281.408 90.6797)" fill="#B4B0CD" fill-opacity="0.52"/>
<rect x="362.917" y="91.7539" width="14.2156" height="5.39602" rx="2.69801" transform="rotate(-46.2972 362.917 91.7539)" fill="#B4B0CD" fill-opacity="0.52"/>
<rect x="63.332" y="288.564" width="14.2156" height="5.39602" rx="2.69801" transform="rotate(-7.12345 63.332 288.564)" fill="#B4B0CD" fill-opacity="0.52"/>
<rect x="50.3711" y="183.307" width="14.2156" height="5.39602" rx="2.69801" transform="rotate(-52.1235 50.3711 183.307)" fill="#B4B0CD" fill-opacity="0.52"/>
<rect x="128.916" y="100.914" width="14.2156" height="5.39602" rx="2.69801" transform="rotate(-52.1235 128.916 100.914)" fill="#B4B0CD" fill-opacity="0.52"/>
<rect x="238.604" y="261.361" width="14.2156" height="5.39602" rx="2.69801" transform="rotate(164.584 238.604 261.361)" fill="#B4B0CD" fill-opacity="0.52"/>
<rect x="194.258" y="96.4336" width="14.2156" height="5.39602" rx="2.69801" transform="rotate(-93.5221 194.258 96.4336)" fill="#B4B0CD" fill-opacity="0.52"/>
<rect x="327.931" y="299.715" width="14.2156" height="5.39602" rx="2.69801" transform="rotate(-106.935 327.931 299.715)" fill="#B4B0CD" fill-opacity="0.52"/>
<rect x="378.749" y="320.502" width="14.2156" height="5.39602" rx="2.69801" transform="rotate(-106.935 378.749 320.502)" fill="#B4B0CD" fill-opacity="0.52"/>
<rect x="246.561" y="339.867" width="14.2156" height="5.39602" rx="2.69801" transform="rotate(-106.935 246.561 339.867)" fill="#B4B0CD" fill-opacity="0.52"/>
<rect x="107.229" y="271.098" width="14.2156" height="5.39602" rx="2.69801" transform="rotate(11.7442 107.229 271.098)" fill="#B4B0CD" fill-opacity="0.52"/>
<rect x="88.624" y="37.105" width="14.2156" height="5.39602" rx="2.69801" transform="rotate(-4.41629 88.624 37.105)" fill="#B4B0CD" fill-opacity="0.52"/>
<rect x="323.282" y="50.7766" width="14.2156" height="5.39602" rx="2.69801" transform="rotate(55.5837 323.282 50.7766)" fill="#B4B0CD" fill-opacity="0.52"/>
<rect x="66.2363" y="203.111" width="14.2156" height="5.39602" rx="2.69801" transform="rotate(40.5837 66.2363 203.111)" fill="#B4B0CD" fill-opacity="0.52"/>
<rect x="74.9844" y="157.123" width="14.2156" height="5.39602" rx="2.69801" transform="rotate(-52.1235 74.9844 157.123)" fill="#B4B0CD" fill-opacity="0.52"/>
<rect x="285.188" y="235.15" width="14.2156" height="5.39602" rx="2.69801" transform="rotate(126.737 285.188 235.15)" fill="#B4B0CD" fill-opacity="0.52"/>
<rect x="269.572" y="202.086" width="14.2156" height="5.39602" rx="2.69801" transform="rotate(168.467 269.572 202.086)" fill="#B4B0CD" fill-opacity="0.52"/>
<rect x="172.613" y="36.0195" width="14.2156" height="5.39602" rx="2.69801" transform="rotate(-52.1235 172.613 36.0195)" fill="#B4B0CD" fill-opacity="0.52"/>
<rect x="190.973" y="174.262" width="14.2156" height="5.39602" rx="2.69801" transform="rotate(-93.5221 190.973 174.262)" fill="#B4B0CD" fill-opacity="0.52"/>
<rect x="134.818" y="173.43" width="14.2156" height="5.39602" rx="2.69801" transform="rotate(-93.5221 134.818 173.43)" fill="#B4B0CD" fill-opacity="0.52"/>
<rect x="25.8164" y="312.311" width="14.2156" height="5.39602" rx="2.69801" transform="rotate(-93.5221 25.8164 312.311)" fill="#B4B0CD" fill-opacity="0.52"/>
<rect x="261.625" y="62.7227" width="14.2156" height="5.39602" rx="2.69801" transform="rotate(-52.1235 261.625 62.7227)" fill="#B4B0CD" fill-opacity="0.52"/>
<rect x="317.315" y="144.932" width="14.2156" height="5.39602" rx="2.69801" transform="rotate(-88.0277 317.315 144.932)" fill="#B4B0CD" fill-opacity="0.52"/>
<rect x="376.936" y="185.692" width="14.2156" height="5.39602" rx="2.69801" transform="rotate(-88.0277 376.936 185.692)" fill="#B4B0CD" fill-opacity="0.52"/>
<rect x="353.603" y="156.143" width="14.2156" height="5.39602" rx="2.69801" transform="rotate(-46.2972 353.603 156.143)" fill="#B4B0CD" fill-opacity="0.52"/>
<rect x="154.117" y="109.375" width="14.2156" height="5.39602" rx="2.69801" transform="rotate(-93.5221 154.117 109.375)" fill="#B4B0CD" fill-opacity="0.52"/>
<rect x="207.021" y="284.463" width="14.2156" height="5.39602" rx="2.69801" transform="rotate(85.3381 207.021 284.463)" fill="#B4B0CD" fill-opacity="0.52"/>
<rect x="278.588" y="146.322" width="14.2156" height="5.39602" rx="2.69801" transform="rotate(-52.1235 278.588 146.322)" fill="#B4B0CD" fill-opacity="0.52"/>
<rect x="338.208" y="187.083" width="14.2156" height="5.39602" rx="2.69801" transform="rotate(-52.1235 338.208 187.083)" fill="#B4B0CD" fill-opacity="0.52"/>
<rect x="323.774" y="131.4" width="14.2156" height="5.39602" rx="2.69801" transform="rotate(-10.3929 323.774 131.4)" fill="#B4B0CD" fill-opacity="0.52"/>
<rect x="324.497" y="188.85" width="14.2156" height="5.39602" rx="2.69801" transform="rotate(-88.0277 324.497 188.85)" fill="#B4B0CD" fill-opacity="0.52"/>
<rect x="329.729" y="193.697" width="14.2156" height="5.39602" rx="2.69801" transform="rotate(-46.2972 329.729 193.697)" fill="#B4B0CD" fill-opacity="0.52"/>
<rect x="365.903" y="16.3809" width="14.2156" height="5.39602" rx="2.69801" transform="rotate(-52.1235 365.903 16.3809)" fill="#B4B0CD" fill-opacity="0.52"/>
<rect x="174.102" y="273.953" width="14.2156" height="5.39602" rx="2.69801" transform="rotate(120.763 174.102 273.953)" fill="#B4B0CD" fill-opacity="0.52"/>
<rect x="150.832" y="187.203" width="14.2156" height="5.39602" rx="2.69801" transform="rotate(-93.5221 150.832 187.203)" fill="#B4B0CD" fill-opacity="0.52"/>
<rect x="94.6777" y="186.371" width="14.2156" height="5.39602" rx="2.69801" transform="rotate(-93.5221 94.6777 186.371)" fill="#B4B0CD" fill-opacity="0.52"/>
<rect x="208.758" y="206.586" width="14.2156" height="5.39602" rx="2.69801" transform="rotate(85.3381 208.758 206.586)" fill="#B4B0CD" fill-opacity="0.52"/>
<rect x="152.604" y="205.754" width="14.2156" height="5.39602" rx="2.69801" transform="rotate(85.3381 152.604 205.754)" fill="#B4B0CD" fill-opacity="0.52"/>
<rect x="222.959" y="45.8867" width="14.2156" height="5.39602" rx="2.69801" transform="rotate(-52.1235 222.959 45.8867)" fill="#B4B0CD" fill-opacity="0.52"/>
<rect x="244.389" y="150.068" width="14.2156" height="5.39602" rx="2.69801" transform="rotate(-88.0277 244.389 150.068)" fill="#B4B0CD" fill-opacity="0.52"/>
<rect x="177.922" y="140.398" width="14.2156" height="5.39602" rx="2.69801" transform="rotate(-88.0277 177.922 140.398)" fill="#B4B0CD" fill-opacity="0.52"/>
<rect x="68.9199" y="279.279" width="14.2156" height="5.39602" rx="2.69801" transform="rotate(-88.0277 68.9199 279.279)" fill="#B4B0CD" fill-opacity="0.52"/>
<rect x="262.367" y="304.531" width="14.2156" height="5.39602" rx="2.69801" transform="rotate(-71.0312 262.367 304.531)" fill="#B4B0CD" fill-opacity="0.52"/>
<rect x="49.1875" y="331.742" width="14.2156" height="5.39602" rx="2.69801" transform="rotate(-52.1235 49.1875 331.742)" fill="#B4B0CD" fill-opacity="0.52"/>
<rect x="311.972" y="72.5898" width="14.2156" height="5.39602" rx="2.69801" transform="rotate(-52.1235 311.972 72.5898)" fill="#B4B0CD" fill-opacity="0.52"/>
<rect x="321.835" y="110.66" width="14.2156" height="5.39602" rx="2.69801" transform="rotate(-88.0277 321.835 110.66)" fill="#B4B0CD" fill-opacity="0.52"/>
<rect x="379.787" y="133.574" width="14.2156" height="5.39602" rx="2.69801" transform="rotate(-46.2972 379.787 133.574)" fill="#B4B0CD" fill-opacity="0.52"/>
<rect x="43.8701" y="102.46" width="14.2156" height="5.39602" rx="2.69801" transform="rotate(-52.1235 43.8701 102.46)" fill="#B4B0CD" fill-opacity="0.52"/>
<rect x="281.733" y="84.0324" width="14.2156" height="5.39602" rx="2.69801" transform="rotate(7.87655 281.733 84.0324)" fill="#B4B0CD" fill-opacity="0.52"/>
<rect x="120.936" y="218.854" width="14.2156" height="5.39602" rx="2.69801" transform="rotate(-7.12345 120.936 218.854)" fill="#B4B0CD" fill-opacity="0.52"/>
<rect x="108.68" y="171.184" width="14.2156" height="5.39602" rx="2.69801" transform="rotate(-93.5221 108.68 171.184)" fill="#B4B0CD" fill-opacity="0.52"/>
<rect x="173.409" y="24.5618" width="14.2156" height="5.39602" rx="2.69801" transform="rotate(-93.5221 173.409 24.5618)" fill="#B4B0CD" fill-opacity="0.52"/>
<rect x="251.219" y="221.764" width="14.2156" height="5.39602" rx="2.69801" transform="rotate(85.3381 251.219 221.764)" fill="#B4B0CD" fill-opacity="0.52"/>
<rect x="253.133" y="169.484" width="14.2156" height="5.39602" rx="2.69801" transform="rotate(127.069 253.133 169.484)" fill="#B4B0CD" fill-opacity="0.52"/>
<rect x="195.064" y="220.932" width="14.2156" height="5.39602" rx="2.69801" transform="rotate(85.3381 195.064 220.932)" fill="#B4B0CD" fill-opacity="0.52"/>
<rect x="193.109" y="132.35" width="14.2156" height="5.39602" rx="2.69801" transform="rotate(-93.5221 193.109 132.35)" fill="#B4B0CD" fill-opacity="0.52"/>
<rect x="136.955" y="131.518" width="14.2156" height="5.39602" rx="2.69801" transform="rotate(-93.5221 136.955 131.518)" fill="#B4B0CD" fill-opacity="0.52"/>
<rect x="174.102" y="213.269" width="14.2156" height="5.39602" rx="2.69801" transform="rotate(-93.5221 174.102 213.269)" fill="#B4B0CD" fill-opacity="0.52"/>
<rect x="290.944" y="32.6973" width="14.2156" height="5.39602" rx="2.69801" transform="rotate(-52.1235 290.944 32.6973)" fill="#B4B0CD" fill-opacity="0.52"/>
<rect x="281.408" y="90.6797" width="14.2156" height="5.39602" rx="2.69801" transform="rotate(-88.0277 281.408 90.6797)" fill="#B4B0CD" fill-opacity="0.52"/>
<rect x="362.917" y="91.7539" width="14.2156" height="5.39602" rx="2.69801" transform="rotate(-46.2972 362.917 91.7539)" fill="#B4B0CD" fill-opacity="0.52"/>
<rect x="63.332" y="288.564" width="14.2156" height="5.39602" rx="2.69801" transform="rotate(-7.12345 63.332 288.564)" fill="#B4B0CD" fill-opacity="0.52"/>
<rect x="11.0693" y="92.8474" width="14.2156" height="5.39602" rx="2.69801" transform="rotate(-52.1235 11.0693 92.8474)" fill="#B4B0CD" fill-opacity="0.52"/>
<rect x="128.916" y="100.914" width="14.2156" height="5.39602" rx="2.69801" transform="rotate(-52.1235 128.916 100.914)" fill="#B4B0CD" fill-opacity="0.52"/>
<rect x="238.604" y="261.361" width="14.2156" height="5.39602" rx="2.69801" transform="rotate(164.584 238.604 261.361)" fill="#B4B0CD" fill-opacity="0.52"/>
<rect x="194.258" y="96.4336" width="14.2156" height="5.39602" rx="2.69801" transform="rotate(-93.5221 194.258 96.4336)" fill="#B4B0CD" fill-opacity="0.52"/>
<rect x="327.931" y="299.715" width="14.2156" height="5.39602" rx="2.69801" transform="rotate(-106.935 327.931 299.715)" fill="#B4B0CD" fill-opacity="0.52"/>
<rect x="378.749" y="320.502" width="14.2156" height="5.39602" rx="2.69801" transform="rotate(-106.935 378.749 320.502)" fill="#B4B0CD" fill-opacity="0.52"/>
<rect x="246.561" y="339.867" width="14.2156" height="5.39602" rx="2.69801" transform="rotate(-106.935 246.561 339.867)" fill="#B4B0CD" fill-opacity="0.52"/>
<rect x="107.229" y="271.098" width="14.2156" height="5.39602" rx="2.69801" transform="rotate(11.7442 107.229 271.098)" fill="#B4B0CD" fill-opacity="0.52"/>
<rect x="154.61" y="33.8677" width="14.2156" height="5.39602" rx="2.69801" transform="rotate(-4.41629 154.61 33.8677)" fill="#B4B0CD" fill-opacity="0.52"/>
<rect x="323.282" y="50.7766" width="14.2156" height="5.39602" rx="2.69801" transform="rotate(55.5837 323.282 50.7766)" fill="#B4B0CD" fill-opacity="0.52"/>
<rect x="66.2363" y="203.111" width="14.2156" height="5.39602" rx="2.69801" transform="rotate(40.5837 66.2363 203.111)" fill="#B4B0CD" fill-opacity="0.52"/>
<rect x="74.9844" y="157.123" width="14.2156" height="5.39602" rx="2.69801" transform="rotate(-52.1235 74.9844 157.123)" fill="#B4B0CD" fill-opacity="0.52"/>
<rect x="285.188" y="235.15" width="14.2156" height="5.39602" rx="2.69801" transform="rotate(126.737 285.188 235.15)" fill="#B4B0CD" fill-opacity="0.52"/>
<rect x="269.572" y="202.086" width="14.2156" height="5.39602" rx="2.69801" transform="rotate(168.467 269.572 202.086)" fill="#B4B0CD" fill-opacity="0.52"/>
<rect x="172.613" y="36.0195" width="14.2156" height="5.39602" rx="2.69801" transform="rotate(-52.1235 172.613 36.0195)" fill="#B4B0CD" fill-opacity="0.52"/>
<rect x="190.973" y="174.262" width="14.2156" height="5.39602" rx="2.69801" transform="rotate(-93.5221 190.973 174.262)" fill="#B4B0CD" fill-opacity="0.52"/>
<rect x="134.818" y="173.43" width="14.2156" height="5.39602" rx="2.69801" transform="rotate(-93.5221 134.818 173.43)" fill="#B4B0CD" fill-opacity="0.52"/>
<rect x="25.8164" y="312.311" width="14.2156" height="5.39602" rx="2.69801" transform="rotate(-93.5221 25.8164 312.311)" fill="#B4B0CD" fill-opacity="0.52"/>
<rect x="261.625" y="62.7227" width="14.2156" height="5.39602" rx="2.69801" transform="rotate(-52.1235 261.625 62.7227)" fill="#B4B0CD" fill-opacity="0.52"/>
<rect x="280.85" y="129.195" width="14.2156" height="5.39602" rx="2.69801" transform="rotate(-88.0277 280.85 129.195)" fill="#B4B0CD" fill-opacity="0.52"/>
<rect x="336.862" y="120.125" width="14.2156" height="5.39602" rx="2.69801" transform="rotate(-46.2972 336.862 120.125)" fill="#B4B0CD" fill-opacity="0.52"/>
<rect x="154.117" y="109.375" width="14.2156" height="5.39602" rx="2.69801" transform="rotate(-93.5221 154.117 109.375)" fill="#B4B0CD" fill-opacity="0.52"/>
<rect x="207.021" y="284.463" width="14.2156" height="5.39602" rx="2.69801" transform="rotate(85.3381 207.021 284.463)" fill="#B4B0CD" fill-opacity="0.52"/>
<rect x="266.773" y="171.59" width="14.2156" height="5.39602" rx="2.69801" transform="rotate(-52.1235 266.773 171.59)" fill="#B4B0CD" fill-opacity="0.52"/>
<rect x="298.14" y="142.395" width="14.2156" height="5.39602" rx="2.69801" transform="rotate(-10.3929 298.14 142.395)" fill="#B4B0CD" fill-opacity="0.52"/>
<rect x="357.76" y="183.155" width="14.2156" height="5.39602" rx="2.69801" transform="rotate(-10.3929 357.76 183.155)" fill="#B4B0CD" fill-opacity="0.52"/>
<rect x="324.497" y="188.85" width="14.2156" height="5.39602" rx="2.69801" transform="rotate(-88.0277 324.497 188.85)" fill="#B4B0CD" fill-opacity="0.52"/>
<rect x="329.729" y="193.697" width="14.2156" height="5.39602" rx="2.69801" transform="rotate(-46.2972 329.729 193.697)" fill="#B4B0CD" fill-opacity="0.52"/>
<rect x="365.903" y="16.3809" width="14.2156" height="5.39602" rx="2.69801" transform="rotate(-52.1235 365.903 16.3809)" fill="#B4B0CD" fill-opacity="0.52"/>
<rect x="174.102" y="273.953" width="14.2156" height="5.39602" rx="2.69801" transform="rotate(120.763 174.102 273.953)" fill="#B4B0CD" fill-opacity="0.52"/>
<rect x="150.832" y="187.203" width="14.2156" height="5.39602" rx="2.69801" transform="rotate(-93.5221 150.832 187.203)" fill="#B4B0CD" fill-opacity="0.52"/>
<rect x="29.6855" y="56.2206" width="14.2156" height="5.39602" rx="2.69801" transform="rotate(-93.5221 29.6855 56.2206)" fill="#B4B0CD" fill-opacity="0.52"/>
<rect x="208.758" y="206.586" width="14.2156" height="5.39602" rx="2.69801" transform="rotate(85.3381 208.758 206.586)" fill="#B4B0CD" fill-opacity="0.52"/>
<rect x="152.604" y="205.754" width="14.2156" height="5.39602" rx="2.69801" transform="rotate(85.3381 152.604 205.754)" fill="#B4B0CD" fill-opacity="0.52"/>
<rect x="222.959" y="45.8867" width="14.2156" height="5.39602" rx="2.69801" transform="rotate(-52.1235 222.959 45.8867)" fill="#B4B0CD" fill-opacity="0.52"/>
<rect x="244.389" y="150.068" width="14.2156" height="5.39602" rx="2.69801" transform="rotate(-88.0277 244.389 150.068)" fill="#B4B0CD" fill-opacity="0.52"/>
<rect x="177.922" y="140.398" width="14.2156" height="5.39602" rx="2.69801" transform="rotate(-88.0277 177.922 140.398)" fill="#B4B0CD" fill-opacity="0.52"/>
<rect x="68.9199" y="279.279" width="14.2156" height="5.39602" rx="2.69801" transform="rotate(-88.0277 68.9199 279.279)" fill="#B4B0CD" fill-opacity="0.52"/>
<rect x="262.367" y="304.531" width="14.2156" height="5.39602" rx="2.69801" transform="rotate(-71.0312 262.367 304.531)" fill="#B4B0CD" fill-opacity="0.52"/>
<rect x="49.1875" y="331.742" width="14.2156" height="5.39602" rx="2.69801" transform="rotate(-52.1235 49.1875 331.742)" fill="#B4B0CD" fill-opacity="0.52"/>
<rect x="311.972" y="72.5898" width="14.2156" height="5.39602" rx="2.69801" transform="rotate(-52.1235 311.972 72.5898)" fill="#B4B0CD" fill-opacity="0.52"/>
<rect x="321.835" y="110.66" width="14.2156" height="5.39602" rx="2.69801" transform="rotate(-88.0277 321.835 110.66)" fill="#B4B0CD" fill-opacity="0.52"/>
<rect x="379.787" y="133.574" width="14.2156" height="5.39602" rx="2.69801" transform="rotate(-46.2972 379.787 133.574)" fill="#B4B0CD" fill-opacity="0.52"/>
<rect x="42.3301" y="62.6412" width="14.2156" height="5.39602" rx="2.69801" transform="rotate(-52.1235 42.3301 62.6412)" fill="#403838" fill-opacity="0.3"/>
<rect x="301.911" y="25.1028" width="14.2156" height="5.39602" rx="2.69801" transform="rotate(7.87655 301.911 25.1028)" fill="#403838" fill-opacity="0.3"/>
<rect x="107.807" y="32.408" width="14.2156" height="5.39602" rx="2.69801" transform="rotate(-52.1235 107.807 32.408)" fill="#403838" fill-opacity="0.3"/>
<rect x="353.521" y="81.8605" width="14.2156" height="5.39602" rx="2.69801" transform="rotate(7.87655 353.521 81.8605)" fill="#403838" fill-opacity="0.3"/>
<rect x="103.49" y="225.311" width="14.2156" height="5.39602" rx="2.69801" transform="rotate(-7.12345 103.49 225.311)" fill="#403838" fill-opacity="0.3"/>
<rect x="76.6543" y="216.829" width="14.2156" height="5.39602" rx="2.69801" transform="rotate(-7.12345 76.6543 216.829)" fill="#403838" fill-opacity="0.3"/>
<rect x="42.9834" y="144.298" width="14.2156" height="5.39602" rx="2.69801" transform="rotate(-7.12345 42.9834 144.298)" fill="#403838" fill-opacity="0.3"/>
<rect x="226.158" y="188.174" width="14.2156" height="5.39602" rx="2.69801" transform="rotate(117.262 226.158 188.174)" fill="#403838" fill-opacity="0.3"/>
<rect x="170.004" y="187.342" width="14.2156" height="5.39602" rx="2.69801" transform="rotate(117.262 170.004 187.342)" fill="#403838" fill-opacity="0.3"/>
<rect x="315.504" y="279.75" width="14.2156" height="5.39602" rx="2.69801" transform="rotate(-150.416 315.504 279.75)" fill="#403838" fill-opacity="0.3"/>
<rect x="366.322" y="300.537" width="14.2156" height="5.39602" rx="2.69801" transform="rotate(-150.416 366.322 300.537)" fill="#403838" fill-opacity="0.3"/>
<rect x="234.135" y="319.902" width="14.2156" height="5.39602" rx="2.69801" transform="rotate(-150.416 234.135 319.902)" fill="#403838" fill-opacity="0.3"/>
<rect x="138.316" y="63.8418" width="14.2156" height="5.39602" rx="2.69801" transform="rotate(-52.1235 138.316 63.8418)" fill="#403838" fill-opacity="0.3"/>
<rect x="144.65" y="263.209" width="14.2156" height="5.39602" rx="2.69801" transform="rotate(11.7442 144.65 263.209)" fill="#403838" fill-opacity="0.3"/>
<rect x="157.154" y="318.404" width="14.2156" height="5.39602" rx="2.69801" transform="rotate(88.3841 157.154 318.404)" fill="#403838" fill-opacity="0.3"/>
<rect x="191.628" y="60.0818" width="14.2156" height="5.39602" rx="2.69801" transform="rotate(-52.1235 191.628 60.0818)" fill="#403838" fill-opacity="0.3"/>
<rect x="294.505" y="111.792" width="14.2156" height="5.39602" rx="2.69801" transform="rotate(7.87655 294.505 111.792)" fill="#403838" fill-opacity="0.3"/>
<rect x="164.75" y="230.695" width="14.2156" height="5.39602" rx="2.69801" transform="rotate(72.2618 164.75 230.695)" fill="#403838" fill-opacity="0.3"/>
<rect x="293.439" y="164.156" width="14.2156" height="5.39602" rx="2.69801" transform="rotate(-93.5221 293.439 164.156)" fill="#403838" fill-opacity="0.3"/>
<rect x="353.06" y="204.917" width="14.2156" height="5.39602" rx="2.69801" transform="rotate(-93.5221 353.06 204.917)" fill="#403838" fill-opacity="0.3"/>
<rect x="322.987" y="154.596" width="14.2156" height="5.39602" rx="2.69801" transform="rotate(-51.7916 322.987 154.596)" fill="#403838" fill-opacity="0.3"/>
<rect x="117.354" y="139.404" width="14.2156" height="5.39602" rx="2.69801" transform="rotate(-93.5221 117.354 139.404)" fill="#403838" fill-opacity="0.3"/>
<rect x="294.228" y="150.021" width="14.2156" height="5.39602" rx="2.69801" transform="rotate(-33.5221 294.228 150.021)" fill="#403838" fill-opacity="0.3"/>
<rect x="353.848" y="190.782" width="14.2156" height="5.39602" rx="2.69801" transform="rotate(-33.5221 353.848 190.782)" fill="#403838" fill-opacity="0.3"/>
<rect x="37.6699" y="270.635" width="14.2156" height="5.39602" rx="2.69801" transform="rotate(-93.5221 37.6699 270.635)" fill="#403838" fill-opacity="0.3"/>
<rect x="187.02" y="253.994" width="14.2156" height="5.39602" rx="2.69801" transform="rotate(85.3381 187.02 253.994)" fill="#403838" fill-opacity="0.3"/>
<rect x="271.026" y="25.6504" width="14.2156" height="5.39602" rx="2.69801" transform="rotate(-52.1235 271.026 25.6504)" fill="#403838" fill-opacity="0.3"/>
<rect x="261.143" y="96.6523" width="14.2156" height="5.39602" rx="2.69801" transform="rotate(-88.0277 261.143 96.6523)" fill="#403838" fill-opacity="0.3"/>
<rect x="343.817" y="82.7207" width="14.2156" height="5.39602" rx="2.69801" transform="rotate(-46.2972 343.817 82.7207)" fill="#403838" fill-opacity="0.3"/>
<rect x="54.2305" y="269.498" width="14.2156" height="5.39602" rx="2.69801" transform="rotate(-7.12345 54.2305 269.498)" fill="#403838" fill-opacity="0.3"/>
<rect x="65.7754" y="88.194" width="11.8767" height="5.39602" rx="2.69801" transform="rotate(71.0443 65.7754 88.194)" fill="#D8AE5D" fill-opacity="0.3"/>
<rect x="291.505" y="58.1829" width="11.8767" height="5.39602" rx="2.69801" transform="rotate(131.044 291.505 58.1829)" fill="#D8AE5D" fill-opacity="0.3"/>
<rect x="111.416" y="79.5273" width="11.8767" height="5.39602" rx="2.69801" transform="rotate(71.0443 111.416 79.5273)" fill="#D8AE5D" fill-opacity="0.3"/>
<rect x="343.114" y="114.941" width="11.8767" height="5.39602" rx="2.69801" transform="rotate(131.044 343.114 114.941)" fill="#D8AE5D" fill-opacity="0.3"/>
<rect x="102" y="259.957" width="11.8767" height="5.39602" rx="2.69801" transform="rotate(116.044 102 259.957)" fill="#D8AE5D" fill-opacity="0.3"/>
<rect x="120.006" y="92.6985" width="11.8767" height="5.39602" rx="2.69801" transform="rotate(71.0443 120.006 92.6985)" fill="#D8AE5D" fill-opacity="0.3"/>
<rect x="267.47" y="96.3391" width="11.8767" height="5.39602" rx="2.69801" transform="rotate(131.044 267.47 96.3391)" fill="#D8AE5D" fill-opacity="0.3"/>
<rect x="161.762" y="89.3945" width="11.8767" height="5.39602" rx="2.69801" transform="rotate(71.0443 161.762 89.3945)" fill="#D8AE5D" fill-opacity="0.3"/>
<rect x="199.775" y="304.592" width="11.8767" height="5.39602" rx="2.69801" transform="rotate(-110.096 199.775 304.592)" fill="#D8AE5D" fill-opacity="0.3"/>
<rect x="261.088" y="124.936" width="11.8767" height="5.39602" rx="2.69801" transform="rotate(71.0443 261.088 124.936)" fill="#D8AE5D" fill-opacity="0.3"/>
<rect x="324.95" y="103.793" width="11.8767" height="5.39602" rx="2.69801" transform="rotate(112.775 324.95 103.793)" fill="#D8AE5D" fill-opacity="0.3"/>
<rect x="224.086" y="98.4023" width="11.8767" height="5.39602" rx="2.69801" transform="rotate(71.0443 224.086 98.4023)" fill="#D8AE5D" fill-opacity="0.3"/>
<rect x="161.762" y="117.199" width="11.8767" height="5.39602" rx="2.69801" transform="rotate(71.0443 161.762 117.199)" fill="#D8AE5D" fill-opacity="0.3"/>
<rect x="51.8018" y="194.177" width="11.8767" height="5.39602" rx="2.69801" transform="rotate(71.0443 51.8018 194.177)" fill="#D8AE5D" fill-opacity="0.3"/>
<rect x="308.093" y="190.627" width="11.8767" height="5.39602" rx="2.69801" transform="rotate(35.14 308.093 190.627)" fill="#D8AE5D" fill-opacity="0.3"/>
<rect x="367.713" y="231.387" width="11.8767" height="5.39602" rx="2.69801" transform="rotate(35.14 367.713 231.387)" fill="#D8AE5D" fill-opacity="0.3"/>
<rect x="316.304" y="184.104" width="11.8767" height="5.39602" rx="2.69801" transform="rotate(76.8705 316.304 184.104)" fill="#D8AE5D" fill-opacity="0.3"/>
<rect x="375.924" y="224.864" width="11.8767" height="5.39602" rx="2.69801" transform="rotate(76.8705 375.924 224.864)" fill="#D8AE5D" fill-opacity="0.3"/>
<rect x="194.115" y="293.01" width="11.8767" height="5.39602" rx="2.69801" transform="rotate(-116.069 194.115 293.01)" fill="#D8AE5D" fill-opacity="0.3"/>
<rect x="118.922" y="368.17" width="11.8767" height="5.39602" rx="2.69801" transform="rotate(-148.448 118.922 368.17)" fill="#D8AE5D" fill-opacity="0.3"/>
<rect x="76.5566" y="81.166" width="11.8767" height="5.39602" rx="2.69801" transform="rotate(118.751 76.5566 81.166)" fill="#D8AE5D" fill-opacity="0.3"/>
<rect x="324.267" y="85.5715" width="11.8767" height="5.39602" rx="2.69801" transform="rotate(178.751 324.267 85.5715)" fill="#D8AE5D" fill-opacity="0.3"/>
<rect x="109.183" y="204.813" width="11.8767" height="5.39602" rx="2.69801" transform="rotate(163.751 109.183 204.813)" fill="#D8AE5D" fill-opacity="0.3"/>
<rect x="107.83" y="145.604" width="11.8767" height="5.39602" rx="2.69801" transform="rotate(71.0443 107.83 145.604)" fill="#D8AE5D" fill-opacity="0.3"/>
<rect x="252.578" y="247.32" width="11.8767" height="5.39602" rx="2.69801" transform="rotate(-110.096 252.578 247.32)" fill="#D8AE5D" fill-opacity="0.3"/>
<rect x="237.137" y="189.461" width="11.8767" height="5.39602" rx="2.69801" transform="rotate(-68.365 237.137 189.461)" fill="#D8AE5D" fill-opacity="0.3"/>
<rect x="205.459" y="24.5" width="11.8767" height="5.39602" rx="2.69801" transform="rotate(71.0443 205.459 24.5)" fill="#D8AE5D" fill-opacity="0.3"/>
<rect x="207.992" y="143.9" width="11.8767" height="5.39602" rx="2.69801" transform="rotate(29.6456 207.992 143.9)" fill="#D8AE5D" fill-opacity="0.3"/>
<rect x="151.838" y="143.068" width="11.8767" height="5.39602" rx="2.69801" transform="rotate(29.6456 151.838 143.068)" fill="#D8AE5D" fill-opacity="0.3"/>
<rect x="42.8359" y="281.949" width="11.8767" height="5.39602" rx="2.69801" transform="rotate(29.6456 42.8359 281.949)" fill="#D8AE5D" fill-opacity="0.3"/>
<rect x="294.472" y="51.2031" width="11.8767" height="5.39602" rx="2.69801" transform="rotate(71.0443 294.472 51.2031)" fill="#D8AE5D" fill-opacity="0.3"/>
<rect x="305.431" y="112.438" width="11.8767" height="5.39602" rx="2.69801" transform="rotate(35.14 305.431 112.438)" fill="#D8AE5D" fill-opacity="0.3"/>
<rect x="366.361" y="123.98" width="11.8767" height="5.39602" rx="2.69801" transform="rotate(76.8705 366.361 123.98)" fill="#D8AE5D" fill-opacity="0.3"/>
<rect x="76.6543" y="51.8717" width="11.8767" height="5.39602" rx="2.69801" transform="rotate(119.669 76.6543 51.8717)" fill="#FFEDEF" fill-opacity="0.42"/>
<rect x="328.399" y="49.4426" width="11.8767" height="5.39602" rx="2.69801" transform="rotate(179.669 328.399 49.4426)" fill="#FFEDEF" fill-opacity="0.42"/>
<rect x="70.834" y="200.5" width="11.8767" height="5.39602" rx="2.69801" transform="rotate(164.669 70.834 200.5)" fill="#FFEDEF" fill-opacity="0.42"/>
<rect x="122.295" y="43.2051" width="11.8767" height="5.39602" rx="2.69801" transform="rotate(119.669 122.295 43.2051)" fill="#FFEDEF" fill-opacity="0.42"/>
<rect x="380.011" y="106.2" width="11.8767" height="5.39602" rx="2.69801" transform="rotate(179.669 380.011 106.2)" fill="#FFEDEF" fill-opacity="0.42"/>
<rect x="135.375" y="241.965" width="11.8767" height="5.39602" rx="2.69801" transform="rotate(164.669 135.375 241.965)" fill="#FFEDEF" fill-opacity="0.42"/>
<rect x="197.796" y="20.7401" width="11.8767" height="5.39602" rx="2.69801" transform="rotate(164.669 197.796 20.7401)" fill="#FFEDEF" fill-opacity="0.42"/>
<rect x="194.406" y="205.08" width="11.8767" height="5.39602" rx="2.69801" transform="rotate(-70.946 194.406 205.08)" fill="#FFEDEF" fill-opacity="0.42"/>
<rect x="138.252" y="204.248" width="11.8767" height="5.39602" rx="2.69801" transform="rotate(-70.946 138.252 204.248)" fill="#FFEDEF" fill-opacity="0.42"/>
<rect x="177.668" y="46.3534" width="11.8767" height="5.39602" rx="2.69801" transform="rotate(119.669 177.668 46.3534)" fill="#FFEDEF" fill-opacity="0.42"/>
<rect x="187.82" y="330.398" width="11.8767" height="5.39602" rx="2.69801" transform="rotate(-67.4447 187.82 330.398)" fill="#FFEDEF" fill-opacity="0.42"/>
<rect x="137.514" y="348.545" width="11.8767" height="5.39602" rx="2.69801" transform="rotate(-99.8237 137.514 348.545)" fill="#FFEDEF" fill-opacity="0.42"/>
<rect x="238.256" y="170.709" width="22.0101" height="5.39602" rx="2.69801" fill="#FC909F" fill-opacity="0.2"/>
<rect x="277.442" y="122.754" width="22.0101" height="5.39602" rx="2.69801" transform="rotate(41.7305 277.442 122.754)" fill="#FC909F" fill-opacity="0.2"/>
<rect x="337.062" y="163.514" width="22.0101" height="5.39602" rx="2.69801" transform="rotate(41.7305 337.062 163.514)" fill="#FC909F" fill-opacity="0.2"/>
<rect x="171.789" y="161.039" width="22.0101" height="5.39602" rx="2.69801" fill="#FC909F" fill-opacity="0.2"/>
<rect x="62.7871" y="299.92" width="22.0101" height="5.39602" rx="2.69801" fill="#FC909F" fill-opacity="0.2"/>
<rect x="306.063" y="289.021" width="14.2156" height="5.39602" rx="2.69801" transform="rotate(-83.1624 306.063 289.021)" fill="#B4B0CD" fill-opacity="0.52"/>
<rect x="356.882" y="309.809" width="14.2156" height="5.39602" rx="2.69801" transform="rotate(-83.1624 356.882 309.809)" fill="#B4B0CD" fill-opacity="0.52"/>
<rect x="224.693" y="329.174" width="14.2156" height="5.39602" rx="2.69801" transform="rotate(-83.1624 224.693 329.174)" fill="#B4B0CD" fill-opacity="0.52"/>
<rect x="306.063" y="289.021" width="14.2156" height="5.39602" rx="2.69801" transform="rotate(-83.1624 306.063 289.021)" fill="#B4B0CD" fill-opacity="0.52"/>
<rect x="356.882" y="309.809" width="14.2156" height="5.39602" rx="2.69801" transform="rotate(-83.1624 356.882 309.809)" fill="#B4B0CD" fill-opacity="0.52"/>
<rect x="224.693" y="329.174" width="14.2156" height="5.39602" rx="2.69801" transform="rotate(-83.1624 224.693 329.174)" fill="#B4B0CD" fill-opacity="0.52"/>
<rect x="280.045" y="279.717" width="11.8767" height="5.39602" rx="2.69801" transform="rotate(40.0053 280.045 279.717)" fill="#D8AE5D" fill-opacity="0.3"/>
<rect x="330.863" y="300.504" width="11.8767" height="5.39602" rx="2.69801" transform="rotate(40.0053 330.863 300.504)" fill="#D8AE5D" fill-opacity="0.3"/>
<rect x="198.676" y="319.869" width="11.8767" height="5.39602" rx="2.69801" transform="rotate(40.0053 198.676 319.869)" fill="#D8AE5D" fill-opacity="0.3"/>
<rect x="73.9512" y="313.996" width="11.8767" height="5.39602" rx="2.69801" transform="rotate(58.9131 73.9512 313.996)" fill="#D8AE5D" fill-opacity="0.3"/>
<rect x="320.92" y="310.723" width="11.8767" height="5.39602" rx="2.69801" transform="rotate(40.0053 320.92 310.723)" fill="#D8AE5D" fill-opacity="0.3"/>
<rect x="371.738" y="331.51" width="11.8767" height="5.39602" rx="2.69801" transform="rotate(40.0053 371.738 331.51)" fill="#D8AE5D" fill-opacity="0.3"/>
<rect x="295.188" y="311.783" width="22.0101" height="5.39602" rx="2.69801" transform="rotate(85.9306 295.188 311.783)" fill="#FC909F" fill-opacity="0.2"/>
<rect x="346.007" y="332.57" width="22.0101" height="5.39602" rx="2.69801" transform="rotate(85.9306 346.007 332.57)" fill="#FC909F" fill-opacity="0.2"/>
<rect x="77.8887" y="349.238" width="22.0101" height="5.39602" rx="2.69801" transform="rotate(104.838 77.8887 349.238)" fill="#FC909F" fill-opacity="0.2"/>
<rect x="304.149" y="304.516" width="14.2156" height="5.39602" rx="2.69801" transform="rotate(-26.0312 304.149 304.516)" fill="#403838" fill-opacity="0.3"/>
<rect x="354.968" y="325.303" width="14.2156" height="5.39602" rx="2.69801" transform="rotate(-26.0312 354.968 325.303)" fill="#403838" fill-opacity="0.3"/>
<rect x="339.712" y="309.939" width="11.8767" height="5.39602" rx="2.69801" transform="rotate(145.761 339.712 309.939)" fill="#FFEDEF" fill-opacity="0.42"/>
<rect x="390.53" y="330.727" width="11.8767" height="5.39602" rx="2.69801" transform="rotate(145.761 390.53 330.727)" fill="#FFEDEF" fill-opacity="0.42"/>
<rect x="322.198" y="327.955" width="11.8767" height="5.39602" rx="2.69801" transform="rotate(107.914 322.198 327.955)" fill="#FFEDEF" fill-opacity="0.42"/>
<rect x="373.017" y="348.742" width="11.8767" height="5.39602" rx="2.69801" transform="rotate(107.914 373.017 348.742)" fill="#FFEDEF" fill-opacity="0.42"/>
<rect x="60.2148" y="377.797" width="11.8767" height="5.39602" rx="2.69801" transform="rotate(164.669 60.2148 377.797)" fill="#FFEDEF" fill-opacity="0.42"/>
<rect x="200.035" y="108.688" width="22.0101" height="5.39602" rx="2.69801" transform="rotate(178.86 200.035 108.688)" fill="#FC909F" fill-opacity="0.2"/>
<rect x="41.6875" y="109.801" width="11.8767" height="5.39602" rx="2.69801" transform="rotate(-176.702 41.6875 109.801)" fill="#D8AE5D" fill-opacity="0.3"/>
<rect x="49.4258" y="90.3552" width="11.8767" height="5.39602" rx="2.69801" transform="rotate(-176.702 49.4258 90.3552)" fill="#D8AE5D" fill-opacity="0.3"/>
<rect x="19.1758" y="113.38" width="22.0101" height="5.39602" rx="2.69801" transform="rotate(136.516 19.1758 113.38)" fill="#FC909F" fill-opacity="0.2"/>
<rect x="97.4355" y="53.0995" width="22.0101" height="5.39602" rx="2.69801" transform="rotate(149.593 97.4355 53.0995)" fill="#FC909F" fill-opacity="0.2"/>
<rect x="90.3965" y="133.991" width="22.0101" height="5.39602" rx="2.69801" transform="rotate(149.593 90.3965 133.991)" fill="#FC909F" fill-opacity="0.2"/>
<rect x="34.2422" y="133.159" width="22.0101" height="5.39602" rx="2.69801" transform="rotate(149.593 34.2422 133.159)" fill="#FC909F" fill-opacity="0.2"/>
<rect x="90.668" y="86.4733" width="14.2156" height="5.39602" rx="2.69801" transform="rotate(127.069 90.668 86.4733)" fill="#B4B0CD" fill-opacity="0.52"/>
<rect x="32.5996" y="137.921" width="14.2156" height="5.39602" rx="2.69801" transform="rotate(85.3381 32.5996 137.921)" fill="#B4B0CD" fill-opacity="0.52"/>
<rect x="76.1387" y="178.35" width="14.2156" height="5.39602" rx="2.69801" transform="rotate(164.584 76.1387 178.35)" fill="#B4B0CD" fill-opacity="0.52"/>
<rect x="44.5566" y="201.452" width="14.2156" height="5.39602" rx="2.69801" transform="rotate(85.3381 44.5566 201.452)" fill="#B4B0CD" fill-opacity="0.52"/>
<rect x="11.6367" y="190.942" width="14.2156" height="5.39602" rx="2.69801" transform="rotate(120.763 11.6367 190.942)" fill="#B4B0CD" fill-opacity="0.52"/>
<rect x="46.293" y="123.575" width="14.2156" height="5.39602" rx="2.69801" transform="rotate(85.3381 46.293 123.575)" fill="#B4B0CD" fill-opacity="0.52"/>
<rect x="119.187" y="5.78699" width="14.2156" height="5.39602" rx="2.69801" transform="rotate(127.069 119.187 5.78699)" fill="#B4B0CD" fill-opacity="0.52"/>
<rect x="32.5996" y="137.921" width="14.2156" height="5.39602" rx="2.69801" transform="rotate(85.3381 32.5996 137.921)" fill="#B4B0CD" fill-opacity="0.52"/>
<rect x="76.1387" y="178.35" width="14.2156" height="5.39602" rx="2.69801" transform="rotate(164.584 76.1387 178.35)" fill="#B4B0CD" fill-opacity="0.52"/>
<rect x="69.0566" y="117.35" width="14.2156" height="5.39602" rx="2.69801" transform="rotate(85.3381 69.0566 117.35)" fill="#B4B0CD" fill-opacity="0.52"/>
<rect x="11.6367" y="190.942" width="14.2156" height="5.39602" rx="2.69801" transform="rotate(120.763 11.6367 190.942)" fill="#B4B0CD" fill-opacity="0.52"/>
<rect x="248.643" y="57.6958" width="14.2156" height="5.39602" rx="2.69801" transform="rotate(85.3381 248.643 57.6958)" fill="#B4B0CD" fill-opacity="0.52"/>
<rect x="61.248" y="62.0589" width="14.2156" height="5.39602" rx="2.69801" transform="rotate(117.262 61.248 62.0589)" fill="#403838" fill-opacity="0.3"/>
<rect x="243.265" y="18.7986" width="14.2156" height="5.39602" rx="2.69801" transform="rotate(117.262 243.265 18.7986)" fill="#403838" fill-opacity="0.3"/>
<rect x="23.5264" y="230.565" width="14.2156" height="5.39602" rx="2.69801" transform="rotate(-150.416 23.5264 230.565)" fill="#403838" fill-opacity="0.3"/>
<rect x="2.28516" y="147.684" width="14.2156" height="5.39602" rx="2.69801" transform="rotate(72.2618 2.28516 147.684)" fill="#403838" fill-opacity="0.3"/>
<rect x="16.543" y="150.68" width="14.2156" height="5.39602" rx="2.69801" transform="rotate(85.3381 16.543 150.68)" fill="#403838" fill-opacity="0.3"/>
<rect x="37.3105" y="221.581" width="11.8767" height="5.39602" rx="2.69801" transform="rotate(-110.096 37.3105 221.581)" fill="#D8AE5D" fill-opacity="0.3"/>
<rect x="31.6504" y="209.999" width="11.8767" height="5.39602" rx="2.69801" transform="rotate(-116.069 31.6504 209.999)" fill="#D8AE5D" fill-opacity="0.3"/>
<rect x="74.6719" y="106.45" width="11.8767" height="5.39602" rx="2.69801" transform="rotate(-68.365 74.6719 106.45)" fill="#D8AE5D" fill-opacity="0.3"/>
<rect x="31.9414" y="122.069" width="11.8767" height="5.39602" rx="2.69801" transform="rotate(-70.946 31.9414 122.069)" fill="#FFEDEF" fill-opacity="0.42"/>
<rect x="13.9082" y="211.832" width="11.8767" height="5.39602" rx="2.69801" transform="rotate(-67.4447 13.9082 211.832)" fill="#FFEDEF" fill-opacity="0.42"/>
<rect x="131.627" y="153.633" width="14.2156" height="5.39602" rx="2.69801" transform="rotate(-83.1624 131.627 153.633)" fill="#B4B0CD" fill-opacity="0.52"/>
<rect x="71.0244" y="234.039" width="14.2156" height="5.39602" rx="2.69801" transform="rotate(-128.369 71.0244 234.039)" fill="#B4B0CD" fill-opacity="0.52"/>
<rect x="44.6641" y="221.667" width="11.8767" height="5.39602" rx="2.69801" transform="rotate(40.0053 44.6641 221.667)" fill="#D8AE5D" fill-opacity="0.3"/>
<rect x="254.077" y="344.428" width="22.0101" height="5.39602" rx="2.69801" transform="rotate(-178.522 254.077 344.428)" fill="#FC909F" fill-opacity="0.2"/>
<rect x="313.403" y="319.803" width="14.2156" height="5.39602" rx="2.69801" transform="rotate(-106.935 313.403 319.803)" fill="#B4B0CD" fill-opacity="0.52"/>
<rect x="321.417" y="192.162" width="14.2156" height="5.39602" rx="2.69801" transform="rotate(168.467 321.417 192.162)" fill="#B4B0CD" fill-opacity="0.52"/>
<rect x="294.388" y="302.055" width="14.2156" height="5.39602" rx="2.69801" transform="rotate(-106.935 294.388 302.055)" fill="#B4B0CD" fill-opacity="0.52"/>
<rect x="389.235" y="171.457" width="14.2156" height="5.39602" rx="2.69801" transform="rotate(168.467 389.235 171.457)" fill="#B4B0CD" fill-opacity="0.52"/>
</g>
<defs>
<clipPath id="clip0">
<rect width="380" height="380" fill="white" transform="translate(0.78125)"/>
</clipPath>
</defs>

</g><g id="triangle-avatar-Base">
<g clip-path="url(#clip0)">
<path d="M244 362.5C229.6 342.5 218.333 303.834 217 284.5L148.5 255L120 362.5H244Z" fill="#AC6651" stroke="black" stroke-width="4"/>
<mask id="mask0" mask-type="alpha" maskUnits="userSpaceOnUse" x="120" y="255" width="124" height="118">
<path d="M244 372.5C229.6 352.5 218.333 303.834 217 284.5L148.5 255L120 372.5H244Z" fill="#AC6651"/>
</mask>
<g mask="url(#mask0)">
<g style="mix-blend-mode:multiply">
<ellipse cx="214" cy="253" rx="59" ry="54" fill="black"/>
</g>
</g>
<mask id="path-4-inside-1" fill="white">
<path fill-rule="evenodd" clip-rule="evenodd" d="M273.887 193.917C273.86 193.802 273.832 193.686 273.804 193.57C273.777 193.454 273.749 193.339 273.72 193.223L257.324 124.786C257.307 124.718 257.291 124.651 257.275 124.583C257.259 124.515 257.242 124.447 257.226 124.379L257.153 124.076L257.152 124.076C246.934 82.6315 205.157 57.148 163.583 67.1088C122.009 77.0696 96.3164 118.718 105.989 160.294L105.987 160.294L122.979 231.212L122.993 231.209C133.595 272.113 175.063 297.15 216.33 287.262C257.598 277.375 283.217 236.265 274.132 194.997L274.145 194.994L273.887 193.917Z"/>
</mask>
<path fill-rule="evenodd" clip-rule="evenodd" d="M273.887 193.917C273.86 193.802 273.832 193.686 273.804 193.57C273.777 193.454 273.749 193.339 273.72 193.223L257.324 124.786C257.307 124.718 257.291 124.651 257.275 124.583C257.259 124.515 257.242 124.447 257.226 124.379L257.153 124.076L257.152 124.076C246.934 82.6315 205.157 57.148 163.583 67.1088C122.009 77.0696 96.3164 118.718 105.989 160.294L105.987 160.294L122.979 231.212L122.993 231.209C133.595 272.113 175.063 297.15 216.33 287.262C257.598 277.375 283.217 236.265 274.132 194.997L274.145 194.994L273.887 193.917Z" fill="#AC6651"/>
<path d="M273.887 193.917L269.993 194.832L269.995 194.841L269.997 194.849L273.887 193.917ZM273.72 193.223L269.831 194.155L269.833 194.164L269.835 194.173L273.72 193.223ZM257.324 124.786L253.431 125.708L253.434 125.718L257.324 124.786ZM257.226 124.379L253.336 125.311L253.339 125.322L257.226 124.379ZM257.153 124.076L261.043 123.144L260.112 119.256L256.223 120.186L257.153 124.076ZM257.152 124.076L253.268 125.034L254.219 128.89L258.082 127.967L257.152 124.076ZM163.583 67.1088L162.651 63.2189L163.583 67.1088ZM105.989 160.294L106.923 164.183L110.785 163.255L109.885 159.387L105.989 160.294ZM105.987 160.294L105.053 156.405L101.166 157.338L102.097 161.226L105.987 160.294ZM122.979 231.212L119.089 232.144L120.021 236.035L123.912 235.101L122.979 231.212ZM122.993 231.209L126.865 230.205L125.879 226.402L122.059 227.319L122.993 231.209ZM216.33 287.262L215.398 283.372H215.398L216.33 287.262ZM274.132 194.997L273.201 191.107L269.382 192.021L270.226 195.857L274.132 194.997ZM274.145 194.994L275.076 198.884L278.967 197.952L278.035 194.062L274.145 194.994ZM277.781 193.003C277.752 192.881 277.723 192.76 277.694 192.638L269.915 194.502C269.941 194.612 269.967 194.722 269.993 194.832L277.781 193.003ZM277.694 192.638C277.665 192.517 277.636 192.395 277.606 192.274L269.835 194.173C269.861 194.282 269.888 194.392 269.915 194.502L277.694 192.638ZM253.434 125.718L269.831 194.155L277.61 192.291L261.213 123.854L253.434 125.718ZM261.216 123.864C261.199 123.794 261.182 123.722 261.165 123.651L253.385 125.515C253.401 125.579 253.416 125.643 253.431 125.708L261.216 123.864ZM261.165 123.651C261.148 123.58 261.131 123.509 261.113 123.437L253.339 125.322C253.354 125.386 253.37 125.45 253.385 125.515L261.165 123.651ZM253.263 125.008L253.336 125.311L261.116 123.447L261.043 123.144L253.263 125.008ZM258.082 127.967L258.084 127.966L256.223 120.186L256.222 120.186L258.082 127.967ZM261.036 123.119C250.292 79.5405 206.365 52.7454 162.651 63.2189L164.515 70.9987C203.949 61.5506 243.576 85.7226 253.268 125.034L261.036 123.119ZM162.651 63.2189C118.937 73.6924 91.9225 117.484 102.093 161.2L109.885 159.387C100.71 119.952 125.081 80.4469 164.515 70.9987L162.651 63.2189ZM106.921 164.183L106.923 164.183L105.055 156.404L105.053 156.405L106.921 164.183ZM126.869 230.28L109.877 159.362L102.097 161.226L119.089 232.144L126.869 230.28ZM122.059 227.319L122.045 227.322L123.912 235.101L123.926 235.098L122.059 227.319ZM119.121 232.212C130.269 275.223 173.87 301.548 217.262 291.152L215.398 283.372C176.255 292.751 136.921 269.003 126.865 230.205L119.121 232.212ZM217.262 291.152C260.654 280.756 287.592 237.53 278.039 194.137L270.226 195.857C278.843 235 254.542 273.994 215.398 283.372L217.262 291.152ZM273.213 191.104L273.201 191.107L275.064 198.887L275.076 198.884L273.213 191.104ZM269.997 194.849L270.255 195.926L278.035 194.062L277.777 192.985L269.997 194.849Z" fill="black" mask="url(#path-4-inside-1)"/>
<path d="M270.125 194.454C279.614 234.058 255.201 273.856 215.597 283.344C192.29 288.929 168.915 282.771 151.691 268.686C134.499 252.8 130.499 201.3 126.692 176.949C140.691 208.45 176.316 210.895 210.192 204.95C238.691 199.95 261.49 198.95 261.49 159.95C263.376 162.566 268.468 187.537 270.125 194.454Z" fill="#AC6651"/>
</g>
<ellipse cx="209.75" cy="188.445" rx="69.5387" ry="31.1548" transform="rotate(-12.0124 209.75 188.445)" fill="url(#paint0_radial)"/>
<defs>
<radialGradient id="paint0_radial" cx="0" cy="0" r="1" gradientUnits="userSpaceOnUse" gradientTransform="translate(209.75 188.445) rotate(90) scale(31.1548 69.5387)">
<stop stop-color="#ED9E56"/>
<stop offset="1" stop-color="#F7B9B9" stop-opacity="0"/>
</radialGradient>
<clipPath id="clip0">
<rect width="200" height="320" fill="white" transform="translate(90 43)"/>
</clipPath>
</defs>

</g><g id="triangle-avatar-Eyebrows">
<path d="M147.36 153.438C149.72 150.269 155.855 144.946 162.316 142.143C168.297 139.549 171.91 139.11 174.168 144.024" stroke="black" stroke-width="4"/>
<path d="M251.022 134.504C248.463 137.514 241.997 142.43 235.369 144.811C229.233 147.014 225.599 147.219 223.663 142.169" stroke="black" stroke-width="4"/>

</g><g id="triangle-avatar-Eyes">
<path d="M226.871 179.732C227.436 181.938 229.573 183.811 233.144 184.816C236.672 185.808 241.307 185.844 246.181 184.596C251.054 183.349 255.102 181.091 257.719 178.526C260.368 175.929 261.343 173.259 260.778 171.054C260.214 168.848 258.077 166.975 254.505 165.97C250.977 164.978 246.343 164.942 241.469 166.19C236.596 167.437 232.548 169.695 229.931 172.26C227.281 174.857 226.307 177.527 226.871 179.732Z" fill="white" stroke="black" stroke-width="3"/>
<ellipse rx="12" ry="9.5" transform="matrix(-0.968769 0.247967 0.247967 0.968769 240.701 175.909)" fill="black"/>
<path d="M265.954 158.936C265.195 161.364 262.805 166.443 259.316 167.329" stroke="black" stroke-width="4"/>
<path d="M151.401 186.312C153.239 195.481 162.387 201.448 171.9 199.542C181.414 197.635 187.556 188.603 185.718 179.434C183.881 170.265 174.733 164.298 165.219 166.205C155.705 168.111 149.563 177.143 151.401 186.312Z" fill="white" stroke="black" stroke-width="3"/>
<circle r="11" transform="matrix(-0.980501 0.196513 0.196513 0.980501 161.947 182.947)" fill="black"/>
<path d="M146 166.997C146.982 171.899 148.571 172.703 152.573 174.348" stroke="black" stroke-width="4"/>

</g><g id="triangle-avatar-Shirt">
<path d="M229.552 330.449L229.692 330.481L229.836 330.493C275.961 334.297 303.62 354.785 323.694 383H50.3745C66.6742 353.658 89.8579 334.982 127.445 326.412C143.458 322.761 162.113 320.94 184 320.94C193.456 320.94 200.814 322.382 207.796 324.286C210.383 324.991 212.983 325.781 215.643 326.589C220.045 327.927 224.611 329.314 229.552 330.449Z" fill="#FC909F" stroke="black" stroke-width="4"/>
<path d="M115.93 328.581L125.083 308.984C125.301 308.516 125.845 308.294 126.332 308.466C164.258 321.891 198.761 320.946 230.735 312.045C231.138 311.933 231.568 312.081 231.814 312.418L245.747 331.471C246.129 331.995 245.934 332.733 245.33 332.97C211.723 346.167 148.662 343.923 116.414 329.904C115.903 329.682 115.694 329.087 115.93 328.581Z" fill="#FFEDEF" stroke="black" stroke-width="4"/>

</g><g id="triangle-avatar-Mouth">
<path d="M193 251C194.715 243.043 201.071 226.233 212.771 222.652C224.471 219.071 230.465 231.107 232 237.572" stroke="black" stroke-width="4"/>

</g><g id="triangle-avatar-Nose">
<path d="M199.245 205.716C199.317 201.351 202.51 196.612 208.672 196.036C214.834 195.459 219.209 199.591 219.156 202.865" stroke="black" stroke-width="4"/>

</g><g id="triangle-avatar-Hair">
<path d="M281.726 131.791C281.726 65.702 245.268 21.0001 200.859 21C143.966 21 86 42.3414 86 143.255C86 168.223 96.6589 186.827 111.564 200.54C110.07 198.671 108.867 196.996 108.067 195.619C105.176 168.638 137.233 147.929 168.601 127.665C185.254 116.907 201.712 106.275 212.646 94.8956C222.24 100.332 250.44 123.109 255.813 132.32C258.695 137.26 263.322 154.189 266.484 173.95C276.822 161.532 281.726 149.107 281.726 131.791Z" fill="white" stroke="black" stroke-width="4"/>
<path d="M213.264 94.2459C226.438 82.3014 246.146 55.04 244.881 37.3341" stroke="black" stroke-width="4"/>

</g><g id="triangle-avatar-Ear">
<path d="M121.466 215.861L122 215.286V214.501V180.999V179.88L121.046 179.295C117.312 177.004 112.772 175.75 108.08 175.75C102.44 175.75 97.1591 177.497 93.3977 181.045C89.5942 184.632 87.5421 189.877 88.0869 196.416C88.6179 202.788 90.7569 207.477 94.3047 210.593C94.0134 211.592 93.9273 212.67 94.0624 213.803C94.4517 217.072 96.1039 219.427 98.6572 220.878C101.091 222.261 104.206 222.75 107.524 222.75C113.003 222.75 117.808 219.803 121.466 215.861Z" stroke="black" stroke-width="4"/>
<path fill-rule="evenodd" clip-rule="evenodd" d="M127.972 196.734C128.043 196.082 128.08 195.42 128.08 194.75C128.08 184.533 118.573 177.75 108.08 177.75C97.5866 177.75 89.0801 184.25 90.08 196.25C90.6364 202.927 93.0258 207.322 96.7307 209.967C96.1423 210.991 95.8848 212.194 96.0483 213.567C96.6774 218.848 101.186 220.75 107.524 220.75C118.629 220.75 127.416 206.703 127.972 196.734Z" fill="#AC6651"/>
<path d="M112.5 186.25C108.5 184.417 99.7 183.45 96.5 194.25" stroke="#171921" stroke-width="4"/>
<path d="M102 186.75C104.167 188.583 108.3 194.25 107.5 202.25" stroke="#171921" stroke-width="4"/>

</g></svg>
