<svg width="280" height="280" viewBox="0 0 380 380" fill="none" xmlns="http://www.w3.org/2000/svg"><g id="triangle-avatar-Background">
  <rect width="100%" height="100%" fill="#FFEDEF" />
</g><g id="triangle-avatar-Base">
<g>
  <g clip-path="url(#clip0)">
  <path d="M244 362.5C229.6 342.5 218.333 303.834 217 284.5L148.5 255L120 362.5H244Z" fill="#AC6651" stroke="black" stroke-width="4"/>
  <mask id="mask0" mask-type="alpha" maskUnits="userSpaceOnUse" x="120" y="255" width="124" height="118">
  <path d="M244 372.5C229.6 352.5 218.333 303.834 217 284.5L148.5 255L120 372.5H244Z" fill="#AC6651"/>
  </mask>
  <g mask="url(#mask0)">
  <g style="mix-blend-mode:multiply">
  <ellipse cx="214" cy="253" rx="59" ry="54" fill="black"/>
  </g>
  </g>
  <mask id="path-4-inside-1" fill="white">
  <path fill-rule="evenodd" clip-rule="evenodd" d="M273.887 193.917C273.86 193.802 273.832 193.686 273.804 193.57C273.777 193.454 273.749 193.339 273.72 193.223L257.324 124.786C257.307 124.718 257.291 124.651 257.275 124.583C257.259 124.515 257.242 124.447 257.226 124.379L257.153 124.076L257.152 124.076C246.934 82.6315 205.157 57.148 163.583 67.1088C122.009 77.0696 96.3164 118.718 105.989 160.294L105.987 160.294L122.979 231.212L122.993 231.209C133.595 272.113 175.063 297.15 216.33 287.262C257.598 277.375 283.217 236.265 274.132 194.997L274.145 194.994L273.887 193.917Z"/>
  </mask>
  <path fill-rule="evenodd" clip-rule="evenodd" d="M273.887 193.917C273.86 193.802 273.832 193.686 273.804 193.57C273.777 193.454 273.749 193.339 273.72 193.223L257.324 124.786C257.307 124.718 257.291 124.651 257.275 124.583C257.259 124.515 257.242 124.447 257.226 124.379L257.153 124.076L257.152 124.076C246.934 82.6315 205.157 57.148 163.583 67.1088C122.009 77.0696 96.3164 118.718 105.989 160.294L105.987 160.294L122.979 231.212L122.993 231.209C133.595 272.113 175.063 297.15 216.33 287.262C257.598 277.375 283.217 236.265 274.132 194.997L274.145 194.994L273.887 193.917Z" fill="#AC6651"/>
  <path d="M273.887 193.917L269.993 194.832L269.995 194.841L269.997 194.849L273.887 193.917ZM273.72 193.223L269.831 194.155L269.833 194.164L269.835 194.173L273.72 193.223ZM257.324 124.786L253.431 125.708L253.434 125.718L257.324 124.786ZM257.226 124.379L253.336 125.311L253.339 125.322L257.226 124.379ZM257.153 124.076L261.043 123.144L260.112 119.256L256.223 120.186L257.153 124.076ZM257.152 124.076L253.268 125.034L254.219 128.89L258.082 127.967L257.152 124.076ZM163.583 67.1088L162.651 63.2189L163.583 67.1088ZM105.989 160.294L106.923 164.183L110.785 163.255L109.885 159.387L105.989 160.294ZM105.987 160.294L105.053 156.405L101.166 157.338L102.097 161.226L105.987 160.294ZM122.979 231.212L119.089 232.144L120.021 236.035L123.912 235.101L122.979 231.212ZM122.993 231.209L126.865 230.205L125.879 226.402L122.059 227.319L122.993 231.209ZM216.33 287.262L215.398 283.372H215.398L216.33 287.262ZM274.132 194.997L273.201 191.107L269.382 192.021L270.226 195.857L274.132 194.997ZM274.145 194.994L275.076 198.884L278.967 197.952L278.035 194.062L274.145 194.994ZM277.781 193.003C277.752 192.881 277.723 192.76 277.694 192.638L269.915 194.502C269.941 194.612 269.967 194.722 269.993 194.832L277.781 193.003ZM277.694 192.638C277.665 192.517 277.636 192.395 277.606 192.274L269.835 194.173C269.861 194.282 269.888 194.392 269.915 194.502L277.694 192.638ZM253.434 125.718L269.831 194.155L277.61 192.291L261.213 123.854L253.434 125.718ZM261.216 123.864C261.199 123.794 261.182 123.722 261.165 123.651L253.385 125.515C253.401 125.579 253.416 125.643 253.431 125.708L261.216 123.864ZM261.165 123.651C261.148 123.58 261.131 123.509 261.113 123.437L253.339 125.322C253.354 125.386 253.37 125.45 253.385 125.515L261.165 123.651ZM253.263 125.008L253.336 125.311L261.116 123.447L261.043 123.144L253.263 125.008ZM258.082 127.967L258.084 127.966L256.223 120.186L256.222 120.186L258.082 127.967ZM261.036 123.119C250.292 79.5405 206.365 52.7454 162.651 63.2189L164.515 70.9987C203.949 61.5506 243.576 85.7226 253.268 125.034L261.036 123.119ZM162.651 63.2189C118.937 73.6924 91.9225 117.484 102.093 161.2L109.885 159.387C100.71 119.952 125.081 80.4469 164.515 70.9987L162.651 63.2189ZM106.921 164.183L106.923 164.183L105.055 156.404L105.053 156.405L106.921 164.183ZM126.869 230.28L109.877 159.362L102.097 161.226L119.089 232.144L126.869 230.28ZM122.059 227.319L122.045 227.322L123.912 235.101L123.926 235.098L122.059 227.319ZM119.121 232.212C130.269 275.223 173.87 301.548 217.262 291.152L215.398 283.372C176.255 292.751 136.921 269.003 126.865 230.205L119.121 232.212ZM217.262 291.152C260.654 280.756 287.592 237.53 278.039 194.137L270.226 195.857C278.843 235 254.542 273.994 215.398 283.372L217.262 291.152ZM273.213 191.104L273.201 191.107L275.064 198.887L275.076 198.884L273.213 191.104ZM269.997 194.849L270.255 195.926L278.035 194.062L277.777 192.985L269.997 194.849Z" fill="black" mask="url(#path-4-inside-1)"/>
  </g>
  <defs>
  <clipPath id="clip0">
  <rect width="200" height="320" fill="white" transform="translate(90 43)"/>
  </clipPath>
  </defs>
</g>

</g><g id="triangle-avatar-Eyebrows">
<path d="M234.854 135.346C236.244 139.903 236.184 145.478 235.579 148.149C230.939 149.131 229.035 136.648 228.663 130.283C232.205 129.11 233.568 131.129 234.854 135.346Z" fill="#403838" stroke="black" stroke-width="4"/>
<path d="M166.043 139.696C164.653 144.252 164.713 149.827 165.318 152.498C169.958 153.481 171.862 140.997 172.234 134.632C168.692 133.459 167.329 135.478 166.043 139.696Z" fill="#403838" stroke="black" stroke-width="4"/>

</g><g id="triangle-avatar-Eyes">
<path d="M183.5 183.5C183.5 192.851 175.703 200.5 166 200.5C156.297 200.5 148.5 192.851 148.5 183.5C148.5 174.149 156.297 166.5 166 166.5C175.703 166.5 183.5 174.149 183.5 183.5Z" fill="white" stroke="black" stroke-width="3"/>
<path d="M260.5 175.5C260.5 184.851 252.703 192.5 243 192.5C233.297 192.5 225.5 184.851 225.5 175.5C225.5 166.149 233.297 158.5 243 158.5C252.703 158.5 260.5 166.149 260.5 175.5Z" fill="white" stroke="black" stroke-width="3"/>
<ellipse cx="162.5" cy="183" rx="15.5" ry="15" fill="black"/>
<ellipse cx="239.5" cy="175" rx="15.5" ry="15" fill="black"/>

</g><g id="triangle-avatar-Shirt">
<path d="M323.366 382.863H50.4563C50.4907 382.793 50.5255 382.722 50.5604 382.651C55.1052 373.395 63.4899 356.319 74.4025 341.041C80.5961 332.37 87.5303 324.387 94.9416 318.772C102.354 313.156 110.061 310.04 117.892 310.726C132.946 312.043 146.355 320.285 159.817 328.56C161.092 329.344 162.368 330.129 163.646 330.908C178.131 339.735 193.005 347.931 209.365 344.345C214.899 343.131 218.629 340.535 220.976 337.18C223.29 333.873 224.122 330.029 224.266 326.517C224.41 322.999 223.871 319.674 223.311 317.256C223.049 316.126 222.779 315.179 222.564 314.484C226.189 310.835 230.027 308.71 233.989 307.753C238.284 306.716 242.876 307.016 247.707 308.445C257.437 311.323 267.847 318.697 278.007 328.179C296.621 345.552 313.7 369.323 323.366 382.863Z" fill="#878787" stroke="black" stroke-width="4.27431"/>

</g><g id="triangle-avatar-Mouth">
<path d="M193 251C194.715 243.043 201.071 226.233 212.771 222.652C224.471 219.071 230.465 231.107 232 237.572" stroke="black" stroke-width="4"/>

</g><g id="triangle-avatar-Nose">
<path d="M205.687 185.055C205.89 188.898 207.385 197.137 211.735 199.353C217.174 202.123 212.91 211.306 202.729 210.717" stroke="#171921" stroke-width="4"/>

</g><g id="triangle-avatar-Hair">
<path d="M150.484 135.61C150.484 135.61 114.847 133.623 110.887 139.706C106.928 145.788 120.786 208.602 125.736 232.855C130.686 257.108 150.484 258.717 143.021 303.291C136.454 342.509 151.021 359.246 154.616 362.702C155.114 363.161 155.393 363.399 155.393 363.399C155.393 363.399 155.107 363.174 154.616 362.702C150.51 358.919 131.539 340.069 131.539 314.772C131.539 314.772 126.872 356.222 138.353 367.426C149.834 378.63 73.5187 363.399 66.7049 357.266C59.891 351.134 88.6777 316.912 80.0195 273.595C71.3612 230.278 61.6395 151.115 80.0195 121.392C75.0987 60.3019 155.752 18.6856 209.644 54.1586C247.679 54.1586 276.457 120.068 276.457 166.001C276.457 272.771 261.779 316.65 299.561 344.294C313.922 352.194 241.09 367.426 241.09 367.426C241.09 367.426 210.745 282.008 226.967 282.008C282.725 262.224 266.304 172.373 254.92 123.867C227.697 135.61 175.197 135.61 175.197 135.61L168.797 112.978V135.61H155.393L150.484 121.392V135.61Z" fill="#876565" stroke="black" stroke-width="4"/>

</g><g id="triangle-avatar-Ear">
<path d="M121.466 215.861L122 215.286V214.501V180.999V179.88L121.046 179.295C117.312 177.004 112.772 175.75 108.08 175.75C102.44 175.75 97.1591 177.497 93.3977 181.045C89.5942 184.632 87.5421 189.877 88.0869 196.416C88.6179 202.788 90.7569 207.477 94.3047 210.593C94.0134 211.592 93.9273 212.67 94.0624 213.803C94.4517 217.072 96.1039 219.427 98.6572 220.878C101.091 222.261 104.206 222.75 107.524 222.75C113.003 222.75 117.808 219.803 121.466 215.861Z" stroke="black" stroke-width="4"/>
<path fill-rule="evenodd" clip-rule="evenodd" d="M127.972 196.734C128.043 196.082 128.08 195.42 128.08 194.75C128.08 184.533 118.573 177.75 108.08 177.75C97.5866 177.75 89.0801 184.25 90.08 196.25C90.6364 202.927 93.0258 207.322 96.7307 209.967C96.1423 210.991 95.8848 212.194 96.0483 213.567C96.6774 218.848 101.186 220.75 107.524 220.75C118.629 220.75 127.416 206.703 127.972 196.734Z" fill="#AC6651"/>
<path d="M112.5 186.25C108.5 184.417 99.7 183.45 96.5 194.25" stroke="#171921" stroke-width="4"/>
<path d="M102 186.75C104.167 188.583 108.3 194.25 107.5 202.25" stroke="#171921" stroke-width="4"/>

</g><g id="triangle-avatar-Mask">
<path d="M137 205L135.651 202.572C145.404 204.981 172.641 203.985 187 202.5C201.5 201 207 196 215.5 194C232 190.118 252 197 271 194C272.167 205.667 273.8 232.9 271 244.5C261 260 249 276.5 213 286C184.2 293.6 149.333 260.333 137 244.5C140.333 243.5 147 239.2 147 230C145.5 221.5 145 212 137 205Z" fill="#579EE0"/>
<path d="M122 178L137 205C145 212 145.5 221.5 147 230C147 239.2 140.333 243.5 137 244.5M137 244.5C132 238.667 122 225.9 122 221.5M137 244.5C149.333 260.333 184.2 293.6 213 286C249 276.5 261 260 271 244.5C273.8 232.9 272.167 205.667 271 194C252 197 232 190.118 215.5 194C207 196 201.5 201 187 202.5C172.5 204 144.87 205 135.37 202.5" stroke="white" stroke-width="4"/>
<path d="M143.5 216C153 216 180.5 215.9 190.5 213.5C203 210.5 213.981 204.866 224 203.5C235 202 260.5 207.5 272 203.5" stroke="white" stroke-width="10"/>
<path d="M222 194L234.5 204.5C234.5 204.5 233 246.5 225 254.5" stroke="white" stroke-width="2"/>

</g></svg>
