<svg width="280" height="280" viewBox="0 0 380 380" fill="none" xmlns="http://www.w3.org/2000/svg"><g id="triangle-avatar-Background">
  <rect width="100%" height="100%" fill="#E0DDFF" />
<g clip-path="url(#clip0)">
<circle cx="27.0757" cy="26.295" r="10.8823" fill="white" fill-opacity="0.3"/>
<circle cx="56.8403" cy="26.295" r="10.8823" fill="white" fill-opacity="0.3"/>
<circle cx="86.605" cy="26.295" r="10.8823" fill="white" fill-opacity="0.3"/>
<circle cx="116.37" cy="26.295" r="10.8823" fill="white" fill-opacity="0.3"/>
<circle cx="146.134" cy="26.295" r="10.8823" fill="white" fill-opacity="0.3"/>
<circle cx="175.899" cy="26.295" r="10.8823" fill="white" fill-opacity="0.3"/>
<circle cx="205.664" cy="26.295" r="10.8823" fill="white" fill-opacity="0.3"/>
<circle cx="235.428" cy="26.295" r="10.8823" fill="white" fill-opacity="0.3"/>
<circle cx="265.193" cy="26.295" r="10.8823" fill="white" fill-opacity="0.3"/>
<circle cx="294.958" cy="26.295" r="10.8823" fill="white" fill-opacity="0.3"/>
<circle cx="324.722" cy="26.295" r="10.8823" fill="white" fill-opacity="0.3"/>
<circle cx="354.487" cy="26.295" r="10.8823" fill="white" fill-opacity="0.3"/>
<circle cx="12.1938" cy="56.0597" r="10.8823" fill="white" fill-opacity="0.3"/>
<circle cx="41.9585" cy="56.0597" r="10.8823" fill="white" fill-opacity="0.3"/>
<circle cx="71.7231" cy="56.0597" r="10.8823" fill="white" fill-opacity="0.3"/>
<circle cx="101.488" cy="56.0597" r="10.8823" fill="white" fill-opacity="0.3"/>
<circle cx="131.252" cy="56.0597" r="10.8823" fill="white" fill-opacity="0.3"/>
<circle cx="161.017" cy="56.0597" r="10.8823" fill="white" fill-opacity="0.3"/>
<circle cx="190.782" cy="56.0597" r="10.8823" fill="white" fill-opacity="0.3"/>
<circle cx="220.546" cy="56.0597" r="10.8823" fill="white" fill-opacity="0.3"/>
<circle cx="250.311" cy="56.0597" r="10.8823" fill="white" fill-opacity="0.3"/>
<circle cx="280.076" cy="56.0597" r="10.8823" fill="white" fill-opacity="0.3"/>
<circle cx="309.84" cy="56.0597" r="10.8823" fill="white" fill-opacity="0.3"/>
<circle cx="339.605" cy="56.0597" r="10.8823" fill="white" fill-opacity="0.3"/>
<circle cx="369.37" cy="56.0597" r="10.8823" fill="white" fill-opacity="0.3"/>
<circle cx="27.0757" cy="85.8243" r="10.8823" fill="white" fill-opacity="0.3"/>
<circle cx="56.8403" cy="85.8243" r="10.8823" fill="white" fill-opacity="0.3"/>
<circle cx="86.605" cy="85.8243" r="10.8823" fill="white" fill-opacity="0.3"/>
<circle cx="116.37" cy="85.8243" r="10.8823" fill="white" fill-opacity="0.3"/>
<circle cx="146.134" cy="85.8243" r="10.8823" fill="white" fill-opacity="0.3"/>
<circle cx="175.899" cy="85.8243" r="10.8823" fill="white" fill-opacity="0.3"/>
<circle cx="205.664" cy="85.8243" r="10.8823" fill="white" fill-opacity="0.3"/>
<circle cx="235.428" cy="85.8243" r="10.8823" fill="white" fill-opacity="0.3"/>
<circle cx="265.193" cy="85.8243" r="10.8823" fill="white" fill-opacity="0.3"/>
<circle cx="294.958" cy="85.8243" r="10.8823" fill="white" fill-opacity="0.3"/>
<circle cx="324.722" cy="85.8243" r="10.8823" fill="white" fill-opacity="0.3"/>
<circle cx="354.487" cy="85.8243" r="10.8823" fill="white" fill-opacity="0.3"/>
<circle cx="12.1938" cy="115.589" r="10.8823" fill="white" fill-opacity="0.3"/>
<circle cx="41.9585" cy="115.589" r="10.8823" fill="white" fill-opacity="0.3"/>
<circle cx="71.7231" cy="115.589" r="10.8823" fill="white" fill-opacity="0.3"/>
<circle cx="101.488" cy="115.589" r="10.8823" fill="white" fill-opacity="0.3"/>
<circle cx="131.252" cy="115.589" r="10.8823" fill="white" fill-opacity="0.3"/>
<circle cx="161.017" cy="115.589" r="10.8823" fill="white" fill-opacity="0.3"/>
<circle cx="190.782" cy="115.589" r="10.8823" fill="white" fill-opacity="0.3"/>
<circle cx="220.546" cy="115.589" r="10.8823" fill="white" fill-opacity="0.3"/>
<circle cx="250.311" cy="115.589" r="10.8823" fill="white" fill-opacity="0.3"/>
<circle cx="280.076" cy="115.589" r="10.8823" fill="white" fill-opacity="0.3"/>
<circle cx="309.84" cy="115.589" r="10.8823" fill="white" fill-opacity="0.3"/>
<circle cx="339.605" cy="115.589" r="10.8823" fill="white" fill-opacity="0.3"/>
<circle cx="369.37" cy="115.589" r="10.8823" fill="white" fill-opacity="0.3"/>
<circle cx="27.0757" cy="145.354" r="10.8823" fill="white" fill-opacity="0.3"/>
<circle cx="56.8403" cy="145.354" r="10.8823" fill="white" fill-opacity="0.3"/>
<circle cx="86.605" cy="145.354" r="10.8823" fill="white" fill-opacity="0.3"/>
<circle cx="116.37" cy="145.354" r="10.8823" fill="white" fill-opacity="0.3"/>
<circle cx="146.134" cy="145.354" r="10.8823" fill="white" fill-opacity="0.3"/>
<circle cx="175.899" cy="145.354" r="10.8823" fill="white" fill-opacity="0.3"/>
<circle cx="205.664" cy="145.354" r="10.8823" fill="white" fill-opacity="0.3"/>
<circle cx="235.428" cy="145.354" r="10.8823" fill="white" fill-opacity="0.3"/>
<circle cx="265.193" cy="145.354" r="10.8823" fill="white" fill-opacity="0.3"/>
<circle cx="294.958" cy="145.354" r="10.8823" fill="white" fill-opacity="0.3"/>
<circle cx="324.722" cy="145.354" r="10.8823" fill="white" fill-opacity="0.3"/>
<circle cx="354.487" cy="145.354" r="10.8823" fill="white" fill-opacity="0.3"/>
<circle cx="12.1938" cy="175.118" r="10.8823" fill="white" fill-opacity="0.3"/>
<circle cx="41.9585" cy="175.118" r="10.8823" fill="white" fill-opacity="0.3"/>
<circle cx="71.7231" cy="175.118" r="10.8823" fill="white" fill-opacity="0.3"/>
<circle cx="101.488" cy="175.118" r="10.8823" fill="white" fill-opacity="0.3"/>
<circle cx="131.252" cy="175.118" r="10.8823" fill="white" fill-opacity="0.3"/>
<circle cx="161.017" cy="175.118" r="10.8823" fill="white" fill-opacity="0.3"/>
<circle cx="190.782" cy="175.118" r="10.8823" fill="white" fill-opacity="0.3"/>
<circle cx="220.546" cy="175.118" r="10.8823" fill="white" fill-opacity="0.3"/>
<circle cx="250.311" cy="175.118" r="10.8823" fill="white" fill-opacity="0.3"/>
<circle cx="280.076" cy="175.118" r="10.8823" fill="white" fill-opacity="0.3"/>
<circle cx="309.84" cy="175.118" r="10.8823" fill="white" fill-opacity="0.3"/>
<circle cx="339.605" cy="175.118" r="10.8823" fill="white" fill-opacity="0.3"/>
<circle cx="369.37" cy="175.118" r="10.8823" fill="white" fill-opacity="0.3"/>
<circle cx="27.0757" cy="204.883" r="10.8823" fill="white" fill-opacity="0.3"/>
<circle cx="56.8403" cy="204.883" r="10.8823" fill="white" fill-opacity="0.3"/>
<circle cx="86.605" cy="204.883" r="10.8823" fill="white" fill-opacity="0.3"/>
<circle cx="116.37" cy="204.883" r="10.8823" fill="white" fill-opacity="0.3"/>
<circle cx="146.134" cy="204.883" r="10.8823" fill="white" fill-opacity="0.3"/>
<circle cx="175.899" cy="204.883" r="10.8823" fill="white" fill-opacity="0.3"/>
<circle cx="205.664" cy="204.883" r="10.8823" fill="white" fill-opacity="0.3"/>
<circle cx="235.428" cy="204.883" r="10.8823" fill="white" fill-opacity="0.3"/>
<circle cx="265.193" cy="204.883" r="10.8823" fill="white" fill-opacity="0.3"/>
<circle cx="294.958" cy="204.883" r="10.8823" fill="white" fill-opacity="0.3"/>
<circle cx="324.722" cy="204.883" r="10.8823" fill="white" fill-opacity="0.3"/>
<circle cx="354.487" cy="204.883" r="10.8823" fill="white" fill-opacity="0.3"/>
<circle cx="12.1938" cy="234.647" r="10.8823" fill="white" fill-opacity="0.3"/>
<circle cx="41.9585" cy="234.647" r="10.8823" fill="white" fill-opacity="0.3"/>
<circle cx="71.7231" cy="234.647" r="10.8823" fill="white" fill-opacity="0.3"/>
<circle cx="101.488" cy="234.647" r="10.8823" fill="white" fill-opacity="0.3"/>
<circle cx="131.252" cy="234.647" r="10.8823" fill="white" fill-opacity="0.3"/>
<circle cx="161.017" cy="234.647" r="10.8823" fill="white" fill-opacity="0.3"/>
<circle cx="190.782" cy="234.647" r="10.8823" fill="white" fill-opacity="0.3"/>
<circle cx="220.546" cy="234.647" r="10.8823" fill="white" fill-opacity="0.3"/>
<circle cx="250.311" cy="234.647" r="10.8823" fill="white" fill-opacity="0.3"/>
<circle cx="280.076" cy="234.647" r="10.8823" fill="white" fill-opacity="0.3"/>
<circle cx="309.84" cy="234.647" r="10.8823" fill="white" fill-opacity="0.3"/>
<circle cx="339.605" cy="234.647" r="10.8823" fill="white" fill-opacity="0.3"/>
<circle cx="369.37" cy="234.647" r="10.8823" fill="white" fill-opacity="0.3"/>
<circle cx="27.0757" cy="264.412" r="10.8823" fill="white" fill-opacity="0.3"/>
<circle cx="56.8403" cy="264.412" r="10.8823" fill="white" fill-opacity="0.3"/>
<circle cx="86.605" cy="264.412" r="10.8823" fill="white" fill-opacity="0.3"/>
<circle cx="116.37" cy="264.412" r="10.8823" fill="white" fill-opacity="0.3"/>
<circle cx="146.134" cy="264.412" r="10.8823" fill="white" fill-opacity="0.3"/>
<circle cx="175.899" cy="264.412" r="10.8823" fill="white" fill-opacity="0.3"/>
<circle cx="205.664" cy="264.412" r="10.8823" fill="white" fill-opacity="0.3"/>
<circle cx="235.428" cy="264.412" r="10.8823" fill="white" fill-opacity="0.3"/>
<circle cx="265.193" cy="264.412" r="10.8823" fill="white" fill-opacity="0.3"/>
<circle cx="294.958" cy="264.412" r="10.8823" fill="white" fill-opacity="0.3"/>
<circle cx="324.722" cy="264.412" r="10.8823" fill="white" fill-opacity="0.3"/>
<circle cx="354.487" cy="264.412" r="10.8823" fill="white" fill-opacity="0.3"/>
<circle cx="12.1938" cy="294.177" r="10.8823" fill="white" fill-opacity="0.3"/>
<circle cx="41.9585" cy="294.177" r="10.8823" fill="white" fill-opacity="0.3"/>
<circle cx="71.7231" cy="294.177" r="10.8823" fill="white" fill-opacity="0.3"/>
<circle cx="101.488" cy="294.177" r="10.8823" fill="white" fill-opacity="0.3"/>
<circle cx="131.252" cy="294.177" r="10.8823" fill="white" fill-opacity="0.3"/>
<circle cx="161.017" cy="294.177" r="10.8823" fill="white" fill-opacity="0.3"/>
<circle cx="190.782" cy="294.177" r="10.8823" fill="white" fill-opacity="0.3"/>
<circle cx="220.546" cy="294.177" r="10.8823" fill="white" fill-opacity="0.3"/>
<circle cx="250.311" cy="294.177" r="10.8823" fill="white" fill-opacity="0.3"/>
<circle cx="280.076" cy="294.177" r="10.8823" fill="white" fill-opacity="0.3"/>
<circle cx="309.84" cy="294.177" r="10.8823" fill="white" fill-opacity="0.3"/>
<circle cx="339.605" cy="294.177" r="10.8823" fill="white" fill-opacity="0.3"/>
<circle cx="369.37" cy="294.177" r="10.8823" fill="white" fill-opacity="0.3"/>
<circle cx="27.0757" cy="323.941" r="10.8823" fill="white" fill-opacity="0.3"/>
<circle cx="56.8403" cy="323.941" r="10.8823" fill="white" fill-opacity="0.3"/>
<circle cx="86.605" cy="323.941" r="10.8823" fill="white" fill-opacity="0.3"/>
<circle cx="116.37" cy="323.941" r="10.8823" fill="white" fill-opacity="0.3"/>
<circle cx="146.134" cy="323.941" r="10.8823" fill="white" fill-opacity="0.3"/>
<circle cx="175.899" cy="323.941" r="10.8823" fill="white" fill-opacity="0.3"/>
<circle cx="205.664" cy="323.941" r="10.8823" fill="white" fill-opacity="0.3"/>
<circle cx="235.428" cy="323.941" r="10.8823" fill="white" fill-opacity="0.3"/>
<circle cx="265.193" cy="323.941" r="10.8823" fill="white" fill-opacity="0.3"/>
<circle cx="294.958" cy="323.941" r="10.8823" fill="white" fill-opacity="0.3"/>
<circle cx="324.722" cy="323.941" r="10.8823" fill="white" fill-opacity="0.3"/>
<circle cx="354.487" cy="323.941" r="10.8823" fill="white" fill-opacity="0.3"/>
<circle cx="12.1938" cy="353.706" r="10.8823" fill="white" fill-opacity="0.3"/>
<circle cx="41.9585" cy="353.706" r="10.8823" fill="white" fill-opacity="0.3"/>
<circle cx="71.7231" cy="353.706" r="10.8823" fill="white" fill-opacity="0.3"/>
<circle cx="101.488" cy="353.706" r="10.8823" fill="white" fill-opacity="0.3"/>
<circle cx="131.252" cy="353.706" r="10.8823" fill="white" fill-opacity="0.3"/>
<circle cx="161.017" cy="353.706" r="10.8823" fill="white" fill-opacity="0.3"/>
<circle cx="190.782" cy="353.706" r="10.8823" fill="white" fill-opacity="0.3"/>
<circle cx="220.546" cy="353.706" r="10.8823" fill="white" fill-opacity="0.3"/>
<circle cx="250.311" cy="353.706" r="10.8823" fill="white" fill-opacity="0.3"/>
<circle cx="280.076" cy="353.706" r="10.8823" fill="white" fill-opacity="0.3"/>
<circle cx="309.84" cy="353.706" r="10.8823" fill="white" fill-opacity="0.3"/>
<circle cx="339.605" cy="353.706" r="10.8823" fill="white" fill-opacity="0.3"/>
<circle cx="369.37" cy="353.706" r="10.8823" fill="white" fill-opacity="0.3"/>
</g>
<defs>
<clipPath id="clip0">
<rect width="380" height="380" fill="white" transform="translate(0.78125)"/>
</clipPath>
</defs>

</g><g id="triangle-avatar-Base">
<g clip-path="url(#clip0)">
<path d="M244 362.5C229.6 342.5 218.333 303.834 217 284.5L148.5 255L120 362.5H244Z" fill="#F9C9B6" stroke="black" stroke-width="4"/>
<mask id="mask0" mask-type="alpha" maskUnits="userSpaceOnUse" x="120" y="255" width="124" height="118">
<path d="M244 372.5C229.6 352.5 218.333 303.834 217 284.5L148.5 255L120 372.5H244Z" fill="#AC6651"/>
</mask>
<g mask="url(#mask0)">
<g style="mix-blend-mode:multiply">
<ellipse cx="214" cy="253" rx="59" ry="54" fill="black"/>
</g>
</g>
<mask id="path-4-inside-1" fill="white">
<path fill-rule="evenodd" clip-rule="evenodd" d="M273.887 193.917C273.86 193.802 273.832 193.686 273.804 193.57C273.777 193.454 273.749 193.339 273.72 193.223L257.324 124.786C257.307 124.718 257.291 124.651 257.275 124.583C257.259 124.515 257.242 124.447 257.226 124.379L257.153 124.076L257.152 124.076C246.934 82.6315 205.157 57.148 163.583 67.1088C122.009 77.0696 96.3164 118.718 105.989 160.294L105.987 160.294L122.979 231.212L122.993 231.209C133.595 272.113 175.063 297.15 216.33 287.262C257.598 277.375 283.217 236.265 274.132 194.997L274.145 194.994L273.887 193.917Z"/>
</mask>
<path fill-rule="evenodd" clip-rule="evenodd" d="M273.887 193.917C273.86 193.802 273.832 193.686 273.804 193.57C273.777 193.454 273.749 193.339 273.72 193.223L257.324 124.786C257.307 124.718 257.291 124.651 257.275 124.583C257.259 124.515 257.242 124.447 257.226 124.379L257.153 124.076L257.152 124.076C246.934 82.6315 205.157 57.148 163.583 67.1088C122.009 77.0696 96.3164 118.718 105.989 160.294L105.987 160.294L122.979 231.212L122.993 231.209C133.595 272.113 175.063 297.15 216.33 287.262C257.598 277.375 283.217 236.265 274.132 194.997L274.145 194.994L273.887 193.917Z" fill="#F9C9B6"/>
<path d="M273.887 193.917L269.993 194.832L269.995 194.841L269.997 194.849L273.887 193.917ZM273.72 193.223L269.831 194.155L269.833 194.164L269.835 194.173L273.72 193.223ZM257.324 124.786L253.431 125.708L253.434 125.718L257.324 124.786ZM257.226 124.379L253.336 125.311L253.339 125.322L257.226 124.379ZM257.153 124.076L261.043 123.144L260.112 119.256L256.223 120.186L257.153 124.076ZM257.152 124.076L253.268 125.034L254.219 128.89L258.082 127.967L257.152 124.076ZM163.583 67.1088L162.651 63.2189L163.583 67.1088ZM105.989 160.294L106.923 164.183L110.785 163.255L109.885 159.387L105.989 160.294ZM105.987 160.294L105.053 156.405L101.166 157.338L102.097 161.226L105.987 160.294ZM122.979 231.212L119.089 232.144L120.021 236.035L123.912 235.101L122.979 231.212ZM122.993 231.209L126.865 230.205L125.879 226.402L122.059 227.319L122.993 231.209ZM216.33 287.262L215.398 283.372H215.398L216.33 287.262ZM274.132 194.997L273.201 191.107L269.382 192.021L270.226 195.857L274.132 194.997ZM274.145 194.994L275.076 198.884L278.967 197.952L278.035 194.062L274.145 194.994ZM277.781 193.003C277.752 192.881 277.723 192.76 277.694 192.638L269.915 194.502C269.941 194.612 269.967 194.722 269.993 194.832L277.781 193.003ZM277.694 192.638C277.665 192.517 277.636 192.395 277.606 192.274L269.835 194.173C269.861 194.282 269.888 194.392 269.915 194.502L277.694 192.638ZM253.434 125.718L269.831 194.155L277.61 192.291L261.213 123.854L253.434 125.718ZM261.216 123.864C261.199 123.794 261.182 123.722 261.165 123.651L253.385 125.515C253.401 125.579 253.416 125.643 253.431 125.708L261.216 123.864ZM261.165 123.651C261.148 123.58 261.131 123.509 261.113 123.437L253.339 125.322C253.354 125.386 253.37 125.45 253.385 125.515L261.165 123.651ZM253.263 125.008L253.336 125.311L261.116 123.447L261.043 123.144L253.263 125.008ZM258.082 127.967L258.084 127.966L256.223 120.186L256.222 120.186L258.082 127.967ZM261.036 123.119C250.292 79.5405 206.365 52.7454 162.651 63.2189L164.515 70.9987C203.949 61.5506 243.576 85.7226 253.268 125.034L261.036 123.119ZM162.651 63.2189C118.937 73.6924 91.9225 117.484 102.093 161.2L109.885 159.387C100.71 119.952 125.081 80.4469 164.515 70.9987L162.651 63.2189ZM106.921 164.183L106.923 164.183L105.055 156.404L105.053 156.405L106.921 164.183ZM126.869 230.28L109.877 159.362L102.097 161.226L119.089 232.144L126.869 230.28ZM122.059 227.319L122.045 227.322L123.912 235.101L123.926 235.098L122.059 227.319ZM119.121 232.212C130.269 275.223 173.87 301.548 217.262 291.152L215.398 283.372C176.255 292.751 136.921 269.003 126.865 230.205L119.121 232.212ZM217.262 291.152C260.654 280.756 287.592 237.53 278.039 194.137L270.226 195.857C278.843 235 254.542 273.994 215.398 283.372L217.262 291.152ZM273.213 191.104L273.201 191.107L275.064 198.887L275.076 198.884L273.213 191.104ZM269.997 194.849L270.255 195.926L278.035 194.062L277.777 192.985L269.997 194.849Z" fill="black" mask="url(#path-4-inside-1)"/>
<path d="M270.125 194.454C279.614 234.058 255.201 273.856 215.597 283.344C192.29 288.929 168.915 282.771 151.691 268.686C134.499 252.8 130.499 201.3 126.692 176.949C140.691 208.45 176.316 210.895 210.192 204.95C238.691 199.95 261.49 198.95 261.49 159.95C263.376 162.566 268.468 187.537 270.125 194.454Z" fill="#F9C9B6"/>
</g>
<ellipse cx="209.75" cy="188.445" rx="69.5387" ry="31.1548" transform="rotate(-12.0124 209.75 188.445)" fill="url(#paint0_radial)"/>
<defs>
<radialGradient id="paint0_radial" cx="0" cy="0" r="1" gradientUnits="userSpaceOnUse" gradientTransform="translate(209.75 188.445) rotate(90) scale(31.1548 69.5387)">
<stop stop-color="#ED9E56"/>
<stop offset="1" stop-color="#F7B9B9" stop-opacity="0"/>
</radialGradient>
<clipPath id="clip0">
<rect width="200" height="320" fill="white" transform="translate(90 43)"/>
</clipPath>
</defs>

</g><g id="triangle-avatar-Eyebrows">
<path d="M219 134.214C224.667 131.548 238 129.114 246 140.714" stroke="black" stroke-width="4" stroke-linecap="round"/>
<path d="M143.579 159.521C145.65 153.61 153.261 142.396 167.142 144.822" stroke="black" stroke-width="4" stroke-linecap="round"/>
<path d="M146.074 153.458L139.926 148.031" stroke="black" stroke-width="4" stroke-linecap="round"/>
<path d="M242.961 135.157L249.109 129.73" stroke="black" stroke-width="4" stroke-linecap="round"/>
<path d="M152.523 147.814L148.477 140.682" stroke="black" stroke-width="4" stroke-linecap="round"/>
<path d="M235.512 131.513L239.559 124.381" stroke="black" stroke-width="4" stroke-linecap="round"/>
<path d="M160.599 144.201L158.398 136.301" stroke="black" stroke-width="4" stroke-linecap="round"/>
<path d="M226.436 130.9L228.637 123" stroke="black" stroke-width="4" stroke-linecap="round"/>

</g><g id="triangle-avatar-Eyes">
<path d="M226.871 179.732C227.436 181.938 229.573 183.811 233.144 184.816C236.672 185.808 241.307 185.844 246.181 184.596C251.054 183.349 255.102 181.091 257.719 178.526C260.368 175.929 261.343 173.259 260.778 171.054C260.214 168.848 258.077 166.975 254.505 165.97C250.977 164.978 246.343 164.942 241.469 166.19C236.596 167.437 232.548 169.695 229.931 172.26C227.281 174.857 226.307 177.527 226.871 179.732Z" fill="white" stroke="black" stroke-width="3"/>
<ellipse rx="12" ry="9.5" transform="matrix(-0.968769 0.247967 0.247967 0.968769 240.701 175.909)" fill="black"/>
<path d="M265.954 158.936C265.195 161.364 262.805 166.443 259.316 167.329" stroke="black" stroke-width="4"/>
<path d="M151.401 186.312C153.239 195.481 162.387 201.448 171.9 199.542C181.414 197.635 187.556 188.603 185.718 179.434C183.881 170.265 174.733 164.298 165.219 166.205C155.705 168.111 149.563 177.143 151.401 186.312Z" fill="white" stroke="black" stroke-width="3"/>
<circle r="11" transform="matrix(-0.980501 0.196513 0.196513 0.980501 161.947 182.947)" fill="black"/>
<path d="M146 166.997C146.982 171.899 148.571 172.703 152.573 174.348" stroke="black" stroke-width="4"/>

</g><g id="triangle-avatar-Shirt">
<path d="M229.552 330.449L229.692 330.481L229.836 330.493C275.961 334.297 303.62 354.785 323.694 383H50.3745C66.6742 353.658 89.8579 334.982 127.445 326.412C143.458 322.761 162.113 320.94 184 320.94C193.456 320.94 200.814 322.382 207.796 324.286C210.383 324.991 212.983 325.781 215.643 326.589C220.045 327.927 224.611 329.314 229.552 330.449Z" fill="#F4D150" stroke="black" stroke-width="4"/>
<path d="M115.93 328.581L125.083 308.984C125.301 308.516 125.845 308.294 126.332 308.466C164.258 321.891 198.761 320.946 230.735 312.045C231.138 311.933 231.568 312.081 231.814 312.418L245.747 331.471C246.129 331.995 245.934 332.733 245.33 332.97C211.723 346.167 148.662 343.923 116.414 329.904C115.903 329.682 115.694 329.087 115.93 328.581Z" fill="#FFEBA4" stroke="black" stroke-width="4"/>

</g><g id="triangle-avatar-Mouth">
<path d="M193 251C194.715 243.043 201.071 226.233 212.771 222.652C224.471 219.071 230.465 231.107 232 237.572" stroke="black" stroke-width="4"/>

</g><g id="triangle-avatar-Nose">
<path d="M204.13 177.094C206.078 190.958 214.541 200.877 214.541 200.877C214.541 200.877 211.91 207.306 201.729 206.717" stroke="#171921" stroke-width="4"/>

</g><g id="triangle-avatar-Hair">
<path d="M154.607 119.73C141.788 149.827 113.644 157.737 110.869 164.547C109.167 168.726 120.583 177.748 99.163 182.978C95.2057 186.806 93.1851 194.177 93.1851 199.915C93.1851 210.296 100.906 225.57 122.576 218.098C147.099 236.526 169.904 272.384 134.957 306.342C123.974 320.57 149.087 334.52 161.265 343.507C161.265 343.507 126.201 342.219 119.015 334.552C130.25 363.334 116.351 384.111 116.351 384.111C116.351 384.111 108.076 333.469 82.5197 329.991C74.7144 349.685 100.469 365.524 100.469 365.524C100.469 365.524 62.1721 366.765 61.4638 349.462C57.143 349.638 62.2834 369.484 62.2834 369.484C62.2834 369.484 47.8571 363.644 45.02 348.298C42.1829 332.951 60.7036 319.336 59.609 304.146C58.5143 288.956 37.1756 280.338 36.4604 262.914C35.7451 245.49 62.9384 224.934 62.3392 210.296C61.7401 195.657 53.9316 198.358 54.3381 191.911C54.7447 185.464 61.072 179.101 61.072 179.101C61.072 179.101 61.6046 155.984 62.8635 146.809C64.1225 137.634 76.2918 124.359 82.035 124.124C55.0214 79.4512 107.207 48.0779 119.916 44.6622C132.624 41.2465 130.855 44.6552 132.624 46.7243C163.736 22.8676 184.422 33.3113 187.009 32.2229C229.604 16.3246 238.276 50.811 239.149 52.4092C274.741 50.9523 270.57 73.8341 270.851 80.6839C288.537 79.96 287.259 123.625 287.785 125.631C333.436 172.818 310.14 194.65 306.485 208.381C310.881 245.297 354.693 253.769 317.449 297.327C341.121 333.454 317.189 347.17 317.189 347.17C317.189 347.17 313.886 313.284 298.409 321.154C291.564 331.834 296.174 337.505 299.768 350.455C304.975 369.215 266.018 380.511 266.018 380.511C266.018 380.511 285.732 370.325 286.603 362.443C289.787 348.046 260.065 335.608 258.659 322.781C249.486 333.835 252.297 341.8 257.604 347.065C265.466 351.96 271.591 355.174 271.591 355.174C271.591 355.174 263.206 352.624 257.604 347.065C244.521 338.921 226.63 326.124 224.145 315.743C220.167 299.123 219.234 302.103 218.355 291.952C217.477 281.801 237.059 279.093 247.58 269.936C258.101 260.779 273.108 245.379 273.108 219.627C273.108 202.821 260.777 138.154 245.426 99.593C239.3 98.2552 239.149 133.856 239.149 133.856C239.149 133.856 215.268 112.172 210.699 110.734C206.13 109.295 210.699 141.838 210.699 141.838C210.699 141.838 177.832 121.415 176.939 99.593C168.507 96.0527 161.921 138.154 161.921 138.154L154.607 119.73Z" fill="#362100" stroke="black" stroke-width="4"/>

</g><g id="triangle-avatar-Ear">
<path d="M121.466 215.861L122 215.286V214.501V180.999V179.88L121.046 179.295C117.312 177.004 112.772 175.75 108.08 175.75C102.44 175.75 97.1591 177.497 93.3977 181.045C89.5942 184.632 87.5421 189.877 88.0869 196.416C88.6179 202.788 90.7569 207.477 94.3047 210.593C94.0134 211.592 93.9273 212.67 94.0624 213.803C94.4517 217.072 96.1039 219.427 98.6572 220.878C101.091 222.261 104.206 222.75 107.524 222.75C113.003 222.75 117.808 219.803 121.466 215.861Z" stroke="black" stroke-width="4"/>
<path fill-rule="evenodd" clip-rule="evenodd" d="M127.972 196.734C128.043 196.082 128.08 195.42 128.08 194.75C128.08 184.533 118.573 177.75 108.08 177.75C97.5866 177.75 89.0801 184.25 90.08 196.25C90.6364 202.927 93.0258 207.322 96.7307 209.967C96.1423 210.991 95.8848 212.194 96.0483 213.567C96.6774 218.848 101.186 220.75 107.524 220.75C118.629 220.75 127.416 206.703 127.972 196.734Z" fill="#F9C9B6"/>
<path d="M112.5 186.25C108.5 184.417 99.7 183.45 96.5 194.25" stroke="#171921" stroke-width="4"/>
<path d="M102 186.75C104.167 188.583 108.3 194.25 107.5 202.25" stroke="#171921" stroke-width="4"/>

</g><g id="triangle-avatar-Ear Ring">
<path d="M107 204C120.255 204 131 214.745 131 228C131 241.255 120.255 252 107 252C93.7452 252 83 241.255 83 228C83 221.609 86.5 216.5 89.5715 211.5L90.5 210" stroke="#F4D150" stroke-width="4"/>

</g></svg>
