<svg xmlns="http://www.w3.org/2000/svg" width="1200" height="630" viewBox="0 0 1200 630"><rect width="100%" height="100%" fill="#334155"/><path fill="#ffffff" d="M311.905 330.01q1.41 0 2.5 1.08l6.78 7.36q-5.63 6.98-13.86 10.69-8.22 3.71-19.74 3.71-10.3 0-18.53-3.52-8.22-3.52-14.05-9.79-5.82-6.27-8.92-14.97-3.11-8.71-3.11-19.01 0-10.43 3.33-19.11 3.33-8.67 9.38-14.94 6.04-6.27 14.43-9.76 8.38-3.49 18.56-3.49 10.11 0 17.95 3.33t13.34 8.7l-5.76 8q-.51.77-1.31 1.35-.8.57-2.21.57-.96 0-1.98-.54t-2.24-1.34-2.82-1.76-3.71-1.76-4.89-1.35q-2.79-.54-6.44-.54-6.2 0-11.36 2.21-5.15 2.2-8.86 6.4-3.71 4.19-5.76 10.24-2.05 6.04-2.05 13.79 0 7.81 2.21 13.89t5.98 10.24q3.78 4.16 8.9 6.36 5.12 2.21 11.01 2.21 3.52 0 6.37-.38 2.84-.39 5.24-1.22t4.55-2.14q2.14-1.31 4.25-3.23.64-.58 1.35-.93.7-.35 1.47-.35m34.43-73.28v36.48q3.84-3.59 8.45-5.83t10.82-2.24q5.37 0 9.53 1.83 4.16 1.82 6.95 5.12 2.78 3.29 4.22 7.87 1.44 4.57 1.44 10.08v41.79h-15.81v-41.79q0-6.02-2.75-9.31-2.75-3.3-8.38-3.3-4.1 0-7.68 1.86-3.59 1.85-6.79 5.05v47.49h-15.81v-95.1zm70.34 33.4.96 7.43q3.07-5.89 7.29-9.25 4.23-3.36 9.99-3.36 4.54 0 7.29 1.98l-1.02 11.84q-.32 1.16-.93 1.64t-1.63.48q-.96 0-2.85-.32t-3.68-.32q-2.62 0-4.67.76-2.05.77-3.68 2.21t-2.88 3.49-2.34 4.67v40.45h-15.8v-65.66h9.28q2.43 0 3.39.86t1.28 3.1m62.85-4.99q7.29 0 13.28 2.37 5.98 2.37 10.24 6.72 4.25 4.35 6.56 10.62 2.3 6.28 2.3 14.02 0 7.81-2.3 14.08-2.31 6.27-6.56 10.69-4.26 4.41-10.24 6.78-5.99 2.37-13.28 2.37-7.36 0-13.38-2.37t-10.27-6.78q-4.26-4.42-6.59-10.69-2.34-6.27-2.34-14.08 0-7.74 2.34-14.02 2.33-6.27 6.59-10.62 4.25-4.35 10.27-6.72t13.38-2.37m0 55.49q8.19 0 12.12-5.5 3.94-5.51 3.94-16.13 0-10.63-3.94-16.19-3.93-5.57-12.12-5.57-8.32 0-12.32 5.6t-4 16.16 4 16.09q4 5.54 12.32 5.54m60.28 11.2h-15.8v-65.66h9.66q3.07 0 4.03 2.88l1.03 4.86q1.72-1.92 3.61-3.52t4.03-2.75q2.15-1.15 4.61-1.83 2.47-.67 5.41-.67 6.21 0 10.21 3.36t5.98 8.93q1.54-3.26 3.84-5.6 2.31-2.34 5.06-3.81t5.85-2.17q3.11-.71 6.24-.71 5.44 0 9.67 1.67 4.22 1.66 7.1 4.86t4.39 7.81q1.5 4.61 1.5 10.56v41.79h-15.81v-41.79q0-6.27-2.75-9.44t-8.06-3.17q-2.44 0-4.52.83t-3.64 2.4q-1.57 1.57-2.47 3.94-.89 2.37-.89 5.44v41.79h-15.88v-41.79q0-6.59-2.65-9.6-2.66-3.01-7.78-3.01-3.45 0-6.43 1.7-2.98 1.69-5.54 4.64zm103.88-40.38h29.82q0-3.08-.86-5.8-.87-2.72-2.6-4.76-1.72-2.05-4.38-3.24-2.66-1.18-6.18-1.18-6.84 0-10.78 3.9-3.94 3.91-5.02 11.08m40.32 9.53h-40.64q.38 5.06 1.79 8.74t3.71 6.08 5.47 3.58q3.17 1.19 7.01 1.19t6.62-.9q2.79-.9 4.87-1.98 2.08-1.09 3.65-1.99 1.56-.89 3.04-.89 1.98 0 2.94 1.47l4.54 5.76q-2.62 3.07-5.88 5.15-3.27 2.08-6.82 3.33t-7.23 1.76-7.14.51q-6.85 0-12.73-2.27-5.89-2.27-10.24-6.72-4.36-4.45-6.85-11.01-2.5-6.56-2.5-15.2 0-6.72 2.18-12.64 2.17-5.92 6.24-10.3 4.06-4.39 9.92-6.95 5.85-2.56 13.21-2.56 6.21 0 11.46 1.99 5.25 1.98 9.02 5.79 3.78 3.81 5.92 9.34 2.15 5.54 2.15 12.64 0 3.59-.77 4.83-.77 1.25-2.94 1.25m113.79-61.69v14.14h-27.91v78.4h-17.21v-78.4h-27.91v-14.14zm10.17 26.88h15.88v65.66h-15.88zm18.05-19.14q0 2.05-.83 3.84t-2.21 3.14q-1.37 1.34-3.23 2.14t-3.97.8q-2.05 0-3.87-.8t-3.17-2.14q-1.34-1.35-2.14-3.14t-.8-3.84q0-2.11.8-3.97.8-1.85 2.14-3.2 1.35-1.34 3.17-2.14t3.87-.8q2.11 0 3.97.8t3.23 2.14q1.38 1.35 2.21 3.2.83 1.86.83 3.97m29.76 38.34v29.44q2.69 3.26 5.86 4.6 3.17 1.35 6.88 1.35 3.58 0 6.46-1.35 2.88-1.34 4.9-4.09 2.01-2.75 3.1-6.95 1.09-4.19 1.09-9.88 0-5.76-.93-9.76t-2.65-6.5q-1.73-2.5-4.2-3.65-2.46-1.15-5.6-1.15-4.92 0-8.38 2.08t-6.53 5.86m-2.11-16.32 1.28 6.08q4.03-4.55 9.15-7.36 5.12-2.82 12.03-2.82 5.38 0 9.83 2.24t7.68 6.5q3.23 4.25 4.99 10.49t1.76 14.31q0 7.36-1.98 13.63-1.99 6.27-5.67 10.88t-8.89 7.2q-5.22 2.59-11.68 2.59-5.51 0-9.41-1.7-3.91-1.69-6.98-4.7v26.88h-15.81v-87.1h9.67q3.07 0 4.03 2.88m102.66 4.22-3.59 5.7q-.64 1.02-1.34 1.44-.71.41-1.79.41-1.16 0-2.47-.64t-3.04-1.44-3.93-1.44q-2.21-.64-5.22-.64-4.67 0-7.33 1.99-2.65 1.98-2.65 5.18 0 2.11 1.37 3.55 1.38 1.44 3.65 2.53t5.15 1.95q2.88.87 5.86 1.89 2.97 1.02 5.85 2.34 2.88 1.31 5.16 3.32 2.27 2.02 3.64 4.84 1.38 2.81 1.38 6.78 0 4.74-1.7 8.74-1.69 4-5.02 6.91t-8.22 4.54q-4.9 1.63-11.3 1.63-3.39 0-6.62-.6-3.24-.61-6.21-1.7-2.98-1.09-5.51-2.56-2.52-1.47-4.44-3.2l3.64-6.02q.71-1.08 1.67-1.66t2.43-.58 2.78.84q1.32.83 3.04 1.79 1.73.96 4.07 1.79 2.33.83 5.92.83 2.81 0 4.83-.67t3.33-1.76 1.92-2.53.61-2.97q0-2.31-1.38-3.78t-3.65-2.56-5.18-1.95q-2.91-.87-5.95-1.89t-5.96-2.4q-2.91-1.38-5.18-3.49t-3.65-5.18q-1.37-3.07-1.37-7.43 0-4.03 1.6-7.68 1.6-3.64 4.7-6.36t7.74-4.36q4.64-1.63 10.72-1.63 6.79 0 12.36 2.24 5.56 2.24 9.28 5.89"/></svg>