<svg xmlns="http://www.w3.org/2000/svg" width="1200" height="630" viewBox="0 0 1200 630"><rect width="100%" height="100%" fill="#f97316"/><path fill="#ffffff" d="M306.04 271.825h-41.41v27.6h34.96v13.87h-34.96v37.99h-17.41v-93.27h58.82zm12.19 13.28h16v66.18h-16zm18.19-19.28q0 2.06-.84 3.87-.84 1.8-2.22 3.16-1.39 1.35-3.26 2.16-1.87.8-4 .8-2.06 0-3.9-.8-1.84-.81-3.19-2.16-1.36-1.36-2.16-3.16-.81-1.81-.81-3.87 0-2.13.81-4 .8-1.87 2.16-3.23 1.35-1.35 3.19-2.16 1.84-.8 3.9-.8 2.13 0 4 .8 1.87.81 3.26 2.16 1.38 1.36 2.22 3.23t.84 4m38.25 50.76q2.97 0 5.16-.81 2.19-.8 3.64-2.22 1.46-1.42 2.2-3.42t.74-4.39q0-4.9-2.94-7.77-2.93-2.87-8.8-2.87t-8.8 2.87q-2.94 2.87-2.94 7.77 0 2.32.74 4.32t2.2 3.46q1.45 1.45 3.67 2.25 2.23.81 5.13.81m18 37.67q0-1.94-1.17-3.16-1.16-1.23-3.16-1.91-2-.67-4.67-1-2.68-.32-5.68-.48t-6.19-.29-6.22-.52q-2.65 1.49-4.29 3.49-1.65 2-1.65 4.64 0 1.74.87 3.26.87 1.51 2.78 2.61 1.9 1.1 4.93 1.71t7.42.61q4.45 0 7.67-.67 3.23-.68 5.32-1.88 2.1-1.19 3.07-2.83.97-1.65.97-3.58m-3.17-66.89h19.03v5.93q0 2.84-3.42 3.49l-5.93 1.09q1.35 3.42 1.35 7.49 0 4.9-1.96 8.86-1.97 3.97-5.45 6.74-3.49 2.78-8.23 4.29-4.74 1.52-10.22 1.52-1.94 0-3.74-.19-1.81-.2-3.55-.52-3.09 1.87-3.09 4.19 0 2 1.83 2.94 1.84.93 4.87 1.32t6.9.48q3.87.1 7.94.42 4.06.33 7.93 1.13 3.87.81 6.9 2.55t4.87 4.74 1.84 7.71q0 4.38-2.16 8.51t-6.26 7.36q-4.09 3.22-10.06 5.19-5.96 1.96-13.58 1.96-7.48 0-13.02-1.45-5.55-1.45-9.23-3.87-3.67-2.42-5.48-5.58t-1.81-6.58q0-4.64 2.81-7.77t7.71-5q-2.65-1.35-4.2-3.61-1.54-2.26-1.54-5.93 0-1.49.55-3.07.54-1.58 1.61-3.12 1.06-1.55 2.67-2.94 1.62-1.39 3.81-2.48-5.03-2.71-7.9-7.23-2.87-4.51-2.87-10.57 0-4.91 1.97-8.87 1.96-3.97 5.48-6.78 3.51-2.8 8.32-4.28 4.8-1.49 10.48-1.49 4.26 0 8 .87t6.83 2.55m45.03 63.92h-15.94v-66.18h9.74q3.1 0 4.07 2.91l1.03 4.9q1.74-1.94 3.64-3.55 1.91-1.61 4.07-2.77t4.64-1.84 5.45-.68q6.26 0 10.29 3.39 4.03 3.38 6.03 8.99 1.55-3.28 3.87-5.64 2.32-2.35 5.1-3.84 2.77-1.48 5.9-2.19t6.29-.71q5.48 0 9.74 1.68 4.25 1.67 7.15 4.9 2.91 3.22 4.42 7.87 1.52 4.64 1.52 10.64v42.12h-15.93v-42.12q0-6.32-2.78-9.51-2.77-3.2-8.12-3.2-2.45 0-4.55.84t-3.68 2.42-2.48 3.97-.9 5.48v42.12h-16v-42.12q0-6.64-2.68-9.67-2.67-3.04-7.83-3.04-3.49 0-6.48 1.71-3 1.71-5.58 4.68zm127.06-17.09v-11.16q-6.9.32-11.61 1.19t-7.55 2.23q-2.83 1.35-4.06 3.16-1.22 1.8-1.22 3.93 0 4.2 2.48 6 2.48 1.81 6.48 1.81 4.9 0 8.48-1.78 3.58-1.77 7-5.38m-33.67-34.77-2.84-5.09q11.42-10.45 27.48-10.45 5.81 0 10.39 1.9 4.57 1.9 7.74 5.29 3.16 3.39 4.8 8.09 1.65 4.71 1.65 10.32v41.8h-7.23q-2.26 0-3.48-.68-1.23-.67-1.94-2.74l-1.42-4.77q-2.51 2.26-4.9 3.97-2.38 1.7-4.96 2.87-2.58 1.16-5.52 1.77-2.93.61-6.48.61-4.19 0-7.74-1.13t-6.13-3.38q-2.58-2.26-4-5.61-1.42-3.36-1.42-7.81 0-2.51.84-5 .84-2.48 2.74-4.74 1.91-2.26 4.94-4.26t7.45-3.48 10.28-2.42q5.87-.93 13.42-1.13v-3.87q0-6.64-2.84-9.83-2.84-3.2-8.19-3.2-3.87 0-6.42.91-2.54.9-4.48 2.03-1.93 1.13-3.51 2.03t-3.52.9q-1.68 0-2.84-.87t-1.87-2.03m143.97 5.1h30.96v37.73q-7.1 5.22-15.13 7.64t-17.19 2.42q-11.42 0-20.67-3.55-9.26-3.54-15.8-9.86-6.55-6.33-10.1-15.1t-3.55-19.15q0-10.52 3.42-19.29t9.71-15.09 15.25-9.81q8.97-3.48 20.13-3.48 5.67 0 10.61.9 4.93.91 9.16 2.49 4.22 1.58 7.71 3.83 3.48 2.26 6.38 4.97l-4.97 7.87q-1.16 1.87-3.03 2.29t-4.06-.94q-2.13-1.22-4.26-2.45-2.13-1.22-4.74-2.12-2.61-.91-5.87-1.49-3.25-.58-7.51-.58-6.9 0-12.48 2.32-5.58 2.33-9.52 6.65-3.93 4.32-6.06 10.38t-2.13 13.55q0 7.99 2.29 14.28t6.45 10.65q4.16 4.35 10.03 6.64t13.1 2.29q5.16 0 9.22-1.1 4.06-1.09 7.93-2.96v-16.9h-11.74q-1.67 0-2.61-.94-.93-.93-.93-2.29zm86.3-19.42h15.93v66.18h-9.74q-3.16 0-4-2.9l-1.1-5.29q-4.06 4.13-8.96 6.67-4.9 2.55-11.55 2.55-5.42 0-9.58-1.84-4.16-1.83-6.99-5.19-2.84-3.35-4.29-7.96-1.45-4.62-1.45-10.16v-42.06h15.93v42.06q0 6.06 2.8 9.38 2.81 3.32 8.42 3.32 4.13 0 7.74-1.83 3.61-1.84 6.84-5.07zm32.18 0h16v66.18h-16zm18.19-19.28q0 2.06-.84 3.87-.84 1.8-2.22 3.16-1.39 1.35-3.26 2.16-1.87.8-4 .8-2.06 0-3.9-.8-1.84-.81-3.19-2.16-1.36-1.36-2.16-3.16-.81-1.81-.81-3.87 0-2.13.81-4 .8-1.87 2.16-3.23 1.35-1.35 3.19-2.16 1.84-.8 3.9-.8 2.13 0 4 .8 1.87.81 3.26 2.16 1.38 1.36 2.22 3.23t.84 4m55.6 65.85v-29.67q-2.71-3.29-5.9-4.64-3.19-1.36-6.87-1.36-3.61 0-6.52 1.36-2.9 1.35-4.96 4.09-2.07 2.74-3.16 6.97-1.1 4.22-1.1 9.96 0 5.81.94 9.84.93 4.03 2.67 6.58t4.26 3.68 5.61 1.13q4.97 0 8.45-2.07 3.48-2.06 6.58-5.87m0-76.24h15.93v95.85h-9.74q-3.16 0-4-2.9l-1.35-6.39q-4 4.58-9.19 7.42t-12.1 2.84q-5.41 0-9.93-2.26-4.51-2.26-7.77-6.55t-5.03-10.61q-1.78-6.32-1.78-14.45 0-7.35 2-13.67t5.74-10.96q3.74-4.65 8.97-7.26 5.22-2.61 11.74-2.61 5.55 0 9.48 1.74t7.03 4.71zm44.25 55.15h30.05q0-3.1-.87-5.84t-2.61-4.8q-1.74-2.07-4.42-3.26-2.67-1.19-6.22-1.19-6.9 0-10.87 3.93-3.97 3.94-5.06 11.16m40.63 9.61h-40.96q.39 5.1 1.81 8.81 1.42 3.7 3.74 6.12t5.52 3.61q3.19 1.2 7.06 1.2t6.68-.91q2.8-.9 4.9-1.99 2.09-1.1 3.67-2 1.58-.91 3.07-.91 2 0 2.96 1.49l4.58 5.8q-2.64 3.1-5.93 5.19-3.29 2.1-6.87 3.36t-7.29 1.77q-3.71.52-7.19.52-6.9 0-12.84-2.29-5.93-2.29-10.32-6.77-4.38-4.49-6.9-11.1-2.51-6.61-2.51-15.32 0-6.77 2.19-12.74 2.19-5.96 6.29-10.38t10-7 13.32-2.58q6.25 0 11.54 2t9.1 5.84q3.8 3.84 5.96 9.41 2.16 5.58 2.16 12.74 0 3.62-.77 4.87-.77 1.26-2.97 1.26"/></svg>