<svg xmlns="http://www.w3.org/2000/svg" width="1200" height="630" viewBox="0 0 1200 630"><rect width="100%" height="100%" fill="#2496ed"/><path fill="#ffffff" d="M319.685 315.705q0 9.38-3.13 17.23-3.12 7.85-8.79 13.51-5.66 5.67-13.63 8.79-7.96 3.13-17.7 3.13h-32.5v-85.31h32.5q9.74 0 17.7 3.15 7.97 3.16 13.63 8.79 5.67 5.64 8.79 13.48 3.13 7.85 3.13 17.23m-16.28 0q0-7.02-1.86-12.59-1.86-5.58-5.37-9.44-3.51-3.87-8.5-5.93-4.98-2.07-11.24-2.07h-16.57v60.06h16.57q6.26 0 11.24-2.06 4.99-2.07 8.5-5.93 3.51-3.87 5.37-9.44 1.86-5.58 1.86-12.6m54.75-18.82q6.73 0 12.24 2.18 5.52 2.19 9.44 6.2 3.93 4.01 6.05 9.79 2.12 5.79 2.12 12.92 0 7.2-2.12 12.98-2.12 5.79-6.05 9.86-3.92 4.07-9.44 6.25-5.51 2.19-12.24 2.19-6.79 0-12.33-2.19-5.55-2.18-9.47-6.25t-6.08-9.86q-2.15-5.78-2.15-12.98 0-7.13 2.15-12.92 2.16-5.78 6.08-9.79t9.47-6.2q5.54-2.18 12.33-2.18m0 51.15q7.55 0 11.18-5.07t3.63-14.87q0-9.79-3.63-14.92-3.63-5.14-11.18-5.14-7.67 0-11.36 5.17-3.69 5.16-3.69 14.89 0 9.74 3.69 14.84t11.36 5.1m88.2-42.71-3.83 5.31q-.65.82-1.27 1.3-.62.47-1.8.47-1.12 0-2.18-.68t-2.54-1.53q-1.47-.86-3.51-1.54-2.03-.68-5.04-.68-3.84 0-6.73 1.39t-4.81 3.98q-1.92 2.6-2.86 6.29-.94 3.68-.94 8.34 0 4.84 1.03 8.62 1.03 3.77 2.98 6.34t4.72 3.9q2.77 1.32 6.25 1.32t5.64-.85q2.15-.86 3.63-1.89 1.47-1.03 2.56-1.89 1.09-.85 2.45-.85 1.77 0 2.66 1.35l4.18 5.31q-2.41 2.83-5.25 4.75-2.83 1.92-5.87 3.07t-6.25 1.62q-3.22.48-6.4.48-5.61 0-10.56-2.1-4.96-2.09-8.68-6.11-3.71-4.01-5.87-9.82-2.15-5.81-2.15-13.25 0-6.66 1.92-12.36 1.91-5.69 5.63-9.85t9.21-6.52q5.48-2.36 12.62-2.36 6.79 0 11.89 2.18 5.1 2.19 9.17 6.26m9.68-34.63h14.57v50.2h2.72q1.47 0 2.33-.38.85-.38 1.74-1.56l15.04-18.59q.95-1.24 2.1-1.89 1.15-.64 2.98-.64h13.33l-18.82 22.48q-2.01 2.65-4.37 4.07 1.24.88 2.22 2.06.97 1.18 1.86 2.54l20.17 29.38h-13.15q-1.71 0-2.95-.56t-2.07-2.04l-15.46-22.95q-.82-1.35-1.71-1.77-.88-.41-2.65-.41h-3.31v27.73h-14.57zm74.58 50.44h27.49q0-2.83-.8-5.34-.79-2.51-2.39-4.39-1.59-1.89-4.04-2.98-2.45-1.1-5.69-1.1-6.31 0-9.94 3.6t-4.63 10.21m37.17 8.79h-37.47q.36 4.66 1.65 8.06 1.3 3.39 3.43 5.6 2.12 2.21 5.04 3.3 2.92 1.1 6.46 1.1t6.11-.83q2.56-.83 4.48-1.83t3.36-1.83q1.45-.82 2.81-.82 1.83 0 2.71 1.35l4.19 5.31q-2.42 2.83-5.43 4.75t-6.28 3.07q-3.28 1.15-6.67 1.62-3.39.48-6.58.48-6.31 0-11.74-2.1-5.43-2.09-9.44-6.19-4.01-4.11-6.31-10.15-2.3-6.05-2.3-14.02 0-6.19 2-11.65 2.01-5.46 5.76-9.5 3.74-4.04 9.14-6.4t12.18-2.36q5.73 0 10.57 1.83 4.83 1.83 8.31 5.34 3.49 3.51 5.46 8.61 1.98 5.11 1.98 11.66 0 3.3-.71 4.45t-2.71 1.15m27.2-28.44.88 6.85q2.83-5.43 6.73-8.53 3.89-3.1 9.2-3.1 4.19 0 6.73 1.83l-.95 10.92q-.29 1.06-.85 1.5-.56.45-1.51.45-.88 0-2.62-.3-1.74-.29-3.4-.29-2.41 0-4.3.7-1.89.71-3.39 2.04-1.51 1.33-2.66 3.21-1.15 1.89-2.15 4.31v37.29h-14.58v-60.53h8.56q2.24 0 3.13.79.88.8 1.18 2.86m104.13 14.1h28.32v34.52q-6.49 4.78-13.83 6.99-7.35 2.21-15.73 2.21-10.44 0-18.91-3.24-8.46-3.25-14.45-9.03t-9.24-13.8q-3.24-8.03-3.24-17.53 0-9.61 3.13-17.64 3.12-8.02 8.88-13.8 5.75-5.79 13.95-8.97 8.2-3.19 18.41-3.19 5.19 0 9.7.83 4.52.82 8.38 2.27 3.86 1.44 7.05 3.51 3.19 2.06 5.84 4.54l-4.54 7.2q-1.06 1.71-2.77 2.1-1.72.38-3.72-.86l-3.9-2.24q-1.94-1.12-4.33-1.95t-5.37-1.36-6.87-.53q-6.32 0-11.42 2.13-5.1 2.12-8.7 6.07-3.6 3.96-5.55 9.5-1.95 5.55-1.95 12.39 0 7.32 2.1 13.07 2.09 5.75 5.9 9.74 3.8 3.98 9.17 6.07 5.37 2.1 11.98 2.1 4.72 0 8.44-1.01 3.71-1 7.25-2.71v-15.46h-10.73q-1.54 0-2.39-.85-.86-.86-.86-2.1zm78.94-17.75h14.58v60.53h-8.91q-2.89 0-3.66-2.66l-1-4.83q-3.72 3.77-8.21 6.1-4.48 2.33-10.56 2.33-4.95 0-8.76-1.68-3.8-1.68-6.4-4.75-2.6-3.06-3.92-7.28-1.33-4.22-1.33-9.3v-38.46h14.57v38.46q0 5.55 2.57 8.59t7.7 3.04q3.77 0 7.08-1.68 3.3-1.69 6.25-4.64zm29.44 0h14.64v60.53h-14.64zm16.64-17.65q0 1.89-.77 3.54-.76 1.66-2.03 2.9-1.27 1.23-2.98 1.97t-3.66.74q-1.89 0-3.57-.74t-2.92-1.97q-1.24-1.24-1.97-2.9-.74-1.65-.74-3.54 0-1.94.74-3.65.73-1.71 1.97-2.95t2.92-1.98 3.57-.74q1.95 0 3.66.74t2.98 1.98 2.03 2.95q.77 1.71.77 3.65m50.86 60.24v-27.14q-2.48-3.01-5.4-4.24-2.92-1.24-6.28-1.24-3.31 0-5.96 1.24-2.66 1.23-4.54 3.74-1.89 2.51-2.9 6.37-1 3.87-1 9.12 0 5.31.86 9 .85 3.68 2.45 6.02 1.59 2.33 3.89 3.36t5.13 1.03q4.55 0 7.73-1.89 3.19-1.89 6.02-5.37m0-69.73h14.57v87.67h-8.91q-2.89 0-3.65-2.66l-1.24-5.84q-3.66 4.19-8.41 6.79t-11.06 2.6q-4.96 0-9.09-2.07t-7.11-5.99-4.6-9.7q-1.62-5.79-1.62-13.22 0-6.73 1.83-12.51 1.82-5.78 5.25-10.03 3.42-4.25 8.2-6.64t10.74-2.39q5.07 0 8.67 1.6 3.6 1.59 6.43 4.3zm40.47 50.44h27.5q0-2.83-.8-5.34t-2.39-4.39q-1.59-1.89-4.04-2.98-2.45-1.1-5.69-1.1-6.32 0-9.94 3.6-3.63 3.6-4.64 10.21m37.17 8.79h-37.46q.35 4.66 1.65 8.06 1.3 3.39 3.42 5.6 2.13 2.21 5.05 3.3 2.92 1.1 6.46 1.1t6.1-.83q2.57-.83 4.49-1.83t3.36-1.83q1.45-.82 2.8-.82 1.83 0 2.72 1.35l4.19 5.31q-2.42 2.83-5.43 4.75t-6.28 3.07q-3.28 1.15-6.67 1.62-3.39.48-6.58.48-6.31 0-11.74-2.1-5.43-2.09-9.44-6.19-4.01-4.11-6.31-10.15-2.31-6.05-2.31-14.02 0-6.19 2.01-11.65t5.75-9.5q3.75-4.04 9.15-6.4t12.18-2.36q5.72 0 10.56 1.83t8.32 5.34 5.46 8.61q1.98 5.11 1.98 11.66 0 3.3-.71 4.45t-2.72 1.15"/></svg>