<svg xmlns="http://www.w3.org/2000/svg" width="1200" height="630" viewBox="0 0 1200 630"><rect width="100%" height="100%" fill="#1d4ed8"/><path fill="#ffffff" d="M287.455 285.14h9.12l-24.53 60.73h-10.21l-24.53-60.73h9.08q1.47 0 2.39.71.92.72 1.39 1.85l14.32 37.04q.71 1.81 1.36 3.97.65 2.17 1.24 4.52.51-2.35 1.09-4.52.59-2.16 1.31-3.97l14.23-37.04q.34-.97 1.33-1.76.98-.8 2.41-.8m50.57 5.71-2.81 5.33q-.51.89-1.08 1.28-.56.4-1.4.4-.88 0-1.91-.65t-2.46-1.45q-1.43-.79-3.34-1.44-1.91-.66-4.51-.66-2.36 0-4.12.57t-2.96 1.58q-1.2 1-1.79 2.41-.58 1.41-.58 3.09 0 2.14 1.19 3.57 1.2 1.43 3.17 2.43 1.98 1.01 4.5 1.81t5.16 1.7q2.65.9 5.17 2.1t4.49 3.02q1.98 1.83 3.17 4.48 1.2 2.64 1.2 6.42 0 4.12-1.41 7.71-1.4 3.59-4.11 6.26t-6.62 4.2q-3.9 1.53-8.94 1.53-2.9 0-5.71-.56-2.82-.57-5.4-1.62t-4.85-2.52-4.03-3.28l3.31-5.42q.42-.58 1.1-.98.67-.4 1.42-.4 1.05 0 2.27.86t2.9 1.91 3.93 1.91q2.24.86 5.39.86 4.83 0 7.48-2.29t2.65-6.57q0-2.39-1.2-3.91-1.2-1.51-3.17-2.54-1.98-1.03-4.5-1.74t-5.12-1.55-5.12-2.02-4.5-3.07q-1.97-1.89-3.17-4.72-1.2-2.84-1.2-6.99 0-3.32 1.33-6.47 1.32-3.15 3.84-5.59 2.52-2.43 6.22-3.9 3.69-1.47 8.48-1.47 5.38 0 9.91 1.68 4.54 1.68 7.73 4.7m52.63 40.7q.92 0 1.63.71l4.46 4.83q-3.7 4.58-9.1 7.02-5.39 2.43-12.95 2.43-6.77 0-12.16-2.31-5.4-2.31-9.22-6.42-3.82-4.12-5.86-9.83t-2.04-12.48q0-6.84 2.19-12.53 2.18-5.69 6.15-9.81t9.47-6.41q5.5-2.28 12.18-2.28 6.64 0 11.78 2.18 5.15 2.18 8.76 5.71l-3.78 5.25q-.34.51-.86.88-.53.38-1.45.38-.63 0-1.3-.36-.68-.35-1.47-.88-.8-.52-1.85-1.15t-2.44-1.16q-1.38-.52-3.21-.88t-4.22-.36q-4.08 0-7.46 1.45t-5.81 4.2q-2.44 2.75-3.78 6.72-1.35 3.97-1.35 9.05 0 5.13 1.45 9.12t3.93 6.72 5.84 4.18 7.22 1.45q2.31 0 4.18-.26 1.87-.25 3.44-.79 1.58-.55 2.99-1.41 1.4-.86 2.79-2.12.42-.38.88-.61t.97-.23m31.29-29.44q4.78 0 8.71 1.55t6.72 4.41 4.31 6.97q1.51 4.12 1.51 9.2 0 5.12-1.51 9.24-1.52 4.12-4.31 7.01-2.79 2.9-6.72 4.46-3.93 1.55-8.71 1.55-4.83 0-8.78-1.55-3.95-1.56-6.74-4.46-2.8-2.89-4.33-7.01t-1.53-9.24q0-5.08 1.53-9.2 1.53-4.11 4.33-6.97 2.79-2.86 6.74-4.41t8.78-1.55m0 36.41q5.37 0 7.96-3.61 2.58-3.61 2.58-10.59 0-6.97-2.58-10.62-2.59-3.66-7.96-3.66-5.46 0-8.09 3.68-2.62 3.67-2.62 10.6t2.62 10.57q2.63 3.63 8.09 3.63m56.23-5.42v-19.32q-1.76-2.14-3.84-3.02t-4.47-.88q-2.35 0-4.24.88t-3.24 2.66q-1.34 1.79-2.06 4.54-.71 2.75-.71 6.49 0 3.78.61 6.4.61 2.63 1.74 4.29 1.14 1.66 2.77 2.39 1.64.74 3.66.74 3.23 0 5.5-1.35 2.27-1.34 4.28-3.82m0-49.64h10.38v62.41h-6.34q-2.06 0-2.61-1.89l-.88-4.16q-2.6 2.98-5.98 4.83-3.39 1.85-7.88 1.85-3.53 0-6.47-1.47t-5.06-4.26q-2.12-2.8-3.27-6.91-1.16-4.12-1.16-9.41 0-4.79 1.3-8.9 1.3-4.12 3.74-7.14 2.44-3.03 5.84-4.73t7.64-1.7q3.61 0 6.18 1.13 2.56 1.14 4.57 3.07zm28.82 35.91h19.57q0-2.02-.57-3.8-.57-1.79-1.7-3.13-1.13-1.35-2.88-2.12-1.74-.78-4.05-.78-4.49 0-7.08 2.56-2.58 2.56-3.29 7.27m26.46 6.26h-26.67q.25 3.31 1.17 5.73.93 2.41 2.44 3.99 1.51 1.57 3.59 2.35t4.6.78 4.35-.59q1.82-.59 3.19-1.3 1.36-.72 2.39-1.3 1.03-.59 2-.59 1.3 0 1.93.96l2.98 3.78q-1.72 2.02-3.86 3.38-2.15 1.37-4.48 2.19t-4.74 1.15q-2.42.34-4.69.34-4.49 0-8.35-1.49-3.87-1.49-6.72-4.41-2.86-2.92-4.5-7.23-1.64-4.3-1.64-9.97 0-4.41 1.43-8.3 1.43-3.88 4.1-6.76 2.66-2.87 6.51-4.55 3.84-1.68 8.67-1.68 4.07 0 7.52 1.3 3.44 1.3 5.92 3.8t3.89 6.13q1.4 3.63 1.4 8.3 0 2.35-.5 3.17-.51.82-1.93.82m70.56-31.5h-26.97v16.84h21.25v8.69h-21.25v17.18h26.97v9.03h-38.31v-60.73h38.31zm32.08 29.06 14.75 22.68h-10q-1.13 0-1.83-.59-.69-.59-1.15-1.34l-9.12-15q-.21.72-.48 1.35t-.61 1.17l-8.06 12.48q-.46.71-1.14 1.32-.67.61-1.68.61h-9.28l14.79-22.22-14.2-20.87h10q1.13 0 1.68.31.54.32.96 1.03l9.03 14.37q.46-1.43 1.3-2.82l7.27-11.34q.92-1.55 2.39-1.55h9.54zm34.49 23.35q-5.63 0-8.63-3.17-3.01-3.17-3.01-8.76v-24.06h-4.41q-.84 0-1.43-.55-.58-.54-.58-1.64v-4.11l6.93-1.14 2.18-11.76q.21-.84.8-1.3t1.51-.46h5.38v13.57h11.5v7.39h-11.5v23.35q0 2.02.98 3.15.99 1.13 2.71 1.13.97 0 1.62-.23t1.13-.48q.49-.25.86-.48.38-.23.76-.23.46 0 .76.23.29.23.63.69l3.1 5.04q-2.26 1.89-5.2 2.86-2.94.96-6.09.96m25.07-27.17h19.57q0-2.02-.56-3.8-.57-1.79-1.71-3.13-1.13-1.35-2.87-2.12-1.75-.78-4.06-.78-4.49 0-7.07 2.56-2.59 2.56-3.3 7.27m26.46 6.26h-26.67q.25 3.31 1.18 5.73.92 2.41 2.43 3.99 1.51 1.57 3.59 2.35t4.6.78 4.35-.59 3.19-1.3q1.37-.72 2.4-1.3 1.02-.59 1.99-.59 1.3 0 1.93.96l2.98 3.78q-1.72 2.02-3.86 3.38-2.14 1.37-4.47 2.19t-4.75 1.15q-2.41.34-4.68.34-4.5 0-8.36-1.49t-6.72-4.41-4.49-7.23q-1.64-4.3-1.64-9.97 0-4.41 1.43-8.3 1.42-3.88 4.09-6.76 2.67-2.87 6.51-4.55t8.67-1.68q4.08 0 7.52 1.3 3.45 1.3 5.92 3.8 2.48 2.5 3.89 6.13t1.41 8.3q0 2.35-.51 3.17-.5.82-1.93.82m19.19-20.96.72 3.4q1.3-1.3 2.75-2.42 1.45-1.11 3.07-1.89 1.61-.77 3.46-1.21t4.03-.44q3.53 0 6.26 1.19 2.73 1.2 4.56 3.36 1.82 2.17 2.77 5.17.94 3 .94 6.61v27.43h-10.37v-27.43q0-3.94-1.81-6.11-1.8-2.16-5.5-2.16-2.69 0-5.04 1.22t-4.45 3.32v31.16h-10.37v-43.09h6.34q2.01 0 2.64 1.89m67.04 2.77-2.36 3.74q-.42.67-.88.94-.46.28-1.17.28-.76 0-1.62-.42t-2-.95q-1.13-.52-2.58-.94t-3.42-.42q-3.07 0-4.81 1.3t-1.74 3.4q0 1.39.9 2.33.9.95 2.39 1.66t3.38 1.28 3.85 1.24q1.95.67 3.84 1.53t3.38 2.19q1.49 1.32 2.4 3.17.9 1.85.9 4.45 0 3.11-1.11 5.73-1.12 2.63-3.3 4.54-2.19 1.91-5.4 2.98t-7.41 1.07q-2.23 0-4.35-.4t-4.07-1.11q-1.96-.71-3.61-1.68-1.66-.97-2.92-2.1l2.39-3.95q.46-.71 1.09-1.09t1.6-.38q.96 0 1.83.55.86.54 1.99 1.17t2.67 1.18q1.53.55 3.88.55 1.85 0 3.17-.45 1.33-.44 2.19-1.15t1.26-1.66q.4-.94.4-1.95 0-1.51-.91-2.48-.9-.97-2.39-1.68t-3.4-1.28-3.91-1.24q-1.99-.67-3.9-1.57-1.92-.91-3.41-2.29-1.49-1.39-2.39-3.41-.9-2.01-.9-4.87 0-2.64 1.05-5.04 1.05-2.39 3.08-4.18 2.04-1.78 5.09-2.85 3.04-1.07 7.03-1.07 4.45 0 8.11 1.47 3.65 1.47 6.09 3.86m8.61-4.66h10.41v43.09h-10.41zm11.84-12.56q0 1.34-.55 2.52-.54 1.18-1.44 2.06-.91.88-2.13 1.4-1.21.53-2.6.53-1.34 0-2.54-.53-1.2-.52-2.08-1.4t-1.41-2.06q-.52-1.18-.52-2.52 0-1.39.52-2.6.53-1.22 1.41-2.1.88-.89 2.08-1.41 1.2-.53 2.54-.53 1.39 0 2.6.53 1.22.52 2.13 1.41.9.88 1.44 2.1.55 1.21.55 2.6m28.22 11.89q4.79 0 8.72 1.55t6.72 4.41 4.3 6.97q1.52 4.12 1.52 9.2 0 5.12-1.52 9.24-1.51 4.12-4.3 7.01-2.79 2.9-6.72 4.46-3.93 1.55-8.72 1.55-4.83 0-8.77-1.55-3.95-1.56-6.74-4.46-2.8-2.89-4.33-7.01t-1.53-9.24q0-5.08 1.53-9.2 1.53-4.11 4.33-6.97 2.79-2.86 6.74-4.41 3.94-1.55 8.77-1.55m0 36.41q5.38 0 7.96-3.61 2.59-3.61 2.59-10.59 0-6.97-2.59-10.62-2.58-3.66-7.96-3.66-5.46 0-8.08 3.68-2.63 3.67-2.63 10.6t2.63 10.57q2.62 3.63 8.08 3.63m38.18-33.85.72 3.4q1.3-1.3 2.75-2.42 1.45-1.11 3.06-1.89 1.62-.77 3.47-1.21t4.03-.44q3.53 0 6.26 1.19 2.73 1.2 4.56 3.36 1.82 2.17 2.77 5.17.94 3 .94 6.61v27.43h-10.37v-27.43q0-3.94-1.81-6.11-1.8-2.16-5.5-2.16-2.69 0-5.04 1.22t-4.45 3.32v31.16h-10.38v-43.09h6.35q2.01 0 2.64 1.89m67.03 2.77-2.35 3.74q-.42.67-.88.94-.46.28-1.18.28-.75 0-1.61-.42t-2-.95q-1.13-.52-2.58-.94t-3.42-.42q-3.07 0-4.81 1.3-1.75 1.3-1.75 3.4 0 1.39.91 2.33.9.95 2.39 1.66t3.38 1.28 3.85 1.24q1.95.67 3.84 1.53t3.38 2.19q1.49 1.32 2.39 3.17.91 1.85.91 4.45 0 3.11-1.12 5.73-1.11 2.63-3.29 4.54-2.19 1.91-5.4 2.98t-7.41 1.07q-2.23 0-4.35-.4t-4.07-1.11q-1.96-.71-3.62-1.68t-2.92-2.1l2.4-3.95q.46-.71 1.09-1.09t1.6-.38q.96 0 1.82.55.86.54 2 1.17 1.13.63 2.67 1.18 1.53.55 3.88.55 1.85 0 3.17-.45 1.32-.44 2.19-1.15.86-.71 1.26-1.66.39-.94.39-1.95 0-1.51-.9-2.48t-2.39-1.68-3.4-1.28q-1.92-.57-3.91-1.24-2-.67-3.91-1.57-1.91-.91-3.4-2.29-1.49-1.39-2.39-3.41-.91-2.01-.91-4.87 0-2.64 1.05-5.04 1.05-2.39 3.09-4.18 2.04-1.78 5.08-2.85 3.05-1.07 7.04-1.07 4.45 0 8.1 1.47 3.66 1.47 6.09 3.86"/></svg>